<?xml version="1.0" encoding="UTF-8"?>
<svg width="19px" height="6px" viewBox="0 0 19 6" version="1.1" xmlns="http://www.w3.org/2000/svg" xmlns:xlink="http://www.w3.org/1999/xlink">
    <!-- Generator: Sketch 62 (91390) - https://sketch.com -->
    <title>add-to-collection-disabled</title>
    <desc>Created with Sketch.</desc>
    <g id="ICONIC-VIEW" stroke="none" stroke-width="1" fill="none" fill-rule="evenodd">
        <path d="M0.949391481,5.850001 C1.21055823,5.850001 1.47029784,5.74439259 1.6575387,5.53317577 C3.63841001,3.32110766 6.47756374,2.05095243 9.44601642,2.05095243 C11.6058512,2.05095243 13.6906183,2.72170857 15.4400074,3.94933501 L15.1451601,3.94933501 C14.6208286,3.94933501 14.1952553,4.37433751 14.1952553,4.89981072 C14.1952553,5.4249985 14.6208286,5.850001 15.1451601,5.850001 L17.9948747,5.850001 C18.5194916,5.850001 18.9447796,5.4249985 18.9447796,4.89981072 L18.9447796,2.05095243 C18.9447796,1.52576465 18.5194916,1.10047672 17.9948747,1.10047672 C17.4705432,1.10047672 17.0449698,1.52576465 17.0449698,2.05095243 L17.0449698,2.77907962 C14.8788557,1.08335103 12.2146694,0.150001005 9.44601642,0.150001005 C5.93753369,0.150001005 2.58289674,1.65135303 0.242100545,4.26587482 C-0.107548929,4.65691137 -0.0747246931,5.25916475 0.316311862,5.60738708 C0.497558732,5.77008112 0.723903249,5.850001 0.949391481,5.850001 L0.949391481,5.850001 Z" id="add-to-collection-disabled" fill="#E2E2E2"></path>
    </g>
</svg>