<?xml version="1.0" encoding="UTF-8"?>
<svg width="19px" height="7px" viewBox="0 0 19 7" version="1.1" xmlns="http://www.w3.org/2000/svg" xmlns:xlink="http://www.w3.org/1999/xlink">
    <!-- Generator: Sketch 62 (91390) - https://sketch.com -->
    <title>add-to-collection</title>
    <desc>Created with Sketch.</desc>
    <g id="ICONIC-VIEW" stroke="none" stroke-width="1" fill="none" fill-rule="evenodd">
        <path d="M0.949391481,6.35 C1.21055823,6.35 1.47029784,6.24439159 1.6575387,6.03317476 C3.63841001,3.82110666 6.47756374,2.55095143 9.44601642,2.55095143 C11.6058512,2.55095143 13.6906183,3.22170756 15.4400074,4.449334 L15.1451601,4.449334 C14.6208286,4.449334 14.1952553,4.8743365 14.1952553,5.39980971 C14.1952553,5.9249975 14.6208286,6.35 15.1451601,6.35 L17.9948747,6.35 C18.5194916,6.35 18.9447796,5.9249975 18.9447796,5.39980971 L18.9447796,2.55095143 C18.9447796,2.02576365 18.5194916,1.60047571 17.9948747,1.60047571 C17.4705432,1.60047571 17.0449698,2.02576365 17.0449698,2.55095143 L17.0449698,3.27907862 C14.8788557,1.58335003 12.2146694,0.65 9.44601642,0.65 C5.93753369,0.65 2.58289674,2.15135203 0.242100545,4.76587381 C-0.107548929,5.15691037 -0.0747246931,5.75916375 0.316311862,6.10738608 C0.497558732,6.27008012 0.723903249,6.35 0.949391481,6.35 L0.949391481,6.35 Z" id="add-to-collection" fill="#000000"></path>
    </g>
</svg>