<?xml version="1.0" encoding="UTF-8"?>
<svg width="13px" height="11px" viewBox="0 0 13 11" version="1.1" xmlns="http://www.w3.org/2000/svg" xmlns:xlink="http://www.w3.org/1999/xlink">
    <!-- Generator: Sketch 58 (84663) - https://sketch.com -->
    <title>add-to-appendeix-2</title>
    <desc>Created with Sketch.</desc>
    <g id="Page-1" stroke="none" stroke-width="1" fill="none" fill-rule="evenodd">
        <path d="M9.87022583,0 C9.90689249,0 9.98022583,0 10.0168925,0.0366666667 C10.0535592,0.0366666667 10.0902258,0.0733333333 10.1268925,0.11 L10.1268925,0.11 L12.6935592,2.67666667 C12.7302258,2.71333333 12.7302258,2.75 12.7668925,2.78666667 C12.8035592,2.82333333 12.8035592,2.89666667 12.8035592,2.93333333 L12.8035592,2.93333333 L12.8035592,10.6333333 C12.8035592,10.8533333 12.6568925,11 12.4368925,11 L12.4368925,11 L5.10355916,11 C4.88355916,11 4.73689249,10.8533333 4.73689249,10.6333333 L4.73689249,10.6333333 L4.736,8.25 L3.55817298,8.25024687 C3.40177811,8.25024687 3.27122598,8.13924411 3.24098556,7.99170753 L3.23438403,7.92645792 C3.23445277,7.74778966 3.37950472,7.60273771 3.55817298,7.60266897 L3.55817298,7.60266897 L4.736,7.602 L4.736,6.955 L1.61757036,6.95584725 C0.77483303,6.95584725 0.0804873045,6.30832027 0.00651794298,5.48525106 L4.8784333e-07,5.33827739 C-0.000686962164,4.44665473 0.725260246,3.72070752 1.61757036,3.72070752 L1.61757036,3.72070752 L4.736,3.72 L4.73689249,0.366666667 C4.73689249,0.174166667 4.84918416,0.0378125 5.02463989,0.00673177083 L5.10355916,0 Z M9.50355916,0.733333333 L5.47022583,0.733333333 L5.47,3.72 L8.08778108,3.72063877 C8.62558086,3.72069988 9.13508146,3.90647094 9.54197718,4.24806551 L9.68960834,4.38340933 C10.117821,4.81162193 10.3529976,5.38089929 10.3529976,5.98585529 C10.3529976,6.5908113 10.1178897,7.15864501 9.68960834,7.58692636 C9.26201444,8.01452027 8.69349328,8.25031562 8.08853728,8.25031562 L8.08853728,8.25031562 L5.47,8.25 L5.47022583,10.2666667 L12.0702258,10.2666667 L12.0702258,3.3 L9.87022583,3.3 C9.65022583,3.3 9.50355916,3.15333333 9.50355916,2.93333333 L9.50355916,2.93333333 L9.50355916,0.733333333 Z M8.08853728,4.36759798 L5.47,4.367 L5.47,5.014 L8.08778108,5.01441969 C8.31125962,5.01447697 8.51702678,5.09039246 8.68085471,5.21714265 L8.77392493,5.29909274 C8.94991214,5.47507994 9.05921669,5.71774979 9.05852924,5.98516784 C9.05921669,6.2443365 8.95816154,6.48838125 8.77461238,6.6719304 C8.59106323,6.85547955 8.34770593,6.95584725 8.08784983,6.95584725 L8.08784983,6.95584725 L5.47,6.955 L5.47,7.602 L8.08784983,7.60342516 C8.46620512,7.60282364 8.82461256,7.47374524 9.11273534,7.2370523 L9.23176664,7.12908466 C9.53699444,6.82385685 9.70541969,6.4175739 9.70610714,5.98516784 C9.70610714,5.55344924 9.53768189,5.14716628 9.23176664,4.84125103 C8.92653884,4.53602323 8.52025588,4.36759798 8.08853728,4.36759798 L8.08853728,4.36759798 Z M4.736,4.367 L1.61688291,4.36759798 C1.08211554,4.36752923 0.646890945,4.80275383 0.646203495,5.33827739 C0.6468222,5.8737322 1.0820468,6.3089568 1.61688291,6.3089568 L1.61688291,6.3089568 L4.736,6.308 L4.736,5.662 L3.55892918,5.66206634 C3.4025343,5.66206634 3.27192954,5.55101094 3.24172202,5.40350726 L3.23514022,5.33827739 C3.23514022,5.15954038 3.38019217,5.01448843 3.55892918,5.01448843 L3.55892918,5.01448843 L4.736,5.014 L4.736,4.367 Z M8.08784983,5.66192885 L5.47,5.662 L5.47,6.308 L8.08853728,6.3089568 C8.1535013,6.3089568 8.21498511,6.29000896 8.26747837,6.25472344 L8.31677068,6.2140887 C8.37795373,6.15290564 8.41163878,6.07109909 8.41170753,5.98578655 C8.41232623,5.80643084 8.26658683,5.66206634 8.08784983,5.66192885 L8.08784983,5.66192885 Z M10.2368925,1.24666667 L10.2368925,2.56666667 L11.5568925,2.56666667 L10.2368925,1.24666667 Z" id="add-to-appendeix-2" fill="#000000"></path>
    </g>
</svg>