<?xml version="1.0" encoding="UTF-8"?>
<svg width="21px" height="14px" viewBox="0 0 21 14" version="1.1" xmlns="http://www.w3.org/2000/svg" xmlns:xlink="http://www.w3.org/1999/xlink">
    <!-- Generator: Sketch 54 (76480) - https://sketchapp.com -->
    <title>Administrators</title>
    <desc>Created with Sketch.</desc>
    <g id="Admin" stroke="none" stroke-width="1" fill="none" fill-rule="evenodd">
        <g id="admin-edit-FAQ--2-V2" transform="translate(-11.000000, -211.000000)" fill="#FFFFFF" fill-rule="nonzero">
            <g id="Group-7" transform="translate(0.000000, 150.000000)">
                <g id="Group-6-Copy-2">
                    <g id="Group-88" transform="translate(11.000000, 61.000000)">
                        <path d="M13.2615953,12.25 C13.600305,12.39 13.7357888,12.81 13.600305,13.16 C13.4648211,13.44 13.2615953,13.58 12.9906276,13.58 C12.8551437,13.58 12.7874018,13.58 12.3132082,13.51 C11.6357888,13.16 11.0938534,13.09 10.4841759,13.09 C9.94224046,13.02 9.40030498,13.02 8.92611143,12.74 C8.1132082,12.25 7.70675659,10.99 7.63901466,10.57 C7.50353079,10.01 7.43578885,9.31 7.77449853,8.82 C8.24869208,8.19 8.72288562,7 8.99385337,5.95 C9.33256304,4.34 9.26482111,3.15 8.65514369,2.38 C7.9099824,1.47 6.62288562,1.47 6.62288562,1.47 C6.62288562,1.47 5.33578885,1.47 4.59062756,2.38 C3.98095014,3.15 3.84546627,4.34 4.25191788,5.95 C4.52288562,6.93 4.99707917,8.19 5.47127272,8.82 C5.8099824,9.24 5.74224046,10.01 5.60675659,10.57 C5.53901466,10.92 5.20030498,12.25 4.31965982,12.74 C3.84546627,13.02 3.30353079,13.09 2.7615953,13.09 C2.21965982,13.16 1.6099824,13.16 0.932563043,13.51 C0.864821108,13.58 0.729337237,13.58 0.661595301,13.58 C0.390627559,13.58 0.187401753,13.44 0.051917882,13.16 C-0.083565989,12.81 0.051917882,12.39 0.390627559,12.25 C1.33901466,11.83 2.15191788,11.76 2.7615953,11.76 C3.23578885,11.76 3.57449853,11.76 3.77772433,11.62 C4.18417595,11.41 4.52288562,10.08 4.45514369,9.66 C3.9132082,8.82 3.37127272,7.49 3.10030498,6.3 C2.62611143,4.2 2.82933724,2.59 3.7099824,1.47 C4.8615953,-1.92734717e-13 6.69062756,-1.92734717e-13 6.82611143,-1.92734717e-13 C6.9615953,-1.92734717e-13 8.79062756,-1.92734717e-13 9.94224046,1.47 C10.8228856,2.59 11.0261114,4.2 10.5519179,6.3 C10.2809501,7.49 9.73901466,8.89 9.19707917,9.66 C9.0615953,10.08 9.46804691,11.41 9.87449853,11.62 C10.1454663,11.69 10.4841759,11.76 10.8906276,11.76 C11.5680469,11.76 12.3132082,11.83 13.2615953,12.25 Z M20.1035308,10.92 C20.4422405,11.13 20.5099824,11.55 20.3744985,12.04 C20.2390147,12.25 19.9680469,12.39 19.7648211,12.39 C19.6293372,12.39 19.5615953,12.32 19.4261114,12.25 C19.1551437,12.04 18.6809501,11.97 18.2067566,11.9 C17.6648211,11.83 17.1228856,11.76 16.716434,11.48 C16.6486921,11.41 16.6486921,11.41 16.6486921,11.41 C15.700305,10.64 15.4970792,9.03 15.9712727,8.33 C16.3099824,7.91 16.6486921,6.93 16.8519179,6.16 C17.1228856,4.97 17.0551437,4.13 16.6486921,3.57 C16.1067566,2.87 15.0906276,2.87 15.0228856,2.87 C14.9551437,2.87 13.9390147,2.87 13.3970792,3.57 C12.9906276,4.13 12.9228856,4.97 13.1938534,6.16 C13.3293372,6.93 13.7357888,7.84 14.0744985,8.33 C14.616434,9.1 14.3454663,10.71 13.3970792,11.41 C13.2615953,11.48 13.1261114,11.55 12.9906276,11.55 C12.7874018,11.55 12.5841759,11.48 12.4486921,11.27 C12.2454663,10.99 12.3132082,10.5 12.5841759,10.29 C12.9228856,9.94 12.9906276,9.24 12.9228856,9.1 C12.516434,8.47 12.0422405,7.42 11.8390147,6.44 C11.432563,4.76 11.6357888,3.5 12.3132082,2.59 C13.3293372,1.33 14.8874018,1.33 15.0228856,1.33 C15.1583695,1.33 16.716434,1.33 17.732563,2.59 C18.4099824,3.5 18.6132082,4.83 18.2067566,6.44 C18.0035308,7.42 17.5293372,8.54 17.1228856,9.1 C17.0551437,9.24 17.1228856,9.94 17.4615953,10.22 C17.6648211,10.29 18.0712727,10.36 18.4099824,10.43 C18.9519179,10.5 19.5615953,10.57 20.1035308,10.92 Z" id="Administrators"></path>
                    </g>
                </g>
            </g>
        </g>
    </g>
</svg>