<?xml version="1.0" encoding="utf-8"?>
<!-- Generator: Adobe Illustrator 19.2.0, SVG Export Plug-In . SVG Version: 6.00 Build 0)  -->
<svg version="1.1" xmlns="http://www.w3.org/2000/svg" xmlns:xlink="http://www.w3.org/1999/xlink" x="0px" y="0px"
	 viewBox="0 0 52 52" style="enable-background:new 0 0 52 52;" xml:space="preserve">
<g id="Guides">
</g>
<g id="O_Layer">
	<path d="M26,4c12.1,0,22,9.9,22,22s-9.9,22-22,22C13.9,48,4,38.1,4,26S13.9,4,26,4 M26,2C12.7,2,2,12.7,2,26s10.7,24,24,24
		c13.3,0,24-10.7,24-24S39.3,2,26,2L26,2z M37.6,27l-6.3,6.3c-0.4,0.4-0.4,1,0,1.4c0.2,0.2,0.5,0.3,0.7,0.3s0.5-0.1,0.7-0.3l8-8
		c0.1-0.1,0.2-0.2,0.2-0.3c0.1-0.2,0.1-0.5,0-0.8c-0.1-0.1-0.1-0.2-0.2-0.3l-8-8c-0.4-0.4-1-0.4-1.4,0s-0.4,1,0,1.4l6.3,6.3H14.4
		l6.3-6.3c0.4-0.4,0.4-1,0-1.4C20.5,17.1,20.3,17,20,17s-0.5,0.1-0.7,0.3l-8,8c-0.1,0.1-0.2,0.2-0.2,0.3c-0.1,0.2-0.1,0.5,0,0.8
		c0.1,0.1,0.1,0.2,0.2,0.3l8,8c0.4,0.4,1,0.4,1.4,0s0.4-1,0-1.4L14.4,27H37.6z"/>
</g>
</svg>
