<?xml version="1.0" encoding="UTF-8"?>
<svg width="11px" height="15px" viewBox="0 0 11 15" version="1.1" xmlns="http://www.w3.org/2000/svg" xmlns:xlink="http://www.w3.org/1999/xlink">
    <!-- Generator: Sketch 55 (78076) - https://sketchapp.com -->
    <title>Assign to_clicked</title>
    <desc>Created with Sketch.</desc>
    <g id="Page-1" stroke="none" stroke-width="1" fill="none" fill-rule="evenodd">
        <g id="Icons-Used-Copy" transform="translate(-351.000000, -457.000000)" fill="#000000">
            <path d="M354.291194,467.355628 L354.291194,464.970099 C354.291194,464.737103 354.48028,464.548017 354.713277,464.548017 L357.098806,464.548017 C357.331803,464.548017 357.519992,464.736206 357.520082,464.969293 C357.519992,465.085702 357.473393,465.191446 357.396325,465.268515 C357.320153,465.344687 357.214408,465.391286 357.097999,465.391376 L355.730398,465.391286 L357.993155,467.654044 C358.158045,467.818934 358.158045,468.085984 357.993155,468.250874 C357.828265,468.415764 357.561215,468.415764 357.396325,468.250874 L355.133567,465.988116 L355.133657,467.355718 C355.133567,467.588625 354.945378,467.776815 354.71247,467.776905 C354.479384,467.776815 354.291194,467.588625 354.291194,467.355628 Z M361.699644,461.136901 C361.722657,461.194435 361.735603,461.256285 361.735603,461.321011 L361.735603,471.373749 C361.735603,471.638408 361.521286,471.851287 361.258065,471.851287 L351.684303,471.851287 C351.419644,471.851287 351.205328,471.638408 351.205328,471.373749 L351.205328,457.969619 C351.205328,457.706398 351.419644,457.492082 351.684303,457.492082 L357.906673,457.492082 C357.9714,457.492082 358.033249,457.505027 358.090784,457.528041 C358.149757,457.552637 358.201538,457.588452 358.246128,457.631747 L361.596081,460.981557 C361.639232,461.026146 361.675191,461.077928 361.699644,461.136901 Z M358.385649,459.126065 L358.385649,460.842036 L360.101619,460.842036 L358.385649,459.126065 Z M352.163279,470.894773 L360.779089,470.894773 L360.779089,461.799987 L357.906673,461.799987 C357.642014,461.799987 357.427697,461.585671 357.427697,461.321011 L357.427697,458.448595 L352.163279,458.448595 L352.163279,470.894773 Z" id="Assign-to_clicked"></path>
        </g>
    </g>
</svg>