<?xml version="1.0" encoding="UTF-8"?>
<svg width="38px" height="38px" viewBox="0 0 38 38" version="1.1" xmlns="http://www.w3.org/2000/svg" xmlns:xlink="http://www.w3.org/1999/xlink">
    <!-- Generator: Sketch 59.1 (86144) - https://sketch.com -->
    <title>Associate_active</title>
    <desc>Created with Sketch.</desc>
    <g id="Project-Management" stroke="none" stroke-width="1" fill="none" fill-rule="evenodd">
        <path d="M19.1895805,0.279999466 C29.5115548,0.279999466 37.8791611,8.6480737 37.8791611,18.969814 C37.8791611,29.2913203 29.5115548,37.6568205 19.1895805,37.6568205 C8.86784024,37.6568205 0.5,29.2913203 0.5,18.969814 C0.5,8.6480737 8.86784024,0.279999466 19.1895805,0.279999466 Z M19.1895805,1.83609951 C9.74300026,1.83609951 2.05844004,9.52299973 2.05844004,18.969814 C2.05844004,28.4163943 9.74300026,36.1007205 19.1895805,36.1007205 C28.6361608,36.1007205 36.320721,28.4163943 36.320721,18.969814 C36.320721,9.52299973 28.6361608,1.83609951 19.1895805,1.83609951 Z M27.5246666,10.4028398 C28.8140066,10.4028398 29.8625607,11.4511598 29.8625607,12.7404998 C29.8625607,14.0274999 28.8140066,15.0758199 27.5246666,15.0758199 C26.5114466,15.0758199 25.6550065,14.4229599 25.3320865,13.5173798 L25.3320865,13.5173798 L19.7371464,13.5173798 C19.1100264,13.5173798 18.9696264,13.9479399 18.9602664,14.3059599 L18.9602664,14.3059599 L18.9602664,18.19036 L25.3320865,18.19036 C25.6550065,17.28712 26.5114466,16.6342599 27.5246666,16.6342599 C28.8140066,16.6342599 29.8625607,17.68024 29.8625607,18.96958 C29.8625607,20.25892 28.8140066,21.3049001 27.5246666,21.3049001 C26.5114466,21.3049001 25.6550065,20.65204 25.3320865,19.7488 L25.3320865,19.7488 L18.9602664,19.7488 L18.9602664,23.6425601 C18.9602664,24.3492402 19.5686664,24.4171002 19.7535264,24.4217802 L19.7535264,24.4217802 L25.3320865,24.4217802 C25.6550065,23.5162001 26.5114466,22.8633401 27.5246666,22.8633401 C28.8140066,22.8633401 29.8625607,23.9116601 29.8625607,25.1986602 C29.8625607,26.4880002 28.8140066,27.5363202 27.5246666,27.5363202 C26.5114466,27.5363202 25.6550065,26.8834602 25.3320865,25.9778802 L25.3320865,25.9778802 L19.7371464,25.9778802 C18.7894464,25.9591602 17.4020603,25.3203402 17.4020603,23.6425601 L17.4020603,23.6425601 L17.4020603,19.7488 L11.0276661,19.7488 C10.7070861,20.65204 9.8506461,21.3049001 8.83508607,21.3049001 C7.54808603,21.3049001 6.5,20.25892 6.5,18.96958 C6.5,17.68024 7.54808603,16.6342599 8.83508607,16.6342599 C9.8506461,16.6342599 10.7070861,17.28712 11.0276661,18.19036 L11.0276661,18.19036 L17.4020603,18.19036 L17.4020603,14.2965999 C17.4020603,13.3582598 18.0242663,11.9612798 19.7371464,11.9612798 L19.7371464,11.9612798 L25.3320865,11.9612798 C25.6550065,11.0556998 26.5114466,10.4028398 27.5246666,10.4028398 Z M27.5241986,24.1105602 C26.9246906,24.1105602 26.4365666,24.5986842 26.4365666,25.1981922 C26.4365666,25.8009762 26.9246906,26.2891002 27.5241986,26.2891002 C28.1269826,26.2891002 28.6151066,25.8009762 28.6151066,25.1981922 C28.6151066,24.5986842 28.1269826,24.1105602 27.5241986,24.1105602 Z M8.83461807,17.878672 C8.23511006,17.878672 7.74698605,18.370072 7.74698605,18.96958 C7.74698605,19.572364 8.23511006,20.060488 8.83461807,20.060488 C9.43740207,20.060488 9.92552608,19.572364 9.92552608,18.96958 C9.92552608,18.370072 9.43740207,17.878672 8.83461807,17.878672 Z M27.5241986,17.878672 C26.9246906,17.878672 26.4365666,18.370072 26.4365666,18.96958 C26.4365666,19.572364 26.9246906,20.060488 27.5241986,20.060488 C28.1269826,20.060488 28.6151066,19.572364 28.6151066,18.96958 C28.6151066,18.370072 28.1269826,17.878672 27.5241986,17.878672 Z M27.5241986,11.6500598 C26.9246906,11.6500598 26.4365666,12.1381838 26.4365666,12.7409678 C26.4365666,13.3404758 26.9246906,13.8285998 27.5241986,13.8285998 C28.1269826,13.8285998 28.6151066,13.3404758 28.6151066,12.7409678 C28.6151066,12.1381838 28.1269826,11.6500598 27.5241986,11.6500598 Z" id="Associate_active" fill="#000000"></path>
    </g>
</svg>