<?xml version="1.0" encoding="UTF-8"?>
<svg width="38px" height="38px" viewBox="0 0 38 38" version="1.1" xmlns="http://www.w3.org/2000/svg" xmlns:xlink="http://www.w3.org/1999/xlink">
    <!-- Generator: Sketch 59.1 (86144) - https://sketch.com -->
    <title>Associate_disabled</title>
    <desc>Created with Sketch.</desc>
    <g id="Project-Management" stroke="none" stroke-width="1" fill="none" fill-rule="evenodd">
        <path d="M19.1895805,0.504178934 C29.5115548,0.504178934 37.8791611,8.87225317 37.8791611,19.1939935 C37.8791611,29.5154998 29.5115548,37.881 19.1895805,37.881 C8.86784024,37.881 0.5,29.5154998 0.5,19.1939935 C0.5,8.87225317 8.86784024,0.504178934 19.1895805,0.504178934 Z M19.1895805,2.06027898 C9.74300026,2.06027898 2.05844004,9.7471792 2.05844004,19.1939935 C2.05844004,28.6405737 9.74300026,36.3249 19.1895805,36.3249 C28.6361608,36.3249 36.320721,28.6405737 36.320721,19.1939935 C36.320721,9.7471792 28.6361608,2.06027898 19.1895805,2.06027898 Z M27.5246666,10.6270192 C28.8140066,10.6270192 29.8625607,11.6753393 29.8625607,12.9646793 C29.8625607,14.2516793 28.8140066,15.2999994 27.5246666,15.2999994 C26.5114466,15.2999994 25.6550065,14.6471393 25.3320865,13.7415593 L25.3320865,13.7415593 L19.7371464,13.7415593 C19.1100264,13.7415593 18.9696264,14.1721193 18.9602664,14.5301393 L18.9602664,14.5301393 L18.9602664,18.4145394 L25.3320865,18.4145394 C25.6550065,17.5112994 26.5114466,16.8584394 27.5246666,16.8584394 C28.8140066,16.8584394 29.8625607,17.9044194 29.8625607,19.1937595 C29.8625607,20.4830995 28.8140066,21.5290795 27.5246666,21.5290795 C26.5114466,21.5290795 25.6550065,20.8762195 25.3320865,19.9729795 L25.3320865,19.9729795 L18.9602664,19.9729795 L18.9602664,23.8667396 C18.9602664,24.5734196 19.5686664,24.6412796 19.7535264,24.6459596 L19.7535264,24.6459596 L25.3320865,24.6459596 C25.6550065,23.7403796 26.5114466,23.0875196 27.5246666,23.0875196 C28.8140066,23.0875196 29.8625607,24.1358396 29.8625607,25.4228396 C29.8625607,26.7121797 28.8140066,27.7604997 27.5246666,27.7604997 C26.5114466,27.7604997 25.6550065,27.1076397 25.3320865,26.2020597 L25.3320865,26.2020597 L19.7371464,26.2020597 C18.7894464,26.1833397 17.4020603,25.5445196 17.4020603,23.8667396 L17.4020603,23.8667396 L17.4020603,19.9729795 L11.0276661,19.9729795 C10.7070861,20.8762195 9.8506461,21.5290795 8.83508607,21.5290795 C7.54808603,21.5290795 6.5,20.4830995 6.5,19.1937595 C6.5,17.9044194 7.54808603,16.8584394 8.83508607,16.8584394 C9.8506461,16.8584394 10.7070861,17.5112994 11.0276661,18.4145394 L11.0276661,18.4145394 L17.4020603,18.4145394 L17.4020603,14.5207793 C17.4020603,13.5824393 18.0242663,12.1854593 19.7371464,12.1854593 L19.7371464,12.1854593 L25.3320865,12.1854593 C25.6550065,11.2798792 26.5114466,10.6270192 27.5246666,10.6270192 Z M27.5241986,24.3347396 C26.9246906,24.3347396 26.4365666,24.8228636 26.4365666,25.4223716 C26.4365666,26.0251557 26.9246906,26.5132797 27.5241986,26.5132797 C28.1269826,26.5132797 28.6151066,26.0251557 28.6151066,25.4223716 C28.6151066,24.8228636 28.1269826,24.3347396 27.5241986,24.3347396 Z M8.83461807,18.1028515 C8.23511006,18.1028515 7.74698605,18.5942515 7.74698605,19.1937595 C7.74698605,19.7965435 8.23511006,20.2846675 8.83461807,20.2846675 C9.43740207,20.2846675 9.92552608,19.7965435 9.92552608,19.1937595 C9.92552608,18.5942515 9.43740207,18.1028515 8.83461807,18.1028515 Z M27.5241986,18.1028515 C26.9246906,18.1028515 26.4365666,18.5942515 26.4365666,19.1937595 C26.4365666,19.7965435 26.9246906,20.2846675 27.5241986,20.2846675 C28.1269826,20.2846675 28.6151066,19.7965435 28.6151066,19.1937595 C28.6151066,18.5942515 28.1269826,18.1028515 27.5241986,18.1028515 Z M27.5241986,11.8742393 C26.9246906,11.8742393 26.4365666,12.3623633 26.4365666,12.9651473 C26.4365666,13.5646553 26.9246906,14.0527793 27.5241986,14.0527793 C28.1269826,14.0527793 28.6151066,13.5646553 28.6151066,12.9651473 C28.6151066,12.3623633 28.1269826,11.8742393 27.5241986,11.8742393 Z" id="Associate_disabled" fill="#AEAEAE"></path>
    </g>
</svg>