<?xml version="1.0" encoding="UTF-8"?>
<svg width="13px" height="11px" viewBox="0 0 13 11" version="1.1" xmlns="http://www.w3.org/2000/svg" xmlns:xlink="http://www.w3.org/1999/xlink">
    <!-- Generator: Sketch 58 (84663) - https://sketch.com -->
    <title>attach-file-selected</title>
    <desc>Created with Sketch.</desc>
    <g id="Page-1" stroke="none" stroke-width="1" fill="none" fill-rule="evenodd">
        <path d="M12.2661384,0.668903642 C11.3999072,-0.198664336 9.98827121,-0.198664336 9.12070323,0.668903642 L2.82983281,6.95977407 C2.57718204,7.21242483 2.43815728,7.54661897 2.43815728,7.90353831 C2.43815728,8.26045764 2.57718204,8.59598856 2.82983281,8.84730255 C3.08916746,9.10797397 3.43138225,9.2376413 3.77359705,9.2376413 C4.11447507,9.2376413 4.45668986,9.10797397 4.71749497,8.84730255 L9.12070323,4.44396061 C9.29448418,4.27017966 9.29448418,3.9881198 9.12070323,3.81433885 C8.94692228,3.6405579 8.66486243,3.6405579 8.49108148,3.81433885 L4.08787322,8.21781447 C3.91395859,8.39146175 3.63189874,8.39279852 3.45811778,8.21781447 C3.37523764,8.13480065 3.32845046,8.02251142 3.32845046,7.90353831 C3.32845046,7.78456519 3.37390086,7.67361274 3.45811778,7.58939582 L9.75032498,1.29718862 C10.2703311,0.777182542 11.1166443,0.777182542 11.6378535,1.29718862 C12.1578595,1.81853147 12.1578595,2.6648447 11.6378535,3.1847171 L5.34564627,9.4769243 C4.92589843,9.89667214 4.36712584,10.1279345 3.77359705,10.1279345 C3.17873149,10.1279345 2.61995889,9.89667214 2.20021106,9.4769243 C1.78046322,9.05583969 1.54920088,8.49706709 1.54920088,7.90353831 C1.54920088,7.3101432 1.78046322,6.75123692 2.20021106,6.33015231 L6.60502345,1.92681037 C6.77867072,1.75302942 6.77867072,1.47096957 6.60502345,1.29718862 C6.43110882,1.12340767 6.14918265,1.12340767 5.9754017,1.29718862 L1.5705893,5.70186734 C0.982407622,6.29004902 0.658907698,7.0720633 0.658907698,7.90353831 C0.658907698,8.73635009 0.982407622,9.5170276 1.5705893,10.1052093 C2.15877098,10.693391 2.94091894,11.0182277 3.77359705,11.0182277 C4.60507206,11.0182277 5.38708634,10.693391 5.9754017,10.1052093 L12.2661384,3.81433885 C13.1337064,2.94677088 13.1337064,1.53513484 12.2661384,0.668903642" id="attach-file-selected" fill="#000000"></path>
    </g>
</svg>