<?xml version="1.0" encoding="UTF-8"?>
<svg width="13px" height="12px" viewBox="0 0 13 12" version="1.1" xmlns="http://www.w3.org/2000/svg" xmlns:xlink="http://www.w3.org/1999/xlink">
    <!-- Generator: Sketch 58 (84663) - https://sketch.com -->
    <title>attcach file</title>
    <desc>Created with Sketch.</desc>
    <g id="Page-1" stroke="none" stroke-width="1" fill="none" fill-rule="evenodd">
        <path d="M12.2661384,1.06258222 C11.3999072,0.195014246 9.98827121,0.195014246 9.12070323,1.06258222 L2.82983281,7.35345265 C2.57718204,7.60610341 2.43815728,7.94029755 2.43815728,8.29721689 C2.43815728,8.65413623 2.57718204,8.98966714 2.82983281,9.24098113 C3.08916746,9.50165256 3.43138225,9.63131988 3.77359705,9.63131988 C4.11447507,9.63131988 4.45668986,9.50165256 4.71749497,9.24098113 L9.12070323,4.83763919 C9.29448418,4.66385824 9.29448418,4.38179839 9.12070323,4.20801744 C8.94692228,4.03423648 8.66486243,4.03423648 8.49108148,4.20801744 L4.08787322,8.61149305 C3.91395859,8.78514033 3.63189874,8.7864771 3.45811778,8.61149305 C3.37523764,8.52847923 3.32845046,8.41619 3.32845046,8.29721689 C3.32845046,8.17824378 3.37390086,8.06729132 3.45811778,7.9830744 L9.75032498,1.6908672 C10.2703311,1.17086112 11.1166443,1.17086112 11.6378535,1.6908672 C12.1578595,2.21221005 12.1578595,3.05852328 11.6378535,3.57839568 L5.34564627,9.87060288 C4.92589843,10.2903507 4.36712584,10.5216131 3.77359705,10.5216131 C3.17873149,10.5216131 2.61995889,10.2903507 2.20021106,9.87060288 C1.78046322,9.44951827 1.54920088,8.89074568 1.54920088,8.29721689 C1.54920088,7.70382178 1.78046322,7.14491551 2.20021106,6.72383089 L6.60502345,2.32048895 C6.77867072,2.146708 6.77867072,1.86464815 6.60502345,1.6908672 C6.43110882,1.51708625 6.14918265,1.51708625 5.9754017,1.6908672 L1.5705893,6.09554592 C0.982407622,6.6837276 0.658907698,7.46574188 0.658907698,8.29721689 C0.658907698,9.13002868 0.982407622,9.91070618 1.5705893,10.4988879 C2.15877098,11.0870695 2.94091894,11.4119062 3.77359705,11.4119062 C4.60507206,11.4119062 5.38708634,11.0870695 5.9754017,10.4988879 L12.2661384,4.20801744 C13.1337064,3.34044946 13.1337064,1.92881343 12.2661384,1.06258222" id="attcach-file" fill="#AAAAAA"></path>
    </g>
</svg>