<?xml version="1.0" encoding="UTF-8"?>
<svg width="16px" height="16px" viewBox="0 0 16 16" version="1.1" xmlns="http://www.w3.org/2000/svg" xmlns:xlink="http://www.w3.org/1999/xlink">
    <!-- Generator: Sketch 55 (78076) - https://sketchapp.com -->
    <title>Attribute view_not selected</title>
    <desc>Created with Sketch.</desc>
    <g id="Page-1" stroke="none" stroke-width="1" fill="none" fill-rule="evenodd">
        <g id="Icons-Used-Copy" transform="translate(-440.000000, -219.000000)" fill="#ffffff">
            <g id="Group-9" transform="translate(384.975694, 211.645127)">
                <path d="M69.8408875,7.66588832 L56.1752659,7.66588832 C55.8318054,7.66588832 55.553677,7.94420333 55.553677,8.28747717 L55.553677,21.9530988 C55.553677,22.2965593 55.8318054,22.5746877 56.1752659,22.5746877 L69.8408875,22.5746877 C70.184348,22.5746877 70.4624764,22.2965593 70.4624764,21.9530988 L70.4624764,8.28747717 C70.4624764,7.94420333 70.184348,7.66588832 69.8408875,7.66588832 Z M56.7968547,21.3333766 L56.7968547,8.90906603 L69.2192987,8.90906603 L69.2192987,21.3333766 L56.7968547,21.3333766 Z M64.2771252,11.7662282 C64.2771252,12.3827771 64.7777562,12.8834082 65.3943051,12.8834082 C66.012534,12.8834082 66.5131651,12.3827771 66.5131651,11.7662282 C66.5131651,11.1496793 66.012534,10.6473683 65.3943051,10.6473683 C64.7777562,10.6473683 64.2771252,11.1496793 64.2771252,11.7662282 Z M64.2771252,15.121296 C64.2771252,15.7359969 64.7777562,16.2383079 65.3943051,16.2383079 C66.012534,16.2383079 66.5131651,15.7359969 66.5131651,15.121296 C66.5131651,14.504579 66.012534,14.0022681 65.3943051,14.0022681 C64.7777562,14.0022681 64.2771252,14.504579 64.2771252,15.121296 Z M64.2771252,18.4743478 C64.2771252,19.0908967 64.7777562,19.5932077 65.3943051,19.5932077 C66.012534,19.5932077 66.5131651,19.0908967 66.5131651,18.4743478 C66.5131651,17.8579668 66.012534,17.3571678 65.3943051,17.3571678 C64.7777562,17.3571678 64.2771252,17.8579668 64.2771252,18.4743478 Z M59.5863536,18.4743478 C59.5863536,19.0908967 60.0868166,19.5932077 60.7033655,19.5932077 C61.3215944,19.5932077 61.8222254,19.0908967 61.8222254,18.4743478 C61.8222254,17.8579668 61.3215944,17.3571678 60.7033655,17.3571678 C60.0868166,17.3571678 59.5863536,17.8579668 59.5863536,18.4743478 Z M59.5863536,15.121296 C59.5863536,15.7359969 60.0868166,16.2383079 60.7033655,16.2383079 C61.3215944,16.2383079 61.8222254,15.7359969 61.8222254,15.121296 C61.8222254,14.504579 61.3215944,14.0022681 60.7033655,14.0022681 C60.0868166,14.0022681 59.5863536,14.504579 59.5863536,15.121296 Z M59.5863536,11.7662282 C59.5863536,12.3827771 60.0868166,12.8834082 60.7033655,12.8834082 C61.3215944,12.8834082 61.8222254,12.3827771 61.8222254,11.7662282 C61.8222254,11.1496793 61.3215944,10.6473683 60.7033655,10.6473683 C60.0868166,10.6473683 59.5863536,11.1496793 59.5863536,11.7662282 Z" id="Attribute-view_not-selected"></path>
            </g>
        </g>
    </g>
</svg>