<?xml version="1.0" encoding="UTF-8"?>
<svg width="15px" height="15px" viewBox="0 0 15 15" version="1.1" xmlns="http://www.w3.org/2000/svg" xmlns:xlink="http://www.w3.org/1999/xlink">
    <!-- Generator: Sketch 54 (76480) - https://sketchapp.com -->
    <title>Audit Trail</title>
    <desc>Created with Sketch.</desc>
    <g id="Page-1" stroke="none" stroke-width="1" fill="none" fill-rule="evenodd">
        <g id="Icons-Used" transform="translate(-111.000000, -547.000000)" fill="#FFFFFF" fill-rule="nonzero">
            <path d="M125.394481,551.573613 C125.376985,551.40661 124.936415,547.47965 121.992546,547.47965 C121.990797,547.47965 121.990797,547.47965 121.990797,547.47965 C121.332327,547.47965 120.761335,547.703911 120.341601,548.179473 C119.180372,549.49164 119.463482,552.092118 119.500064,552.388112 C119.503245,552.41022 119.506585,552.430896 119.511197,552.453163 C119.689334,553.159348 120.268437,555.871162 120.27464,555.8982 C120.330308,556.157453 120.564112,556.337339 120.829727,556.316504 C121.710868,556.259245 123.594027,556.901969 124.241363,557.157882 C124.304984,557.18333 124.370194,557.194463 124.435405,557.194463 C124.51668,557.194463 124.596046,557.180149 124.6708,557.143567 C124.804403,557.078356 124.904605,556.962249 124.944367,556.817513 C125.369032,555.336752 125.396071,551.770836 125.397821,551.618148 C125.397821,551.599061 125.396071,551.592699 125.394481,551.573613 Z M124.048912,555.95864 C123.341137,555.709089 122.145076,555.33198 121.220992,555.263747 C121.052398,554.482809 120.694534,552.833294 120.546776,552.240036 C120.468682,551.541803 120.427488,549.67932 121.135104,548.879454 C121.357775,548.629586 121.629752,548.537337 121.990797,548.537337 C123.88509,548.537337 124.300212,551.354123 124.338384,551.65791 C124.335203,551.97283 124.303393,554.476447 124.048912,555.95864 Z M120.804279,557.326475 C120.543436,557.329656 120.323946,557.522108 120.287364,557.78136 L120.063103,559.354371 C119.897849,560.509079 120.704077,561.584261 121.858944,561.749674 C121.960577,561.763988 122.062369,561.77035 122.162571,561.77035 C122.617456,561.77035 123.058027,561.624024 123.428615,561.347435 C123.881909,561.006907 124.174562,560.512419 124.254087,559.952401 L124.403595,558.904258 C124.424272,558.767474 124.38928,558.6291 124.306574,558.516174 C123.706953,557.697222 122.552245,557.313751 120.804279,557.326475 Z M123.205944,559.802894 C123.166181,560.082982 123.020013,560.331101 122.794162,560.499695 C122.568151,560.66972 122.288221,560.741293 122.008292,560.70153 C121.430938,560.618983 121.02854,560.081232 121.109656,559.503879 L121.268707,558.390524 C122.256411,558.427106 122.945101,558.6291 123.322051,558.993326 L123.205944,559.802894 Z M114.914633,547.47965 L114.914633,547.47965 C111.969016,547.47965 111.528445,551.40661 111.51095,551.573613 C111.509359,551.592699 111.507769,551.587928 111.507769,551.607014 C111.509359,551.758112 111.536398,555.33039 111.961063,556.811151 C112.002416,556.955887 112.102618,557.075175 112.236221,557.140545 C112.309384,557.176968 112.388909,557.194463 112.470025,557.194463 C112.535395,557.194463 112.602037,557.18333 112.664067,557.159631 C113.312993,556.9034 115.188201,556.259245 116.075703,556.318253 C116.341318,556.338771 116.576713,556.159043 116.630949,555.901381 C116.637152,555.874502 117.216096,553.164279 117.394233,552.458094 C117.399005,552.437258 117.402186,552.422944 117.405526,552.400836 C117.441948,552.104843 117.725058,549.49164 116.563989,548.179473 C116.144095,547.703911 115.573103,547.47965 114.914633,547.47965 Z M116.358813,552.232083 C116.212646,552.823751 115.853032,554.487421 115.684439,555.26995 C114.760354,555.338342 113.564293,555.721813 112.856518,555.971364 C112.603628,554.489012 112.570227,551.969649 112.567046,551.65632 C112.605218,551.354123 113.010797,548.537337 114.914633,548.537337 C115.275678,548.537337 115.547655,548.631335 115.770326,548.880886 C116.478101,549.67932 116.436748,551.53226 116.358813,552.232083 Z M116.618066,557.78136 C116.581484,557.522108 116.361994,557.329656 116.10131,557.326475 C114.345232,557.315342 113.198477,557.697222 112.598856,558.517765 C112.51615,558.6291 112.482749,558.767474 112.501994,558.904258 L112.651343,559.952401 C112.730868,560.512419 113.025112,561.006907 113.476975,561.347435 C113.847563,561.624024 114.287974,561.77035 114.742859,561.77035 C114.843061,561.77035 114.944853,561.763988 115.046646,561.749674 C115.606504,561.668558 116.10131,561.375905 116.44152,560.92436 C116.780298,560.470906 116.923443,559.914229 116.842327,559.354371 L116.618066,557.78136 Z M115.59378,560.288157 C115.423596,560.51385 115.177067,560.661767 114.897138,560.70153 C114.618799,560.741293 114.33728,560.66972 114.111428,560.499695 C113.885576,560.331101 113.739249,560.082982 113.699487,559.802894 L113.58338,558.993326 C113.96033,558.6291 114.649178,558.427106 115.636882,558.390524 L115.795933,559.503879 C115.835537,559.783967 115.763964,560.062146 115.59378,560.288157 L115.59378,560.288157 Z" id="Audit-Trail"></path>
        </g>
    </g>
</svg>