<?xml version="1.0" encoding="UTF-8"?>
<svg width="22px" height="21px" viewBox="0 0 22 21" version="1.1" xmlns="http://www.w3.org/2000/svg" xmlns:xlink="http://www.w3.org/1999/xlink">
    <!-- Generator: Sketch 58 (84663) - https://sketch.com -->
    <title>back-enabled</title>
    <desc>Created with Sketch.</desc>
    <g id="Page-1" stroke="none" stroke-width="1" fill="none" fill-rule="evenodd">
        <path d="M10.9004942,0.518227658 C16.3697779,0.518227658 20.802724,4.99550323 20.802724,10.5182277 C20.802724,16.0409521 16.3697779,20.5182277 10.9004942,20.5182277 C5.43294611,20.5182277 1,16.0409521 1,10.5182277 C1,4.99550323 5.43294611,0.518227658 10.9004942,0.518227658 Z M10.9004942,1.35083064 C5.89657079,1.35083064 1.82510317,5.46376415 1.82510317,10.5182277 C1.82510317,15.5726912 5.89657079,19.6844978 10.9004942,19.6844978 C15.9061532,19.6844978 19.977125,15.5726912 19.977125,10.5182277 C19.977125,5.46376415 15.9061532,1.35083064 10.9004942,1.35083064 Z M11.1346743,7.53212539 L15.7550534,12.1987083 C15.8839758,12.3289199 15.8839758,12.5403635 15.7550534,12.6704749 C15.6905922,12.7355807 15.6062968,12.7676328 15.5220014,12.7676328 C15.4367143,12.7676328 15.352419,12.7355807 15.2879578,12.6704749 L10.9006306,8.23927447 L6.51399764,12.6704749 C6.38507527,12.8006865 6.17622105,12.8006865 6.04729868,12.6704749 C5.91837632,12.5403635 5.91837632,12.3289199 6.04729868,12.1987083 L10.6675786,7.53212539 C10.796501,7.40191381 11.0057519,7.40191381 11.1346743,7.53212539 Z" id="back-enabled" stroke="#000000" stroke-width="0.660066007" fill="#000000" transform="translate(10.901362, 10.518228) scale(-1, 1) rotate(90.000000) translate(-10.901362, -10.518228) "></path>
    </g>
</svg>