<?xml version="1.0" encoding="UTF-8"?>
<svg width="22px" height="22px" viewBox="0 0 22 22" version="1.1" xmlns="http://www.w3.org/2000/svg" xmlns:xlink="http://www.w3.org/1999/xlink">
    <!-- Generator: Sketch 58 (84663) - https://sketch.com -->
    <title>back-disabled</title>
    <desc>Created with Sketch.</desc>
    <g id="Page-1" stroke="none" stroke-width="1" fill="none" fill-rule="evenodd">
        <path d="M10.9004942,0.91190624 C16.3697779,0.91190624 20.802724,5.38918181 20.802724,10.9119062 C20.802724,16.4346307 16.3697779,20.9119062 10.9004942,20.9119062 C5.43294611,20.9119062 1,16.4346307 1,10.9119062 C1,5.38918181 5.43294611,0.91190624 10.9004942,0.91190624 Z M10.9004942,1.74450922 C5.89657079,1.74450922 1.82510317,5.85744274 1.82510317,10.9119062 C1.82510317,15.9663697 5.89657079,20.0781764 10.9004942,20.0781764 C15.9061532,20.0781764 19.977125,15.9663697 19.977125,10.9119062 C19.977125,5.85744274 15.9061532,1.74450922 10.9004942,1.74450922 Z M11.1346743,7.92580398 L15.7550534,12.5923869 C15.8839758,12.7225985 15.8839758,12.9340421 15.7550534,13.0641535 C15.6905922,13.1292593 15.6062968,13.1613114 15.5220014,13.1613114 C15.4367143,13.1613114 15.352419,13.1292593 15.2879578,13.0641535 L10.9006306,8.63295305 L6.51399764,13.0641535 C6.38507527,13.1943651 6.17622105,13.1943651 6.04729868,13.0641535 C5.91837632,12.9340421 5.91837632,12.7225985 6.04729868,12.5923869 L10.6675786,7.92580398 C10.796501,7.79559239 11.0057519,7.79559239 11.1346743,7.92580398 Z" id="back-disabled" stroke="#CFCFCF" stroke-width="0.660066007" fill="#CFCFCF" transform="translate(10.901362, 10.911906) scale(-1, 1) rotate(90.000000) translate(-10.901362, -10.911906) "></path>
    </g>
</svg>