<?xml version="1.0" encoding="UTF-8"?>
<svg width="38px" height="39px" viewBox="0 0 38 39" version="1.1" xmlns="http://www.w3.org/2000/svg" xmlns:xlink="http://www.w3.org/1999/xlink">
    <!-- Generator: Sketch 55 (78076) - https://sketchapp.com -->
    <title>Block mapping</title>
    <desc>Created with Sketch.</desc>
    <g id="Symbols" stroke="none" stroke-width="1" fill="none" fill-rule="evenodd">
        <g id="Toolbar" transform="translate(-69.000000, -11.000000)" fill="#000000">
            <path d="M87.9695786,13.3396451 C78.5229975,13.3396451 70.8360965,21.026546 70.8360965,30.4731271 C70.8360965,39.9197082 78.5229975,47.6042691 87.9695786,47.6042691 C97.4161597,47.6042691 105.100721,39.9197082 105.100721,30.4731271 C105.100721,21.026546 97.4161597,13.3396451 87.9695786,13.3396451 Z M87.9695786,11.7835449 C98.2913198,11.7835449 106.659161,20.1513859 106.659161,30.4731271 C106.659161,40.7948683 98.2913198,49.1627093 87.9695786,49.1627093 C77.6478373,49.1627093 69.2799964,40.7948683 69.2799964,30.4731271 C69.2799964,20.1513859 77.6478373,11.7835449 87.9695786,11.7835449 Z M87.9695786,19.9611274 C93.7645973,19.9611274 98.481473,24.6758974 98.481473,30.4730218 C98.481473,36.2701463 93.7645973,40.9851268 87.9695786,40.9851268 C82.1724541,40.9851268 77.4576841,36.2701463 77.4576841,30.4730218 C77.4576841,24.6758974 82.1724541,19.9611274 87.9695786,19.9611274 Z M96.0430167,34.6782008 C96.5989342,33.614798 96.9463826,32.4292618 97.0432471,31.1742359 L92.1600173,31.1742359 C92.1305368,32.3639836 92.0189321,33.5537313 91.8315206,34.6782008 L96.0430167,34.6782008 Z M87.9695786,39.582488 C88.6539467,39.582488 89.5236207,38.300298 90.1111244,36.0785232 L85.825927,36.0785232 C86.4134307,38.300298 87.2831047,39.582488 87.9695786,39.582488 Z M85.5205935,34.6782008 L90.4185636,34.6782008 C90.6017637,33.6442784 90.7260028,32.469271 90.7596948,31.1742359 L85.1794624,31.1742359 C85.2110486,32.469271 85.3352877,33.6442784 85.5205935,34.6782008 Z M78.8938043,31.1742359 C78.9906687,32.4292618 79.3402229,33.614798 79.8961404,34.6782008 L84.1055308,34.6782008 C83.920225,33.5537313 83.8086204,32.3639836 83.7770341,31.1742359 L78.8938043,31.1742359 Z M79.8961404,26.2680535 C79.3402229,27.3312457 78.9906687,28.5167819 78.8938043,29.7720183 L83.7770341,29.7720183 C83.8086204,28.5820601 83.920225,27.3923124 84.1055308,26.2680535 L79.8961404,26.2680535 Z M87.9695786,21.3635556 C87.2831047,21.3635556 86.4134307,22.6459562 85.825927,24.8675204 L90.1111244,24.8675204 C89.5236207,22.6459562 88.6539467,21.3635556 87.9695786,21.3635556 Z M90.4185636,26.2680535 L85.5205935,26.2680535 C85.3352877,27.3019758 85.2110486,28.4769832 85.1794624,29.7720183 L90.7596948,29.7720183 C90.7260028,28.4769832 90.6017637,27.3019758 90.4185636,26.2680535 Z M92.1600173,29.7720183 L97.0432471,29.7720183 C96.9463826,28.5167819 96.5989342,27.3312457 96.0430167,26.2680535 L91.8315206,26.2680535 C92.0189321,27.3923124 92.1305368,28.5820601 92.1600173,29.7720183 Z M95.1354393,24.8675204 C93.9372686,23.3410636 92.2674104,22.2079606 90.3448624,21.6880514 C90.8481362,22.5322458 91.2545456,23.6251291 91.5514561,24.8675204 L95.1354393,24.8675204 Z M85.592189,21.6880514 C83.669641,22.2079606 81.9997827,23.3410636 80.8037178,24.8675204 L84.3855953,24.8675204 C84.6825058,23.6251291 85.0889152,22.5322458 85.592189,21.6880514 Z M80.8037178,36.0785232 C81.9997827,37.6051906 83.669641,38.7380831 85.592189,39.2582028 C85.0889152,38.4137979 84.6825058,37.3211252 84.3855953,36.0785232 L80.8037178,36.0785232 Z M90.3448624,39.2582028 C92.2674104,38.7380831 93.9372686,37.6051906 95.1354393,36.0785232 L91.5514561,36.0785232 C91.2545456,37.3211252 90.8481362,38.4137979 90.3448624,39.2582028 Z" id="Block-mapping"></path>
        </g>
    </g>
</svg>