<?xml version="1.0" encoding="UTF-8"?>
<svg width="38px" height="39px" viewBox="0 0 38 39" version="1.1" xmlns="http://www.w3.org/2000/svg" xmlns:xlink="http://www.w3.org/1999/xlink">
    <!-- Generator: Sketch 55 (78076) - https://sketchapp.com -->
    <title>Block Importer</title>
    <desc>Created with Sketch.</desc>
    <g id="Symbols" stroke="none" stroke-width="1" fill="none" fill-rule="evenodd">
        <g id="Toolbar" transform="translate(-16.000000, -11.000000)" fill="#000000">
            <path d="M35.0004971,47.6045449 C44.4464971,47.6045449 52.1314971,39.9195449 52.1314971,30.4735449 C52.1314971,21.0265449 44.4464971,13.3395449 35.0004971,13.3395449 C25.5534971,13.3395449 17.8664971,21.0265449 17.8664971,30.4735449 C17.8664971,39.9195449 25.5534971,47.6045449 35.0004971,47.6045449 Z M35.0004971,11.7835449 C45.3224971,11.7835449 53.6894971,20.1515449 53.6894971,30.4735449 C53.6894971,40.7945449 45.3224971,49.1625449 35.0004971,49.1625449 C24.6784971,49.1625449 16.3104971,40.7945449 16.3104971,30.4735449 C16.3104971,20.1515449 24.6784971,11.7835449 35.0004971,11.7835449 Z M37.7386971,35.3564449 C37.7386971,35.0874449 37.9566971,34.8694449 38.2256971,34.8694449 C38.4936971,34.8694449 38.7126971,35.0874449 38.7126971,35.3564449 L38.7126971,36.5024449 C38.7126971,36.7714449 38.4936971,36.9904449 38.2256971,36.9904449 L32.4916971,36.9904449 C32.2236971,36.9904449 32.0056971,36.7714449 32.0056971,36.5024449 L32.0056971,35.3564449 C32.0056971,35.0874449 32.2236971,34.8694449 32.4916971,34.8694449 C32.7606971,34.8694449 32.9796971,35.0874449 32.9796971,35.3564449 L32.9796971,36.0164449 L37.7386971,36.0164449 L37.7386971,35.3564449 Z M35.5428971,27.4531449 C35.6028971,27.4781449 35.6578971,27.5151449 35.7028971,27.5591449 L37.9958971,29.8521449 C38.1848971,30.0421449 38.1848971,30.3511449 37.9958971,30.5401449 C37.9038971,30.6331449 37.7818971,30.6831449 37.6518971,30.6831449 C37.5218971,30.6831449 37.3998971,30.6331449 37.3078971,30.5411449 L35.8458971,29.0781449 L35.8458971,34.7841449 C35.8458971,35.0521449 35.6268971,35.2701449 35.3588971,35.2701449 C35.0898971,35.2701449 34.8718971,35.0521449 34.8718971,34.7841449 L34.8718971,29.0781449 L33.4098971,30.5411449 C33.3168971,30.6331449 33.1948971,30.6831449 33.0648971,30.6831449 C32.9358971,30.6831449 32.8128971,30.6331449 32.7208971,30.5411449 C32.5318971,30.3511449 32.5318971,30.0421449 32.7208971,29.8521449 L35.0138971,27.5591449 C35.0628971,27.5131449 35.1148971,27.4781449 35.1718971,27.4541449 C35.2328971,27.4291449 35.2948971,27.4171449 35.3588971,27.4171449 C35.4218971,27.4171449 35.4838971,27.4291449 35.5428971,27.4531449 Z M41.6639971,39.5845449 L41.6639971,26.2685449 L37.4579971,26.2685449 C37.0709971,26.2685449 36.7569971,25.9545449 36.7569971,25.5675449 L36.7569971,21.3615449 L29.0489971,21.3615449 L29.0489971,39.5845449 L41.6639971,39.5845449 Z M38.1599971,22.3535449 L38.1599971,24.8665449 L40.6719971,24.8665449 L38.1599971,22.3535449 Z M42.8599971,25.0705449 C42.9229971,25.1355449 42.9759971,25.2115449 43.0119971,25.2975449 C43.0459971,25.3815449 43.0649971,25.4725449 43.0649971,25.5675449 L43.0649971,40.2865449 C43.0649971,40.6735449 42.7509971,40.9855449 42.3659971,40.9855449 L28.3479971,40.9855449 C27.9599971,40.9855449 27.6469971,40.6735449 27.6469971,40.2865449 L27.6469971,20.6605449 C27.6469971,20.2745449 27.9599971,19.9605449 28.3479971,19.9605449 L37.4579971,19.9605449 C37.5529971,19.9605449 37.6439971,19.9805449 37.7279971,20.0135449 C37.8139971,20.0495449 37.8899971,20.1025449 37.9559971,20.1655449 L42.8599971,25.0705449 Z" id="Block-Importer"></path>
        </g>
    </g>
</svg>