<?xml version="1.0" encoding="UTF-8"?>
<svg width="45px" height="193px" viewBox="0 0 45 193" version="1.1" xmlns="http://www.w3.org/2000/svg" xmlns:xlink="http://www.w3.org/1999/xlink">
    <!-- Generator: Sketch 59.1 (86144) - https://sketch.com -->
    <title>Bubble icon with line</title>
    <desc>Created with Sketch.</desc>
    <g id="Analytics-View" stroke="none" stroke-width="1" fill="none" fill-rule="evenodd">
        <g id="Bubble-icon-with-line">
            <line x1="22.36346" y1="188.87799" x2="22.36346" y2="44.0120429" id="Line-2" stroke="#464B4C" stroke-width="1.5" stroke-linecap="round"></line>
            <circle id="Oval" fill="#464B4C" cx="22.36346" cy="188.87799" r="3.33529783"></circle>
            <path d="M22.36332,1.862 C33.6669199,1.862 42.8621199,11.06 42.8621199,22.3636 C42.8621199,33.6674799 33.6669199,42.8623999 22.36332,42.8623999 C11.05972,42.8623999 1.86172,33.6674799 1.86172,22.3636 C1.86172,11.06 11.05972,1.862 22.36332,1.862 M22.36332,-3.55271368e-14 C10.01252,-3.55271368e-14 -1.0658141e-14,10.0128 -1.0658141e-14,22.3636 C-1.0658141e-14,34.7143999 10.01252,44.7271999 22.36332,44.7271999 C34.7141199,44.7271999 44.7269199,34.7143999 44.7269199,22.3636 C44.7269199,10.0128 34.7141199,-3.55271368e-14 22.36332,-3.55271368e-14" id="Combined-Shape" fill="#464B4C"></path>
            <path d="M32.6249255,15.7687997 L27.4936422,15.7687997 L27.4936422,13.5687344 C27.4936422,13.1635172 27.1655043,12.8355996 26.7602871,12.8355996 L17.9666328,12.8355996 C17.5614156,12.8355996 17.2332777,13.1635172 17.2332777,13.5687344 L17.2332777,15.7687997 L12.1019944,15.7687997 C11.6989794,15.7687997 11.3708415,16.0947353 11.3708415,16.4999525 L11.3708415,31.1582452 C11.3708415,31.5634625 11.6989794,31.8916003 12.1019944,31.8916003 L32.6249255,31.8916003 C33.0279405,31.8916003 33.3560784,31.5634625 33.3560784,31.1582452 L33.3560784,16.4999525 C33.3560784,16.0947353 33.0279405,15.7687997 32.6249255,15.7687997 Z M17.2332777,30.4248902 L15.7665676,30.4248902 L15.7665676,28.2270272 C15.7665676,27.8218099 15.4384297,27.4936721 15.0354147,27.4936721 C14.6304177,27.4936721 14.3020596,27.8218099 14.3020596,28.2270272 L14.3020596,30.4248902 L12.8353495,30.4248902 L12.8353495,17.2333076 L17.2332777,17.2333076 L17.2332777,30.4248902 Z M26.0271522,30.4248902 L21.631206,30.4248902 L21.631206,28.2270272 C21.631206,27.8218099 21.3030681,27.4936721 20.8978509,27.4936721 C20.4926337,27.4936721 20.1644958,27.8218099 20.1644958,28.2270272 L20.1644958,30.4248902 L18.6999879,30.4248902 L18.6999879,14.3020895 L26.0271522,14.3020895 L26.0271522,30.4248902 Z M31.8915704,30.4248902 L30.4248603,30.4248902 L30.4248603,28.2270272 C30.4248603,27.8218099 30.0967224,27.4936721 29.6915052,27.4936721 C29.2884902,27.4936721 28.9603524,27.8218099 28.9603524,28.2270272 L28.9603524,30.4248902 L27.4936422,30.4248902 L27.4936422,17.2333076 L31.8915704,17.2333076 L31.8915704,30.4248902 Z M14.3020596,25.2958091 C14.3020596,24.8905918 14.6304177,24.5626742 15.0354147,24.5626742 C15.4384297,24.5626742 15.7665676,24.8905918 15.7665676,25.2958091 C15.7665676,25.7012465 15.4384297,26.0291642 15.0354147,26.0291642 C14.6304177,26.0291642 14.3020596,25.7012465 14.3020596,25.2958091 Z M14.3020596,22.364591 C14.3020596,21.9593737 14.6304177,21.6312359 15.0354147,21.6312359 C15.4384297,21.6312359 15.7665676,21.9593737 15.7665676,22.364591 C15.7665676,22.7676059 15.4384297,23.0979461 15.0354147,23.0979461 C14.6304177,23.0979461 14.3020596,22.7676059 14.3020596,22.364591 Z M14.3020596,19.4335931 C14.3020596,19.0281557 14.6304177,18.7000178 15.0354147,18.7000178 C15.4384297,18.7000178 15.7665676,19.0281557 15.7665676,19.4335931 C15.7665676,19.8363878 15.4384297,20.1645257 15.0354147,20.1645257 C14.6304177,20.1645257 14.3020596,19.8363878 14.3020596,19.4335931 Z M20.1644958,25.2958091 C20.1644958,24.8905918 20.4926337,24.5626742 20.8978509,24.5626742 C21.3030681,24.5626742 21.631206,24.8905918 21.631206,25.2958091 C21.631206,25.7012465 21.3030681,26.0291642 20.8978509,26.0291642 C20.4926337,26.0291642 20.1644958,25.7012465 20.1644958,25.2958091 Z M20.1644958,22.364591 C20.1644958,21.9593737 20.4926337,21.6312359 20.8978509,21.6312359 C21.3030681,21.6312359 21.631206,21.9593737 21.631206,22.364591 C21.631206,22.7676059 21.3030681,23.0979461 20.8978509,23.0979461 C20.4926337,23.0979461 20.1644958,22.7676059 20.1644958,22.364591 Z M20.1644958,19.4335931 C20.1644958,19.0281557 20.4926337,18.7000178 20.8978509,18.7000178 C21.3030681,18.7000178 21.631206,19.0281557 21.631206,19.4335931 C21.631206,19.8363878 21.3030681,20.1645257 20.8978509,20.1645257 C20.4926337,20.1645257 20.1644958,19.8363878 20.1644958,19.4335931 Z M23.0957139,25.2958091 C23.0957139,24.8905918 23.4238518,24.5626742 23.829069,24.5626742 C24.2342862,24.5626742 24.5624241,24.8905918 24.5624241,25.2958091 C24.5624241,25.7012465 24.2342862,26.0291642 23.829069,26.0291642 C23.4238518,26.0291642 23.0957139,25.7012465 23.0957139,25.2958091 Z M23.0957139,22.364591 C23.0957139,21.9593737 23.4238518,21.6312359 23.829069,21.6312359 C24.2342862,21.6312359 24.5624241,21.9593737 24.5624241,22.364591 C24.5624241,22.7676059 24.2342862,23.0979461 23.829069,23.0979461 C23.4238518,23.0979461 23.0957139,22.7676059 23.0957139,22.364591 Z M23.0957139,19.4335931 C23.0957139,19.0281557 23.4238518,18.7000178 23.829069,18.7000178 C24.2342862,18.7000178 24.5624241,19.0281557 24.5624241,19.4335931 C24.5624241,19.8363878 24.2342862,20.1645257 23.829069,20.1645257 C23.4238518,20.1645257 23.0957139,19.8363878 23.0957139,19.4335931 Z M28.9603524,25.2958091 C28.9603524,24.8905918 29.2884902,24.5626742 29.6915052,24.5626742 C30.0967224,24.5626742 30.4248603,24.8905918 30.4248603,25.2958091 C30.4248603,25.7012465 30.0967224,26.0291642 29.6915052,26.0291642 C29.2884902,26.0291642 28.9603524,25.7012465 28.9603524,25.2958091 Z M28.9603524,22.364591 C28.9603524,21.9593737 29.2884902,21.6312359 29.6915052,21.6312359 C30.0967224,21.6312359 30.4248603,21.9593737 30.4248603,22.364591 C30.4248603,22.7676059 30.0967224,23.0979461 29.6915052,23.0979461 C29.2884902,23.0979461 28.9603524,22.7676059 28.9603524,22.364591 Z M28.9603524,19.4335931 C28.9603524,19.0281557 29.2884902,18.7000178 29.6915052,18.7000178 C30.0967224,18.7000178 30.4248603,19.0281557 30.4248603,19.4335931 C30.4248603,19.8363878 30.0967224,20.1645257 29.6915052,20.1645257 C29.2884902,20.1645257 28.9603524,19.8363878 28.9603524,19.4335931 Z M20.1644958,16.4999525 C20.1644958,16.0969376 20.4926337,15.7687997 20.8978509,15.7687997 C21.3030681,15.7687997 21.631206,16.0969376 21.631206,16.4999525 C21.631206,16.90539 21.3030681,17.2333076 20.8978509,17.2333076 C20.4926337,17.2333076 20.1644958,16.90539 20.1644958,16.4999525 Z M23.0957139,16.4999525 C23.0957139,16.0969376 23.4238518,15.7687997 23.829069,15.7687997 C24.2342862,15.7687997 24.5624241,16.0969376 24.5624241,16.4999525 C24.5624241,16.90539 24.2342862,17.2333076 23.829069,17.2333076 C23.4238518,17.2333076 23.0957139,16.90539 23.0957139,16.4999525 L23.0957139,16.4999525 Z" id="Entities" fill="#464B4C"></path>
        </g>
    </g>
</svg>