<?xml version="1.0" encoding="UTF-8"?>
<svg width="38px" height="38px" viewBox="0 0 38 38" version="1.1" xmlns="http://www.w3.org/2000/svg" xmlns:xlink="http://www.w3.org/1999/xlink">
    <!-- Generator: Sketch 54 (76480) - https://sketchapp.com -->
    <title>Clear Filter-active</title>
    <desc>Created with Sketch.</desc>
    <g id="Page-1" stroke="none" stroke-width="1" fill="none" fill-rule="evenodd">
        <g id="Icons-Used" transform="translate(-1204.000000, -124.000000)" fill="#000000">
            <g id="Clear-Filter-active" transform="translate(1204.660210, 124.500000)">
                <path d="M18.6598624,1.5559425 C28.0934063,1.5559425 35.7656512,9.2281875 35.7656512,18.6596288 C35.7656512,28.09107 28.0934063,35.7656513 18.6598624,35.7656513 C9.2281875,35.7656513 1.55617613,28.09107 1.55617613,18.6596288 C1.55617613,9.2281875 9.2281875,1.5559425 18.6598624,1.5559425 M18.6598624,6.82121026e-13 C8.35443,6.82121026e-13 0,8.35443 0,18.6596288 C0,28.9648275 8.35443,37.3192575 18.6598624,37.3192575 C28.9673974,37.3192575 37.3215937,28.9648275 37.3215937,18.6596288 C37.3215937,8.35443 28.9673974,6.82121026e-13 18.6598624,6.82121026e-13" id="Fill-570"></path>
                <path d="M17.2866333,29.3246288 C17.1834678,29.3246288 17.0782391,29.299869 16.9812636,29.2524129 C16.7481097,29.1350107 16.6016148,28.8975238 16.6016148,28.6375469 L16.6016148,19.3464678 L8.60835685,12.6861073 C8.3855195,12.5004095 8.30298716,12.1971032 8.40202597,11.9247464 C8.50106479,11.6523897 8.75897838,11.4708185 9.0478416,11.4708185 L28.2737521,11.4708185 C28.5626154,11.4708185 28.820529,11.6523897 28.9195678,11.9247464 C29.0186066,12.1971032 28.9360742,12.5004095 28.7132369,12.6861073 L20.719979,19.3464678 L20.719979,26.5783649 C20.719979,26.7950123 20.6188768,26.9972165 20.4455589,27.127205 L17.699295,29.1884504 C17.5777661,29.279236 17.4331282,29.3246288 17.2866333,29.3246288 Z M10.9440223,12.8451884 L17.726118,18.4963846 C17.8829295,18.6284364 17.9739214,18.8203241 17.9739214,19.0245917 L17.9739214,27.265653 L19.348085,26.2358556 L19.348085,19.0245917 C19.348085,18.8203241 19.4386643,18.6284364 19.5954757,18.4963846 L26.3775714,12.8451884 L10.9440223,12.8451884 Z M23.575868,24.089001 L21.9454969,21.7115596 L23.1232313,21.7115596 L24.2306531,23.4122432 L25.3468641,21.7115596 L26.5158094,21.7115596 L24.8810438,24.089001 L26.5993055,26.5719112 L25.4303602,26.5719112 L24.2306531,24.7525753 L23.0353406,26.5719112 L21.8663953,26.5719112 L23.575868,24.089001 Z" id="Combined-Shape"></path>
            </g>
        </g>
    </g>
</svg>