<?xml version="1.0" encoding="UTF-8"?>
<svg width="38px" height="38px" viewBox="0 0 38 38" version="1.1" xmlns="http://www.w3.org/2000/svg" xmlns:xlink="http://www.w3.org/1999/xlink">
    <!-- Generator: Sketch 58 (84663) - https://sketch.com -->
    <title>close@1x</title>
    <desc>Created with Sketch.</desc>
    <g id="10-August-information-gathering" stroke="none" stroke-width="1" fill="none" fill-rule="evenodd">
        <g id="close" fill="#000000">
            <path d="M18.6895822,1.55610018 C28.1361633,1.55610018 35.8207242,9.24300109 35.8207242,18.6895822 C35.8207242,28.1361633 28.1361633,35.8207242 18.6895822,35.8207242 C9.24300109,35.8207242 1.55610018,28.1361633 1.55610018,18.6895822 C1.55610018,9.24300109 9.24300109,1.55610018 18.6895822,1.55610018 M18.6895822,0 C8.36784099,0 -2.27373675e-13,8.36784099 -2.27373675e-13,18.6895822 C-2.27373675e-13,29.0113234 8.36784099,37.3791644 18.6895822,37.3791644 C29.0113234,37.3791644 37.3791644,29.0113234 37.3791644,18.6895822 C37.3791644,8.36784099 29.0113234,0 18.6895822,0" id="Fill-279"></path>
            <path d="M19.7395822,18.6895822 L27.4645822,10.9645822 C27.7645822,10.6645822 27.7645822,10.2145822 27.4645822,9.9145822 C27.1645822,9.6145822 26.7145822,9.6145822 26.4145822,9.9145822 L18.6895822,17.6395822 L10.9645822,9.9145822 C10.6645822,9.6145822 10.2145822,9.6145822 9.9145822,9.9145822 C9.6145822,10.2145822 9.6145822,10.6645822 9.9145822,10.9645822 L17.6395822,18.6895822 L9.9145822,26.4145822 C9.6145822,26.7145822 9.6145822,27.1645822 9.9145822,27.4645822 C10.0645822,27.6145822 10.2895822,27.6895822 10.4395822,27.6895822 C10.5895822,27.6895822 10.8145822,27.6145822 10.9645822,27.4645822 L18.6895822,19.7395822 L26.4145822,27.4645822 C26.5645822,27.6145822 26.7895822,27.6895822 26.9395822,27.6895822 C27.0895822,27.6895822 27.3145822,27.6145822 27.4645822,27.4645822 C27.7645822,27.1645822 27.7645822,26.7145822 27.4645822,26.4145822 L19.7395822,18.6895822 Z" id="Path" fill-rule="nonzero"></path>
        </g>
    </g>
</svg>