<?xml version="1.0" encoding="UTF-8"?>
<svg width="13px" height="13px" viewBox="0 0 13 13" version="1.1" xmlns="http://www.w3.org/2000/svg" xmlns:xlink="http://www.w3.org/1999/xlink">
    <!-- Generator: Sketch 58 (84663) - https://sketch.com -->
    <title>collapse@1x</title>
    <desc>Created with Sketch.</desc>
    <g id="10-August-information-gathering" stroke="none" stroke-width="1" fill="none" fill-rule="evenodd">
        <path d="M6.30000025,0 C9.77931678,0 12.6000005,2.82068372 12.6000005,6.30000025 C12.6000005,9.77931678 9.77931678,12.6000005 6.30000025,12.6000005 C2.82068372,12.6000005 -1.42108547e-14,9.77931678 -1.42108547e-14,6.30000025 C-1.42108547e-14,2.82068372 2.82068372,0 6.30000025,0 Z M6.29998043,0.814716346 C3.27566862,0.814716346 0.814716346,3.27566862 0.814716346,6.29998043 C0.814716346,9.32429225 3.27566862,11.7844954 6.29998043,11.7844954 C9.32429225,11.7844954 11.7844954,9.32429225 11.7844954,6.29998043 C11.7844954,3.27566862 9.32429225,0.814716346 6.29998043,0.814716346 Z M8.58486343,5.85000023 C8.78907399,5.85000023 8.95461936,6.0514721 8.95461936,6.30000025 C8.95461936,6.5485284 8.78907399,6.75000027 8.58486343,6.75000027 L8.58486343,6.75000027 L4.17562525,6.75000027 C3.97141469,6.75000027 3.80586932,6.5485284 3.80586932,6.30000025 C3.80586932,6.0514721 3.97141469,5.85000023 4.17562525,5.85000023 L4.17562525,5.85000023 Z" id="collapse" fill="#FFFFFF" fill-rule="nonzero"></path>
    </g>
</svg>