<?xml version="1.0" encoding="UTF-8"?>
<svg width="14px" height="13px" viewBox="0 0 14 13" version="1.1" xmlns="http://www.w3.org/2000/svg" xmlns:xlink="http://www.w3.org/1999/xlink">
    <!-- Generator: Sketch 58 (84663) - https://sketch.com -->
    <title>comment-selected</title>
    <desc>Created with Sketch.</desc>
    <g id="Page-1" stroke="none" stroke-width="1" fill="none" fill-rule="evenodd">
        <path d="M12.7030424,4.32802524 C12.9452282,4.32802524 13.1412145,4.52414313 13.1412145,4.76632897 L13.1412145,4.76632897 L13.1412145,10.022025 C13.1412145,10.2642109 12.9452282,10.4603288 12.7030424,10.4603288 L12.7030424,10.4603288 L11.3893158,10.4603288 L11.3893158,11.7752399 C11.3893158,11.9516144 11.2827014,12.1121942 11.118173,12.1793218 C11.0642076,12.2016976 11.0076099,12.2122274 10.9510121,12.2122274 C10.8365003,12.2122274 10.724621,12.1687919 10.6416986,12.0845534 L10.6416986,12.0845534 L9.01747401,10.4603288 L5.69531602,10.4603288 C5.4532618,10.4603288 5.25701229,10.2642109 5.25701229,10.022025 L5.25701229,10.022025 L5.25701229,7.39483512 C5.25701229,7.15278089 5.4532618,6.95653139 5.69531602,6.95653139 C5.93631726,6.95653139 6.13230352,7.15278089 6.13230352,7.39483512 L6.13230352,7.39483512 L6.13230352,9.58516915 L9.19911339,9.58516915 C9.31494141,9.58516915 9.42682074,9.63110549 9.50842684,9.71271159 L9.50842684,9.71271159 L10.5127084,10.7169931 L10.5127084,10.022025 C10.5127084,9.77983919 10.7088262,9.58516915 10.9510121,9.58516915 L10.9510121,9.58516915 L12.2647387,9.58516915 L12.2647387,5.2046327 L9.19911339,5.2046327 C8.95692755,5.2046327 8.76080966,5.00851481 8.76080966,4.76632897 C8.76080966,4.52414313 8.95692755,4.32802524 9.19911339,4.32802524 L9.19911339,4.32802524 Z M7.44721471,0.824227867 C7.68808432,0.824227867 7.88420221,1.02047737 7.88420221,1.2625316 L7.88420221,1.2625316 L7.88420221,5.6416202 C7.88420221,5.88380604 7.68808432,6.07992393 7.44721471,6.07992393 L7.44721471,6.07992393 L3.68543676,6.07992393 L2.06252836,7.70414856 C1.9782898,7.78838711 1.86641047,7.83195424 1.75189869,7.83195424 C1.69530091,7.83195424 1.63870313,7.8212928 1.58473781,7.79904855 C1.42165723,7.73178933 1.31491119,7.57120959 1.31491119,7.39483512 L1.31491119,7.39483512 L1.31491119,6.07992393 L0.438303729,6.07992393 C0.196117885,6.07992393 9.05941988e-13,5.88380604 9.05941988e-13,5.6416202 L9.05941988e-13,5.6416202 L9.05941988e-13,1.2625316 C9.05941988e-13,1.02047737 0.196117885,0.824227867 0.438303729,0.824227867 L0.438303729,0.824227867 Z M7.00891098,1.6995191 L0.876607457,1.6995191 L0.876607457,5.2046327 L1.75189869,5.2046327 C1.99408453,5.2046327 2.19020242,5.40075058 2.19020242,5.6416202 L2.19020242,5.6416202 L2.19020242,6.33658828 L3.19448393,5.33230676 C3.27740626,5.25070066 3.38796936,5.2046327 3.5051136,5.2046327 L3.5051136,5.2046327 L7.00891098,5.2046327 L7.00891098,1.6995191 Z" id="comment-selected" fill="#000000"></path>
    </g>
</svg>