<?xml version="1.0" encoding="UTF-8"?>
<svg width="14px" height="13px" viewBox="0 0 14 13" version="1.1" xmlns="http://www.w3.org/2000/svg" xmlns:xlink="http://www.w3.org/1999/xlink">
    <!-- Generator: Sketch 57.1 (83088) - https://sketch.com -->
    <title>Comment</title>
    <desc>Created with Sketch.</desc>
    <g id="Page-1" stroke="none" stroke-width="1" fill="none" fill-rule="evenodd">
        <g id="Editor-Tab" transform="translate(-646.000000, -836.000000)" fill="#AAAAAA">
            <path d="M659.132435,840.309798 C659.374621,840.309798 659.570607,840.505915 659.570607,840.748101 L659.570607,840.748101 L659.570607,846.003797 C659.570607,846.245983 659.374621,846.442101 659.132435,846.442101 L659.132435,846.442101 L657.818709,846.442101 L657.818709,847.757012 C657.818709,847.933387 657.712094,848.093967 657.547566,848.161094 C657.4936,848.18347 657.437003,848.194 657.380405,848.194 C657.265893,848.194 657.154014,848.150564 657.071091,848.066326 L657.071091,848.066326 L655.446867,846.442101 L652.124709,846.442101 C651.882655,846.442101 651.686405,846.245983 651.686405,846.003797 L651.686405,846.003797 L651.686405,843.376607 C651.686405,843.134553 651.882655,842.938304 652.124709,842.938304 C652.36571,842.938304 652.561696,843.134553 652.561696,843.376607 L652.561696,843.376607 L652.561696,845.566941 L655.628506,845.566941 C655.744334,845.566941 655.856213,845.612878 655.93782,845.694484 L655.93782,845.694484 L656.942101,846.698765 L656.942101,846.003797 C656.942101,845.761612 657.138219,845.566941 657.380405,845.566941 L657.380405,845.566941 L658.694131,845.566941 L658.694131,841.186405 L655.628506,841.186405 C655.38632,841.186405 655.190202,840.990287 655.190202,840.748101 C655.190202,840.505915 655.38632,840.309798 655.628506,840.309798 L655.628506,840.309798 Z M653.876607,836.806 C654.117477,836.806 654.313595,837.00225 654.313595,837.244304 L654.313595,837.244304 L654.313595,841.623393 C654.313595,841.865578 654.117477,842.061696 653.876607,842.061696 L653.876607,842.061696 L650.11483,842.061696 L648.491921,843.685921 C648.407683,843.770159 648.295803,843.813727 648.181291,843.813727 C648.124694,843.813727 648.068096,843.803065 648.014131,843.780821 C647.85105,843.713562 647.744304,843.552982 647.744304,843.376607 L647.744304,843.376607 L647.744304,842.061696 L646.867696,842.061696 C646.625511,842.061696 646.429393,841.865578 646.429393,841.623393 L646.429393,841.623393 L646.429393,837.244304 C646.429393,837.00225 646.625511,836.806 646.867696,836.806 L646.867696,836.806 Z M653.438304,837.681291 L647.306,837.681291 L647.306,841.186405 L648.181291,841.186405 C648.423477,841.186405 648.619595,841.382523 648.619595,841.623393 L648.619595,841.623393 L648.619595,842.318361 L649.623877,841.314079 C649.706799,841.232473 649.817362,841.186405 649.934506,841.186405 L649.934506,841.186405 L653.438304,841.186405 L653.438304,837.681291 Z" id="Comment"></path>
        </g>
    </g>
</svg>