<?xml version="1.0" encoding="UTF-8"?>
<svg width="18px" height="12px" viewBox="0 0 18 12" version="1.1" xmlns="http://www.w3.org/2000/svg" xmlns:xlink="http://www.w3.org/1999/xlink">
    <!-- Generator: Sketch 54 (76480) - https://sketchapp.com -->
    <title>Content</title>
    <desc>Created with Sketch.</desc>
    <g id="Admin" stroke="none" stroke-width="1" fill="none" fill-rule="evenodd">
        <g id="admin-edit-FAQ--2-V2" transform="translate(-12.000000, -257.000000)" fill="#FFFFFF">
            <g id="Group-7" transform="translate(0.000000, 150.000000)">
                <g id="Group-6-Copy-2">
                    <g id="Group-82">
                        <path d="M15.6003606,107 L12.6003606,107 C12.2686298,107 12,107.268458 12,107.599838 L12,110.599928 C12,110.931488 12.2686298,111.199946 12.6003606,111.199946 L15.6003606,111.199946 C15.9320913,111.199946 16.2007212,110.931488 16.2007212,110.599928 L16.2007212,107.599838 C16.2007212,107.268458 15.9320913,107 15.6003606,107 Z M13.2007212,110.00009 L15,110.00009 L15,108.200036 L13.2007212,108.200036 L13.2007212,110.00009 Z M18.6003606,107.599838 C18.6003606,107.268458 18.8689904,107 19.2007212,107 L29.3996394,107 C29.7313702,107 30,107.268458 30,107.599838 C30,107.931578 29.7313702,108.200036 29.3996394,108.200036 L19.2007212,108.200036 C18.8689904,108.200036 18.6003606,107.931578 18.6003606,107.599838 Z M30,110.599928 C30,110.931488 29.7313702,111.199946 29.3996394,111.199946 L19.2007212,111.199946 C18.8689904,111.199946 18.6003606,110.931488 18.6003606,110.599928 C18.6003606,110.268367 18.8689904,109.99991 19.2007212,109.99991 L29.3996394,109.99991 C29.7313702,109.99991 30,110.268367 30,110.599928 Z M15.6003606,114.800054 L12.6003606,114.800054 C12.2686298,114.800054 12,115.068331 12,115.400072 L12,118.399982 C12,118.731723 12.2686298,119 12.6003606,119 L15.6003606,119 C15.9320913,119 16.2007212,118.731723 16.2007212,118.399982 L16.2007212,115.400072 C16.2007212,115.068331 15.9320913,114.800054 15.6003606,114.800054 Z M13.2007212,117.800144 L15,117.800144 L15,116.00009 L13.2007212,116.00009 L13.2007212,117.800144 Z M30,115.400072 C30,115.731633 29.7313702,116.00009 29.3996394,116.00009 L19.2007212,116.00009 C18.8689904,116.00009 18.6003606,115.731633 18.6003606,115.400072 C18.6003606,115.068331 18.8689904,114.800054 19.2007212,114.800054 L29.3996394,114.800054 C29.7313702,114.800054 30,115.068331 30,115.400072 Z M30,118.399982 C30,118.731723 29.7313702,119 29.3996394,119 L19.2007212,119 C18.8689904,119 18.6003606,118.731723 18.6003606,118.399982 C18.6003606,118.068422 18.8689904,117.800144 19.2007212,117.800144 L29.3996394,117.800144 C29.7313702,117.800144 30,118.068422 30,118.399982 L30,118.399982 Z" id="Content"></path>
                    </g>
                </g>
            </g>
        </g>
    </g>
</svg>