<?xml version="1.0" encoding="UTF-8"?>
<svg width="38px" height="38px" viewBox="0 0 38 38" version="1.1" xmlns="http://www.w3.org/2000/svg" xmlns:xlink="http://www.w3.org/1999/xlink">
    <!-- Generator: Sketch 54 (76480) - https://sketchapp.com -->
    <title>Copy-active</title>
    <desc>Created with Sketch.</desc>
    <g id="Page-1" stroke="none" stroke-width="1" fill="none" fill-rule="evenodd">
        <g id="Icons-Used" transform="translate(-1281.000000, -124.000000)" fill="#000000">
            <path d="M1309.72438,136.612112 C1309.77797,136.717415 1309.81307,136.832077 1309.81307,136.95844 L1309.81307,148.639982 C1309.81307,149.070552 1309.4644,149.41922 1309.03617,149.41922 L1304.36309,149.41922 L1304.36309,153.313067 C1304.36309,153.743637 1304.01442,154.092305 1303.58385,154.092305 L1292.68154,154.092305 C1292.25097,154.092305 1291.9023,153.743637 1291.9023,153.313067 L1291.9023,137.737677 C1291.9023,137.307108 1292.25097,136.95844 1292.68154,136.95844 L1297.35463,136.95844 L1297.35463,133.064592 C1297.35463,132.634023 1297.7033,132.287695 1298.13152,132.287695 L1305.21954,132.287695 C1305.42781,132.287695 1305.62671,132.369831 1305.7718,132.51702 L1309.55098,136.333646 C1309.63054,136.415548 1309.6867,136.51149 1309.72438,136.612112 Z M1305.91922,134.880473 L1305.91922,136.181777 L1307.20625,136.181777 L1305.91922,134.880473 Z M1302.80461,152.534064 L1302.80461,142.410762 L1299.69023,142.410762 C1299.25943,142.410762 1298.911,142.062095 1298.911,141.631525 L1298.911,138.516915 L1293.46078,138.516915 L1293.46078,152.534064 L1302.80461,152.534064 Z M1300.46947,140.852287 L1301.75627,140.852287 L1300.46947,139.553558 L1300.46947,140.852287 Z M1308.25693,147.860745 L1308.25693,137.737677 L1305.14232,137.737677 C1304.71175,137.737677 1304.36309,137.38901 1304.36309,136.95844 L1304.36309,133.84383 L1298.911,133.84383 L1298.911,136.95844 L1299.76746,136.95844 C1299.97549,136.95844 1300.17439,137.042682 1300.32181,137.190105 L1304.09866,141.006731 C1304.16886,141.076933 1304.22268,141.159068 1304.26012,141.245416 C1304.32564,141.360079 1304.36309,141.491122 1304.36309,141.631525 L1304.36309,147.860745 L1308.25693,147.860745 Z M1299.69023,126.056135 C1290.24344,126.056135 1282.55871,133.743208 1282.55871,143.19 C1282.55871,152.636792 1290.24344,160.321525 1299.69023,160.321525 C1309.13679,160.321525 1316.82152,152.636792 1316.82152,143.19 C1316.82152,133.743208 1309.13679,126.056135 1299.69023,126.056135 Z M1299.69023,124.5 C1310.01197,124.5 1318.38,132.868028 1318.38,143.19 C1318.38,153.511972 1310.01197,161.88 1299.69023,161.88 C1289.36803,161.88 1281,153.511972 1281,143.19 C1281,132.868028 1289.36803,124.5 1299.69023,124.5 Z" id="Copy-active"></path>
        </g>
    </g>
</svg>