<?xml version="1.0" encoding="UTF-8"?>
<svg width="39px" height="39px" viewBox="0 0 39 39" version="1.1" xmlns="http://www.w3.org/2000/svg" xmlns:xlink="http://www.w3.org/1999/xlink">
    <!-- Generator: Sketch 54 (76480) - https://sketchapp.com -->
    <title>Create-active</title>
    <desc>Created with Sketch.</desc>
    <g id="Page-1" stroke="none" stroke-width="1" fill="none" fill-rule="evenodd">
        <g id="Icons-Used" transform="translate(-725.000000, -124.000000)">
            <g id="Create-active" transform="translate(725.779998, 124.779999)">
                <g id="Group-30" transform="translate(11.318581, 11.318581)" stroke="#000000" stroke-linecap="round" stroke-width="1.40400017">
                    <path d="M10.1816422,7.27780327 L10.1816422,13.7821992" id="Line-5"></path>
                    <path d="M10.4394447,7.02000083 L10.4394447,13.5243968" id="Line-5" transform="translate(10.439445, 10.530001) rotate(-90.000000) translate(-10.439445, -10.530001) "></path>
                    <path d="M11.7000014,4.68000055 L11.7000014,3.51000041 C11.7000014,1.57148071 10.1285207,8.79889179e-17 8.19000097,4.4408921e-16 L3.51000041,4.4408921e-16 C1.57148071,8.00189502e-16 -2.37400195e-16,1.57148071 0,3.51000041 L4.4408921e-16,9.3600011 C6.81489404e-16,11.2985208 1.57148071,12.8700015 3.51000041,12.8700015 L4.68000055,12.8700015" id="Path-4"></path>
                </g>
                <path d="M18.6895822,1.55610018 C28.1361633,1.55610018 35.8207242,9.24300109 35.8207242,18.6895822 C35.8207242,28.1361633 28.1361633,35.8207242 18.6895822,35.8207242 C9.24300109,35.8207242 1.55610018,28.1361633 1.55610018,18.6895822 C1.55610018,9.24300109 9.24300109,1.55610018 18.6895822,1.55610018 M18.6895822,-1.13686838e-13 C8.36784099,-1.13686838e-13 -2.13162821e-13,8.36784099 -2.13162821e-13,18.6895822 C-2.13162821e-13,29.0113234 8.36784099,37.3791644 18.6895822,37.3791644 C29.0113234,37.3791644 37.3791644,29.0113234 37.3791644,18.6895822 C37.3791644,8.36784099 29.0113234,-1.13686838e-13 18.6895822,-1.13686838e-13" id="Fill-279" fill="#000000"></path>
            </g>
        </g>
    </g>
</svg>