<?xml version="1.0" encoding="utf-8"?>
<!-- Generator: Adobe Illustrator 19.2.0, SVG Export Plug-In . SVG Version: 6.00 Build 0)  -->
<svg version="1.1" xmlns="http://www.w3.org/2000/svg" xmlns:xlink="http://www.w3.org/1999/xlink" x="0px" y="0px"
	 viewBox="0 0 52 52" style="enable-background:new 0 0 52 52;" xml:space="preserve">
<g id="Guides">
</g>
<g id="O_Layer">
	<path d="M26,4c12.1,0,22,9.9,22,22s-9.9,22-22,22C13.9,48,4,38.1,4,26S13.9,4,26,4 M26,2C12.7,2,2,12.7,2,26s10.7,24,24,24
		c13.3,0,24-10.7,24-24S39.3,2,26,2L26,2z M27.9,33.9 M24.1,33.9 M26,16c-8.3,0-15,6.7-15,15c0,0.6,0.4,1,1,1s1-0.4,1-1
		c0-7.2,5.8-13,13-13s13,5.8,13,13c0,0.6,0.4,1,1,1s1-0.4,1-1C41,22.7,34.3,16,26,16z M26,20c-6.1,0-11,4.9-11,11c0,0.6,0.4,1,1,1
		s1-0.4,1-1c0-5,4-9,9-9s9,4,9,9c0,0.6,0.4,1,1,1s1-0.4,1-1C37,24.9,32.1,20,26,20z M26,24c-3.9,0-7,3.1-7,7c0,0.6,0.4,1,1,1
		s1-0.4,1-1c0-2.8,2.2-5,5-5s5,2.2,5,5c0,0.6,0.4,1,1,1s1-0.4,1-1C33,27.1,29.9,24,26,24z"/>
</g>
</svg>
