<?xml version="1.0" encoding="UTF-8"?>
<svg width="38px" height="38px" viewBox="0 0 38 38" version="1.1" xmlns="http://www.w3.org/2000/svg" xmlns:xlink="http://www.w3.org/1999/xlink">
    <!-- Generator: Sketch 58 (84663) - https://sketch.com -->
    <title>delete comment@1x</title>
    <desc>Created with Sketch.</desc>
    <g id="documnet-view" stroke="none" stroke-width="1" fill="none" fill-rule="evenodd">
        <g id="delete-comment" fill="#000000">
            <path d="M18.6895822,1.57166119 C28.1361633,1.57166119 35.8207242,9.3354311 35.8207242,18.876478 C35.8207242,28.417525 28.1361633,36.1789315 18.6895822,36.1789315 C9.24300109,36.1789315 1.55610018,28.417525 1.55610018,18.876478 C1.55610018,9.3354311 9.24300109,1.57166119 18.6895822,1.57166119 M18.6895822,7.17648163e-13 C8.36784099,7.17648163e-13 3.55271368e-15,8.4515194 3.55271368e-15,18.876478 C3.55271368e-15,29.3014367 8.36784099,37.7529561 18.6895822,37.7529561 C29.0113234,37.7529561 37.3791644,29.3014367 37.3791644,18.876478 C37.3791644,8.4515194 29.0113234,7.17648163e-13 18.6895822,7.17648163e-13" id="Fill-279"></path>
            <path d="M22.733438,17.8701958 L28.1240982,17.8701958 C28.4628196,17.8701958 28.7428004,18.1220446 28.7909066,18.4505697 L28.7982091,18.5512524 L28.7982091,26.7177958 C28.7982091,27.0599045 28.5490212,27.342854 28.2237792,27.3914721 L28.1240982,27.3988524 L26.1029803,27.3988524 L26.1029803,29.4420221 C26.1029803,29.7160809 25.9389581,29.9655972 25.6858374,30.0699031 C25.6028138,30.1046718 25.5157403,30.1210335 25.4286668,30.1210335 C25.2877292,30.1210335 25.1493836,30.0778386 25.0343656,29.993543 L24.9528,29.9226477 L22.4539927,27.3988524 L17.3429803,27.3988524 C17.0044429,27.3988524 16.7241442,27.1470036 16.6759786,26.8184784 L16.6686668,26.7177958 L16.6686668,22.6355467 C16.6686668,22.2594317 16.9705891,21.9544901 17.3429803,21.9544901 C17.6800449,21.9544901 17.9598751,22.2065079 18.0079676,22.5349101 L18.0152688,22.6355467 L18.0152688,26.0389889 L22.733438,26.0389889 C22.8759955,26.0389889 23.0146651,26.0846709 23.1287112,26.1678669 L23.2093048,26.2371703 L24.7543534,27.7976693 L24.7543534,26.7177958 C24.7543534,26.3756871 25.0037086,26.0945968 25.328981,26.0463168 L25.4286668,26.0389889 L27.4497847,26.0389889 L27.4497847,19.232309 L22.733438,19.232309 C22.3608443,19.232309 22.0591245,18.9275719 22.0591245,18.5512524 C22.0591245,18.2091437 22.3084797,17.9261941 22.6337522,17.8775761 L22.733438,17.8701958 L28.1240982,17.8701958 Z M9.25526875,12.4258335 L20.0382091,12.4258335 C20.3750897,12.4258335 20.6550704,12.6778513 20.7031919,13.0062535 L20.7104976,13.1068901 L20.7104976,19.9113203 C20.7104976,20.253429 20.4611424,20.5363786 20.1373913,20.5849966 L20.0382091,20.5923769 L14.2508582,20.5923769 L11.754076,23.1161722 C11.6244782,23.247066 11.4523561,23.3147626 11.2761841,23.3147626 C11.1891106,23.3147626 11.1020371,23.2981963 11.0190135,23.2636322 C10.799482,23.1721855 10.646306,22.9697188 10.6114422,22.736933 L10.6038957,22.6355467 L10.6038957,20.5923769 L9.25526875,20.5923769 C8.91654728,20.5923769 8.63639918,20.3405281 8.58826252,20.012003 L8.5809553,19.9113203 L8.5809553,13.1068901 C8.5809553,12.7649673 8.83031053,12.4818656 9.15558295,12.4332184 L9.25526875,12.4258335 L20.0382091,12.4258335 Z M19.3638957,13.7859015 L9.9295822,13.7859015 L9.9295822,19.232309 L11.2761841,19.232309 C11.6149056,19.232309 11.8950537,19.4841577 11.9431904,19.8111463 L11.9504976,19.9113203 L11.9504976,20.9911938 L13.4955461,19.4306948 C13.5976044,19.3292522 13.7268782,19.2631508 13.866779,19.240768 L13.973438,19.232309 L19.3638957,19.232309 L19.3638957,13.7859015 Z M27.403654,11.063385 L27.4780803,11.1265944 C27.6863599,11.334874 27.7080012,11.6596841 27.5440268,11.8955051 L27.4738376,11.9793652 L26.1753664,13.27739 L27.4738376,14.5764818 C27.6868296,14.7894737 27.7096674,15.1200297 27.5412897,15.3548263 L27.4780803,15.4292526 C27.2698006,15.6375322 26.9449905,15.6591735 26.7091696,15.4951991 L26.6253095,15.4250099 L25.3268382,14.1259182 L24.0281928,15.4250099 C23.8152009,15.6380019 23.4846449,15.6608397 23.2498483,15.492462 L23.1754221,15.4292526 C22.9671424,15.2209729 22.9455011,14.8961628 23.1094755,14.6603419 L23.1796647,14.5764818 L24.4783101,13.27739 L23.1796647,11.9793652 C22.9666728,11.7663732 22.943835,11.4358172 23.1122127,11.2010206 L23.1754221,11.1265944 C23.3837017,10.9183148 23.7085118,10.8966734 23.9443328,11.0606479 L24.0281928,11.130837 L25.3268382,12.4288619 L26.6253095,11.130837 C26.8383014,10.9178451 27.1688574,10.8950073 27.403654,11.063385 Z" id="Combined-Shape-Copy"></path>
        </g>
    </g>
</svg>