<?xml version="1.0" encoding="UTF-8"?>
<svg width="8px" height="12px" viewBox="0 0 8 12" version="1.1" xmlns="http://www.w3.org/2000/svg" xmlns:xlink="http://www.w3.org/1999/xlink">
    <!-- Generator: Sketch 55 (78076) - https://sketchapp.com -->
    <title>Delete-gray</title>
    <desc>Created with Sketch.</desc>
    <g id="Admin" stroke="none" stroke-width="1" fill="none" fill-rule="evenodd">
        <g id="admin-edit-whatsnew" transform="translate(-1345.000000, -357.000000)" fill="#818181" fill-rule="nonzero">
            <g id="Group-15" transform="translate(1313.000000, 273.000000)">
                <path d="M32.4,86.4 L39.6,86.4 C39.84,86.4 40,86.24 40,86 C40,85.76 39.84,85.6 39.6,85.6 L38.24,85.6 C37.92,84.64 37,84 36,84 C35.04,84 34.2,84.56 33.8,85.44 C33.8,85.44 33.8,85.44 33.8,85.44 C33.76,85.48 33.76,85.56 33.76,85.6 L32.4,85.6 C32.16,85.6 32,85.76 32,86 C32,86.24 32.16,86.4 32.4,86.4 Z M36,84.8 C36.6,84.8 37.12,85.12 37.4,85.6 L34.64,85.6 C34.92,85.12 35.44,84.8 36,84.8 Z M39.6,87.2 L39.2,87.2 L32.8,87.2 L32.4,87.2 C32.16,87.2 32,87.36 32,87.6 C32,87.84 32.16,88 32.4,88 L32.4,95.6 C32.4,95.84 32.56,96 32.8,96 L39.2,96 C39.44,96 39.6,95.84 39.6,95.6 L39.6,88 C39.84,88 40,87.84 40,87.6 C40,87.36 39.84,87.2 39.6,87.2 Z M38.8,95.2 L33.2,95.2 L33.2,88 L38.8,88 L38.8,95.2 Z M34,94 L34,89.2 C34,88.96 34.16,88.8 34.4,88.8 C34.64,88.8 34.8,88.96 34.8,89.2 L34.8,94 C34.8,94.24 34.64,94.4 34.4,94.4 C34.16,94.4 34,94.24 34,94 Z M35.6,94 L35.6,89.2 C35.6,88.96 35.76,88.8 36,88.8 C36.24,88.8 36.4,88.96 36.4,89.2 L36.4,94 C36.4,94.24 36.24,94.4 36,94.4 C35.76,94.4 35.6,94.24 35.6,94 Z M37.2,94 L37.2,89.2 C37.2,88.96 37.36,88.8 37.6,88.8 C37.84,88.8 38,88.96 38,89.2 L38,94 C38,94.24 37.84,94.4 37.6,94.4 C37.36,94.4 37.2,94.24 37.2,94 Z" id="Delete-gray"></path>
            </g>
        </g>
    </g>
</svg>