<?xml version="1.0" encoding="UTF-8"?>
<svg width="8px" height="12px" viewBox="0 0 8 12" version="1.1" xmlns="http://www.w3.org/2000/svg" xmlns:xlink="http://www.w3.org/1999/xlink">
    <!-- Generator: Sketch 55 (78076) - https://sketchapp.com -->
    <title>Delete</title>
    <desc>Created with Sketch.</desc>
    <g id="Admin" stroke="none" stroke-width="1" fill="none" fill-rule="evenodd">
        <g id="admin-edit-whatsnew-4" transform="translate(-1349.000000, -357.000000)" fill="#FFFFFF" fill-rule="nonzero">
            <g id="Group-17" transform="translate(221.000000, 257.000000)">
                <g id="Group-15">
                    <g id="Group-14" transform="translate(0.000000, 16.000000)">
                        <g id="Group-19" transform="translate(1057.000000, 0.000000)">
                            <path d="M71.375,86.25 L78.125,86.25 C78.35,86.25 78.5,86.1 78.5,85.875 C78.5,85.65 78.35,85.5 78.125,85.5 L76.85,85.5 C76.55,84.6 75.6875,84 74.75,84 C73.85,84 73.0625,84.525 72.6875,85.35 C72.6875,85.35 72.6875,85.35 72.6875,85.35 C72.65,85.3875 72.65,85.4625 72.65,85.5 L71.375,85.5 C71.15,85.5 71,85.65 71,85.875 C71,86.1 71.15,86.25 71.375,86.25 Z M74.75,84.75 C75.3125,84.75 75.8,85.05 76.0625,85.5 L73.475,85.5 C73.7375,85.05 74.225,84.75 74.75,84.75 Z M78.125,87 L77.75,87 L71.75,87 L71.375,87 C71.15,87 71,87.15 71,87.375 C71,87.6 71.15,87.75 71.375,87.75 L71.375,94.875 C71.375,95.1 71.525,95.25 71.75,95.25 L77.75,95.25 C77.975,95.25 78.125,95.1 78.125,94.875 L78.125,87.75 C78.35,87.75 78.5,87.6 78.5,87.375 C78.5,87.15 78.35,87 78.125,87 Z M77.375,94.5 L72.125,94.5 L72.125,87.75 L77.375,87.75 L77.375,94.5 Z M72.875,93.375 L72.875,88.875 C72.875,88.65 73.025,88.5 73.25,88.5 C73.475,88.5 73.625,88.65 73.625,88.875 L73.625,93.375 C73.625,93.6 73.475,93.75 73.25,93.75 C73.025,93.75 72.875,93.6 72.875,93.375 Z M74.375,93.375 L74.375,88.875 C74.375,88.65 74.525,88.5 74.75,88.5 C74.975,88.5 75.125,88.65 75.125,88.875 L75.125,93.375 C75.125,93.6 74.975,93.75 74.75,93.75 C74.525,93.75 74.375,93.6 74.375,93.375 Z M75.875,93.375 L75.875,88.875 C75.875,88.65 76.025,88.5 76.25,88.5 C76.475,88.5 76.625,88.65 76.625,88.875 L76.625,93.375 C76.625,93.6 76.475,93.75 76.25,93.75 C76.025,93.75 75.875,93.6 75.875,93.375 Z" id="Delete"></path>
                        </g>
                    </g>
                </g>
            </g>
        </g>
    </g>
</svg>