<?xml version="1.0" encoding="UTF-8"?>
<svg width="39px" height="39px" viewBox="0 0 39 39" version="1.1" xmlns="http://www.w3.org/2000/svg" xmlns:xlink="http://www.w3.org/1999/xlink">
    <!-- Generator: Sketch 54 (76480) - https://sketchapp.com -->
    <title>Delete-active</title>
    <desc>Created with Sketch.</desc>
    <g id="Page-1" stroke="none" stroke-width="1" fill="none" fill-rule="evenodd">
        <g id="Icons-Used" transform="translate(-868.000000, -124.000000)" fill="#000000">
            <g id="Delete-active" transform="translate(868.780002, 124.779999)">
                <path d="M11.6812803,11.6812803 L25.6978807,11.6812803 C26.1284407,11.6812803 26.4771008,11.3326203 26.4771008,10.9020603 C26.4771008,10.4715003 26.1284407,10.1230743 25.6978807,10.1230743 L23.0843347,10.1230743 C22.4314746,8.28851424 20.6832606,7.0083002 18.6895805,7.0083002 C16.8339605,7.0083002 15.1538404,8.10810023 14.4076144,9.80928028 C14.3629204,9.91458028 14.3278204,10.0198803 14.2903804,10.1230743 L11.6812803,10.1230743 C11.2507203,10.1230743 10.9020603,10.4715003 10.9020603,10.9020603 C10.9020603,11.3326203 11.2507203,11.6812803 11.6812803,11.6812803 Z M18.6895805,8.56674024 C19.8221406,8.56674024 20.8353606,9.18450026 21.3829206,10.1230743 L15.9985805,10.1230743 C16.5508205,9.17046026 17.5710605,8.56674024 18.6895805,8.56674024 Z M25.6978807,13.2397204 L11.6812803,13.2397204 C11.2507203,13.2397204 10.9020603,13.5860404 10.9020603,14.0166004 C10.9020603,14.4471604 11.2507203,14.7960544 11.6812803,14.7960544 L11.6812803,29.5916408 C11.6812803,30.0222009 12.0299403,30.3708609 12.4605004,30.3708609 L24.9210007,30.3708609 C25.3492207,30.3708609 25.6978807,30.0222009 25.6978807,29.5916408 L25.6978807,14.7960544 C26.1284407,14.7960544 26.4771008,14.4471604 26.4771008,14.0166004 C26.4771008,13.5860404 26.1284407,13.2397204 25.6978807,13.2397204 Z M13.2397204,28.8126548 L24.1417807,28.8126548 L24.1417807,14.7960544 L13.2397204,14.7960544 L13.2397204,28.8126548 Z M14.7958204,26.4771008 L14.7958204,17.1334805 C14.7958204,16.7029205 15.1444804,16.3542605 15.5750404,16.3542605 C16.0056005,16.3542605 16.3542605,16.7029205 16.3542605,17.1334805 L16.3542605,26.4771008 C16.3542605,26.9076608 16.0056005,27.2565548 15.5750404,27.2565548 C15.1444804,27.2565548 14.7958204,26.9076608 14.7958204,26.4771008 Z M17.9127005,26.4771008 L17.9127005,17.1334805 C17.9127005,16.7029205 18.2613605,16.3542605 18.6895805,16.3542605 C19.1201405,16.3542605 19.4688006,16.7029205 19.4688006,17.1334805 L19.4688006,26.4771008 C19.4688006,26.9076608 19.1201405,27.2565548 18.6895805,27.2565548 C18.2613605,27.2565548 17.9127005,26.9076608 17.9127005,26.4771008 Z M21.0274746,17.1334805 C21.0274746,16.7029205 21.3759006,16.3542605 21.8041206,16.3542605 C22.2346806,16.3542605 22.5833406,16.7029205 22.5833406,17.1334805 L22.5833406,26.4771008 C22.5833406,26.9076608 22.2346806,27.2565548 21.8041206,27.2565548 C21.3759006,27.2565548 21.0274746,26.9076608 21.0274746,26.4771008 L21.0274746,17.1334805 Z" id="Fill-112"></path>
                <path d="M35.823061,18.6895805 C35.823061,28.1361608 28.1361608,35.823295 18.6895805,35.823295 C9.24300026,35.823295 1.55844004,28.1361608 1.55844004,18.6895805 C1.55844004,9.24300026 9.24300026,1.55844004 18.6895805,1.55844004 C28.1361608,1.55844004 35.823061,9.24300026 35.823061,18.6895805 Z M0,18.6895805 C0,29.0115548 8.36784024,37.3791611 18.6895805,37.3791611 C29.0113208,37.3791611 37.3793951,29.0115548 37.3793951,18.6895805 C37.3793951,8.36807424 29.0113208,-1.13686838e-13 18.6895805,-1.13686838e-13 C8.36784024,-1.13686838e-13 0,8.36807424 0,18.6895805 Z" id="Fill-113"></path>
            </g>
        </g>
    </g>
</svg>