<?xml version="1.0" encoding="UTF-8"?>
<svg width="38px" height="38px" viewBox="0 0 38 38" version="1.1" xmlns="http://www.w3.org/2000/svg" xmlns:xlink="http://www.w3.org/1999/xlink">
    <!-- Generator: Sketch 59.1 (86144) - https://sketch.com -->
    <title>Disassociate_active</title>
    <desc>Created with Sketch.</desc>
    <g id="Project-Management" stroke="none" stroke-width="1" fill="none" fill-rule="evenodd">
        <path d="M18.6897,0.275820532 C29.0097,0.275820532 37.3797,8.64582053 37.3797,18.9658205 C37.3797,29.2858205 29.0097,37.6568205 18.6897,37.6568205 C8.3697,37.6568205 0.0007,29.2858205 0.0007,18.9658205 C0.0007,8.64582053 8.3697,0.275820532 18.6897,0.275820532 Z M18.6897,1.83582053 C9.2397,1.83582053 1.5597,9.52582053 1.5597,18.9658205 C1.5597,28.4158205 9.2397,36.0958205 18.6897,36.0958205 C28.1297,36.0958205 35.8197,28.4158205 35.8197,18.9658205 C35.8197,9.52582053 28.1297,1.83582053 18.6897,1.83582053 Z M27.0198,22.8662205 C28.3098,22.8662205 29.3598,23.9062205 29.3598,25.1962205 C29.3598,25.3482205 29.3428,25.4952205 29.3158,25.6402205 C29.0938,26.6992205 28.1558,27.4952205 27.0308,27.4952205 C26.0138,27.4952205 25.1588,26.8432205 24.8368,25.9352205 L24.77305,25.9517205 L24.77305,25.9517205 L24.7078,25.9622205 L23.2078,25.9622205 C22.7648,25.9622205 22.4058,25.6022205 22.4058,25.1592205 C22.4058,24.7502975 22.7116935,24.4120963 23.1071855,24.362485 L23.2078,24.3562205 L24.7078,24.3562205 C24.7558,24.3562205 24.7978,24.3762205 24.8438,24.3842205 C25.1728,23.5012205 26.0228,22.8662205 27.0198,22.8662205 Z M27.0198,24.1062205 C26.4198,24.1062205 25.9298,24.5962205 25.9298,25.1962205 C25.9298,25.7962205 26.4198,26.2862205 27.0198,26.2862205 C27.6208,26.2862205 28.1098,25.7962205 28.1098,25.1962205 C28.1098,24.5962205 27.6208,24.1062205 27.0198,24.1062205 Z M17.7536,22.8775205 L17.7646,22.8775205 C18.2036,22.8775205 18.5616,23.2295205 18.5676,23.6695205 C18.5721455,24.0131569 18.8312364,24.2997685 19.1630545,24.3490397 L19.2646,24.3565205 L20.0686,24.3565205 C20.5116,24.3565205 20.8716,24.7155205 20.8716,25.1595205 C20.8716,25.5684436 20.5648544,25.9057927 20.1692313,25.9552729 L20.0686,25.9615205 L19.2646,25.9615205 C18.0126,25.9615205 16.9806,24.9435205 16.9626,23.6925205 C16.9561385,23.2835975 17.2581266,22.9411359 17.6530561,22.8853635 L17.7536,22.8775205 L17.7646,22.8775205 Z M17.7648,16.5992205 C18.1737231,16.5992205 18.5119243,16.9059661 18.5615355,17.3015892 L18.5678,17.4022205 L18.5678,18.1862205 L24.8308,18.1862205 C24.8328,18.1752205 24.8398,18.1652205 24.8438,18.1552205 C24.8778,18.0632205 24.9168,17.9732205 24.9628,17.8872205 C24.9718,17.8692205 24.9818,17.8522205 24.9918,17.8352205 C25.3878,17.1222205 26.1468,16.6362205 27.0198,16.6362205 C28.3098,16.6362205 29.3598,17.6762205 29.3598,18.9662205 C29.3598,19.2842205 29.2948,19.5862205 29.1798,19.8632205 C28.8248,20.6992205 27.9968,21.2862205 27.0308,21.2862205 C26.0698,21.2862205 25.2468,20.7052205 24.8878,19.8762205 C24.8838,19.8672205 24.8788,19.8572205 24.8748,19.8472205 L24.851675,19.7970955 L24.851675,19.7970955 L24.8308,19.7462205 L18.5678,19.7462205 L18.5678,20.5422205 C18.5678,20.9852205 18.2078,21.3452205 17.7648,21.3452205 C17.3558769,21.3452205 17.0176757,21.038475 16.9680645,20.6428518 L16.9618,20.5422205 L16.9618,19.7572205 L16.8998,19.7572205 L16.8998,19.7462205 L10.5298,19.7462205 C10.1998,20.6452205 9.3498,21.3062205 8.3298,21.3062205 C7.0498,21.3062205 5.9998,20.2562205 5.9998,18.9662205 C5.9998,17.6762205 7.0498,16.6362205 8.3298,16.6362205 C9.2898,16.6362205 10.0992118,17.2119991 10.466238,18.0300736 L10.5298,18.1862205 L16.8998,18.1862205 L16.8998,18.1802205 L16.9618,18.1802205 L16.9618,17.4022205 C16.9618,16.9592205 17.3218,16.5992205 17.7648,16.5992205 Z M27.0198,17.8762205 C26.4198,17.8762205 25.9298,18.3662205 25.9298,18.9662205 C25.9298,19.5662205 26.4198,20.0562205 27.0198,20.0562205 C27.6208,20.0562205 28.1098,19.5662205 28.1098,18.9662205 C28.1098,18.3662205 27.6208,17.8762205 27.0198,17.8762205 Z M8.3298,17.8762205 C7.7298,17.8762205 7.2398,18.3662205 7.2398,18.9662205 C7.2398,19.5662205 7.7298,20.0562205 8.3298,20.0562205 C8.9398,20.0562205 9.4198,19.5662205 9.4198,18.9662205 C9.4198,18.3662205 8.9398,17.8762205 8.3298,17.8762205 Z M27.0258,10.4061205 C28.3128,10.4101205 29.3598,11.4481205 29.3598,12.7361205 C29.3598,14.0241205 28.3128,15.0721205 27.0258,15.0751205 C26.8758,15.0751205 26.7298,15.0591205 26.5868,15.0311205 C26.5578,15.0251205 26.5298,15.0171205 26.4998,15.0101205 C26.3878,14.9831205 26.2788,14.9501205 26.1728,14.9081205 C26.1398,14.8961205 26.1078,14.8821205 26.0768,14.8681205 C25.9728,14.8211205 25.8738,14.7671205 25.7798,14.7071205 C25.7548,14.6911205 25.7298,14.6781205 25.7068,14.6621205 C25.5928,14.5841205 25.4868,14.4971205 25.3888,14.4001205 C25.3688,14.3801205 25.3518,14.3561205 25.3328,14.3351205 C25.2608,14.2591205 25.1948,14.1801205 25.1338,14.0951205 C25.1008,14.0481205 25.0718,13.9991205 25.0408,13.9491205 C25.0008,13.8841205 24.9648,13.8171205 24.9318,13.7481205 C24.9048,13.6901205 24.8778,13.6321205 24.8548,13.5721205 C24.8518,13.5651205 24.8508,13.5581205 24.8488,13.5501205 L24.77905,13.5679955 L24.77905,13.5679955 L24.7078,13.5791205 L23.2078,13.5791205 C22.7648,13.5791205 22.4058,13.2191205 22.4058,12.7761205 C22.4058,12.3671975 22.7116935,12.0289963 23.1071855,11.979385 L23.2078,11.9731205 L24.7078,11.9731205 C24.7508,11.9731205 24.7888,11.9911205 24.8298,11.9981205 C24.8418,11.9581205 24.8488,11.9171205 24.8648,11.8781205 C24.8788,11.8411205 24.8968,11.8051205 24.9138,11.7691205 C24.9568,11.6741205 25.0058,11.5831205 25.0618,11.4951205 C25.0818,11.4641205 25.0998,11.4331205 25.1208,11.4031205 C25.1968,11.2961205 25.2788,11.1931205 25.3708,11.1011205 C25.3738,11.0971205 25.3768,11.0921205 25.3808,11.0881205 C25.4828,10.9871205 25.5928,10.8971205 25.7108,10.8161205 C25.7288,10.8041205 25.7478,10.7941205 25.7658,10.7831205 L25.91905,10.6916205 L25.91905,10.6916205 L26.0798,10.6121205 L26.1698,10.5741205 C26.2768,10.5321205 26.3868,10.4981205 26.5008,10.4721205 C26.5298,10.4651205 26.5578,10.4561205 26.5868,10.4511205 C26.7298,10.4231205 26.8748,10.4071205 27.0258,10.4061205 Z M19.2651,11.9730205 L20.0601,11.9730205 C20.5031,11.9730205 20.8621,12.3330205 20.8621,12.7760205 C20.8621,13.1849436 20.5562065,13.5231448 20.1607145,13.5727561 L20.0601,13.5790205 L19.2651,13.5790205 C18.8831,13.5790205 18.5711,13.8890205 18.5681,14.2700205 C18.5644077,14.6770975 18.2582302,15.0108963 17.8650759,15.0598412 L17.7651,15.0660205 C17.3151,15.0620205 16.9581,14.7000205 16.9620667,14.2560205 C16.9716819,13.0504372 17.9217111,12.0588417 19.1089547,11.9783018 L19.2651,11.9730205 L20.0601,11.9730205 Z M27.0198,11.6461205 C26.4198,11.6461205 25.9298,12.1361205 25.9298,12.7361205 C25.9298,13.3361205 26.4198,13.8261205 27.0198,13.8261205 C27.6208,13.8261205 28.1098,13.3361205 28.1098,12.7361205 C28.1098,12.1361205 27.6208,11.6461205 27.0198,11.6461205 Z" id="Disassociate_active" fill="#000000"></path>
    </g>
</svg>