<?xml version="1.0" encoding="UTF-8"?>
<svg width="38px" height="38px" viewBox="0 0 38 38" version="1.1" xmlns="http://www.w3.org/2000/svg" xmlns:xlink="http://www.w3.org/1999/xlink">
    <!-- Generator: Sketch 59.1 (86144) - https://sketch.com -->
    <title>Disassociate_disabled</title>
    <desc>Created with Sketch.</desc>
    <g id="Project-Management" stroke="none" stroke-width="1" fill="none" fill-rule="evenodd">
        <path d="M18.6897,0.5 C29.0097,0.5 37.3797,8.87 37.3797,19.19 C37.3797,29.51 29.0097,37.881 18.6897,37.881 C8.3697,37.881 0.0007,29.51 0.0007,19.19 C0.0007,8.87 8.3697,0.5 18.6897,0.5 Z M18.6897,2.06 C9.2397,2.06 1.5597,9.75 1.5597,19.19 C1.5597,28.64 9.2397,36.32 18.6897,36.32 C28.1297,36.32 35.8197,28.64 35.8197,19.19 C35.8197,9.75 28.1297,2.06 18.6897,2.06 Z M27.0198,23.0904 C28.3098,23.0904 29.3598,24.1304 29.3598,25.4204 C29.3598,25.5724 29.3428,25.7194 29.3158,25.8644 C29.0938,26.9234 28.1558,27.7194 27.0308,27.7194 C26.0138,27.7194 25.1588,27.0674 24.8368,26.1594 L24.77305,26.1759 L24.77305,26.1759 L24.7078,26.1864 L23.2078,26.1864 C22.7648,26.1864 22.4058,25.8264 22.4058,25.3834 C22.4058,24.9744769 22.7116935,24.6362757 23.1071855,24.5866645 L23.2078,24.5804 L24.7078,24.5804 C24.7558,24.5804 24.7978,24.6004 24.8438,24.6084 C25.1728,23.7254 26.0228,23.0904 27.0198,23.0904 Z M27.0198,24.3304 C26.4198,24.3304 25.9298,24.8204 25.9298,25.4204 C25.9298,26.0204 26.4198,26.5104 27.0198,26.5104 C27.6208,26.5104 28.1098,26.0204 28.1098,25.4204 C28.1098,24.8204 27.6208,24.3304 27.0198,24.3304 Z M17.7536,23.1017 L17.7646,23.1017 C18.2036,23.1017 18.5616,23.4537 18.5676,23.8937 C18.5721455,24.2373364 18.8312364,24.5239479 19.1630545,24.5732192 L19.2646,24.5807 L20.0686,24.5807 C20.5116,24.5807 20.8716,24.9397 20.8716,25.3837 C20.8716,25.7926231 20.5648544,26.1299722 20.1692313,26.1794524 L20.0686,26.1857 L19.2646,26.1857 C18.0126,26.1857 16.9806,25.1677 16.9626,23.9167 C16.9561385,23.5077769 17.2581266,23.1653154 17.6530561,23.109543 L17.7536,23.1017 L17.7646,23.1017 Z M17.7648,16.8234 C18.1737231,16.8234 18.5119243,17.1301456 18.5615355,17.5257687 L18.5678,17.6264 L18.5678,18.4104 L24.8308,18.4104 C24.8328,18.3994 24.8398,18.3894 24.8438,18.3794 C24.8778,18.2874 24.9168,18.1974 24.9628,18.1114 C24.9718,18.0934 24.9818,18.0764 24.9918,18.0594 C25.3878,17.3464 26.1468,16.8604 27.0198,16.8604 C28.3098,16.8604 29.3598,17.9004 29.3598,19.1904 C29.3598,19.5084 29.2948,19.8104 29.1798,20.0874 C28.8248,20.9234 27.9968,21.5104 27.0308,21.5104 C26.0698,21.5104 25.2468,20.9294 24.8878,20.1004 C24.8838,20.0914 24.8788,20.0814 24.8748,20.0714 L24.851675,20.021275 L24.851675,20.021275 L24.8308,19.9704 L18.5678,19.9704 L18.5678,20.7664 C18.5678,21.2094 18.2078,21.5694 17.7648,21.5694 C17.3558769,21.5694 17.0176757,21.2626544 16.9680645,20.8670313 L16.9618,20.7664 L16.9618,19.9814 L16.8998,19.9814 L16.8998,19.9704 L10.5298,19.9704 C10.1998,20.8694 9.3498,21.5304 8.3298,21.5304 C7.0498,21.5304 5.9998,20.4804 5.9998,19.1904 C5.9998,17.9004 7.0498,16.8604 8.3298,16.8604 C9.2898,16.8604 10.0992118,17.4361785 10.466238,18.254253 L10.5298,18.4104 L16.8998,18.4104 L16.8998,18.4044 L16.9618,18.4044 L16.9618,17.6264 C16.9618,17.1834 17.3218,16.8234 17.7648,16.8234 Z M27.0198,18.1004 C26.4198,18.1004 25.9298,18.5904 25.9298,19.1904 C25.9298,19.7904 26.4198,20.2804 27.0198,20.2804 C27.6208,20.2804 28.1098,19.7904 28.1098,19.1904 C28.1098,18.5904 27.6208,18.1004 27.0198,18.1004 Z M8.3298,18.1004 C7.7298,18.1004 7.2398,18.5904 7.2398,19.1904 C7.2398,19.7904 7.7298,20.2804 8.3298,20.2804 C8.9398,20.2804 9.4198,19.7904 9.4198,19.1904 C9.4198,18.5904 8.9398,18.1004 8.3298,18.1004 Z M27.0258,10.6303 C28.3128,10.6343 29.3598,11.6723 29.3598,12.9603 C29.3598,14.2483 28.3128,15.2963 27.0258,15.2993 C26.8758,15.2993 26.7298,15.2833 26.5868,15.2553 C26.5578,15.2493 26.5298,15.2413 26.4998,15.2343 C26.3878,15.2073 26.2788,15.1743 26.1728,15.1323 C26.1398,15.1203 26.1078,15.1063 26.0768,15.0923 C25.9728,15.0453 25.8738,14.9913 25.7798,14.9313 C25.7548,14.9153 25.7298,14.9023 25.7068,14.8863 C25.5928,14.8083 25.4868,14.7213 25.3888,14.6243 C25.3688,14.6043 25.3518,14.5803 25.3328,14.5593 C25.2608,14.4833 25.1948,14.4043 25.1338,14.3193 C25.1008,14.2723 25.0718,14.2233 25.0408,14.1733 C25.0008,14.1083 24.9648,14.0413 24.9318,13.9723 C24.9048,13.9143 24.8778,13.8563 24.8548,13.7963 C24.8518,13.7893 24.8508,13.7823 24.8488,13.7743 L24.77905,13.792175 L24.77905,13.792175 L24.7078,13.8033 L23.2078,13.8033 C22.7648,13.8033 22.4058,13.4433 22.4058,13.0003 C22.4058,12.5913769 22.7116935,12.2531757 23.1071855,12.2035645 L23.2078,12.1973 L24.7078,12.1973 C24.7508,12.1973 24.7888,12.2153 24.8298,12.2223 C24.8418,12.1823 24.8488,12.1413 24.8648,12.1023 C24.8788,12.0653 24.8968,12.0293 24.9138,11.9933 C24.9568,11.8983 25.0058,11.8073 25.0618,11.7193 C25.0818,11.6883 25.0998,11.6573 25.1208,11.6273 C25.1968,11.5203 25.2788,11.4173 25.3708,11.3253 C25.3738,11.3213 25.3768,11.3163 25.3808,11.3123 C25.4828,11.2113 25.5928,11.1213 25.7108,11.0403 C25.7288,11.0283 25.7478,11.0183 25.7658,11.0073 L25.91905,10.9158 L25.91905,10.9158 L26.0798,10.8363 L26.1698,10.7983 C26.2768,10.7563 26.3868,10.7223 26.5008,10.6963 C26.5298,10.6893 26.5578,10.6803 26.5868,10.6753 C26.7298,10.6473 26.8748,10.6313 27.0258,10.6303 Z M19.2651,12.1972 L20.0601,12.1972 C20.5031,12.1972 20.8621,12.5572 20.8621,13.0002 C20.8621,13.4091231 20.5562065,13.7473243 20.1607145,13.7969355 L20.0601,13.8032 L19.2651,13.8032 C18.8831,13.8032 18.5711,14.1132 18.5681,14.4942 C18.5644077,14.9012769 18.2582302,15.2350757 17.8650759,15.2840207 L17.7651,15.2902 C17.3151,15.2862 16.9581,14.9242 16.9620667,14.4802 C16.9716819,13.2746167 17.9217111,12.2830212 19.1089547,12.2024812 L19.2651,12.1972 L20.0601,12.1972 Z M27.0198,11.8703 C26.4198,11.8703 25.9298,12.3603 25.9298,12.9603 C25.9298,13.5603 26.4198,14.0503 27.0198,14.0503 C27.6208,14.0503 28.1098,13.5603 28.1098,12.9603 C28.1098,12.3603 27.6208,11.8703 27.0198,11.8703 Z" id="Disassociate_disabled" fill="#AEAEAE"></path>
    </g>
</svg>