<?xml version="1.0" encoding="UTF-8"?>
<svg width="12px" height="12px" viewBox="0 0 12 12" version="1.1" xmlns="http://www.w3.org/2000/svg" xmlns:xlink="http://www.w3.org/1999/xlink">
    <!-- Generator: Sketch 55 (78076) - https://sketchapp.com -->
    <title>Discard-gray</title>
    <desc>Created with Sketch.</desc>
    <g id="Admin" stroke="none" stroke-width="1" fill="none" fill-rule="evenodd">
        <g id="admin-edit-FAQ-Copy-3" transform="translate(-1281.000000, -369.000000)" fill="#818181">
            <g id="Group-2" transform="translate(221.000000, 257.000000)">
                <g id="Group-15-Copy" transform="translate(1023.000000, 108.000000)">
                    <path d="M43.7,10 L48.85,4.85 C49.05,4.65 49.05,4.35 48.85,4.15 C48.65,3.95 48.35,3.95 48.15,4.15 L43,9.3 L37.85,4.15 C37.65,3.95 37.35,3.95 37.15,4.15 C36.95,4.35 36.95,4.65 37.15,4.85 L42.3,10 L37.15,15.15 C36.95,15.35 36.95,15.65 37.15,15.85 C37.25,15.95 37.4,16 37.5,16 C37.6,16 37.75,15.95 37.85,15.85 L43,10.7 L48.15,15.85 C48.25,15.95 48.4,16 48.5,16 C48.6,16 48.75,15.95 48.85,15.85 C49.05,15.65 49.05,15.35 48.85,15.15 L43.7,10 Z" id="Discard-gray"></path>
                </g>
            </g>
        </g>
    </g>
</svg>