<?xml version="1.0" encoding="UTF-8"?>
<svg width="13px" height="12px" viewBox="0 0 13 12" version="1.1" xmlns="http://www.w3.org/2000/svg" xmlns:xlink="http://www.w3.org/1999/xlink">
    <!-- Generator: Sketch 55 (78076) - https://sketchapp.com -->
    <title>Discard</title>
    <desc>Created with Sketch.</desc>
    <g id="Admin" stroke="none" stroke-width="1" fill="none" fill-rule="evenodd">
        <g id="admin-edit-whatsnew-4" transform="translate(-1316.000000, -357.000000)" fill="#FFFFFF" fill-rule="nonzero">
            <path d="M1323.2,363 L1328.35,357.85 C1328.55,357.65 1328.55,357.35 1328.35,357.15 C1328.15,356.95 1327.85,356.95 1327.65,357.15 L1322.5,362.3 L1317.35,357.15 C1317.15,356.95 1316.85,356.95 1316.65,357.15 C1316.45,357.35 1316.45,357.65 1316.65,357.85 L1321.8,363 L1316.65,368.15 C1316.45,368.35 1316.45,368.65 1316.65,368.85 C1316.75,368.95 1316.9,369 1317,369 C1317.1,369 1317.25,368.95 1317.35,368.85 L1322.5,363.7 L1327.65,368.85 C1327.75,368.95 1327.9,369 1328,369 C1328.1,369 1328.25,368.95 1328.35,368.85 C1328.55,368.65 1328.55,368.35 1328.35,368.15 L1323.2,363 Z" id="Discard"></path>
        </g>
    </g>
</svg>