<?xml version="1.0" encoding="UTF-8"?>
<svg width="38px" height="39px" viewBox="0 0 38 39" version="1.1" xmlns="http://www.w3.org/2000/svg" xmlns:xlink="http://www.w3.org/1999/xlink">
    <!-- Generator: Sketch 54 (76480) - https://sketchapp.com -->
    <title>Download-active</title>
    <desc>Created with Sketch.</desc>
    <g id="Page-1" stroke="none" stroke-width="1" fill="none" fill-rule="evenodd">
        <g id="Icons-Used" transform="translate(-935.000000, -124.000000)" fill="#000000">
            <g id="Download-active" transform="translate(935.250003, 124.780002)">
                <path d="M35.820721,18.6898145 C35.820721,28.1363948 28.1361608,35.820721 18.6895805,35.820721 C9.24300026,35.820721 1.55844004,28.1363948 1.55844004,18.6898145 C1.55844004,9.24300026 9.24300026,1.55610004 18.6895805,1.55610004 C28.1361608,1.55610004 35.820721,9.24300026 35.820721,18.6898145 Z M4.54747351e-13,18.6898145 C4.54747351e-13,29.0113208 8.36784024,37.3768211 18.6895805,37.3768211 C29.0115548,37.3768211 37.3791611,29.0113208 37.3791611,18.6898145 C37.3791611,8.36807424 29.0115548,-2.13162821e-13 18.6895805,-2.13162821e-13 C8.36784024,-2.13162821e-13 4.54747351e-13,8.36807424 4.54747351e-13,18.6898145 Z" id="Fill-1759"></path>
                <path d="M11.9082603,20.7958146 C11.6040603,20.4913806 11.6040603,19.9999806 11.9082603,19.6957806 C12.2126943,19.3918146 12.7062004,19.3918146 13.0104004,19.6957806 L17.9103605,24.5957407 L17.9103605,7.78518022 C17.9103605,7.35696021 18.2592545,7.0083002 18.6895805,7.0083002 C19.1201405,7.0083002 19.4688006,7.35696021 19.4688006,7.78518022 L19.4688006,24.5957407 L24.3687607,19.6957806 C24.6731947,19.3918146 25.1643607,19.3918146 25.4685607,19.6957806 C25.7727607,19.9999806 25.7727607,20.4913806 25.4685607,20.7958146 L19.2394805,27.0270008 C19.1695145,27.0972008 19.0827005,27.1557008 18.9867605,27.1954808 C18.8908205,27.2329208 18.7902005,27.2539808 18.6895805,27.2539808 C18.5866205,27.2539808 18.4860005,27.2329208 18.3924005,27.1954808 C18.2964605,27.1557008 18.2101145,27.0972008 18.1373405,27.0270008 L11.9082603,20.7958146 Z M25.6978807,26.4771008 L25.6978807,28.8124208 L11.6812803,28.8124208 L11.6812803,26.4771008 C11.6812803,26.0465407 11.3326203,25.6978807 10.9020603,25.6978807 C10.4715003,25.6978807 10.1228403,26.0465407 10.1228403,26.4771008 L10.1228403,29.5916408 C10.1228403,30.0222009 10.4715003,30.3708609 10.9020603,30.3708609 L26.4773348,30.3708609 C26.9076608,30.3708609 27.2565548,30.0222009 27.2565548,29.5916408 L27.2565548,26.4771008 C27.2565548,26.0465407 26.9076608,25.6978807 26.4773348,25.6978807 C26.0465407,25.6978807 25.6978807,26.0465407 25.6978807,26.4771008 Z" id="Fill-1760"></path>
            </g>
        </g>
    </g>
</svg>