<?xml version="1.0" encoding="UTF-8"?>
<svg width="8px" height="11px" viewBox="0 0 8 11" version="1.1" xmlns="http://www.w3.org/2000/svg" xmlns:xlink="http://www.w3.org/1999/xlink">
    <!-- Generator: Sketch 58 (84663) - https://sketch.com -->
    <title>download-file-2</title>
    <desc>Created with Sketch.</desc>
    <g id="Page-1" stroke="none" stroke-width="1" fill="none" fill-rule="evenodd">
        <path d="M0.99767233,6.2483173 C0.859812951,6.11035187 0.859812951,5.88765595 0.99767233,5.74979657 C1.13563776,5.61204324 1.35928809,5.61204324 1.49714747,5.74979657 L3.71774393,7.97039304 L3.71774393,0.352071646 C3.71774393,0.158008058 3.87585803,0 4.07087603,0 C4.26600008,0 4.42400813,0.158008058 4.42400813,0.352071646 L4.42400813,7.97039304 L6.6446046,5.74979657 C6.78257002,5.61204324 7.0051599,5.61204324 7.14301928,5.74979657 C7.28087866,5.88765595 7.28087866,6.11035187 7.14301928,6.2483173 L4.32008337,9.07220762 C4.28837571,9.10402132 4.24903277,9.13053274 4.20555404,9.1485605 C4.16207531,9.16552781 4.11647567,9.17507192 4.07087603,9.17507192 C4.02421593,9.17507192 3.97861629,9.16552781 3.93619802,9.1485605 C3.8927193,9.13053274 3.85358844,9.10402132 3.82060824,9.07220762 L0.99767233,6.2483173 Z M7.60018219,8.46986817 C7.4049521,8.46986817 7.24694404,8.62787623 7.24694404,8.82300028 L7.24694404,9.88133613 L0.894808024,9.88133613 L0.894808024,8.82300028 C0.894808024,8.62787623 0.736799966,8.46986817 0.541675922,8.46986817 C0.346551877,8.46986817 0.188543819,8.62787623 0.188543819,8.82300028 L0.188543819,10.2344682 C0.188543819,10.4295923 0.346551877,10.5876003 0.541675922,10.5876003 L7.60018219,10.5876003 C7.79520019,10.5876003 7.95331429,10.4295923 7.95331429,10.2344682 L7.95331429,8.82300028 C7.95331429,8.62787623 7.79520019,8.46986817 7.60018219,8.46986817 L7.60018219,8.46986817 Z" id="download-file-2" fill="#000206"></path>
    </g>
</svg>