<?xml version="1.0" encoding="UTF-8"?>
<svg width="38px" height="39px" viewBox="0 0 38 39" version="1.1" xmlns="http://www.w3.org/2000/svg" xmlns:xlink="http://www.w3.org/1999/xlink">
    <!-- Generator: Sketch 54 (76480) - https://sketchapp.com -->
    <title>Edit-active</title>
    <desc>Created with Sketch.</desc>
    <g id="Page-1" stroke="none" stroke-width="1" fill="none" fill-rule="evenodd">
        <g id="Icons-Used" transform="translate(-804.000000, -124.000000)" fill="#000000">
            <g id="Edit-active" transform="translate(804.530002, 124.779999)">
                <path d="M35.820721,18.6895805 C35.820721,28.1361608 28.1361608,35.823061 18.6895805,35.823061 C9.24300026,35.823061 1.55610004,28.1361608 1.55610004,18.6895805 C1.55610004,9.24300026 9.24300026,1.55844004 18.6895805,1.55844004 C28.1361608,1.55844004 35.820721,9.24300026 35.820721,18.6895805 Z M-1.13686838e-13,18.6895805 C-1.13686838e-13,29.0113208 8.36784024,37.3793951 18.6895805,37.3793951 C29.0113208,37.3793951 37.3791611,29.0113208 37.3791611,18.6895805 C37.3791611,8.36784024 29.0113208,0 18.6895805,0 C8.36784024,0 -1.13686838e-13,8.36784024 -1.13686838e-13,18.6895805 Z" id="Fill-537"></path>
                <path d="M27.2516408,15.5542144 C27.2493008,15.4606144 27.2329208,15.3667804 27.1954808,15.2778604 C27.1557008,15.1819204 27.0972008,15.0953404 27.0246608,15.0228004 L22.3563606,10.3523943 C22.2838206,10.2819603 22.1995806,10.2234603 22.1036406,10.1836803 C22.0100406,10.1464743 21.9094206,10.1251803 21.8041206,10.1251803 L13.2373804,10.1251803 C12.8091604,10.1251803 12.4605004,10.4715003 12.4605004,10.9020603 L12.4605004,13.2397204 C12.4605004,13.6705144 12.8091604,14.0189404 13.2373804,14.0189404 C13.6679404,14.0189404 14.0166004,13.6705144 14.0166004,13.2397204 L14.0166004,11.6812803 L21.0249006,11.6812803 L21.0249006,15.5750404 C21.0249006,16.0056005 21.3735606,16.3542605 21.8041206,16.3542605 L25.6978807,16.3542605 L25.6978807,28.8147608 L14.0166004,28.8147608 L14.0166004,25.6978807 C14.0166004,25.2698947 13.6679404,24.9210007 13.2373804,24.9210007 C12.8091604,24.9210007 12.4605004,25.2698947 12.4605004,25.6978807 L12.4605004,29.5916408 C12.4605004,30.0222009 12.8091604,30.3708609 13.2373804,30.3708609 L26.4771008,30.3708609 C26.9076608,30.3708609 27.2563208,30.0222009 27.2563208,29.5916408 L27.2563208,15.5750404 C27.2563208,15.5680204 27.2516408,15.5610004 27.2516408,15.5542144 Z M22.5833406,14.7958204 L22.5833406,12.7834204 L24.5957407,14.7958204 L22.5833406,14.7958204 Z M14.6062804,24.1183807 L17.7208205,24.8976007 C17.7840005,24.9116407 17.8471805,24.9210007 17.9103605,24.9210007 C18.1139405,24.9210007 18.3128405,24.8393347 18.4602605,24.6916807 C18.6544805,24.4998007 18.7317005,24.2190007 18.6661805,23.9522407 L17.8869605,20.8379346 C17.8542005,20.7019806 17.7816605,20.5756206 17.6833805,20.4750006 L10.6750803,13.4669344 C10.3708803,13.1625004 9.87714028,13.1625004 9.57294027,13.4669344 L7.23762021,15.8043605 C6.9334202,16.1085605 6.9334202,16.5999605 7.23762021,16.9041605 L14.2459204,23.9124607 C14.3442004,24.0130807 14.4705604,24.0832807 14.6062804,24.1183807 Z M16.5531605,21.9258006 L16.8409805,23.0724007 L15.6967204,22.7845807 L16.5531605,21.9258006 Z M10.1228403,15.1187404 L15.6405604,20.6364606 L14.4073804,21.8722146 L8.88732025,16.3542605 L10.1228403,15.1187404 Z M24.1417807,24.1417807 C24.1417807,24.5723407 23.7907807,24.9210007 23.3625607,24.9210007 L21.0249006,24.9210007 C20.5966806,24.9210007 20.2480206,24.5723407 20.2480206,24.1417807 C20.2480206,23.7112207 20.5966806,23.3625607 21.0249006,23.3625607 L23.3625607,23.3625607 C23.7907807,23.3625607 24.1417807,23.7112207 24.1417807,24.1417807 Z M23.3625607,21.8041206 L20.2480206,21.8041206 C19.8174606,21.8041206 19.4688006,21.4580346 19.4688006,21.0274746 C19.4688006,20.5966806 19.8174606,20.2480206 20.2480206,20.2480206 L23.3625607,20.2480206 C23.7907807,20.2480206 24.1417807,20.5966806 24.1417807,21.0274746 C24.1417807,21.4580346 23.7907807,21.8041206 23.3625607,21.8041206 Z" id="Fill-538"></path>
            </g>
        </g>
    </g>
</svg>