<?xml version="1.0" encoding="UTF-8"?>
<svg width="12px" height="13px" viewBox="0 0 12 13" version="1.1" xmlns="http://www.w3.org/2000/svg" xmlns:xlink="http://www.w3.org/1999/xlink">
    <!-- Generator: Sketch 58 (84663) - https://sketch.com -->
    <title>edit selected</title>
    <desc>Created with Sketch.</desc>
    <g id="Page-1" stroke="none" stroke-width="1" fill="none" fill-rule="evenodd">
        <path d="M11.9973418,3.85583679 C11.9960127,3.80274559 11.986709,3.74952166 11.9654435,3.69908502 C11.9428489,3.64466654 11.9096215,3.59555719 11.8684195,3.55441151 L9.21687374,0.905293435 C9.17567177,0.865342308 9.12782433,0.832160309 9.07333141,0.80959655 C9.02016758,0.788492798 8.96301647,0.776414551 8.90320717,0.776414551 L4.03738804,0.776414551 C3.79416354,0.776414551 3.59612829,0.972851985 3.59612829,1.2170715 L3.59612829,2.54302418 C3.59612829,2.78737642 3.79416354,2.9850084 4.03738804,2.9850084 C4.28194164,2.9850084 4.47997689,2.78737642 4.47997689,2.54302418 L4.47997689,1.65905572 L8.46061832,1.65905572 L8.46061832,3.86764958 C8.46061832,4.11186909 8.65865357,4.3096338 8.90320717,4.3096338 L11.1148223,4.3096338 L11.1148223,11.3773996 L4.47997689,11.3773996 L4.47997689,9.60946269 C4.47997689,9.36670318 4.28194164,9.16880574 4.03738804,9.16880574 C3.79416354,9.16880574 3.59612829,9.36670318 3.59612829,9.60946269 L3.59612829,11.8180565 C3.59612829,12.0622761 3.79416354,12.2600408 4.03738804,12.2600408 L11.5574112,12.2600408 C11.8019648,12.2600408 12,12.0622761 12,11.8180565 L12,3.86764958 C12,3.86366774 11.9973418,3.8596859 11.9973418,3.85583679 Z M9.34579601,3.42566535 L9.34579601,2.28420459 L10.4888183,3.42566535 L9.34579601,3.42566535 Z M4.81490899,8.71354871 L6.58393528,9.15553294 C6.61982086,9.16349662 6.65570644,9.16880574 6.69159203,9.16880574 C6.80722335,9.16880574 6.92019648,9.12248367 7.0039295,9.0387323 C7.11424444,8.92989535 7.15810459,8.77062175 7.12088992,8.61931183 L6.67830107,6.85283494 C6.65969373,6.77571997 6.61849177,6.70404685 6.56266975,6.64697381 L2.58202832,2.67190306 C2.40924588,2.49922394 2.1288067,2.49922394 1.95602427,2.67190306 L0.629586825,3.99772301 C0.456804392,4.17026941 0.456804392,4.4489982 0.629586825,4.6215446 L4.61022826,8.59674808 C4.66605027,8.65382111 4.73782144,8.69363951 4.81490899,8.71354871 Z M5.92071656,7.46988739 L6.08419532,8.12025457 L5.43426755,7.95699913 L5.92071656,7.46988739 Z M2.26836175,3.60882999 L5.40236926,6.73855613 L4.70193586,7.43949268 L1.56659925,4.3096338 L2.26836175,3.60882999 Z M10.2309737,8.72682151 C10.2309737,8.97104102 10.0316094,9.16880574 9.78838486,9.16880574 L8.46061832,9.16880574 C8.21739382,9.16880574 8.01935857,8.97104102 8.01935857,8.72682151 C8.01935857,8.482602 8.21739382,8.28483728 8.46061832,8.28483728 L9.78838486,8.28483728 C10.0316094,8.28483728 10.2309737,8.482602 10.2309737,8.72682151 Z M9.78838486,7.40086883 L8.01935857,7.40086883 C7.77480497,7.40086883 7.57676972,7.20456413 7.57676972,6.96034461 C7.57676972,6.71599237 7.77480497,6.51822766 8.01935857,6.51822766 L9.78838486,6.51822766 C10.0316094,6.51822766 10.2309737,6.71599237 10.2309737,6.96034461 C10.2309737,7.20456413 10.0316094,7.40086883 9.78838486,7.40086883 Z" id="edit-selected" fill="#000000"></path>
    </g>
</svg>