<?xml version="1.0" encoding="UTF-8"?>
<svg width="12px" height="12px" viewBox="0 0 12 12" version="1.1" xmlns="http://www.w3.org/2000/svg" xmlns:xlink="http://www.w3.org/1999/xlink">
    <!-- Generator: Sketch 55 (78076) - https://sketchapp.com -->
    <title>Edit-gray</title>
    <desc>Created with Sketch.</desc>
    <g id="Admin" stroke="none" stroke-width="1" fill="none" fill-rule="evenodd">
        <g id="admin-edit-whatsnew" transform="translate(-1313.000000, -357.000000)" fill="#818181">
            <g id="Group-15" transform="translate(1313.000000, 273.000000)">
                <path d="M11.9972149,87.2178918 C11.9958223,87.1624133 11.9860743,87.1067961 11.9637933,87.0540915 C11.9401197,86.9972261 11.9053055,86.9459085 11.862136,86.9029126 L9.0839668,84.1346741 C9.04079725,84.0929265 8.99066488,84.0582524 8.93356967,84.0346741 C8.87786703,84.0126214 8.81798669,84 8.75532122,84 L3.65713711,84 C3.40229753,84 3.19480519,84.2052705 3.19480519,84.4604716 L3.19480519,85.8460472 C3.19480519,86.101387 3.40229753,86.3079057 3.65713711,86.3079057 C3.91336925,86.3079057 4.12086158,86.101387 4.12086158,85.8460472 L4.12086158,84.9223301 L8.29159675,84.9223301 L8.29159675,87.2302358 C8.29159675,87.4854369 8.49908908,87.6920943 8.75532122,87.6920943 L11.072551,87.6920943 L11.072551,95.0776699 L4.12086158,95.0776699 L4.12086158,93.2302358 C4.12086158,92.9765603 3.91336925,92.7697642 3.65713711,92.7697642 C3.40229753,92.7697642 3.19480519,92.9765603 3.19480519,93.2302358 L3.19480519,95.5381415 C3.19480519,95.7933426 3.40229753,96 3.65713711,96 L11.5362755,96 C11.7925077,96 12,95.7933426 12,95.5381415 L12,87.2302358 C12,87.2260749 11.9972149,87.221914 11.9972149,87.2178918 Z M9.27272727,86.7272727 L9.27272727,85.5584416 L10.4415584,86.7272727 L9.27272727,86.7272727 Z M4.51080755,92.3287323 L6.36014833,92.7913038 C6.39766313,92.7996384 6.43517793,92.8051948 6.47269274,92.8051948 C6.59357376,92.8051948 6.71167592,92.7567151 6.79921046,92.6690627 C6.91453373,92.5551562 6.96038516,92.3884637 6.92148092,92.2301059 L6.45879837,90.381348 C6.43934625,90.300641 6.3962737,90.2256294 6.33791734,90.165898 L2.17655322,86.0056717 C1.9959264,85.8249493 1.70275517,85.8249493 1.52212834,86.0056717 L0.135470117,87.3932472 C-0.0451567058,87.5738307 -0.0451567058,87.8655424 0.135470117,88.0461259 L4.29683424,92.2064912 C4.35519059,92.2662226 4.4302202,92.3078957 4.51080755,92.3287323 Z M5.66775556,91.012987 L5.84415584,91.7142857 L5.14285714,91.5382454 L5.66775556,91.012987 Z M1.81796582,86.961039 L5.06493506,90.2078957 L4.33925534,90.9350649 L1.09090909,87.6880705 L1.81796582,86.961039 Z M10.2077922,92.3376623 C10.2077922,92.5959986 9.99706543,92.8051948 9.73997877,92.8051948 L8.33653846,92.8051948 C8.0794518,92.8051948 7.87012987,92.5959986 7.87012987,92.3376623 C7.87012987,92.0793261 8.0794518,91.8701299 8.33653846,91.8701299 L9.73997877,91.8701299 C9.99706543,91.8701299 10.2077922,92.0793261 10.2077922,92.3376623 Z M9.74002562,90.9350649 L7.87036399,90.9350649 C7.61189837,90.9350649 7.4025974,90.7271009 7.4025974,90.4683761 C7.4025974,90.2095108 7.61189837,90 7.87036399,90 L9.74002562,90 C9.99708654,90 10.2077922,90.2095108 10.2077922,90.4683761 C10.2077922,90.7271009 9.99708654,90.9350649 9.74002562,90.9350649 Z" id="Edit-gray"></path>
            </g>
        </g>
    </g>
</svg>