<?xml version="1.0" encoding="UTF-8"?>
<svg width="12px" height="12px" viewBox="0 0 12 12" version="1.1" xmlns="http://www.w3.org/2000/svg" xmlns:xlink="http://www.w3.org/1999/xlink">
    <!-- Generator: Sketch 55 (78076) - https://sketchapp.com -->
    <title>Edit</title>
    <desc>Created with Sketch.</desc>
    <g id="Admin" stroke="none" stroke-width="1" fill="none" fill-rule="evenodd">
        <g id="admin-edit-whatsnew-2" transform="translate(-1317.000000, -357.000000)" fill="#FFFFFF">
            <g id="Group-6" transform="translate(222.000000, 257.000000)">
                <path d="M1106.99723,103.217892 C1106.99584,103.162413 1106.98613,103.106796 1106.96394,103.054092 C1106.94036,102.997226 1106.90569,102.945908 1106.8627,102.902913 L1104.09587,100.134674 C1104.05287,100.092926 1104.00295,100.058252 1103.94608,100.034674 C1103.89061,100.012621 1103.83097,100 1103.76856,100 L1098.69119,100 C1098.43739,100 1098.23074,100.20527 1098.23074,100.460472 L1098.23074,101.846047 C1098.23074,102.101387 1098.43739,102.307906 1098.69119,102.307906 C1098.94637,102.307906 1099.15302,102.101387 1099.15302,101.846047 L1099.15302,100.92233 L1103.30673,100.92233 L1103.30673,103.230236 C1103.30673,103.485437 1103.51338,103.692094 1103.76856,103.692094 L1106.07634,103.692094 L1106.07634,111.07767 L1099.15302,111.07767 L1099.15302,109.230236 C1099.15302,108.97656 1098.94637,108.769764 1098.69119,108.769764 C1098.43739,108.769764 1098.23074,108.97656 1098.23074,109.230236 L1098.23074,111.538141 C1098.23074,111.793343 1098.43739,112 1098.69119,112 L1106.53817,112 C1106.79335,112 1107,111.793343 1107,111.538141 L1107,103.230236 C1107,103.226075 1106.99723,103.221914 1106.99723,103.217892 Z M1104.2304,102.768377 L1104.2304,101.575589 L1105.42311,102.768377 L1104.2304,102.768377 Z M1099.50251,108.294036 L1101.34845,108.755895 C1101.3859,108.764216 1101.42335,108.769764 1101.46079,108.769764 C1101.58145,108.769764 1101.69934,108.721359 1101.78671,108.633842 C1101.90182,108.520111 1101.94759,108.353675 1101.90875,108.195562 L1101.44692,106.349653 C1101.42751,106.269071 1101.38451,106.194175 1101.32626,106.134535 L1097.17255,101.980721 C1096.99226,101.800277 1096.69962,101.800277 1096.51933,101.980721 L1095.13522,103.366158 C1094.95493,103.546463 1094.95493,103.837725 1095.13522,104.018031 L1099.28893,108.171983 C1099.34718,108.231623 1099.42207,108.273232 1099.50251,108.294036 Z M1100.6564,106.994452 L1100.82699,107.674064 L1100.1488,107.503467 L1100.6564,106.994452 Z M1096.84525,102.959778 L1100.11552,106.230236 L1099.38463,106.962691 L1096.11297,103.692094 L1096.84525,102.959778 Z M1105.15406,108.307906 C1105.15406,108.563107 1104.94603,108.769764 1104.69223,108.769764 L1103.30673,108.769764 C1103.05293,108.769764 1102.84629,108.563107 1102.84629,108.307906 C1102.84629,108.052705 1103.05293,107.846047 1103.30673,107.846047 L1104.69223,107.846047 C1104.94603,107.846047 1105.15406,108.052705 1105.15406,108.307906 Z M1104.69223,106.92233 L1102.84629,106.92233 C1102.5911,106.92233 1102.38446,106.717198 1102.38446,106.461997 C1102.38446,106.206657 1102.5911,106 1102.84629,106 L1104.69223,106 C1104.94603,106 1105.15406,106.206657 1105.15406,106.461997 C1105.15406,106.717198 1104.94603,106.92233 1104.69223,106.92233 Z" id="Edit"></path>
            </g>
        </g>
    </g>
</svg>