<?xml version="1.0" encoding="UTF-8"?>
<svg width="19px" height="17px" viewBox="0 0 19 17" version="1.1" xmlns="http://www.w3.org/2000/svg" xmlns:xlink="http://www.w3.org/1999/xlink">
    <!-- Generator: Sketch 54 (76480) - https://sketchapp.com -->
    <title>Entities</title>
    <desc>Created with Sketch.</desc>
    <g id="Page-1" stroke="none" stroke-width="1" fill="none" fill-rule="evenodd">
        <g id="Icons-Used" transform="translate(-109.000000, -411.000000)" fill="#FFFFFF">
            <path d="M127.004016,414.129333 L122.727946,414.129333 L122.727946,412.295946 C122.727946,411.958265 122.454498,411.685 122.116817,411.685 L114.788772,411.685 C114.451091,411.685 114.177643,411.958265 114.177643,412.295946 L114.177643,414.129333 L109.901574,414.129333 C109.565728,414.129333 109.29228,414.400946 109.29228,414.738627 L109.29228,426.953871 C109.29228,427.291552 109.565728,427.565 109.901574,427.565 L127.004016,427.565 C127.339861,427.565 127.61331,427.291552 127.61331,426.953871 L127.61331,414.738627 C127.61331,414.400946 127.339861,414.129333 127.004016,414.129333 Z M114.177643,426.342742 L112.955384,426.342742 L112.955384,424.511189 C112.955384,424.173508 112.681936,423.90006 112.34609,423.90006 C112.008593,423.90006 111.734961,424.173508 111.734961,424.511189 L111.734961,426.342742 L110.512703,426.342742 L110.512703,415.349757 L114.177643,415.349757 L114.177643,426.342742 Z M121.505871,426.342742 L117.842583,426.342742 L117.842583,424.511189 C117.842583,424.173508 117.569135,423.90006 117.231454,423.90006 C116.893773,423.90006 116.620325,424.173508 116.620325,424.511189 L116.620325,426.342742 L115.399901,426.342742 L115.399901,412.907075 L121.505871,412.907075 L121.505871,426.342742 Z M126.392886,426.342742 L125.170628,426.342742 L125.170628,424.511189 C125.170628,424.173508 124.89718,423.90006 124.559499,423.90006 C124.223653,423.90006 123.950205,424.173508 123.950205,424.511189 L123.950205,426.342742 L122.727946,426.342742 L122.727946,415.349757 L126.392886,415.349757 L126.392886,426.342742 Z M111.734961,422.068507 C111.734961,421.730826 112.008593,421.457562 112.34609,421.457562 C112.681936,421.457562 112.955384,421.730826 112.955384,422.068507 C112.955384,422.406372 112.681936,422.679637 112.34609,422.679637 C112.008593,422.679637 111.734961,422.406372 111.734961,422.068507 Z M111.734961,419.625826 C111.734961,419.288145 112.008593,419.014697 112.34609,419.014697 C112.681936,419.014697 112.955384,419.288145 112.955384,419.625826 C112.955384,419.961672 112.681936,420.236955 112.34609,420.236955 C112.008593,420.236955 111.734961,419.961672 111.734961,419.625826 Z M111.734961,417.183328 C111.734961,416.845463 112.008593,416.572015 112.34609,416.572015 C112.681936,416.572015 112.955384,416.845463 112.955384,417.183328 C112.955384,417.51899 112.681936,417.792438 112.34609,417.792438 C112.008593,417.792438 111.734961,417.51899 111.734961,417.183328 Z M116.620325,422.068507 C116.620325,421.730826 116.893773,421.457562 117.231454,421.457562 C117.569135,421.457562 117.842583,421.730826 117.842583,422.068507 C117.842583,422.406372 117.569135,422.679637 117.231454,422.679637 C116.893773,422.679637 116.620325,422.406372 116.620325,422.068507 Z M116.620325,419.625826 C116.620325,419.288145 116.893773,419.014697 117.231454,419.014697 C117.569135,419.014697 117.842583,419.288145 117.842583,419.625826 C117.842583,419.961672 117.569135,420.236955 117.231454,420.236955 C116.893773,420.236955 116.620325,419.961672 116.620325,419.625826 Z M116.620325,417.183328 C116.620325,416.845463 116.893773,416.572015 117.231454,416.572015 C117.569135,416.572015 117.842583,416.845463 117.842583,417.183328 C117.842583,417.51899 117.569135,417.792438 117.231454,417.792438 C116.893773,417.792438 116.620325,417.51899 116.620325,417.183328 Z M119.063006,422.068507 C119.063006,421.730826 119.336454,421.457562 119.674135,421.457562 C120.011816,421.457562 120.285265,421.730826 120.285265,422.068507 C120.285265,422.406372 120.011816,422.679637 119.674135,422.679637 C119.336454,422.679637 119.063006,422.406372 119.063006,422.068507 Z M119.063006,419.625826 C119.063006,419.288145 119.336454,419.014697 119.674135,419.014697 C120.011816,419.014697 120.285265,419.288145 120.285265,419.625826 C120.285265,419.961672 120.011816,420.236955 119.674135,420.236955 C119.336454,420.236955 119.063006,419.961672 119.063006,419.625826 Z M119.063006,417.183328 C119.063006,416.845463 119.336454,416.572015 119.674135,416.572015 C120.011816,416.572015 120.285265,416.845463 120.285265,417.183328 C120.285265,417.51899 120.011816,417.792438 119.674135,417.792438 C119.336454,417.792438 119.063006,417.51899 119.063006,417.183328 Z M123.950205,422.068507 C123.950205,421.730826 124.223653,421.457562 124.559499,421.457562 C124.89718,421.457562 125.170628,421.730826 125.170628,422.068507 C125.170628,422.406372 124.89718,422.679637 124.559499,422.679637 C124.223653,422.679637 123.950205,422.406372 123.950205,422.068507 Z M123.950205,419.625826 C123.950205,419.288145 124.223653,419.014697 124.559499,419.014697 C124.89718,419.014697 125.170628,419.288145 125.170628,419.625826 C125.170628,419.961672 124.89718,420.236955 124.559499,420.236955 C124.223653,420.236955 123.950205,419.961672 123.950205,419.625826 Z M123.950205,417.183328 C123.950205,416.845463 124.223653,416.572015 124.559499,416.572015 C124.89718,416.572015 125.170628,416.845463 125.170628,417.183328 C125.170628,417.51899 124.89718,417.792438 124.559499,417.792438 C124.223653,417.792438 123.950205,417.51899 123.950205,417.183328 Z M116.620325,414.738627 C116.620325,414.402782 116.893773,414.129333 117.231454,414.129333 C117.569135,414.129333 117.842583,414.402782 117.842583,414.738627 C117.842583,415.076492 117.569135,415.349757 117.231454,415.349757 C116.893773,415.349757 116.620325,415.076492 116.620325,414.738627 Z M119.063006,414.738627 C119.063006,414.402782 119.336454,414.129333 119.674135,414.129333 C120.011816,414.129333 120.285265,414.402782 120.285265,414.738627 C120.285265,415.076492 120.011816,415.349757 119.674135,415.349757 C119.336454,415.349757 119.063006,415.076492 119.063006,414.738627 L119.063006,414.738627 Z" id="Entities"></path>
        </g>
    </g>
</svg>