<?xml version="1.0" encoding="UTF-8"?>
<svg width="14px" height="14px" viewBox="0 0 14 14" version="1.1" xmlns="http://www.w3.org/2000/svg" xmlns:xlink="http://www.w3.org/1999/xlink">
    <!-- Generator: Sketch 55 (78076) - https://sketchapp.com -->
    <title>Expand</title>
    <desc>Created with Sketch.</desc>
    <g id="Entity" stroke="none" stroke-width="1" fill="none" fill-rule="evenodd">
        <g id="List-of-Entity--toolbar-collapsed" transform="translate(-1409.000000, -72.000000)" fill="#86BC25" stroke="#85BE05" stroke-width="0.6">
            <g id="Group-15" transform="translate(1371.000000, 71.000003)">
                <path d="M47.8003329,6.89980346 C47.8514159,6.89980346 47.9024989,6.91903471 47.9415624,6.95809819 C48.0196893,7.03616504 48.0196893,7.16303119 47.9415624,7.24115814 L45.1416126,10.0411079 C45.0634857,10.1192348 44.9366796,10.1192348 44.8585527,10.0411079 L42.058663,7.24115814 C41.9805361,7.16303119 41.9805361,7.03616504 42.058663,6.95809819 C42.13679,6.87997124 42.2633556,6.87997124 42.3414826,6.95809819 L44.9997821,9.61681845 L47.6585024,6.95809819 C47.6975659,6.91903471 47.7486489,6.89980346 47.8003329,6.89980346 Z M44.9996995,2.49956179 C41.9673219,2.49956179 39.5000125,4.9673219 39.5000125,8 C39.5000125,11.0326781 41.9673219,13.4997621 44.9996995,13.4997621 C48.0331288,13.4997621 50.5001377,11.0326781 50.5001377,8 C50.5001377,4.9673219 48.0331288,2.49956179 44.9996995,2.49956179 Z M44.9996995,2 C48.3140854,2 51.0004507,4.68636534 51.0004507,8 C51.0004507,11.3136347 48.3140854,14 44.9996995,14 C41.6863653,14 39,11.3136347 39,8 C39,4.68636534 41.6863653,2 44.9996995,2 Z" id="Expand"></path>
            </g>
        </g>
    </g>
</svg>