<?xml version="1.0" encoding="UTF-8"?>
<svg width="17px" height="21px" viewBox="0 0 17 21" version="1.1" xmlns="http://www.w3.org/2000/svg" xmlns:xlink="http://www.w3.org/1999/xlink">
    <!-- Generator: Sketch 58 (84663) - https://sketch.com -->
    <title>expired</title>
    <desc>Created with Sketch.</desc>
    <g id="User" stroke="none" stroke-width="1" fill="none" fill-rule="evenodd">
        <path d="M8.14822966,0.928571429 L10.3242297,3.03968254 L12.9482129,3.03968254 C13.6521962,3.03968254 14.2282129,3.67299748 14.2282129,4.44708995 L14.2282129,4.44708995 L14.2282129,6.83968254 L16.1482129,8.66931217 L16.1482129,18.521164 C16.1482129,19.2952197 15.5721962,19.9285714 14.8682129,19.9285714 L14.8682129,19.9285714 L1.42821293,19.9285714 C0.724196193,19.9285714 0.148212925,19.2952197 0.148212925,18.521164 L0.148212925,18.521164 L0.148212925,8.66931217 L2.06821293,6.83968254 L2.06821293,4.44708995 C2.06821293,3.67299748 2.64419619,3.03968254 3.34821293,3.03968254 L3.34821293,3.03968254 L5.97222966,3.03968254 L8.14822966,0.928571429 Z M10.0681962,15.0026455 L6.22819619,15.0026455 L1.74822966,19.2248677 L14.5481962,19.2248677 L10.0681962,15.0026455 Z M0.788212925,9.37301587 L0.788212925,18.521164 C0.788212925,18.7322935 0.852196193,18.8730343 0.980196193,19.013775 L0.980196193,19.013775 L5.90821293,14.2989418 L0.788212925,9.37301587 Z M15.5082129,9.37301587 L10.3882129,14.2989418 L15.3162297,19.0137382 C15.4442297,18.8729607 15.5082129,18.7322199 15.5082129,18.5211272 L15.5082129,18.5211272 L15.5082129,9.37301587 Z M10.7722129,12.8915344 L5.46022966,12.8915344 L6.86822966,14.2989418 L9.42822966,14.2989418 L10.7722129,12.8915344 Z M12.9482129,3.74338624 L3.34821293,3.74338624 C2.96421293,3.74338624 2.70821293,4.02486772 2.70821293,4.44708995 L2.70821293,4.44708995 L2.70821293,10.2174603 L4.75621293,12.1878307 L11.5402129,12.1878307 L13.5882129,10.1470715 L13.5882129,4.44708995 C13.5882129,4.0952197 13.2681962,3.74338624 12.9482129,3.74338624 L12.9482129,3.74338624 Z M8.15175426,9.39854722 C8.34770891,9.39854722 8.49939442,9.45048623 8.60681534,9.5543658 C8.71423626,9.65824537 8.76794592,9.80697981 8.76794592,10.0005736 C8.76794592,10.1870846 8.71364605,10.3340484 8.60504468,10.4414693 C8.4964433,10.5488902 8.34534801,10.6025999 8.15175426,10.6025999 C7.95343871,10.6025999 7.79998255,10.5500707 7.69138117,10.4450106 C7.5827798,10.3399506 7.52847993,10.1918064 7.52847993,10.0005736 C7.52847993,9.80225801 7.58159937,9.65234314 7.68783984,9.55082447 C7.79408032,9.4493058 7.94871691,9.39854722 8.15175426,9.39854722 Z M2.06821293,7.75451575 L1.10819619,8.66931217 L2.06821293,9.65449735 L2.06821293,7.75451575 Z M14.2282129,7.75451575 L14.2282129,9.58410859 L15.1882297,8.66931217 L14.2282129,7.75451575 Z M8.76794592,5.32955744 L8.58733802,8.78943822 L7.72325316,8.78943822 L7.54264526,5.32955744 L8.76794592,5.32955744 Z M8.14822966,1.84336785 L6.86822966,3.03968254 L9.36424639,3.03968254 L8.14822966,1.84336785 Z" id="expired" stroke="#000000" stroke-width="0.25" fill="#000000" fill-rule="nonzero"></path>
    </g>
</svg>