<?xml version="1.0" encoding="UTF-8"?>
<svg width="17px" height="13px" viewBox="0 0 17 13" version="1.1" xmlns="http://www.w3.org/2000/svg" xmlns:xlink="http://www.w3.org/1999/xlink">
    <!-- Generator: Sketch 58 (84663) - https://sketch.com -->
    <title>failed</title>
    <desc>Created with Sketch.</desc>
    <g id="User" stroke="none" stroke-width="1" fill="none" fill-rule="evenodd">
        <path d="M1.55446293,0.785714286 L14.7419629,0.785714286 C15.4734923,0.785714286 16.0736999,1.33846169 16.1417814,2.03762078 L16.1482129,2.17032967 L16.1482129,11.4010989 C16.1482129,12.121374 15.5868288,12.7123477 14.8767454,12.7793817 L14.7419629,12.7857143 L1.55446293,12.7857143 C0.822933513,12.7857143 0.222725901,12.2329669 0.154644484,11.5338078 L0.148212925,11.4010989 L0.148212925,2.17032967 C0.148212925,1.45202379 0.707880745,0.859312582 1.41937759,0.79206734 L1.55446293,0.785714286 L14.7419629,0.785714286 Z M14.5477754,1.70879121 L1.75318168,1.70879121 L4.76364817,4.64878627 C4.58929872,4.92435066 4.4476743,5.22267635 4.34423708,5.53830119 L1.08571293,2.35706813 L1.08571293,11.2099604 L4.33644122,8.00908095 C4.43832816,8.32679622 4.57883601,8.6272187 4.75243938,8.904823 L1.74861918,11.8626374 L14.5478067,11.8626374 L11.5439865,8.904823 C11.7175898,8.6272187 11.8580977,8.32679622 11.9599846,8.00908095 L15.2107129,11.2099297 L15.2107129,2.36146813 L11.9599846,5.56234763 C11.8580977,5.24463235 11.7175898,4.94420987 11.5439865,4.66660557 L14.5477754,1.70879121 Z M7.16943621,4.64209636 L8.14627475,6.14224127 L9.13086599,4.64209636 L10.1619733,4.64209636 L8.71997358,6.73919816 L10.2356239,8.92933221 L9.20451651,8.92933221 L8.14627475,7.32452602 L7.09190934,8.92933221 L6.06080198,8.92933221 L7.56869958,6.73919816 L6.13057616,4.64209636 L7.16943621,4.64209636 Z" id="failed" fill="#E42313"></path>
    </g>
</svg>