<?xml version="1.0" encoding="UTF-8"?>
<svg width="21px" height="19px" viewBox="0 0 21 19" version="1.1" xmlns="http://www.w3.org/2000/svg" xmlns:xlink="http://www.w3.org/1999/xlink">
    <!-- Generator: Sketch 54 (76480) - https://sketchapp.com -->
    <title>FAQ</title>
    <desc>Created with Sketch.</desc>
    <g id="Admin" stroke="none" stroke-width="1" fill="none" fill-rule="evenodd">
        <g id="admin-edit-FAQ--2-V2" transform="translate(-38.000000, -300.000000)" fill="#FFFFFF" fill-rule="nonzero">
            <g id="Group-7" transform="translate(0.000000, 150.000000)">
                <g id="Group-32" transform="translate(37.000000, 150.000000)">
                    <path d="M13.6,8.03846154 C13.6,8.47692308 13.32,8.76923077 12.9,8.76923077 L6.88,8.76923077 L4.29,11.4730769 C4.15,11.6192308 4.01,11.6923077 3.8,11.6923077 C3.73,11.6923077 3.59,11.6923077 3.52,11.6192308 C3.24,11.5461538 3.1,11.2538462 3.1,10.9615385 L3.1,8.76923077 L1.7,8.76923077 C1.28,8.76923077 1,8.47692308 1,8.03846154 L1,0.730769231 C1,0.292307692 1.28,4.61852778e-14 1.7,4.61852778e-14 L12.9,4.61852778e-14 C13.32,4.61852778e-14 13.6,0.292307692 13.6,0.730769231 L13.6,8.03846154 Z M12.2,7.30769231 L12.2,1.46153846 L2.4,1.46153846 L2.4,7.30769231 L3.8,7.30769231 C4.22,7.30769231 4.5,7.6 4.5,8.03846154 L4.5,9.20769231 L6.11,7.52692308 C6.25,7.38076923 6.39,7.30769231 6.6,7.30769231 L12.2,7.30769231 Z M21.3,5.84615385 C21.72,5.84615385 22,6.13846154 22,6.57692308 L22,15.3461538 C22,15.7846154 21.72,16.0769231 21.3,16.0769231 L19.2,16.0769231 L19.2,18.2692308 C19.2,18.5615385 19.06,18.7807692 18.78,18.9269231 C18.71,19 18.57,19 18.5,19 C18.29,19 18.15,18.9269231 18.01,18.7807692 L15.42,16.0769231 L10.1,16.0769231 C9.68,16.0769231 9.4,15.7846154 9.4,15.3461538 L9.4,10.9615385 C9.4,10.5230769 9.68,10.2307692 10.1,10.2307692 C10.52,10.2307692 10.8,10.5230769 10.8,10.9615385 L10.8,14.6153846 L15.7,14.6153846 C15.91,14.6153846 16.05,14.6884615 16.19,14.8346154 L17.8,16.5153846 L17.8,15.3461538 C17.8,14.9076923 18.08,14.6153846 18.5,14.6153846 L20.6,14.6153846 L20.6,7.30769231 L15.7,7.30769231 C15.28,7.30769231 15,7.01538462 15,6.57692308 C15,6.13846154 15.28,5.84615385 15.7,5.84615385 L21.3,5.84615385 Z" id="FAQ"></path>
                </g>
            </g>
        </g>
    </g>
</svg>