<?xml version="1.0" encoding="UTF-8"?>
<svg width="37px" height="38px" viewBox="0 0 37 38" version="1.1" xmlns="http://www.w3.org/2000/svg" xmlns:xlink="http://www.w3.org/1999/xlink">
    <!-- Generator: Sketch 54 (76480) - https://sketchapp.com -->
    <title>Filter-active</title>
    <desc>Created with Sketch.</desc>
    <g id="Page-1" stroke="none" stroke-width="1" fill="none" fill-rule="evenodd">
        <g id="Icons-Used" transform="translate(-1133.000000, -124.000000)" fill="#000000">
            <g id="Filter-active" transform="translate(1133.000000, 124.500000)">
                <path d="M18.4553359,1.53888817 C27.7831702,1.53888817 35.3713214,9.12703943 35.3713214,18.4551048 C35.3713214,27.7831702 27.7831702,35.3736321 18.4553359,35.3736321 C9.1272705,35.3736321 1.53911923,27.7831702 1.53911923,18.4551048 C1.53911923,9.12703943 9.1272705,1.53888817 18.4553359,1.53888817 M18.4553359,1.0658141e-14 C8.26285899,1.0658141e-14 9.9475983e-14,8.26285899 9.9475983e-14,18.4551048 C9.9475983e-14,28.6473506 8.26285899,36.9102096 18.4553359,36.9102096 C28.6473506,36.9102096 36.9102096,28.6473506 36.9102096,18.4551048 C36.9102096,8.26285899 28.6473506,1.0658141e-14 18.4553359,1.0658141e-14" id="Fill-577"></path>
                <path d="M16.9162166,29.9898341 C16.8006845,29.9898341 16.6828417,29.9621064 16.5742415,29.9089616 C16.3131388,29.777486 16.1490832,29.511531 16.1490832,29.22039 L16.1490832,18.8155651 L7.19765261,11.3568098 C6.94810318,11.148852 6.85567747,10.8091875 6.96658833,10.5041826 C7.07749918,10.1991777 7.36632955,9.99584116 7.68981955,9.99584116 L29.22039,9.99584116 C29.54388,9.99584116 29.8327104,10.1991777 29.9436213,10.5041826 C30.0545321,10.8091875 29.9621064,11.148852 29.712557,11.3568098 L20.7611264,18.8155651 L20.7611264,26.9143684 C20.7611264,27.1569859 20.6479049,27.3834289 20.4538109,27.5289994 L17.3783452,29.8373317 C17.2422483,29.939 17.0802723,29.9898341 16.9162166,29.9898341 Z M9.81330037,11.5349604 L17.4083836,17.8635802 C17.5839924,18.0114614 17.6858918,18.2263511 17.6858918,18.4551048 L17.6858918,27.6840436 L19.2247799,26.5308017 L19.2247799,18.4551048 C19.2247799,18.2263511 19.3262172,18.0114614 19.501826,17.8635802 L27.0969092,11.5349604 L9.81330037,11.5349604 L9.81330037,11.5349604 Z" id="Fill-578"></path>
            </g>
        </g>
    </g>
</svg>