<?xml version="1.0" encoding="UTF-8"?>
<svg width="18px" height="15px" viewBox="0 0 18 15" version="1.1" xmlns="http://www.w3.org/2000/svg" xmlns:xlink="http://www.w3.org/1999/xlink">
    <!-- Generator: Sketch 62 (91390) - https://sketch.com -->
    <title>filter</title>
    <desc>Created with Sketch.</desc>
    <g id="ICONIC-VIEW" stroke="none" stroke-width="1" fill="none" fill-rule="evenodd">
        <path d="M16.8690325,0.111274845 C17.2052272,0.111274845 17.5053273,0.322304159 17.6204309,0.638839087 C17.722834,0.920447735 17.6584209,1.23108256 17.4608036,1.44833502 L17.3805189,1.52518831 L11.078,6.776 L11.0783824,12.4425751 C11.0783824,12.6225318 11.0182301,12.7942526 10.9104319,12.9327575 L10.8401355,13.0116747 L10.7590045,13.081421 L8.56240123,14.7301104 C8.42323678,14.8340703 8.25548359,14.8887252 8.08278234,14.8887252 C7.96165327,14.8887252 7.83997948,14.8599881 7.72614706,14.8042649 C7.48931583,14.6850109 7.3291725,14.4586303 7.29283716,14.2012547 L7.28498233,14.0892751 L7.284,6.776 L0.982836089,1.52518019 C0.781249724,1.35719155 0.678425062,1.10598725 0.696884228,0.853575258 L0.712286502,0.745563842 L0.74293383,0.638839087 C0.84524815,0.357474707 1.09373256,0.159472787 1.38380841,0.118945994 L1.4943322,0.111274845 L16.8690325,0.111274845 Z M14.662,1.71 L3.7,1.71 L8.59526628,5.78829717 C8.7469164,5.91600253 8.8452129,6.09249075 8.87376589,6.28486053 L8.88239735,6.40192498 L8.882,12.492 L9.481,12.043 L9.48129738,6.40192498 C9.48129738,6.20445578 9.55413384,6.01635544 9.68426543,5.87000397 L9.76909548,5.78746198 L14.662,1.71 Z" id="filter" fill="#000000" fill-rule="nonzero"></path>
    </g>
</svg>