<?xml version="1.0" encoding="UTF-8"?>
<svg width="21px" height="22px" viewBox="0 0 21 22" version="1.1" xmlns="http://www.w3.org/2000/svg" xmlns:xlink="http://www.w3.org/1999/xlink">
    <!-- Generator: Sketch 58 (84663) - https://sketch.com -->
    <title>forward-disabled</title>
    <desc>Created with Sketch.</desc>
    <g id="Page-1" stroke="none" stroke-width="1" fill="none" fill-rule="evenodd">
        <path d="M10.3851896,0.91190624 C15.8544732,0.91190624 20.2874193,5.38918181 20.2874193,10.9119062 C20.2874193,16.4346307 15.8544732,20.9119062 10.3851896,20.9119062 C4.91764144,20.9119062 0.484695324,16.4346307 0.484695324,10.9119062 C0.484695324,5.38918181 4.91764144,0.91190624 10.3851896,0.91190624 Z M10.3851896,1.74450922 C5.38126611,1.74450922 1.30979849,5.85744274 1.30979849,10.9119062 C1.30979849,15.9663697 5.38126611,20.0781764 10.3851896,20.0781764 C15.3908485,20.0781764 19.4618203,15.9663697 19.4618203,10.9119062 C19.4618203,5.85744274 15.3908485,1.74450922 10.3851896,1.74450922 Z M10.6193696,7.92580398 L15.2397487,12.5923869 C15.3686711,12.7225985 15.3686711,12.9340421 15.2397487,13.0641535 C15.1752875,13.1292593 15.0909922,13.1613114 15.0066968,13.1613114 C14.9214097,13.1613114 14.8371143,13.1292593 14.7726531,13.0641535 L10.3853259,8.63295305 L5.99869296,13.0641535 C5.8697706,13.1943651 5.66091637,13.1943651 5.53199401,13.0641535 C5.40307165,12.9340421 5.40307165,12.7225985 5.53199401,12.5923869 L10.152274,7.92580398 C10.2811963,7.79559239 10.4904472,7.79559239 10.6193696,7.92580398 Z" id="forward-disabled" stroke="#CFCFCF" stroke-width="0.660066007" fill="#CFCFCF" transform="translate(10.386057, 10.911906) rotate(90.000000) translate(-10.386057, -10.911906) "></path>
    </g>
</svg>