<?xml version="1.0" encoding="UTF-8"?>
<svg width="9px" height="11px" viewBox="0 0 9 11" version="1.1" xmlns="http://www.w3.org/2000/svg" xmlns:xlink="http://www.w3.org/1999/xlink">
    <!-- Generator: Sketch 58 (84663) - https://sketch.com -->
    <title>forward-q-selected</title>
    <desc>Created with Sketch.</desc>
    <g id="Page-1" stroke="none" stroke-width="1" fill="none" fill-rule="evenodd">
        <path d="M6.11923416,10.5182277 C6.02323416,10.5182277 5.89523416,10.45157 5.83123416,10.3515835 C5.73523416,10.2182682 5.76723416,10.0182952 5.89523416,9.91830868 C6.43923416,9.48503387 6.75923416,8.81845723 6.75923416,8.18520942 C6.75923416,7.01870031 6.11923416,5.85219119 4.67923416,5.85219119 L4.51923416,5.85219119 L4.51923416,7.51863279 C4.51923416,7.65194811 4.45523416,7.78526344 4.32723416,7.81859227 C4.19923416,7.88524994 4.07123416,7.85192111 3.97523416,7.75193461 L0.775234156,4.41905142 C0.647234156,4.28573609 0.647234156,4.0857631 0.775234156,3.95244777 L3.97523416,0.619564583 C4.07123416,0.519578088 4.19923416,0.486249256 4.32723416,0.552906919 C4.45523416,0.619564583 4.51923416,0.719551079 4.51923416,0.852866407 L4.51923416,2.18601968 C6.82323416,2.18601968 8.67923416,4.11909193 8.67923416,6.51876783 C8.67923416,8.25186709 7.71923416,9.81832219 6.24723416,10.4848988 C6.21523416,10.5182277 6.15123416,10.5182277 6.11923416,10.5182277 Z M4.19923416,5.18561455 L4.64723416,5.18561455 C6.24723416,5.18561455 7.36723416,6.41878133 7.36723416,8.18520942 C7.36723416,8.38518242 7.33523416,8.58515541 7.30323416,8.7851284 C7.75123416,8.15188059 8.00723416,7.38531746 8.00723416,6.51876783 C8.00723416,4.48570908 6.43923416,2.85259632 4.48723416,2.85259632 L4.16723416,2.85259632 C3.97523416,2.85259632 3.84723416,2.71928099 3.84723416,2.519308 L3.84723416,1.65275837 L1.44723416,4.1857496 L3.87923416,6.71874082 L3.87923416,5.51890287 C3.87923416,5.31892988 4.00723416,5.18561455 4.19923416,5.18561455 Z" id="forward-q-selected" fill="#000000" transform="translate(4.679234, 5.518228) scale(-1, 1) translate(-4.679234, -5.518228) "></path>
    </g>
</svg>