<?xml version="1.0" encoding="UTF-8"?>
<svg width="9px" height="11px" viewBox="0 0 9 11" version="1.1" xmlns="http://www.w3.org/2000/svg" xmlns:xlink="http://www.w3.org/1999/xlink">
    <!-- Generator: Sketch 58 (84663) - https://sketch.com -->
    <title>forward-q</title>
    <desc>Created with Sketch.</desc>
    <g id="Page-1" stroke="none" stroke-width="1" fill="none" fill-rule="evenodd">
        <path d="M6.11923416,10.9119062 C6.02323416,10.9119062 5.89523416,10.8452486 5.83123416,10.7452621 C5.73523416,10.6119468 5.76723416,10.4119738 5.89523416,10.3119873 C6.43923416,9.87871245 6.75923416,9.21213581 6.75923416,8.57888801 C6.75923416,7.41237889 6.11923416,6.24586977 4.67923416,6.24586977 L4.51923416,6.24586977 L4.51923416,7.91231137 C4.51923416,8.0456267 4.45523416,8.17894202 4.32723416,8.21227086 C4.19923416,8.27892852 4.07123416,8.24559969 3.97523416,8.14561319 L0.775234156,4.81273 C0.647234156,4.67941467 0.647234156,4.47944168 0.775234156,4.34612636 L3.97523416,1.01324317 C4.07123416,0.91325667 4.19923416,0.879927838 4.32723416,0.946585502 C4.45523416,1.01324317 4.51923416,1.11322966 4.51923416,1.24654499 L4.51923416,2.57969826 C6.82323416,2.57969826 8.67923416,4.51277052 8.67923416,6.91244641 C8.67923416,8.64554567 7.71923416,10.2120008 6.24723416,10.8785774 C6.21523416,10.9119062 6.15123416,10.9119062 6.11923416,10.9119062 Z M4.19923416,5.57929314 L4.64723416,5.57929314 C6.24723416,5.57929314 7.36723416,6.81245992 7.36723416,8.57888801 C7.36723416,8.778861 7.33523416,8.97883399 7.30323416,9.17880698 C7.75123416,8.54555918 8.00723416,7.77899604 8.00723416,6.91244641 C8.00723416,4.87938767 6.43923416,3.2462749 4.48723416,3.2462749 L4.16723416,3.2462749 C3.97523416,3.2462749 3.84723416,3.11295958 3.84723416,2.91298658 L3.84723416,2.04643695 L1.44723416,4.57942818 L3.87923416,7.1124194 L3.87923416,5.91258146 C3.87923416,5.71260846 4.00723416,5.57929314 4.19923416,5.57929314 Z" id="forward-q" fill="#AAAAAA" transform="translate(4.679234, 5.911906) scale(-1, 1) translate(-4.679234, -5.911906) "></path>
    </g>
</svg>