<?xml version="1.0" encoding="UTF-8"?>
<svg width="29px" height="29px" viewBox="0 0 29 29" version="1.1" xmlns="http://www.w3.org/2000/svg" xmlns:xlink="http://www.w3.org/1999/xlink">
    <!-- Generator: Sketch 58 (84663) - https://sketch.com -->
    <title>hidden-block</title>
    <desc>Created with Sketch.</desc>
    <g id="Page-1" stroke="none" stroke-width="1" fill="none" fill-rule="evenodd">
        <path d="M14.1589077,0.518227658 C21.917241,0.518227658 28.1589077,6.75989432 28.1589077,14.5182277 C28.1589077,22.276561 21.917241,28.5182277 14.1589077,28.5182277 C6.40057436,28.5182277 0.158907698,22.276561 0.158907698,14.5182277 C0.158907698,6.75989432 6.40057436,0.518227658 14.1589077,0.518227658 Z M14.1589077,1.68489432 C7.10057436,1.68489432 1.32557436,7.45989432 1.32557436,14.5182277 C1.32557436,21.576561 7.10057436,27.351561 14.1589077,27.351561 C21.217241,27.351561 26.992241,21.576561 26.992241,14.5182277 C26.992241,7.45989432 21.217241,1.68489432 14.1589077,1.68489432 Z M20.167241,7.69322766 C20.4005744,7.45989432 20.7505744,7.45989432 20.9839077,7.69322766 C21.217241,7.92656099 21.217241,8.27656099 20.9839077,8.50989432 L20.9839077,8.50989432 L18.8839077,10.6098943 C20.7505744,11.6598943 22.092241,13.176561 22.792241,14.226561 C22.8505744,14.2848943 22.9089077,14.401561 22.9089077,14.5182277 C22.9089077,14.6348943 22.9089077,14.751561 22.792241,14.8098943 C21.217241,17.201561 18.067241,19.7098943 14.217241,19.7098943 C12.8755744,19.7098943 11.6505744,19.3598943 10.542241,18.8932277 L10.542241,18.8932277 L8.15057436,21.2848943 C8.0339077,21.401561 7.8589077,21.4598943 7.74224103,21.4598943 C7.62557436,21.4598943 7.45057436,21.401561 7.3339077,21.2848943 C7.10057436,21.051561 7.10057436,20.701561 7.3339077,20.4682277 L7.3339077,20.4682277 L9.4339077,18.3682277 C7.62557436,17.3182277 6.2839077,15.8598943 5.5839077,14.8098943 C5.52557436,14.751561 5.52557436,14.6348943 5.52557436,14.5182277 C5.52557436,14.401561 5.5839077,14.2848943 5.64224103,14.1682277 C7.21724103,11.776561 10.367241,9.26822766 14.217241,9.26822766 C15.5589077,9.26822766 16.7255744,9.55989432 17.8339077,10.026561 L17.8339077,10.026561 Z M18.067241,11.426561 L16.6089077,12.8848943 C16.9005744,13.351561 17.0755744,13.9348943 17.0755744,14.5182277 C17.0755744,16.151561 15.792241,17.4348943 14.1589077,17.4348943 C13.5755744,17.4348943 12.992241,17.2598943 12.5255744,16.9682277 L12.5255744,16.9682277 L11.417241,18.076561 C12.292241,18.426561 13.2255744,18.601561 14.217241,18.601561 C17.4839077,18.601561 20.1089077,16.5598943 21.6255744,14.5182277 C20.9255744,13.526561 19.7005744,12.301561 18.067241,11.426561 L18.067241,11.426561 Z M14.217241,10.4348943 C10.9505744,10.4348943 8.32557436,12.476561 6.8089077,14.5182277 C7.5089077,15.451561 8.7339077,16.676561 10.2505744,17.6098943 L10.2505744,17.6098943 L11.7089077,16.151561 C11.417241,15.6848943 11.242241,15.101561 11.242241,14.5182277 C11.242241,12.8848943 12.5255744,11.601561 14.1589077,11.601561 C14.742241,11.601561 15.3255744,11.776561 15.792241,12.0682277 L15.792241,12.0682277 L16.9589077,10.901561 C16.0839077,10.6098943 15.2089077,10.4348943 14.217241,10.4348943 Z M15.7339077,13.7598943 L13.4005744,16.0932277 C13.6339077,16.2098943 13.867241,16.2682277 14.1589077,16.2682277 C15.1505744,16.2682277 15.9089077,15.5098943 15.9089077,14.5182277 C15.9089077,14.226561 15.8505744,13.9932277 15.7339077,13.7598943 L15.7339077,13.7598943 Z M14.1589077,12.7682277 C13.167241,12.7682277 12.4089077,13.526561 12.4089077,14.5182277 C12.4089077,14.8098943 12.467241,15.0432277 12.5839077,15.276561 L12.5839077,15.276561 L14.917241,12.9432277 C14.6839077,12.826561 14.4505744,12.7682277 14.1589077,12.7682277 Z" id="hidden-block" fill="#000000" fill-rule="nonzero"></path>
    </g>
</svg>