<?xml version="1.0" encoding="UTF-8"?>
<svg width="39px" height="38px" viewBox="0 0 39 38" version="1.1" xmlns="http://www.w3.org/2000/svg" xmlns:xlink="http://www.w3.org/1999/xlink">
    <!-- Generator: Sketch 54 (76480) - https://sketchapp.com -->
    <title>Hide-active</title>
    <desc>Created with Sketch.</desc>
    <g id="Page-1" stroke="none" stroke-width="1" fill="none" fill-rule="evenodd">
        <g id="Icons-Used" transform="translate(-1356.000000, -124.000000)" fill="#000000">
            <path d="M1375.41002,126.058709 C1365.963,126.058709 1358.2785,133.743208 1358.2785,143.19 C1358.2785,152.636792 1365.963,160.323865 1375.41002,160.323865 C1384.85892,160.323865 1392.54366,152.636792 1392.54366,143.19 C1392.54366,133.743208 1384.85892,126.058709 1375.41002,126.058709 Z M1375.41002,124.5 C1385.73434,124.5 1394.10213,132.868028 1394.10213,143.19 C1394.10213,153.511972 1385.73434,161.88 1375.41002,161.88 C1365.08782,161.88 1356.71979,153.511972 1356.71979,143.19 C1356.71979,132.868028 1365.08782,124.5 1375.41002,124.5 Z M1386.96497,142.76645 C1387.04921,142.893047 1387.07495,143.035557 1387.07729,143.17596 C1387.08899,143.344443 1387.05857,143.517607 1386.95561,143.667371 C1384.79832,146.826442 1380.65151,150.198457 1375.48701,150.198457 C1373.68517,150.198457 1372.03309,149.781928 1370.56588,149.138414 L1367.39511,152.306845 C1367.24301,152.458948 1367.0441,152.53617 1366.8452,152.53617 C1366.64629,152.53617 1366.44505,152.458948 1366.29295,152.306845 C1365.98874,152.002638 1365.98874,151.511227 1366.29295,151.20702 L1369.10803,148.391937 C1366.68607,146.976205 1364.90763,145.017581 1363.99291,143.61589 C1363.91077,143.487187 1363.88269,143.346784 1363.88035,143.204274 C1363.86865,143.035557 1363.90141,142.862393 1364.00227,142.712629 C1366.15956,139.555898 1370.30614,136.181543 1375.47297,136.181543 C1377.23503,136.181543 1378.85435,136.579585 1380.29816,137.201805 L1383.42681,134.073155 C1383.73102,133.768948 1384.22243,133.768948 1384.52687,134.073155 C1384.83084,134.377362 1384.83084,134.871113 1384.52687,135.175554 L1381.76303,137.941262 C1384.22945,139.359334 1386.04065,141.346039 1386.96497,142.76645 Z M1365.58391,143.18064 C1366.51759,144.467669 1368.12989,146.108046 1370.24763,147.254671 L1372.16648,145.333488 C1371.75697,144.718054 1371.51594,143.983278 1371.51594,143.19 C1371.51594,141.044172 1373.26396,139.296152 1375.41002,139.296152 C1376.20307,139.296152 1376.94018,139.537178 1377.55562,139.946687 L1379.10239,138.397572 C1377.99087,137.990403 1376.77638,137.740018 1375.47297,137.740018 C1371.13217,137.740018 1367.58465,140.477879 1365.58391,143.18064 Z M1377.7475,143.19 C1377.7475,142.831972 1377.65858,142.495004 1377.5135,142.191032 L1374.41059,145.293707 C1374.71479,145.438791 1375.05176,145.527713 1375.41002,145.527713 C1376.69916,145.527713 1377.7475,144.479369 1377.7475,143.19 Z M1373.07442,143.19 C1373.07442,143.550368 1373.16334,143.887336 1373.30842,144.191543 L1376.41133,141.088633 C1376.10713,140.94355 1375.77016,140.854628 1375.41002,140.854628 C1374.123,140.854628 1373.07442,141.903205 1373.07442,143.19 Z M1375.48701,148.642323 C1379.82547,148.642323 1383.37556,145.904461 1385.37373,143.19936 C1384.42859,141.895951 1382.78564,140.227493 1380.62577,139.078528 L1378.65568,141.046512 C1379.06519,141.661946 1379.30364,142.399062 1379.30364,143.19 C1379.30364,145.338168 1377.55796,147.083848 1375.41002,147.083848 C1374.61909,147.083848 1373.88174,146.842822 1373.2663,146.435653 L1371.75931,147.944987 C1372.89891,148.373216 1374.14616,148.642323 1375.48701,148.642323 Z" id="Hide-active"></path>
        </g>
    </g>
</svg>