<?xml version="1.0" encoding="UTF-8"?>
<svg width="11px" height="11px" viewBox="0 0 11 11" version="1.1" xmlns="http://www.w3.org/2000/svg" xmlns:xlink="http://www.w3.org/1999/xlink">
    <!-- Generator: Sketch 58 (84663) - https://sketch.com -->
    <title>history-selected</title>
    <desc>Created with Sketch.</desc>
    <g id="Page-1" stroke="none" stroke-width="1" fill="none" fill-rule="evenodd">
        <path d="M0.90136199,8.43489432 L1.85969532,8.43489432 C1.23469532,7.60156099 0.90136199,6.55989432 0.90136199,5.51822766 C0.90136199,2.76822766 3.15136199,0.518227658 5.90136199,0.518227658 C8.65136199,0.518227658 10.901362,2.76822766 10.901362,5.51822766 C10.901362,8.26822766 8.65136199,10.5182277 5.90136199,10.5182277 C5.65136199,10.5182277 5.48469532,10.351561 5.48469532,10.101561 C5.48469532,9.85156099 5.65136199,9.68489432 5.90136199,9.68489432 C8.19302866,9.68489432 10.0680287,7.80989432 10.0680287,5.51822766 C10.0680287,3.22656099 8.19302866,1.35156099 5.90136199,1.35156099 C3.60969532,1.35156099 1.73469532,3.22656099 1.73469532,5.51822766 C1.73469532,6.43489432 2.02636199,7.30989432 2.56802866,8.01822766 L2.56802866,6.76822766 C2.56802866,6.51822766 2.73469532,6.35156099 2.98469532,6.35156099 C3.23469532,6.35156099 3.40136199,6.51822766 3.40136199,6.76822766 L3.40136199,8.85156099 C3.40136199,9.10156099 3.23469532,9.26822766 2.98469532,9.26822766 L0.90136199,9.26822766 C0.65136199,9.26822766 0.484695324,9.10156099 0.484695324,8.85156099 C0.484695324,8.60156099 0.65136199,8.43489432 0.90136199,8.43489432 Z M6.85969532,4.39322766 L5.90136199,5.35156099 L4.23469532,3.68489432 C4.06802866,3.51822766 3.81802866,3.51822766 3.65136199,3.68489432 C3.48469532,3.85156099 3.48469532,4.10156099 3.65136199,4.26822766 L5.60969532,6.22656099 C5.69302866,6.30989432 5.81802866,6.35156099 5.90136199,6.35156099 C5.98469532,6.35156099 6.10969532,6.30989432 6.19302866,6.22656099 L7.44302866,4.97656099 C7.60969532,4.80989432 7.60969532,4.55989432 7.44302866,4.39322766 C7.27636199,4.22656099 7.02636199,4.22656099 6.85969532,4.39322766 Z" id="history-selected" fill="#000000"></path>
    </g>
</svg>