<?xml version="1.0" encoding="UTF-8"?>
<svg width="19px" height="14px" viewBox="0 0 19 14" version="1.1" xmlns="http://www.w3.org/2000/svg" xmlns:xlink="http://www.w3.org/1999/xlink">
    <!-- Generator: Sketch 54 (76480) - https://sketchapp.com -->
    <title>Transactions</title>
    <desc>Created with Sketch.</desc>
    <g id="Page-1" stroke="none" stroke-width="1" fill="none" fill-rule="evenodd">
        <g id="Icons-Used" transform="translate(-109.000000, -458.000000)" fill="#000000">
            <path d="M126.585785,467.487868 L126.585785,459.354878 C126.906984,459.354878 127.167086,459.094776 127.167086,458.773576 C127.167086,458.452377 126.906984,458.192275 126.585785,458.192275 L126.004483,458.192275 C125.683283,458.192275 125.423181,458.452377 125.423181,458.773576 L125.423181,459.934435 L123.18543,459.934435 L119.192951,458.792779 C119.048062,458.752629 118.890953,458.76834 118.758458,458.839911 L116.721108,459.937926 C116.715871,459.937926 116.714126,459.934435 116.708889,459.934435 L111.480663,459.934435 L111.480663,458.773576 C111.480663,458.452377 111.220561,458.192275 110.899536,458.192275 L110.319805,458.192275 C109.998605,458.192275 109.738503,458.452377 109.738503,458.773576 C109.738503,459.094776 109.998605,459.354878 110.319805,459.354878 L110.319805,467.487868 C109.998605,467.487868 109.738503,467.74797 109.738503,468.067425 C109.738503,468.388624 109.998605,468.648901 110.319805,468.648901 L110.899536,468.648901 C111.220561,468.648901 111.480663,468.388624 111.480663,468.067425 L111.480663,467.487868 L112.309847,467.487868 L113.884425,470.111757 C114.244029,470.717323 114.872464,471.057725 115.502644,471.057725 C115.80115,471.057725 116.099657,470.980917 116.370232,470.820317 C116.557017,470.708595 116.707143,470.570863 116.83283,470.418817 C117.178469,470.776676 117.64997,470.97568 118.13334,470.97568 C118.449303,470.97568 118.768932,470.893634 119.058536,470.720815 C119.271505,470.595128 119.451307,470.429291 119.592705,470.235524 C119.948818,470.61433 120.432363,470.829045 120.929874,470.829045 C121.238854,470.829045 121.54958,470.748745 121.832376,470.581163 C122.232304,470.342008 122.492232,469.980833 122.603954,469.573922 C122.720912,469.596615 122.836125,469.617563 122.953084,469.617563 C123.276029,469.617563 123.593738,469.532026 123.878279,469.362698 C124.29549,469.114815 124.590505,468.720298 124.709209,468.248972 C124.773798,467.995853 124.779035,467.737496 124.733648,467.487868 L125.423181,467.487868 L125.423181,468.067425 C125.423181,468.388624 125.683283,468.648901 126.004483,468.648901 L126.585785,468.648901 C126.906984,468.648901 127.167086,468.388624 127.167086,468.067425 C127.167086,467.74797 126.906984,467.487868 126.585785,467.487868 Z M123.583264,467.964431 C123.539623,468.132014 123.434884,468.275157 123.284758,468.364185 C123.134632,468.451468 122.960067,468.479398 122.788993,468.435757 C122.62141,468.393861 122.481758,468.287377 122.394475,468.144233 C122.39273,468.140742 122.39273,468.138996 122.390984,468.135505 C122.389239,468.133759 122.385747,468.132014 122.385747,468.130268 L120.530294,464.977622 C120.366029,464.700063 120.009916,464.609289 119.734103,464.769889 C119.45829,464.93398 119.36577,465.290093 119.528116,465.565906 L121.390726,468.730772 C121.392472,468.734263 121.394217,468.736009 121.395963,468.7395 C121.553072,469.008331 121.570528,469.385391 121.238854,469.58265 C120.940348,469.757215 120.530294,469.640257 120.341589,469.322548 L118.58721,466.409056 C118.421373,466.134988 118.063514,466.044215 117.789447,466.210051 C117.51538,466.375888 117.426352,466.733747 117.592188,467.007814 L118.69544,468.842494 C118.779231,468.989129 118.805591,469.158457 118.763521,469.322548 C118.719879,469.491876 118.613395,469.633274 118.465014,469.722302 C118.154288,469.905596 117.754534,469.806093 117.569495,469.495367 L116.94106,468.434186 C116.937569,468.428949 116.932332,468.423537 116.927095,468.416555 L116.52385,467.791612 C116.35103,467.522781 115.991426,467.445973 115.72085,467.618792 C115.45202,467.793357 115.373466,468.152962 115.548031,468.421792 L115.944294,469.036261 C116.019531,469.165439 116.20265,469.566939 115.776711,469.821804 C115.462494,470.008589 115.059248,469.814822 114.881192,469.51457 L113.137286,466.60806 C113.032547,466.431749 112.842446,466.325264 112.638204,466.325264 L111.480663,466.325264 L111.480663,461.097038 L114.566975,461.097038 L114.092332,461.351904 C113.545768,461.667867 113.221077,462.224729 113.221077,462.839199 C113.221077,463.39257 113.435792,463.897063 113.809362,464.2235 C114.142781,464.515024 114.579369,464.640711 115.059248,464.574376 L121.272022,463.533968 L123.511692,467.468666 C123.600721,467.618792 123.626905,467.795103 123.583264,467.964431 Z M125.423181,466.325264 L124.262323,466.325264 C124.241375,466.325264 124.223918,466.335738 124.204716,466.337484 L122.080258,462.607027 C121.959808,462.394057 121.717163,462.284081 121.479754,462.32074 L114.886429,463.425737 C114.711864,463.450177 114.624581,463.39257 114.573957,463.348929 C114.455253,463.245935 114.381936,463.050422 114.381936,462.839199 C114.381936,462.566877 114.565403,462.420242 114.659494,462.366127 L119.100431,459.974585 L122.94453,461.074345 C122.995154,461.090056 123.049095,461.097038 123.10321,461.097038 L125.423181,461.097038 L125.423181,466.325264 L125.423181,466.325264 Z" id="Transactions"></path>
        </g>
    </g>
</svg>