<?xml version="1.0" encoding="UTF-8"?>
<svg width="18px" height="14px" viewBox="0 0 18 14" version="1.1" xmlns="http://www.w3.org/2000/svg" xmlns:xlink="http://www.w3.org/1999/xlink">
    <!-- Generator: Sketch 54 (76480) - https://sketchapp.com -->
    <title>Library</title>
    <desc>Created with Sketch.</desc>
    <g id="Admin" stroke="none" stroke-width="1" fill="none" fill-rule="evenodd">
        <g id="admin-edit-FAQ--2-V2" transform="translate(-12.000000, -481.000000)" fill="#FFFFFF">
            <g id="Group-7" transform="translate(0.000000, 150.000000)">
                <g id="Group-6-Copy-2">
                    <g id="Group-82">
                        <g id="Group-57" transform="translate(12.000000, 331.000000)">
                            <path d="M2.06482759,4.17074627 C2.44551724,4.17074627 2.7537931,4.48208955 2.7537931,4.86656716 C2.7537931,5.25125373 2.44551724,5.56238806 2.06482759,5.56238806 L0.688965517,5.56238806 C0.308275862,5.56238806 -5.59552404e-13,5.25125373 -5.59552404e-13,4.86656716 C-5.59552404e-13,4.48208955 0.308275862,4.17074627 0.688965517,4.17074627 L2.06482759,4.17074627 Z M2.06482759,-1.66533454e-15 C2.44551724,-1.66533454e-15 2.7537931,0.311343284 2.7537931,0.693940299 C2.7537931,1.07820896 2.44551724,1.38955224 2.06482759,1.38955224 L0.688965517,1.38955224 C0.308275862,1.38955224 -5.59552404e-13,1.07820896 -5.59552404e-13,0.693940299 C-5.59552404e-13,0.311343284 0.308275862,-1.66533454e-15 0.688965517,-1.66533454e-15 L2.06482759,-1.66533454e-15 Z M2.06482759,8.34358209 C2.44551724,8.34358209 2.7537931,8.65492537 2.7537931,9.03940299 C2.7537931,9.4238806 2.44551724,9.73522388 2.06482759,9.73522388 L0.688965517,9.73522388 C0.308275862,9.73522388 -5.59552404e-13,9.4238806 -5.59552404e-13,9.03940299 C-5.59552404e-13,8.65492537 0.308275862,8.34358209 0.688965517,8.34358209 L2.06482759,8.34358209 Z M17.2137931,4.17074627 C17.5924138,4.17074627 17.9006897,4.48208955 17.9006897,4.86656716 C17.9006897,5.25125373 17.5924138,5.56238806 17.2137931,5.56238806 L5.50758621,5.56238806 C5.12689655,5.56238806 4.81862069,5.25125373 4.81862069,4.86656716 C4.81862069,4.48208955 5.12689655,4.17074627 5.50758621,4.17074627 L17.2137931,4.17074627 Z M5.50758621,1.38955224 C5.12689655,1.38955224 4.81862069,1.07820896 4.81862069,0.693940299 C4.81862069,0.311343284 5.12689655,-1.66533454e-15 5.50758621,-1.66533454e-15 L17.2137931,-1.66533454e-15 C17.5924138,-1.66533454e-15 17.9006897,0.311343284 17.9006897,0.693940299 C17.9006897,1.07820896 17.5924138,1.38955224 17.2137931,1.38955224 L5.50758621,1.38955224 Z M17.2137931,8.34358209 C17.5924138,8.34358209 17.9006897,8.65492537 17.9006897,9.03940299 C17.9006897,9.4238806 17.5924138,9.73522388 17.2137931,9.73522388 L5.50758621,9.73522388 C5.12689655,9.73522388 4.81862069,9.4238806 4.81862069,9.03940299 C4.81862069,8.65492537 5.12689655,8.34358209 5.50758621,8.34358209 L17.2137931,8.34358209 Z M2.06482759,12.5164179 C2.44551724,12.5164179 2.7537931,12.8277612 2.7537931,13.2122388 C2.7537931,13.5967164 2.44551724,13.9080597 2.06482759,13.9080597 L0.688965517,13.9080597 C0.308275862,13.9080597 -5.59552404e-13,13.5967164 -5.59552404e-13,13.2122388 C-5.59552404e-13,12.8277612 0.308275862,12.5164179 0.688965517,12.5164179 L2.06482759,12.5164179 Z M17.2137931,12.5164179 C17.5924138,12.5164179 17.9006897,12.8277612 17.9006897,13.2122388 C17.9006897,13.5967164 17.5924138,13.9080597 17.2137931,13.9080597 L5.50758621,13.9080597 C5.12689655,13.9080597 4.81862069,13.5967164 4.81862069,13.2122388 C4.81862069,12.8277612 5.12689655,12.5164179 5.50758621,12.5164179 L17.2137931,12.5164179 Z" id="Library"></path>
                        </g>
                    </g>
                </g>
            </g>
        </g>
    </g>
</svg>