<?xml version="1.0" encoding="UTF-8"?>
<svg width="21px" height="14px" viewBox="0 0 21 14" version="1.1" xmlns="http://www.w3.org/2000/svg" xmlns:xlink="http://www.w3.org/1999/xlink">
    <!-- Generator: Sketch 55 (78076) - https://sketchapp.com -->
    <title>List view_selected</title>
    <desc>Created with Sketch.</desc>
    <g id="Page-1" stroke="none" stroke-width="1" fill="none" fill-rule="evenodd">
        <g id="Icons-Used-Copy" transform="translate(-396.000000, -220.000000)" fill="#FFFFFF">
            <g id="Group-9" transform="translate(384.975694, 211.645127)">
                <path d="M12.7150849,14.2822905 C13.0268589,14.2822905 13.2793281,14.6875704 13.2793281,15.1880504 C13.2793281,15.6888023 13.0268589,16.0938103 12.7150849,16.0938103 L11.588293,16.0938103 C11.276519,16.0938103 11.0240498,15.6888023 11.0240498,15.1880504 C11.0240498,14.6875704 11.276519,14.2822905 11.588293,14.2822905 L12.7150849,14.2822905 Z M12.7150849,8.78404853 C13.0268589,8.78404853 13.2793281,9.1893285 13.2793281,9.68736046 C13.2793281,10.1875684 13.0268589,10.5928484 12.7150849,10.5928484 L11.588293,10.5928484 C11.276519,10.5928484 11.0240498,10.1875684 11.0240498,9.68736046 C11.0240498,9.1893285 11.276519,8.78404853 11.588293,8.78404853 L12.7150849,8.78404853 Z M12.7150849,19.6450076 C13.0268589,19.6450076 13.2793281,20.0502876 13.2793281,20.5507675 C13.2793281,21.0512475 13.0268589,21.4565274 12.7150849,21.4565274 L11.588293,21.4565274 C11.276519,21.4565274 11.0240498,21.0512475 11.0240498,20.5507675 C11.0240498,20.0502876 11.276519,19.6450076 11.588293,19.6450076 L12.7150849,19.6450076 Z M30.4120889,14.2131681 C30.8606932,14.2131681 31.2259502,14.618448 31.2259502,15.118928 C31.2259502,15.6196799 30.8606932,16.0246879 30.4120889,16.0246879 L16.5421274,16.0246879 C16.0910718,16.0246879 15.7258147,15.6196799 15.7258147,15.118928 C15.7258147,14.618448 16.0910718,14.2131681 16.5421274,14.2131681 L30.4120889,14.2131681 Z M16.5421274,10.5928484 C16.0910718,10.5928484 15.7258147,10.1875684 15.7258147,9.68736046 C15.7258147,9.1893285 16.0910718,8.78404853 16.5421274,8.78404853 L30.4120889,8.78404853 C30.8606932,8.78404853 31.2259502,9.1893285 31.2259502,9.68736046 C31.2259502,10.1875684 30.8606932,10.5928484 30.4120889,10.5928484 L16.5421274,10.5928484 Z M30.4120889,19.6450076 C30.8606932,19.6450076 31.2259502,20.0502876 31.2259502,20.5507675 C31.2259502,21.0512475 30.8606932,21.4565274 30.4120889,21.4565274 L16.5421274,21.4565274 C16.0910718,21.4565274 15.7258147,21.0512475 15.7258147,20.5507675 C15.7258147,20.0502876 16.0910718,19.6450076 16.5421274,19.6450076 L30.4120889,19.6450076 Z" id="List-view_selected"></path>
            </g>
        </g>
    </g>
</svg>