<?xml version="1.0" encoding="UTF-8"?>
<svg width="23px" height="14px" viewBox="0 0 23 14" version="1.1" xmlns="http://www.w3.org/2000/svg" xmlns:xlink="http://www.w3.org/1999/xlink">
    <!-- Generator: Sketch 55.2 (78181) - https://sketchapp.com -->
    <title>Mark as read</title>
    <desc>Created with Sketch.</desc>
    <g id="Page-1" stroke="none" stroke-width="1" fill="none" fill-rule="evenodd">
        <g id="Icons-Used" transform="translate(-1095.000000, -345.000000)" fill="#9F9F9F">
            <path d="M1103.6521,354.843518 L1105.2103,356.359045 L1115.7696,345.816058 C1116.07057,345.515995 1116.55829,345.515089 1116.85926,345.816965 C1117.16023,346.117934 1117.15932,346.605649 1116.85835,346.906618 L1105.76238,357.985366 C1105.61189,358.135851 1105.41518,358.211093 1105.21755,358.211093 C1105.02355,358.211093 1104.82955,358.138571 1104.67998,357.992619 L1102.56106,355.932866 L1100.92874,357.56265 C1100.77826,357.713134 1100.58154,357.788377 1100.38391,357.788377 C1100.18992,357.788377 1099.99592,357.715854 1099.84634,357.569902 L1095.64818,353.488687 C1095.34359,353.192251 1095.33724,352.704536 1095.63368,352.399034 C1095.93011,352.093532 1096.41783,352.08628 1096.72333,352.383623 L1100.37666,355.936328 L1110.93597,345.393341 C1111.23694,345.093279 1111.72465,345.092372 1112.02562,345.394248 C1112.32659,345.695217 1112.32568,346.182932 1112.02471,346.483901 L1103.6521,354.843518 Z" id="Mark-as-read"></path>
        </g>
    </g>
</svg>