<?xml version="1.0" encoding="UTF-8"?>
<svg width="38px" height="38px" viewBox="0 0 38 38" version="1.1" xmlns="http://www.w3.org/2000/svg" xmlns:xlink="http://www.w3.org/1999/xlink">
    <!-- Generator: Sketch 58 (84663) - https://sketch.com -->
    <title>markup otions@1x</title>
    <desc>Created with Sketch.</desc>
    <g id="documnet-view" stroke="none" stroke-width="1" fill="none" fill-rule="evenodd">
        <g id="markup-otions">
            <path d="M18.6895822,1.57166119 C28.1361633,1.57166119 35.8207242,9.3354311 35.8207242,18.876478 C35.8207242,28.417525 28.1361633,36.1789315 18.6895822,36.1789315 C9.24300109,36.1789315 1.55610018,28.417525 1.55610018,18.876478 C1.55610018,9.3354311 9.24300109,1.57166119 18.6895822,1.57166119 M18.6895822,-1.91846539e-13 C8.36784099,-1.91846539e-13 -2.48689958e-14,8.4515194 -2.48689958e-14,18.876478 C-2.48689958e-14,29.3014367 8.36784099,37.7529561 18.6895822,37.7529561 C29.0113234,37.7529561 37.3791644,29.3014367 37.3791644,18.876478 C37.3791644,8.4515194 29.0113234,-1.91846539e-13 18.6895822,-1.91846539e-13" id="Fill-279-Copy" fill="#000000"></path>
            <path d="M21.2616492,13.1791238 C21.233858,13.1114276 21.1929885,13.0519871 21.1439451,13.0008021 L17.3365443,9.1554924 C17.2858661,9.10579347 17.2270141,9.06468041 17.1599881,9.03644614 C17.094597,9.0100281 17.0243015,8.99516796 16.9507364,8.99516796 L9.87868143,8.99516796 C9.57788205,8.99516796 9.33429994,9.24118589 9.33429994,9.54334213 L9.33429994,21.4961948 C9.33429994,21.8000022 9.57788205,22.044369 9.87868143,22.044369 L20.759772,22.044369 C21.0589366,22.044369 21.3025187,21.8000022 21.3025187,21.4961948 L21.3025187,13.3904681 C21.3025187,13.3161674 21.2878057,13.2451689 21.2616492,13.1791238 Z M17.4951179,10.8708483 L19.4454095,12.8406428 L17.4951179,12.8406428 L17.4951179,10.8708483 Z M10.4230629,10.0931674 L16.4063549,10.0931674 L16.4063549,13.3904681 C16.4063549,13.6942755 16.649937,13.9402934 16.9507364,13.9402934 L20.2153905,13.9402934 L20.2153905,20.9463695 L10.4230629,20.9463695 L10.4230629,10.0931674 Z" id="Fill-410-Copy" fill="#000000"></path>
            <path d="M10.7578665,25.3985679 L11.8856668,24.0286898 C11.9922009,23.9210904 11.9922009,23.7472759 11.8856668,23.6396765 C11.7791328,23.5320771 11.6070392,23.5320771 11.5005051,23.6396765 L9.90723278,25.4788536 C9.8818285,25.504512 9.86216066,25.5343087 9.84822928,25.5682439 C9.82036652,25.6361144 9.82036652,25.711434 9.84822928,25.7793044 C9.86216066,25.8124119 9.8818285,25.8430363 9.90723278,25.8687774 L11.5005051,28.0695175 C11.5537722,28.1234 11.6234291,28.1506309 11.693086,28.1506309 C11.7627429,28.1506309 11.8323998,28.1234 11.8856668,28.0695175 C11.9922009,27.9619181 11.9922009,27.7872759 11.8856668,27.6796765 L10.7578665,25.9489804 L15.4629583,25.9489804 L15.4629583,28.9791459 C15.4629583,29.1314405 15.5850628,29.2548488 15.7358495,29.2548488 C15.8866362,29.2548488 16.0087406,29.1314405 16.0087406,28.9791459 L16.0087406,25.6733603 C16.0087406,25.5210657 15.8866362,25.3985679 15.7358495,25.3985679 L10.7578665,25.3985679 Z" id="Path-Copy" stroke="#000000" stroke-width="0.2" fill="#000000" transform="translate(12.918036, 26.406913) scale(-1, -1) translate(-12.918036, -26.406913) "></path>
            <path d="M22.7721997,10.8488914 L23.9,9.47901333 C24.0065341,9.3714139 24.0065341,9.19759943 23.9,9.09 C23.7934659,8.98240057 23.6213724,8.98240057 23.5148383,9.09 L21.9215659,10.9291772 C21.8961617,10.9548355 21.8764938,10.9846322 21.8625624,11.0185675 C21.8346997,11.0864379 21.8346997,11.1617575 21.8625624,11.2296279 C21.8764938,11.2627354 21.8961617,11.2933598 21.9215659,11.3191009 L23.5148383,13.519841 C23.5681053,13.5737235 23.6377622,13.6009544 23.7074191,13.6009544 C23.777076,13.6009544 23.846733,13.5737235 23.9,13.519841 C24.0065341,13.4122416 24.0065341,13.2375994 23.9,13.13 L22.7721997,11.3993039 L27.4772915,11.3993039 L27.4772915,14.4294694 C27.4772915,14.581764 27.5993959,14.7051723 27.7501826,14.7051723 C27.9009693,14.7051723 28.0230738,14.581764 28.0230738,14.4294694 L28.0230738,11.1236838 C28.0230738,10.9713892 27.9009693,10.8488914 27.7501826,10.8488914 L22.7721997,10.8488914 Z" id="Path" stroke="#000000" stroke-width="0.2" fill="#000000"></path>
            <path d="M12.3325339,14.8632685 L17.9447156,14.8632685" id="Line-4" stroke="#D4D4D4" stroke-width="0.909999985" stroke-linecap="round" transform="translate(15.132534, 14.863268) scale(-1, 1) translate(-15.132534, -14.863268) "></path>
            <path d="M12.3325339,17.3321079 L17.9447156,17.3321079" id="Line-4-Copy" stroke="#D4D4D4" stroke-width="0.909999985" stroke-linecap="round" transform="translate(15.132534, 17.332108) scale(-1, 1) translate(-15.132534, -17.332108) "></path>
            <path d="M12.3325339,19.8009474 L17.9447156,19.8009474" id="Line-4-Copy-2" stroke="#D4D4D4" stroke-width="0.909999985" stroke-linecap="round" transform="translate(15.132534, 19.800947) scale(-1, 1) translate(-15.132534, -19.800947) "></path>
            <path d="M12.5770254,14.8632685 L14.4447157,14.8632685" id="Line-4" stroke="#000000" stroke-width="0.909999985" stroke-linecap="round" transform="translate(13.382534, 14.863268) scale(-1, 1) translate(-13.382534, -14.863268) "></path>
            <path d="M13.9852996,17.3321079 L16.7735491,17.3321079" id="Line-4-Copy" stroke="#000000" stroke-width="0.909999985" stroke-linecap="round" transform="translate(15.132534, 17.332108) scale(-1, 1) translate(-15.132534, -17.332108) "></path>
            <path d="M15.1203517,19.8009474 L17.9325338,19.8009474" id="Line-4-Copy-2" stroke="#000000" stroke-width="0.909999985" stroke-linecap="round" transform="translate(16.526443, 19.800947) scale(-1, 1) translate(-16.526443, -19.800947) "></path>
            <polygon id="Path-7" fill="#FAFAFA" points="17.2703428 16.8432904 24.2703428 16.8432904 28.2703428 20.8832904 28.2703428 28.9632904 17.2703428 28.9632904"></polygon>
            <path d="M19.5295389,22.857419 L25.1417207,22.857419 C25.3930102,22.857419 25.5967207,22.6516714 25.5967207,22.397869 C25.5967207,22.1440665 25.3930102,21.938319 25.1417207,21.938319 L19.5295389,21.938319 C19.2782494,21.938319 19.0745389,22.1440665 19.0745389,22.397869 C19.0745389,22.6516714 19.2782494,22.857419 19.5295389,22.857419 Z" id="Path" fill="#D4D4D4" fill-rule="nonzero"></path>
            <path d="M19.5295389,25.3262584 L25.1417207,25.3262584 C25.3930102,25.3262584 25.5967207,25.1205109 25.5967207,24.8667084 C25.5967207,24.612906 25.3930102,24.4071585 25.1417207,24.4071585 L19.5295389,24.4071585 C19.2782494,24.4071585 19.0745389,24.612906 19.0745389,24.8667084 C19.0745389,25.1205109 19.2782494,25.3262584 19.5295389,25.3262584 Z" id="Line-4-Copy" fill="#D4D4D4" fill-rule="nonzero"></path>
            <path d="M19.5295389,27.7950979 L25.1417207,27.7950979 C25.3930102,27.7950979 25.5967207,27.5893504 25.5967207,27.3355479 C25.5967207,27.0817455 25.3930102,26.8759979 25.1417207,26.8759979 L19.5295389,26.8759979 C19.2782494,26.8759979 19.0745389,27.0817455 19.0745389,27.3355479 C19.0745389,27.5893504 19.2782494,27.7950979 19.5295389,27.7950979 Z" id="Line-4-Copy-2" fill="#D4D4D4" fill-rule="nonzero"></path>
            <path d="M23.2740304,22.857419 L25.1417207,22.857419 C25.3930102,22.857419 25.5967207,22.6516714 25.5967207,22.397869 C25.5967207,22.1440665 25.3930102,21.938319 25.1417207,21.938319 L23.2740304,21.938319 C23.0227408,21.938319 22.8190304,22.1440665 22.8190304,22.397869 C22.8190304,22.6516714 23.0227408,22.857419 23.2740304,22.857419 Z" id="Path" fill="#000000" fill-rule="nonzero"></path>
            <path d="M21.1823046,25.3262584 L23.9705541,25.3262584 C24.2218437,25.3262584 24.4255541,25.1205109 24.4255541,24.8667084 C24.4255541,24.612906 24.2218437,24.4071585 23.9705541,24.4071585 L21.1823046,24.4071585 C20.9310151,24.4071585 20.7273046,24.612906 20.7273046,24.8667084 C20.7273046,25.1205109 20.9310151,25.3262584 21.1823046,25.3262584 Z" id="Line-4-Copy" fill="#000000" fill-rule="nonzero"></path>
            <path d="M19.5295389,27.7950979 L22.341721,27.7950979 C22.5930105,27.7950979 22.796721,27.5893504 22.796721,27.3355479 C22.796721,27.0817455 22.5930105,26.8759979 22.341721,26.8759979 L19.5295389,26.8759979 C19.2782494,26.8759979 19.0745389,27.0817455 19.0745389,27.3355479 C19.0745389,27.5893504 19.2782494,27.7950979 19.5295389,27.7950979 Z" id="Line-4-Copy-2" fill="#000000" fill-rule="nonzero"></path>
            <path d="M17.1476583,16.3449603 L24.2197133,16.3449603 C24.2932783,16.3449603 24.3635738,16.3598204 24.428965,16.3862384 C24.473649,16.4050613 24.5147001,16.429608 24.5521184,16.4586067 L24.6055212,16.5052847 L28.412922,20.3505944 C28.4619654,20.4017794 28.5028348,20.4612199 28.5306261,20.5289162 C28.5480637,20.5729462 28.5604154,20.6191778 28.5667123,20.6671216 L28.5714956,20.7402604 L28.5714956,28.8459871 C28.5714956,29.1194137 28.3741941,29.3446935 28.1166428,29.3870152 L28.0287489,29.3941613 L17.1476583,29.3941613 C16.8769388,29.3941613 16.6525654,29.1962242 16.6103979,28.9351612 L16.6032768,28.8459871 L16.6032768,16.8931344 C16.6032768,16.6211938 16.8005783,16.3947252 17.0593214,16.3521509 L17.1476583,16.3449603 L24.2197133,16.3449603 Z M23.6753318,17.4429597 L17.6920398,17.4429597 L17.6920398,28.2961618 L27.4843674,28.2961618 L27.4843674,21.2900857 L24.2197133,21.2900857 C23.9189139,21.2900857 23.6753318,21.0440678 23.6753318,20.7402604 L23.6753318,20.7402604 L23.6753318,17.4429597 Z M24.7640947,18.2206406 L24.7640947,20.1904351 L26.7143864,20.1904351 L24.7640947,18.2206406 Z" id="Fill-410-Copy-2" fill="#000000"></path>
        </g>
    </g>
</svg>