<?xml version="1.0" encoding="UTF-8"?>
<svg width="17px" height="17px" viewBox="0 0 17 17" version="1.1" xmlns="http://www.w3.org/2000/svg" xmlns:xlink="http://www.w3.org/1999/xlink">
    <!-- Generator: Sketch 62 (91390) - https://sketch.com -->
    <title>merge-and-add</title>
    <desc>Created with Sketch.</desc>
    <g id="ICONIC-VIEW" stroke="none" stroke-width="1" fill="none" fill-rule="evenodd">
        <path d="M5.76686903,0.774080178 C5.91468881,0.733658241 6.0877081,0.744817293 6.25509388,0.800612551 L6.25509388,0.800612551 L6.3507828,0.858851676 L6.41660327,0.893128718 C6.44822939,0.911915694 6.47390101,0.931716223 6.50394713,0.961762348 L6.50394713,0.961762348 L10.5341738,4.99198905 C10.8333162,5.29113146 10.8333162,5.7516897 10.5341738,6.05083211 C10.3830125,6.20199344 10.2183227,6.27518892 10.0047523,6.27518892 C9.79118192,6.27518892 9.6264921,6.20199344 9.47533077,6.05083211 L9.47533077,6.05083211 L6.728,3.304 L6.72830394,6.78085642 C6.72830394,7.90955368 6.89342334,8.95769058 7.23075098,9.91157368 L7.23075098,9.91157368 L7.36533495,10.264835 C7.8511065,11.4792638 8.53435622,12.5651428 9.43490833,13.5657563 C9.82643296,14.0007837 10.2635811,14.3723596 10.8890437,14.8284479 C11.2590961,15.0504793 11.3579682,15.5695577 11.1195659,15.8867859 C10.9774604,16.0999441 10.7581687,16.1996222 10.5085306,16.1996222 C10.4282213,16.1996222 10.3509539,16.1827199 10.2696163,16.1522183 C10.256364,16.1472487 10.2440111,16.1423901 10.2312111,16.1370013 L10.2312111,16.1370013 L10.0675886,16.0568791 C9.4735706,15.6608671 8.90509536,15.1569913 8.36276064,14.5603231 C7.31834495,13.4636866 6.50121237,12.17209 6.00280797,10.8221309 L6.00280797,10.8221309 L6.015,10.855 L5.87832622,11.1953109 C5.38761742,12.3579389 4.69157847,13.4407095 3.80374521,14.4238771 L3.80374521,14.4238771 L3.53165494,14.7158195 C2.97393475,15.2735397 2.46929487,15.7166381 1.9049688,16.1228511 C1.71747606,16.2165975 1.62840273,16.25 1.4908984,16.25 C1.24126031,16.25 1.02196866,16.150322 0.873502495,15.9271126 C0.660808459,15.5726225 0.727747561,15.1263619 1.04526581,14.888391 C1.58062915,14.5136367 2.05921677,14.1209494 2.47047078,13.7097268 C4.29065773,11.8403456 5.2711251,9.4337439 5.2711251,6.83123426 L5.2711251,6.83123426 L5.271,3.353 L2.52409827,6.10120994 L2.42637851,6.16160407 L2.21764721,6.23315934 C2.12482624,6.26100563 2.03972653,6.27518892 1.9442989,6.27518892 C1.73072852,6.27518892 1.5660387,6.20199344 1.41487737,6.05083211 C1.11573496,5.7516897 1.11573496,5.29113146 1.41487737,4.99198905 L1.41487737,4.99198905 L5.48480188,0.922732045 L5.54744751,0.869269521 C5.6144386,0.819026205 5.68585079,0.787783375 5.77301427,0.787783375 L5.71552082,0.793998995 Z M13.4901071,0.500048172 C13.7355433,0.503455376 13.937217,0.68314726 13.9763111,0.916961656 L13.9831185,1.00694045 L13.9565208,2.888999 L15.9741585,2.91764514 C16.2502743,2.92147825 16.471003,3.14842165 16.4671699,3.42453742 C16.4637627,3.66997366 16.2840708,3.87164729 16.0502564,3.91074146 L15.9602776,3.9175488 L13.9425208,3.888999 L13.9141147,5.9775926 C13.9102816,6.25370838 13.6833382,6.47443709 13.4072224,6.47060398 C13.1617862,6.46719678 12.9601126,6.2875049 12.9210184,6.0536905 L12.914211,5.96371171 L12.9425208,3.874999 L10.9896255,3.84854504 C10.7135097,3.84471193 10.492781,3.61776853 10.4966141,3.34165276 C10.5000213,3.09621652 10.6797132,2.89454289 10.9135276,2.85544872 L11.0035064,2.84864138 L12.9565208,2.874999 L12.9832148,0.993059551 C12.9870479,0.716943781 13.2139913,0.496215068 13.4901071,0.500048172 Z" id="merge-and-add" fill="#000000" fill-rule="nonzero"></path>
    </g>
</svg>