<?xml version="1.0" encoding="UTF-8"?>
<svg width="17px" height="16px" viewBox="0 0 17 16" version="1.1" xmlns="http://www.w3.org/2000/svg" xmlns:xlink="http://www.w3.org/1999/xlink">
    <!-- Generator: Sketch 62 (91390) - https://sketch.com -->
    <title>merge-and-add-disabled</title>
    <desc>Created with Sketch.</desc>
    <g id="ICONIC-VIEW" stroke="none" stroke-width="1" fill="none" fill-rule="evenodd">
        <path d="M5.76686903,0.274081183 C5.91468881,0.233659246 6.0877081,0.244818298 6.25509388,0.300613556 L6.25509388,0.300613556 L6.3507828,0.35885268 L6.41660327,0.393129722 C6.44822939,0.411916699 6.47390101,0.431717227 6.50394713,0.461763352 L6.50394713,0.461763352 L10.5341738,4.49199005 C10.8333162,4.79113246 10.8333162,5.25169071 10.5341738,5.55083312 C10.3830125,5.70199444 10.2183227,5.77518992 10.0047523,5.77518992 C9.79118192,5.77518992 9.6264921,5.70199444 9.47533077,5.55083312 L9.47533077,5.55083312 L6.728,2.804001 L6.72830394,6.28085743 C6.72830394,7.40955468 6.89342334,8.45769158 7.23075098,9.41157468 L7.23075098,9.41157468 L7.36533495,9.76483596 C7.8511065,10.9792648 8.53435622,12.0651438 9.43490833,13.0657573 C9.82643296,13.5007847 10.2635811,13.8723606 10.8890437,14.3284489 C11.2590961,14.5504804 11.3579682,15.0695587 11.1195659,15.3867869 C10.9774604,15.5999451 10.7581687,15.6996232 10.5085306,15.6996232 C10.4282213,15.6996232 10.3509539,15.6827209 10.2696163,15.6522193 C10.256364,15.6472497 10.2440111,15.6423911 10.2312111,15.6370023 L10.2312111,15.6370023 L10.0675886,15.5568801 C9.4735706,15.1608681 8.90509536,14.6569923 8.36276064,14.0603241 C7.31834495,12.9636876 6.50121237,11.672091 6.00280797,10.3221319 L6.00280797,10.3221319 L6.015,10.355001 L5.87832622,10.695312 C5.38761742,11.8579399 4.69157847,12.9407105 3.80374521,13.9238781 L3.80374521,13.9238781 L3.53165494,14.2158205 C2.97393475,14.7735407 2.46929487,15.2166391 1.9049688,15.6228521 C1.71747606,15.7165985 1.62840273,15.750001 1.4908984,15.750001 C1.24126031,15.750001 1.02196866,15.650323 0.873502495,15.4271136 C0.660808459,15.0726235 0.727747561,14.6263629 1.04526581,14.388392 C1.58062915,14.0136377 2.05921677,13.6209504 2.47047078,13.2097278 C4.29065773,11.3403466 5.2711251,8.9337449 5.2711251,6.33123526 L5.2711251,6.33123526 L5.271,2.853001 L2.52409827,5.60121095 L2.42637851,5.66160508 L2.21764721,5.73316035 C2.12482624,5.76100664 2.03972653,5.77518992 1.9442989,5.77518992 C1.73072852,5.77518992 1.5660387,5.70199444 1.41487737,5.55083312 C1.11573496,5.25169071 1.11573496,4.79113246 1.41487737,4.49199005 L1.41487737,4.49199005 L5.48480188,0.422733049 L5.54744751,0.369270526 C5.6144386,0.31902721 5.68585079,0.28778438 5.77301427,0.28778438 L5.71552082,0.294 Z M13.4901071,4.91768672e-05 C13.7355433,0.00345638048 13.937217,0.183148264 13.9763111,0.41696266 L13.9831185,0.506941454 L13.9565208,2.389 L15.9741585,2.41764615 C16.2502743,2.42147925 16.471003,2.64842265 16.4671699,2.92453842 C16.4637627,3.16997466 16.2840708,3.37164829 16.0502564,3.41074246 L15.9602776,3.4175498 L13.9425208,3.389 L13.9141147,5.47759361 C13.9102816,5.75370938 13.6833382,5.97443809 13.4072224,5.97060499 C13.1617862,5.96719778 12.9601126,5.7875059 12.9210184,5.55369151 L12.914211,5.46371271 L12.9425208,3.375 L10.9896255,3.34854604 C10.7135097,3.34471294 10.492781,3.11776953 10.4966141,2.84165376 C10.5000213,2.59621752 10.6797132,2.3945439 10.9135276,2.35544972 L11.0035064,2.34864238 L12.9565208,2.375 L12.9832148,0.493060556 C12.9870479,0.216944786 13.2139913,-0.0037839272 13.4901071,4.91768672e-05 Z" id="merge-and-add-disabled" fill="#E2E2E2" fill-rule="nonzero"></path>
    </g>
</svg>