<?xml version="1.0" encoding="UTF-8"?>
<svg width="16px" height="15px" viewBox="0 0 16 15" version="1.1" xmlns="http://www.w3.org/2000/svg" xmlns:xlink="http://www.w3.org/1999/xlink">
    <!-- Generator: Sketch 58 (84663) - https://sketch.com -->
    <title>more-info-selected</title>
    <desc>Created with Sketch.</desc>
    <g id="Page-1" stroke="none" stroke-width="1" fill="none" fill-rule="evenodd">
        <path d="M8.1589077,0.0182276581 C12.3151577,0.0182276581 15.6589077,3.36197766 15.6589077,7.51822766 C15.6589077,11.6744777 12.3151577,15.0182277 8.1589077,15.0182277 C4.0026577,15.0182277 0.658907698,11.6744777 0.658907698,7.51822766 C0.658907698,3.36197766 4.0026577,0.0182276581 8.1589077,0.0182276581 Z M8.1589077,0.643227658 C4.3776577,0.643227658 1.2839077,3.73697766 1.2839077,7.51822766 C1.2839077,11.2994777 4.3776577,14.3932277 8.1589077,14.3932277 C11.9401577,14.3932277 15.0339077,11.2994777 15.0339077,7.51822766 C15.0339077,3.73697766 11.9401577,0.643227658 8.1589077,0.643227658 Z M8.1589077,10.3307277 C8.6901577,10.3307277 9.0964077,10.7369777 9.0964077,11.2682277 C9.0964077,11.7994777 8.6901577,12.2057277 8.1589077,12.2057277 C7.6276577,12.2057277 7.2214077,11.7994777 7.2214077,11.2682277 C7.2214077,10.7369777 7.6276577,10.3307277 8.1589077,10.3307277 Z M8.1589077,10.9557277 C7.9714077,10.9557277 7.8464077,11.0807277 7.8464077,11.2682277 C7.8464077,11.4557277 7.9714077,11.5807277 8.1589077,11.5807277 C8.3464077,11.5807277 8.4714077,11.4557277 8.4714077,11.2682277 C8.4714077,11.0807277 8.3464077,10.9557277 8.1589077,10.9557277 Z M8.1589077,2.83072766 C9.7214077,2.83072766 10.9714077,4.08072766 10.9714077,5.64322766 C10.9714077,6.83072766 10.2214077,7.89322766 9.0964077,8.29947766 L9.0964077,9.39322766 C9.0964077,9.58072766 8.9714077,9.70572766 8.7839077,9.70572766 L7.5339077,9.70572766 C7.3464077,9.70572766 7.2214077,9.58072766 7.2214077,9.39322766 L7.2214077,6.89322766 C7.2214077,6.79947766 7.2526577,6.73697766 7.3151577,6.67447766 C7.3776577,6.61197766 7.4401577,6.58072766 7.5339077,6.58072766 L8.1589077,6.58072766 C8.6589077,6.58072766 9.0964077,6.14322766 9.0964077,5.64322766 C9.0964077,5.11197766 8.6901577,4.70572766 8.1589077,4.70572766 C7.6901577,4.70572766 7.3151577,5.01822766 7.2214077,5.48697766 C7.1901577,5.64322766 7.0651577,5.73697766 6.9089077,5.73697766 L5.6589077,5.64322766 C5.5026577,5.64322766 5.3776577,5.48697766 5.3776577,5.33072766 L5.3776577,5.17447766 C5.5964077,3.79947766 6.7839077,2.83072766 8.1589077,2.83072766 Z M8.1589077,3.45572766 C7.1589077,3.45572766 6.3151577,4.11197766 6.0651577,5.04947766 L6.7214077,5.08072766 C6.9089077,4.48697766 7.5026577,4.08072766 8.1589077,4.08072766 C9.0339077,4.08072766 9.7214077,4.76822766 9.7214077,5.64322766 C9.7214077,6.48697766 9.0026577,7.20572766 8.1589077,7.20572766 L7.8464077,7.20572766 L7.8464077,9.08072766 L8.4714077,9.08072766 L8.4714077,8.04947766 C8.4714077,7.89322766 8.5651577,7.76822766 8.7214077,7.73697766 C9.6589077,7.51822766 10.3464077,6.64322766 10.3464077,5.64322766 C10.3464077,4.42447766 9.3776577,3.45572766 8.1589077,3.45572766 Z" id="more-info-selected" fill="#000000"></path>
    </g>
</svg>