<?xml version="1.0" encoding="UTF-8"?>
<svg width="16px" height="16px" viewBox="0 0 16 16" version="1.1" xmlns="http://www.w3.org/2000/svg" xmlns:xlink="http://www.w3.org/1999/xlink">
    <!-- Generator: Sketch 58 (84663) - https://sketch.com -->
    <title>more-info</title>
    <desc>Created with Sketch.</desc>
    <g id="Page-1" stroke="none" stroke-width="1" fill="none" fill-rule="evenodd">
        <path d="M8.1589077,0.41190624 C12.3151577,0.41190624 15.6589077,3.75565624 15.6589077,7.91190624 C15.6589077,12.0681562 12.3151577,15.4119062 8.1589077,15.4119062 C4.0026577,15.4119062 0.658907698,12.0681562 0.658907698,7.91190624 C0.658907698,3.75565624 4.0026577,0.41190624 8.1589077,0.41190624 Z M8.1589077,1.03690624 C4.3776577,1.03690624 1.2839077,4.13065624 1.2839077,7.91190624 C1.2839077,11.6931562 4.3776577,14.7869062 8.1589077,14.7869062 C11.9401577,14.7869062 15.0339077,11.6931562 15.0339077,7.91190624 C15.0339077,4.13065624 11.9401577,1.03690624 8.1589077,1.03690624 Z M8.1589077,10.7244062 C8.6901577,10.7244062 9.0964077,11.1306562 9.0964077,11.6619062 C9.0964077,12.1931562 8.6901577,12.5994062 8.1589077,12.5994062 C7.6276577,12.5994062 7.2214077,12.1931562 7.2214077,11.6619062 C7.2214077,11.1306562 7.6276577,10.7244062 8.1589077,10.7244062 Z M8.1589077,11.3494062 C7.9714077,11.3494062 7.8464077,11.4744062 7.8464077,11.6619062 C7.8464077,11.8494062 7.9714077,11.9744062 8.1589077,11.9744062 C8.3464077,11.9744062 8.4714077,11.8494062 8.4714077,11.6619062 C8.4714077,11.4744062 8.3464077,11.3494062 8.1589077,11.3494062 Z M8.1589077,3.22440624 C9.7214077,3.22440624 10.9714077,4.47440624 10.9714077,6.03690624 C10.9714077,7.22440624 10.2214077,8.28690624 9.0964077,8.69315624 L9.0964077,9.78690624 C9.0964077,9.97440624 8.9714077,10.0994062 8.7839077,10.0994062 L7.5339077,10.0994062 C7.3464077,10.0994062 7.2214077,9.97440624 7.2214077,9.78690624 L7.2214077,7.28690624 C7.2214077,7.19315624 7.2526577,7.13065624 7.3151577,7.06815624 C7.3776577,7.00565624 7.4401577,6.97440624 7.5339077,6.97440624 L8.1589077,6.97440624 C8.6589077,6.97440624 9.0964077,6.53690624 9.0964077,6.03690624 C9.0964077,5.50565624 8.6901577,5.09940624 8.1589077,5.09940624 C7.6901577,5.09940624 7.3151577,5.41190624 7.2214077,5.88065624 C7.1901577,6.03690624 7.0651577,6.13065624 6.9089077,6.13065624 L5.6589077,6.03690624 C5.5026577,6.03690624 5.3776577,5.88065624 5.3776577,5.72440624 L5.3776577,5.56815624 C5.5964077,4.19315624 6.7839077,3.22440624 8.1589077,3.22440624 Z M8.1589077,3.84940624 C7.1589077,3.84940624 6.3151577,4.50565624 6.0651577,5.44315624 L6.7214077,5.47440624 C6.9089077,4.88065624 7.5026577,4.47440624 8.1589077,4.47440624 C9.0339077,4.47440624 9.7214077,5.16190624 9.7214077,6.03690624 C9.7214077,6.88065624 9.0026577,7.59940624 8.1589077,7.59940624 L7.8464077,7.59940624 L7.8464077,9.47440624 L8.4714077,9.47440624 L8.4714077,8.44315624 C8.4714077,8.28690624 8.5651577,8.16190624 8.7214077,8.13065624 C9.6589077,7.91190624 10.3464077,7.03690624 10.3464077,6.03690624 C10.3464077,4.81815624 9.3776577,3.84940624 8.1589077,3.84940624 Z" id="more-info" fill="#AAAAAA"></path>
    </g>
</svg>