<?xml version="1.0" encoding="UTF-8"?>
<svg width="17px" height="17px" viewBox="0 0 17 17" version="1.1" xmlns="http://www.w3.org/2000/svg" xmlns:xlink="http://www.w3.org/1999/xlink">
    <!-- Generator: Sketch 58 (84663) - https://sketch.com -->
    <title>not-applicable-selected</title>
    <desc>Created with Sketch.</desc>
    <g id="Page-1" stroke="none" stroke-width="1" fill="none" fill-rule="evenodd">
        <path d="M8.5,1 C12.65625,1 16,4.34375 16,8.5 C16,12.65625 12.65625,16 8.5,16 C4.34375,16 1,12.65625 1,8.5 C1,4.34375 4.34375,1 8.5,1 Z M8.5,1.625 C4.71875,1.625 1.625,4.71875 1.625,8.5 C1.625,12.28125 4.71875,15.375 8.5,15.375 C12.28125,15.375 15.375,12.28125 15.375,8.5 C15.375,4.71875 12.28125,1.625 8.5,1.625 Z M8.50585938,6.66308594 C8.6780941,6.66308594 8.81998885,6.79831168 8.82827384,6.97034702 L8.82827384,6.97034702 L9.08313291,12.2624208 L9.08313291,12.2624208 L9.08380195,12.2902215 C9.08380195,12.6094104 8.82504824,12.8681641 8.50585938,12.8681641 C8.49658845,12.8681641 8.48731886,12.867941 8.47805867,12.867495 C8.15923929,12.8521411 7.91323193,12.5812402 7.92858584,12.2624208 L7.92858584,12.2624208 L8.18344491,6.97034702 C8.1917299,6.79831168 8.33362465,6.66308594 8.50585938,6.66308594 Z M8.49707031,4.13183594 C8.71972768,4.13183594 8.89355406,4.20117118 9.01855469,4.33984375 C9.14355531,4.47851632 9.20605469,4.67285031 9.20605469,4.92285156 C9.20605469,5.18066535 9.14453187,5.377929 9.02148438,5.51464844 C8.89843688,5.65136787 8.72363395,5.71972656 8.49707031,5.71972656 C8.02831797,5.71972656 7.79394531,5.45410422 7.79394531,4.92285156 C7.79394531,4.64160016 7.8603509,4.43945374 7.99316406,4.31640625 C8.12597723,4.19335876 8.29394531,4.13183594 8.49707031,4.13183594 Z" id="not-applicable-selected" stroke="#FFFFFF" stroke-width="0.3" fill="#FFFFFF" fill-rule="nonzero" transform="translate(8.500000, 8.500000) scale(1, -1) translate(-8.500000, -8.500000) "></path>
    </g>
</svg>