<?xml version="1.0" encoding="UTF-8"?>
<svg width="16px" height="17px" viewBox="0 0 16 17" version="1.1" xmlns="http://www.w3.org/2000/svg" xmlns:xlink="http://www.w3.org/1999/xlink">
    <!-- Generator: Sketch 58 (84663) - https://sketch.com -->
    <title>not-applicable</title>
    <desc>Created with Sketch.</desc>
    <g id="Page-1" stroke="none" stroke-width="1" fill="none" fill-rule="evenodd">
        <path d="M8,1 C12.15625,1 15.5,4.34375 15.5,8.5 C15.5,12.65625 12.15625,16 8,16 C3.84375,16 0.5,12.65625 0.5,8.5 C0.5,4.34375 3.84375,1 8,1 Z M8,1.625 C4.21875,1.625 1.125,4.71875 1.125,8.5 C1.125,12.28125 4.21875,15.375 8,15.375 C11.78125,15.375 14.875,12.28125 14.875,8.5 C14.875,4.71875 11.78125,1.625 8,1.625 Z M8.00585938,6.66308594 C8.1780941,6.66308594 8.31998885,6.79831168 8.32827384,6.97034702 L8.32827384,6.97034702 L8.58313291,12.2624208 L8.58313291,12.2624208 L8.58380195,12.2902215 C8.58380195,12.6094104 8.32504824,12.8681641 8.00585938,12.8681641 C7.99658845,12.8681641 7.98731886,12.867941 7.97805867,12.867495 C7.65923929,12.8521411 7.41323193,12.5812402 7.42858584,12.2624208 L7.42858584,12.2624208 L7.68344491,6.97034702 C7.6917299,6.79831168 7.83362465,6.66308594 8.00585938,6.66308594 Z M7.99707031,4.13183594 C8.21972768,4.13183594 8.39355406,4.20117118 8.51855469,4.33984375 C8.64355531,4.47851632 8.70605469,4.67285031 8.70605469,4.92285156 C8.70605469,5.18066535 8.64453187,5.377929 8.52148438,5.51464844 C8.39843688,5.65136787 8.22363395,5.71972656 7.99707031,5.71972656 C7.52831797,5.71972656 7.29394531,5.45410422 7.29394531,4.92285156 C7.29394531,4.64160016 7.3603509,4.43945374 7.49316406,4.31640625 C7.62597723,4.19335876 7.79394531,4.13183594 7.99707031,4.13183594 Z" id="not-applicable" stroke="#EF9600" stroke-width="0.3" fill="#ED8B00" fill-rule="nonzero" transform="translate(8.000000, 8.500000) scale(1, -1) translate(-8.000000, -8.500000) "></path>
    </g>
</svg>