<?xml version="1.0" encoding="UTF-8"?>
<svg width="17px" height="13px" viewBox="0 0 17 13" version="1.1" xmlns="http://www.w3.org/2000/svg" xmlns:xlink="http://www.w3.org/1999/xlink">
    <!-- Generator: Sketch 58 (84663) - https://sketch.com -->
    <title>pending</title>
    <desc>Created with Sketch.</desc>
    <g id="User" stroke="none" stroke-width="1" fill="none" fill-rule="evenodd">
        <path d="M14.7419629,0.0714285714 L1.55446293,0.0714285714 C0.780025425,0.0714285714 0.148212925,0.692843956 0.148212925,1.45604396 L0.148212925,10.6868132 C0.148212925,11.4474286 0.777212925,12.0714286 1.55446293,12.0714286 L14.7419629,12.0714286 C15.5144629,12.0714286 16.1482129,11.4521055 16.1482129,10.6868132 L16.1482129,1.45604396 C16.1482129,0.695428571 15.5192129,0.0714285714 14.7419629,0.0714285714 Z M14.5477754,0.994505495 L8.17802543,7.26629011 L1.75318168,0.994505495 L14.5477754,0.994505495 Z M1.08571293,10.4956747 L1.08571293,1.64278242 L5.60068168,6.05016703 L1.08571293,10.4956747 Z M1.74861918,11.1483516 L6.26643168,6.70004396 L7.84946293,8.24533626 C8.03271293,8.42422857 8.32843168,8.42364396 8.51093168,8.24392088 L10.0544629,6.72413626 L14.5478067,11.1483516 L1.74861918,11.1483516 Z M15.2107129,10.495644 L10.7173692,6.07142857 L15.2107129,1.64718242 L15.2107129,10.495644 Z" id="pending" fill="#F39000" fill-rule="nonzero"></path>
    </g>
</svg>