<?xml version="1.0" encoding="UTF-8"?>
<svg width="17px" height="18px" viewBox="0 0 17 18" version="1.1" xmlns="http://www.w3.org/2000/svg" xmlns:xlink="http://www.w3.org/1999/xlink">
    <!-- Generator: Sketch 54 (76480) - https://sketchapp.com -->
    <title>Privacy Policy</title>
    <desc>Created with Sketch.</desc>
    <g id="Admin" stroke="none" stroke-width="1" fill="none" fill-rule="evenodd">
        <g id="admin-edit-FAQ--2-V2" transform="translate(-40.000000, -346.000000)" fill="#FFFFFF">
            <g id="Group-7" transform="translate(0.000000, 150.000000)">
                <g id="Group-32" transform="translate(37.000000, 150.000000)">
                    <path d="M19.8706814,47.8515414 C19.8449347,47.6369344 19.7131035,47.4497568 19.5197124,47.353174 C19.3253534,47.2563979 19.0965363,47.2621929 18.9091463,47.3722974 C18.8723652,47.3937387 15.2126469,49.4372386 11.9555847,46.1881917 C11.7039246,45.9372694 11.2962353,45.9372694 11.0445752,46.1881917 C7.80764583,49.417922 4.23988023,47.4553586 4.09101361,47.3722974 C3.90343006,47.2641246 3.67480656,47.2563979 3.48044754,47.353174 C3.28705645,47.4497568 3.15522528,47.6369344 3.12928493,47.8515414 C1.80342348,58.9467855 11.1102004,63.8802373 11.2042826,63.9285287 C11.2325459,63.9420503 11.2619708,63.9499701 11.2910085,63.9594352 C11.3068825,63.9654233 11.3217885,63.97315 11.3382432,63.9768201 C11.3916726,63.9903417 11.4456827,64 11.4993056,64 L11.5006607,64 C11.5544773,64 11.6084874,63.9903417 11.6617232,63.9768201 C11.6791458,63.97315 11.6950197,63.9654233 11.7118616,63.9594352 C11.7399314,63.9499701 11.7685819,63.9420503 11.7956838,63.9285287 C11.8897659,63.8802373 21.1967365,58.9467855 19.8706814,47.8515414 Z M16.9944003,49.2498679 L7.34710789,58.8772459 C7.1473285,58.6203355 6.95006571,58.3518352 6.75802971,58.0698133 L15.5665197,49.2788427 C16.0740987,49.3194075 16.5539951,49.3039543 16.9944003,49.2498679 Z M4.32776767,48.8635365 C5.76184296,49.3676989 8.72213985,49.9259478 11.4998864,47.51524 C12.3485616,48.2531329 13.2127236,48.7109356 14.0466864,48.9775042 L6.06422223,56.9436573 C4.90619869,54.8536046 4.09991851,52.1763281 4.32776767,48.8635365 Z M11.5037581,62.6169337 C10.9266822,62.2692354 9.56907281,61.3690833 8.18145785,59.8623909 L18.6950417,49.3715623 C19.0243292,57.6738236 12.9593213,61.7594712 11.5037581,62.6169337 L11.5037581,62.6169337 Z" id="Privacy-Policy"></path>
                </g>
            </g>
        </g>
    </g>
</svg>