<?xml version="1.0" encoding="UTF-8"?>
<svg width="17px" height="17px" viewBox="0 0 17 17" version="1.1" xmlns="http://www.w3.org/2000/svg" xmlns:xlink="http://www.w3.org/1999/xlink">
    <!-- Generator: Sketch 59.1 (86144) - https://sketch.com -->
    <title>Project Settings</title>
    <desc>Created with Sketch.</desc>
    <g id="User" stroke="none" stroke-width="1" fill="none" fill-rule="evenodd">
        <g id="User-Listings_Breadcrumb-option-2" transform="translate(-14.000000, -429.000000)" fill="#FFFFFF">
            <g id="Group-5" transform="translate(0.000000, 150.000000)">
                <g id="Group-2" transform="translate(0.000000, 39.500000)">
                    <path d="M21.7079324,240.243633 C22.1148768,240.21089 22.5342945,240.21089 22.942798,240.243633 C23.3029672,240.271854 23.6553405,240.321592 23.992122,240.394873 C24.2306756,240.447885 24.4006255,240.658373 24.4006255,240.903163 L24.4006255,240.903163 L24.4006255,242.131792 C24.6064364,242.203514 24.809129,242.28615 25.0055849,242.38126 L25.0055849,242.38126 L25.8709264,241.514359 C26.0424355,241.343006 26.3121725,241.313226 26.5179835,241.444197 C26.6520724,241.53151 26.7814838,241.62662 26.9093361,241.723289 C26.9342829,241.735762 26.9607888,241.752913 26.9841764,241.770064 C26.9966498,241.780978 27.0403067,241.816839 27.0512209,241.829313 C27.590695,242.24109 28.0787164,242.728956 28.496575,243.274667 C28.5121667,243.290258 28.532436,243.313646 28.5495869,243.335474 C28.568297,243.360421 28.5838887,243.385368 28.5979213,243.411874 L28.5979213,243.411874 C28.6961492,243.541285 28.7896997,243.669138 28.8754542,243.803227 C29.007984,244.007478 28.9783597,244.277215 28.8052914,244.448724 L28.8052914,244.448724 L27.93995,245.315625 C28.0335004,245.512081 28.1161366,245.713214 28.1894178,245.920585 L28.1894178,245.920585 L29.4180467,245.920585 C29.6612778,245.920585 29.8733254,246.089131 29.9247782,246.329088 C29.9965001,246.659633 30.0479529,247.012162 30.0775772,247.378412 L30.0775772,247.378412 L30.0990158,247.685374 L30.0990158,247.685374 L30.1087607,247.995845 C30.1087607,248.203371 30.0931689,248.409026 30.0775772,248.613278 C30.0479529,248.978124 29.9965001,249.332057 29.9247782,249.662602 C29.8733254,249.901155 29.6612778,250.071105 29.4180467,250.071105 L29.4180467,250.071105 L28.1894178,250.071105 C28.1161366,250.277072 28.0335004,250.479609 27.93995,250.676064 L27.93995,250.676064 L28.8052914,251.541406 C28.9783597,251.714474 29.007984,251.982652 28.8754542,252.188463 C28.7741079,252.347499 28.6649658,252.500298 28.5527052,252.651538 C28.1052224,253.247142 27.5766625,253.775702 26.9810581,254.223185 C26.8298182,254.335445 26.6770192,254.444743 26.5179835,254.545934 C26.3121725,254.678619 26.0439947,254.648839 25.8709264,254.475927 L25.8709264,254.475927 L25.0055849,253.61043 C24.809129,253.70398 24.6064364,253.786616 24.4006255,253.860053 L24.4006255,253.860053 L24.4006255,255.088526 C24.4006255,255.333317 24.2306756,255.551601 23.992122,255.60321 C23.660018,255.676335 23.3092039,255.734024 22.9521531,255.762245 C22.9505939,255.762245 22.9505939,255.77924 22.9505939,255.77924 L22.9505939,255.77924 C22.8710761,255.77924 22.7977949,255.769885 22.7260729,255.774563 C22.5935431,255.782359 22.4625725,255.77924 22.3284836,255.77924 C22.2131047,255.77924 22.1070809,255.783918 21.9994979,255.777681 C21.90127,255.773159 21.803042,255.77924 21.7063733,255.77924 L21.7063733,255.77924 C21.3415266,255.77924 20.9907125,255.684131 20.6586085,255.612409 C20.4200549,255.559397 20.250105,255.333317 20.250105,255.088526 L20.250105,255.088526 L20.250105,253.860053 C20.0427348,253.786616 19.8416014,253.70398 19.6451455,253.61043 L19.6451455,253.61043 L18.7798041,254.475927 C18.6067358,254.648839 18.3369988,254.678619 18.132747,254.545934 C17.9970989,254.460179 17.8692466,254.36351 17.7413944,254.268401 C17.7164476,254.254368 17.6915008,254.240336 17.6681132,254.221626 C17.6634357,254.21804 17.6554666,254.211647 17.646458,254.204255 L17.5979504,254.162377 C17.0584763,253.749196 16.5704549,253.261175 16.1541555,252.717023 C16.1385637,252.701431 16.1182945,252.678044 16.0995844,252.654656 C16.0808743,252.629709 16.0652826,252.604918 16.05125,252.578256 L16.05125,252.578256 C15.9545812,252.448845 15.8594716,252.322552 15.7737171,252.188463 C15.6427465,251.982652 15.6708116,251.714474 15.8438799,251.541406 L15.8438799,251.541406 L16.7092213,250.676064 C16.6156709,250.479609 16.5330347,250.277072 16.4597535,250.071105 L16.4597535,250.071105 L15.2311246,250.071105 C14.9878935,250.071105 14.7774051,249.901155 14.7243931,249.662602 C14.6526711,249.332057 14.6012184,248.978124 14.5715941,248.613278 C14.5606799,248.46999 14.5560024,248.323271 14.5513249,248.178268 C14.5482065,248.119175 14.5419698,248.059771 14.5419698,247.997404 L14.5419698,247.997404 C14.5419698,247.9288 14.5497657,247.867993 14.5513249,247.804066 C14.5560024,247.662182 14.5606799,247.518738 14.5715941,247.378412 L14.5715941,247.378412 L14.5731533,247.372175 C14.6027776,247.007329 14.6526711,246.656515 14.7243931,246.329088 C14.7774051,246.089131 14.9878935,245.920585 15.2311246,245.920585 L15.2311246,245.920585 L16.4597535,245.920585 C16.5330347,245.713214 16.6156709,245.512081 16.7092213,245.315625 L16.7092213,245.315625 L15.8438799,244.448724 C15.6708116,244.277215 15.6427465,244.007478 15.7737171,243.801667 C15.8766226,243.644347 15.9842055,243.491392 16.0980252,243.340152 C16.5439489,242.742988 17.0725088,242.214428 17.6696724,241.768505 C17.8209122,241.654841 17.9737113,241.545543 18.132747,241.444197 C18.3385579,241.313226 18.6067358,241.343006 18.7798041,241.514359 L18.7798041,241.514359 L19.6451455,242.38126 C19.8416014,242.28615 20.0427348,242.203514 20.250105,242.131792 L20.250105,242.131792 L20.250105,240.903163 C20.250105,240.658373 20.4200549,240.447885 20.6586085,240.394873 C20.9938308,240.321592 21.3462041,240.271854 21.7079324,240.243633 Z M22.861721,241.277365 C22.5046702,241.2493 22.1429419,241.2493 21.7890095,241.277365 C21.6190595,241.291398 21.4506688,241.310108 21.2869555,241.335054 L21.2869555,241.335054 L21.2869555,242.510672 C21.2869555,242.742988 21.1325973,242.94724 20.9096355,243.009607 C20.519842,243.120308 20.1456403,243.274667 19.7979446,243.468004 C19.595252,243.581824 19.3426658,243.546119 19.1789526,243.38225 L19.1789526,243.38225 L18.3510313,242.554328 C18.3307621,242.568517 18.3104928,242.583953 18.2917827,242.599544 C17.774137,242.98622 17.3157399,243.444617 16.9275057,243.962262 C16.9134731,243.982532 16.8978814,244.001242 16.8838488,244.021511 L16.8838488,244.021511 L17.7117701,244.849432 C17.8754833,245.014705 17.9113443,245.267291 17.7975246,245.469983 C17.6026279,245.817679 17.4498289,246.190322 17.3391275,246.580115 C17.2767606,246.803077 17.0725088,246.957435 16.8401919,246.957435 L16.8401919,246.957435 L15.6645749,246.957435 C15.6396281,247.121148 15.6209181,247.288136 15.6068855,247.459645 C15.5928529,247.637235 15.5788204,247.814981 15.5788204,247.995845 C15.5788204,248.176709 15.5928529,248.354455 15.6068855,248.532356 C15.6209181,248.702151 15.6396281,248.870541 15.6645749,249.032695 L15.6645749,249.032695 L16.8401919,249.032695 C17.0725088,249.032695 17.2767606,249.188613 17.3391275,249.41173 C17.4498289,249.799809 17.6026279,250.174011 17.7975246,250.521706 C17.9113443,250.724555 17.8754833,250.976985 17.7117701,251.140698 L17.7117701,251.140698 L16.8885263,251.963942 L16.9337424,252.02475 C16.9430974,252.037223 16.9508933,252.049697 16.9602483,252.063885 C16.9649258,252.069966 16.9711625,252.076203 16.9758401,252.083998 C17.3391275,252.557987 17.7616636,252.980523 18.2356525,253.342252 C18.2387708,253.34537 18.2450075,253.351607 18.2528034,253.357843 C18.2683951,253.367198 18.2824277,253.376553 18.2964602,253.387624 L18.2964602,253.387624 L18.3557088,253.432684 L19.1789526,252.60944 C19.3426658,252.445883 19.595252,252.408307 19.7979446,252.523685 C20.1456403,252.717023 20.519842,252.871537 20.9096355,252.980523 C21.1325973,253.044449 21.2869555,253.248701 21.2869555,253.479459 L21.2869555,253.479459 L21.2869555,254.656635 C21.4506688,254.681582 21.6190595,254.74083 21.7874503,254.74083 L21.7874503,254.74083 C22.1476194,254.74083 22.5077886,254.754863 22.8601618,254.726798 C23.0316709,254.714325 23.1985025,254.681582 23.3622158,254.656635 L23.3622158,254.656635 L23.3622158,253.479459 C23.3622158,253.248701 23.516574,253.044449 23.741095,252.980523 C24.1293293,252.871537 24.503531,252.717023 24.8512267,252.523685 C25.0539193,252.408307 25.3065055,252.445883 25.4702187,252.60944 L25.4702187,252.60944 L26.29814,253.437361 C26.3184092,253.421769 26.3386785,253.407737 26.3589478,253.392301 C26.8750343,253.00547 27.3349905,252.547073 27.7216656,252.029427 C27.7372574,252.009158 27.7512899,251.989045 27.7653225,251.96862 L27.7653225,251.96862 L26.9389604,251.140698 C26.773688,250.976985 26.7393862,250.724555 26.8532058,250.521706 C27.0465434,250.17557 27.1993424,249.801368 27.3100438,249.410015 C27.3739699,249.187054 27.5766625,249.032695 27.8089794,249.032695 L27.8089794,249.032695 L28.9861555,249.032695 C29.0111023,248.870541 29.0298124,248.702151 29.0422858,248.530641 C29.0563184,248.354455 29.0703509,248.176709 29.0703509,247.995845 C29.0703509,247.814981 29.0563184,247.637235 29.0422858,247.459645 C29.0298124,247.288136 29.0111023,247.121148 28.9861555,246.957435 L28.9861555,246.957435 L27.8089794,246.957435 C27.5766625,246.957435 27.3739699,246.803077 27.3100438,246.580115 C27.2009016,246.190322 27.0465434,245.817679 26.8532058,245.469983 C26.7393862,245.267291 26.773688,245.014705 26.9389604,244.849432 L26.9389604,244.849432 L27.760645,244.026344 L27.7169881,243.96694 C27.7060739,243.952907 27.698278,243.940434 27.688923,243.926401 L27.6817118,243.917046 L27.6817118,243.917046 L27.6733312,243.907691 C27.3100438,243.433702 26.8875077,243.009607 26.415078,242.647879 C26.4104005,242.64476 26.4041638,242.638524 26.3963679,242.632287 C26.3807762,242.624491 26.3667436,242.613577 26.3527111,242.604222 L26.3527111,242.604222 L26.2934625,242.559006 L25.4702187,243.38225 C25.3065055,243.546119 25.0539193,243.581824 24.8512267,243.468004 C24.503531,243.274667 24.1293293,243.120308 23.741095,243.009607 C23.516574,242.94724 23.3622158,242.742988 23.3622158,242.510672 L23.3622158,242.510672 L23.3622158,241.335054 C23.1985025,241.310108 23.0316709,241.291398 22.861721,241.277365 Z M22.3253652,244.882175 C24.0420155,244.882175 25.4390352,246.279194 25.4390352,247.995845 C25.4390352,249.712495 24.0420155,251.109515 22.3253652,251.109515 C20.6087149,251.109515 19.2116952,249.712495 19.2116952,247.995845 C19.2116952,246.279194 20.6087149,244.882175 22.3253652,244.882175 Z M22.3253652,245.920585 C21.1809317,245.920585 20.250105,246.851411 20.250105,247.995845 C20.250105,249.140434 21.1809317,250.071105 22.3253652,250.071105 C23.4697988,250.071105 24.4006255,249.140434 24.4006255,247.995845 C24.4006255,246.851411 23.4697988,245.920585 22.3253652,245.920585 Z" id="Project-Settings"></path>
                </g>
            </g>
        </g>
    </g>
</svg>