<?xml version="1.0" encoding="UTF-8"?>
<svg width="39px" height="38px" viewBox="0 0 39 38" version="1.1" xmlns="http://www.w3.org/2000/svg" xmlns:xlink="http://www.w3.org/1999/xlink">
    <!-- Generator: Sketch 55.2 (78181) - https://sketchapp.com -->
    <title>Publish</title>
    <desc>Created with Sketch.</desc>
    <g id="Page-1" stroke="none" stroke-width="1" fill="none" fill-rule="evenodd">
        <g id="Icons-Used" transform="translate(-938.000000, -333.000000)" fill="#000000" fill-rule="nonzero">
            <path d="M950.597901,347.804167 C950.281234,347.4875 950.281234,347.0125 950.597901,346.695833 L956.931234,340.3625 C957.010401,340.283333 957.089567,340.204167 957.168734,340.204167 C957.327067,340.125 957.564567,340.125 957.802067,340.204167 C957.881234,340.283333 957.960401,340.283333 958.039567,340.3625 L964.372901,346.695833 C964.689567,347.0125 964.689567,347.4875 964.372901,347.804167 C964.214567,347.9625 964.056234,348.041667 963.818734,348.041667 C963.581234,348.041667 963.422901,347.9625 963.264567,347.804167 L958.277067,342.816667 L958.277067,359.916667 C958.277067,360.391667 957.960401,360.708333 957.485401,360.708333 C957.010401,360.708333 956.693734,360.391667 956.693734,359.916667 L956.693734,342.816667 L951.706234,347.804167 C951.547901,347.9625 951.389567,348.041667 951.152067,348.041667 C950.914567,348.041667 950.756234,347.9625 950.597901,347.804167 Z M965.402067,359.125 C965.877067,359.125 966.193734,359.441667 966.193734,359.916667 L966.193734,363.083333 C966.193734,363.558333 965.877067,363.875 965.402067,363.875 L949.568734,363.875 C949.093734,363.875 948.777067,363.558333 948.777067,363.083333 L948.777067,359.916667 C948.777067,359.441667 949.093734,359.125 949.568734,359.125 C950.043734,359.125 950.360401,359.441667 950.360401,359.916667 L950.360401,362.291667 L964.610401,362.291667 L964.610401,359.916667 C964.610401,359.441667 964.927067,359.125 965.402067,359.125 Z M957.485401,334.583333 C947.906234,334.583333 940.068734,342.420833 940.068734,352 C940.068734,361.579167 947.906234,369.416667 957.485401,369.416667 C967.064567,369.416667 974.902067,361.579167 974.902067,352 C974.902067,342.420833 967.064567,334.583333 957.485401,334.583333 Z M957.485401,333 C968.014567,333 976.485401,341.470833 976.485401,352 C976.485401,362.529167 968.014567,371 957.485401,371 C946.956234,371 938.485401,362.529167 938.485401,352 C938.485401,341.470833 946.956234,333 957.485401,333 Z" id="Publish"></path>
        </g>
    </g>
</svg>