<?xml version="1.0" encoding="UTF-8"?>
<svg width="8px" height="13px" viewBox="0 0 8 13" version="1.1" xmlns="http://www.w3.org/2000/svg" xmlns:xlink="http://www.w3.org/1999/xlink">
    <!-- Generator: Sketch 57.1 (83088) - https://sketch.com -->
    <title>Pull back</title>
    <desc>Created with Sketch.</desc>
    <g id="Page-1" stroke="none" stroke-width="1" fill="none" fill-rule="evenodd">
        <g id="Editor-Tab" transform="translate(-722.000000, -836.000000)" fill="#AAAAAA" stroke="#AAAAAA" stroke-width="0.3">
            <path d="M728.152012,837.047662 C728.39389,837.047662 728.589758,837.187502 728.589758,837.35998 L728.590671,838.760578 C729.099837,838.937878 729.465251,839.414748 729.465251,839.973293 C729.465251,840.532852 729.099837,841.010018 728.590671,841.187398 L728.589758,844.949721 C728.589758,846.605092 727.216049,847.952338 725.526848,847.952338 C723.83896,847.952338 722.465251,846.605092 722.465251,844.949721 C722.465251,843.790703 723.029195,842.839251 724.013796,842.33903 C724.149195,842.26954 724.310885,842.274568 724.442341,842.353211 C724.572481,842.430565 724.652669,842.569931 724.652669,842.719353 L724.652669,844.091094 C724.652669,844.328312 724.456801,844.520536 724.214923,844.520536 C723.973045,844.520536 723.777176,844.328312 723.777176,844.091094 L723.777176,843.610211 C723.491918,843.964749 723.33943,844.419847 723.33943,844.949721 C723.33943,846.131945 724.321402,847.095 725.526848,847.095 C726.733608,847.095 727.714265,846.131945 727.714265,844.949721 L727.714025,841.187398 C727.205501,841.010018 726.840087,840.532852 726.840087,839.973293 C726.840087,839.414748 727.205501,838.937878 727.714025,838.760578 L727.714265,837.35998 C727.714265,837.187502 727.910134,837.047662 728.152012,837.047662 Z M728.152012,839.545268 C727.911449,839.545268 727.714265,839.737363 727.714265,839.973293 C727.714265,840.210511 727.911449,840.402606 728.152012,840.402606 C728.39389,840.402606 728.589758,840.210511 728.589758,839.973293 C728.589758,839.737363 728.39389,839.545268 728.152012,839.545268 Z" id="Pull-back"></path>
        </g>
    </g>
</svg>