<?xml version="1.0" encoding="UTF-8"?>
<svg width="17px" height="11px" viewBox="0 0 17 11" version="1.1" xmlns="http://www.w3.org/2000/svg" xmlns:xlink="http://www.w3.org/1999/xlink">
    <!-- Generator: Sketch 57.1 (83088) - https://sketch.com -->
    <title>Re-assign</title>
    <desc>Created with Sketch.</desc>
    <g id="Page-1" stroke="none" stroke-width="1" fill="none" fill-rule="evenodd">
        <g id="Editor-Tab" transform="translate(-741.000000, -837.000000)" fill="#AAAAAA">
            <path d="M755.024808,837.045826 C753.885284,837.045826 752.958451,837.977616 752.958451,839.124795 C752.958451,839.681997 753.180457,840.187848 753.53908,840.560721 L751.494459,843.899247 C751.303504,843.839937 751.103233,843.799356 750.892095,843.799356 C750.721322,843.799356 750.559864,843.82589 750.40151,843.864909 L748.675148,840.643598 C749.081899,840.26261 749.341164,839.725699 749.341164,839.124795 C749.341164,837.977616 748.414331,837.045826 747.274808,837.045826 C746.135284,837.045826 745.208451,837.977616 745.208451,839.124795 C745.208451,839.725699 745.467716,840.26261 745.874467,840.643598 L744.149657,843.864909 C743.991304,843.82589 743.828293,843.799356 743.659072,843.799356 C742.519549,843.799356 741.591164,844.731147 741.591164,845.876765 C741.591164,847.02254 742.519549,847.954174 743.659072,847.954174 C744.798596,847.954174 745.725429,847.02254 745.725429,845.876765 C745.725429,845.275862 745.466164,844.73739 745.059413,844.358118 L746.784223,841.136651 C746.942576,841.175671 747.105587,841.202361 747.274808,841.202361 C747.445581,841.202361 747.607039,841.175671 747.765393,841.136651 L749.491755,844.358118 C749.085004,844.73739 748.825739,845.275862 748.825739,845.876765 C748.825739,847.02254 749.752572,847.954174 750.892095,847.954174 C752.031619,847.954174 752.958451,847.02254 752.958451,845.876765 C752.958451,845.318003 752.736446,844.812308 752.377822,844.439279 L754.422444,841.100753 C754.613399,841.160063 754.81367,841.202361 755.024808,841.202361 C756.164331,841.202361 757.091164,840.270414 757.091164,839.124795 C757.091164,837.977616 756.164331,837.045826 755.024808,837.045826 Z M743.659072,846.91469 C743.089311,846.91469 742.625118,846.449575 742.625118,845.876765 C742.625118,845.303956 743.089311,844.837436 743.659072,844.837436 C744.228834,844.837436 744.691474,845.303956 744.691474,845.876765 C744.691474,846.449575 744.228834,846.91469 743.659072,846.91469 Z M746.242406,839.124795 C746.242406,838.551986 746.705046,838.08531 747.274808,838.08531 C747.844569,838.08531 748.308762,838.551986 748.308762,839.124795 C748.308762,839.696044 747.844569,840.16272 747.274808,840.16272 C746.705046,840.16272 746.242406,839.696044 746.242406,839.124795 Z M750.892095,846.91469 C750.322334,846.91469 749.858141,846.449575 749.858141,845.876765 C749.858141,845.303956 750.322334,844.837436 750.892095,844.837436 C751.461857,844.837436 751.924497,845.303956 751.924497,845.876765 C751.924497,846.449575 751.461857,846.91469 750.892095,846.91469 Z M755.024808,840.16272 C754.455046,840.16272 753.992406,839.696044 753.992406,839.124795 C753.992406,838.551986 754.455046,838.08531 755.024808,838.08531 C755.594569,838.08531 756.058762,838.551986 756.058762,839.124795 C756.058762,839.696044 755.594569,840.16272 755.024808,840.16272 L755.024808,840.16272 Z" id="Re-assign"></path>
        </g>
    </g>
</svg>