<?xml version="1.0" encoding="UTF-8"?>
<svg width="14px" height="19px" viewBox="0 0 14 19" version="1.1" xmlns="http://www.w3.org/2000/svg" xmlns:xlink="http://www.w3.org/1999/xlink">
    <!-- Generator: Sketch 55 (78076) - https://sketchapp.com -->
    <title>Read_without hover</title>
    <desc>Created with Sketch.</desc>
    <g id="Page-1" stroke="none" stroke-width="1" fill="none" fill-rule="evenodd">
        <g id="Icons-Used-Copy" transform="translate(-355.000000, -268.000000)" fill="#97999B">
            <path d="M368.385733,271.179808 C368.385733,271.179808 368.050153,271.179808 367.503943,271.179808 C367.309378,270.922768 367.198708,270.615748 367.198708,270.289093 C367.198708,269.962438 367.309378,269.653633 367.503943,269.398378 L368.464273,269.398378 C368.749873,269.398378 368.980138,269.132413 368.980138,268.803973 C368.980138,268.475533 368.749873,268.209568 368.464273,268.209568 L357.991678,268.209568 C356.843923,268.209568 355.912154,269.143123 355.912154,270.289093 L355.912154,283.951483 C355.912154,285.097453 356.843923,286.031008 357.991678,286.031008 L368.385733,286.031008 C368.714173,286.031008 368.980138,285.765043 368.980138,285.436603 L368.980138,271.774213 C368.980138,271.445773 368.714173,271.179808 368.385733,271.179808 Z M357.991678,269.398378 L366.172333,269.398378 C366.070588,269.682193 366.009898,269.980288 366.009898,270.289093 C366.009898,270.597898 366.070588,270.895993 366.172333,271.179808 C363.146758,271.179808 358.084498,271.179808 357.991678,271.179808 C357.499018,271.179808 357.099178,270.779968 357.099178,270.289093 C357.099178,269.798218 357.499018,269.398378 357.991678,269.398378 Z M367.793113,284.842198 L357.991678,284.842198 C357.499018,284.842198 357.099178,284.444143 357.099178,283.951483 L357.099178,272.159773 C357.370498,272.290078 357.670378,272.368618 357.991678,272.368618 C358.146973,272.368618 367.793113,272.368618 367.793113,272.368618 L367.793113,284.842198 L367.793113,284.842198 Z" id="Read_without-hover"></path>
        </g>
    </g>
</svg>