<?xml version="1.0" encoding="UTF-8"?>
<svg width="8px" height="16px" viewBox="0 0 8 16" version="1.1" xmlns="http://www.w3.org/2000/svg" xmlns:xlink="http://www.w3.org/1999/xlink">
    <!-- Generator: Sketch 58 (84663) - https://sketch.com -->
    <title>rearrange@1x</title>
    <desc>Created with Sketch.</desc>
    <g id="10-August-information-gathering" stroke="none" stroke-width="1" fill="none" fill-rule="evenodd">
        <path d="M1.50429108,12.5664207 C1.98399827,12.5664207 2.35299827,12.6881907 2.61130215,12.9317343 C2.86960602,13.175278 2.99875602,13.507378 2.99875602,13.9280443 C2.99875602,14.3044299 2.88252102,14.6162349 2.65004753,14.8634686 C2.41757405,15.1107023 2.03565905,15.2343173 1.50429108,15.2343173 C1.00982366,15.2343173 0.63528866,15.1217723 0.380674841,14.896679 C0.126061022,14.6715856 -0.00124397801,14.3487106 -0.00124397801,13.9280443 C-0.00124397801,13.4999979 0.126061022,13.1660529 0.380674841,12.9261993 C0.63528866,12.6863457 1.00982366,12.5664207 1.50429108,12.5664207 Z M6.50677903,12.5664207 C6.98648623,12.5664207 7.35548623,12.6881907 7.6137901,12.9317343 C7.87209398,13.175278 8.00124398,13.507378 8.00124398,13.9280443 C8.00124398,14.3044299 7.88500898,14.6162349 7.65253549,14.8634686 C7.420062,15.1107023 7.038147,15.2343173 6.50677903,15.2343173 C6.01231162,15.2343173 5.63777662,15.1217723 5.3831628,14.896679 C5.12854898,14.6715856 5.00124398,14.3487106 5.00124398,13.9280443 C5.00124398,13.4999979 5.12854898,13.1660529 5.3831628,12.9261993 C5.63777662,12.6863457 6.01231162,12.5664207 6.50677903,12.5664207 Z M1.50429108,6.53321033 C1.98399827,6.53321033 2.35299827,6.65498033 2.61130215,6.89852399 C2.86960602,7.14206764 2.99875602,7.47416764 2.99875602,7.89483395 C2.99875602,8.27121959 2.88252102,8.58302459 2.65004753,8.8302583 C2.41757405,9.07749201 2.03565905,9.20110701 1.50429108,9.20110701 C1.00982366,9.20110701 0.63528866,9.08856201 0.380674841,8.86346863 C0.126061022,8.63837526 -0.00124397801,8.31550026 -0.00124397801,7.89483395 C-0.00124397801,7.46678753 0.126061022,7.13284253 0.380674841,6.89298893 C0.63528866,6.65313533 1.00982366,6.53321033 1.50429108,6.53321033 Z M6.50677903,6.53321033 C6.98648623,6.53321033 7.35548623,6.65498033 7.6137901,6.89852399 C7.87209398,7.14206764 8.00124398,7.47416764 8.00124398,7.89483395 C8.00124398,8.27121959 7.88500898,8.58302459 7.65253549,8.8302583 C7.420062,9.07749201 7.038147,9.20110701 6.50677903,9.20110701 C6.01231162,9.20110701 5.63777662,9.08856201 5.3831628,8.86346863 C5.12854898,8.63837526 5.00124398,8.31550026 5.00124398,7.89483395 C5.00124398,7.46678753 5.12854898,7.13284253 5.3831628,6.89298893 C5.63777662,6.65313533 6.01231162,6.53321033 6.50677903,6.53321033 Z M1.50429108,0.5 C1.98399827,0.5 2.35299827,0.62177 2.61130215,0.865313653 C2.86960602,1.10885731 2.99875602,1.44095731 2.99875602,1.86162362 C2.99875602,2.23800926 2.88252102,2.54981426 2.65004753,2.79704797 C2.41757405,3.04428168 2.03565905,3.16789668 1.50429108,3.16789668 C1.00982366,3.16789668 0.63528866,3.05535168 0.380674841,2.8302583 C0.126061022,2.60516493 -0.00124397801,2.28228993 -0.00124397801,1.86162362 C-0.00124397801,1.4335772 0.126061022,1.0996322 0.380674841,0.859778598 C0.63528866,0.619925 1.00982366,0.5 1.50429108,0.5 Z M6.50677903,0.5 C6.98648623,0.5 7.35548623,0.62177 7.6137901,0.865313653 C7.87209398,1.10885731 8.00124398,1.44095731 8.00124398,1.86162362 C8.00124398,2.23800926 7.88500898,2.54981426 7.65253549,2.79704797 C7.420062,3.04428168 7.038147,3.16789668 6.50677903,3.16789668 C6.01231162,3.16789668 5.63777662,3.05535168 5.3831628,2.8302583 C5.12854898,2.60516493 5.00124398,2.28228993 5.00124398,1.86162362 C5.00124398,1.4335772 5.12854898,1.0996322 5.3831628,0.859778598 C5.63777662,0.619925 6.01231162,0.5 6.50677903,0.5 Z" id="rearrange" fill="#9C9C9C" fill-rule="nonzero"></path>
    </g>
</svg>