<?xml version="1.0" encoding="utf-8"?>
<!-- Generator: Adobe Illustrator 19.2.1, SVG Export Plug-In . SVG Version: 6.00 Build 0)  -->
<svg version="1.0" id="Refresh" xmlns="http://www.w3.org/2000/svg" xmlns:xlink="http://www.w3.org/1999/xlink" x="0px" y="0px"
	 viewBox="0 0 52 52" enable-background="new 0 0 52 52" xml:space="preserve">
<path d="M39,34c0,0.6-0.4,1-1,1h-5c-0.6,0-1-0.4-1-1v-5c0-0.6,0.4-1,1-1s1,0.4,1,1v3c1.3-1.7,2-3.8,2-6c0-5.5-4.5-10-10-10
	s-10,4.5-10,10s4.5,10,10,10c0.6,0,1,0.4,1,1s-0.4,1-1,1c-6.6,0-12-5.4-12-12s5.4-12,12-12s12,5.4,12,12c0,2.5-0.8,5-2.3,7H38
	C38.6,33,39,33.4,39,34z"/>
<path d="M26,4c12.1,0,22,9.9,22,22s-9.9,22-22,22S4,38.1,4,26S13.9,4,26,4 M26,2C12.7,2,2,12.7,2,26s10.7,24,24,24s24-10.7,24-24
	S39.3,2,26,2L26,2z"/>
</svg>
