<?xml version="1.0" encoding="UTF-8"?>
<svg width="17px" height="20px" viewBox="0 0 17 20" version="1.1" xmlns="http://www.w3.org/2000/svg" xmlns:xlink="http://www.w3.org/1999/xlink">
    <!-- Generator: Sketch 58 (84663) - https://sketch.com -->
    <title>registered</title>
    <desc>Created with Sketch.</desc>
    <g id="User" stroke="none" stroke-width="1" fill="none" fill-rule="evenodd">
        <path d="M8.14822966,0.5 L10.3242297,2.61111111 L12.9482129,2.61111111 C13.6521962,2.61111111 14.2282129,3.24442605 14.2282129,4.01851852 L14.2282129,4.01851852 L14.2282129,6.41111111 L16.1482129,8.24074074 L16.1482129,18.0925926 C16.1482129,18.8666483 15.5721962,19.5 14.8682129,19.5 L14.8682129,19.5 L1.42821293,19.5 C0.724196193,19.5 0.148212925,18.8666483 0.148212925,18.0925926 L0.148212925,18.0925926 L0.148212925,8.24074074 L2.06821293,6.41111111 L2.06821293,4.01851852 C2.06821293,3.24442605 2.64419619,2.61111111 3.34821293,2.61111111 L3.34821293,2.61111111 L5.97222966,2.61111111 L8.14822966,0.5 Z M10.0681962,14.5740741 L6.22819619,14.5740741 L1.74822966,18.7962963 L14.5481962,18.7962963 L10.0681962,14.5740741 Z M0.788212925,8.94444444 L0.788212925,18.0925926 C0.788212925,18.3037221 0.852196193,18.4444628 0.980196193,18.5852036 L0.980196193,18.5852036 L5.90821293,13.8703704 L0.788212925,8.94444444 Z M15.5082129,8.94444444 L10.3882129,13.8703704 L15.3162297,18.5851668 C15.4442297,18.4443893 15.5082129,18.3036485 15.5082129,18.0925558 L15.5082129,18.0925558 L15.5082129,8.94444444 Z M10.7722129,12.462963 L5.46022966,12.462963 L6.86822966,13.8703704 L9.42822966,13.8703704 L10.7722129,12.462963 Z M12.9482129,3.31481481 L3.34821293,3.31481481 C2.96421293,3.31481481 2.70821293,3.5962963 2.70821293,4.01851852 L2.70821293,4.01851852 L2.70821293,9.78888889 L4.75621293,11.7592593 L11.5402129,11.7592593 L13.5882129,9.71850012 L13.5882129,4.01851852 C13.5882129,3.66664827 13.2681962,3.31481481 12.9482129,3.31481481 L12.9482129,3.31481481 Z M2.06821293,7.32594432 L1.10819619,8.24074074 L2.06821293,9.22592593 L2.06821293,7.32594432 Z M14.2282129,7.32594432 L14.2282129,9.15553716 L15.1882297,8.24074074 L14.2282129,7.32594432 Z M12.3020591,8.12293331 L12.3020591,8.83416325 L3.99436677,8.83416325 L3.99436677,8.12293331 L12.3020591,8.12293331 Z M12.3020591,5.41087344 L12.3020591,6.12210339 L3.99436677,6.12210339 L3.99436677,5.41087344 L12.3020591,5.41087344 Z M8.14822966,1.41479642 L6.86822966,2.61111111 L9.36424639,2.61111111 L8.14822966,1.41479642 Z" id="registered" fill="#009A44"></path>
    </g>
</svg>