<?xml version="1.0" encoding="UTF-8"?>
<svg width="13px" height="13px" viewBox="0 0 13 13" version="1.1" xmlns="http://www.w3.org/2000/svg" xmlns:xlink="http://www.w3.org/1999/xlink">
    <!-- Generator: Sketch 58 (84663) - https://sketch.com -->
    <title>reject-2</title>
    <desc>Created with Sketch.</desc>
    <g id="Page-1" stroke="none" stroke-width="1" fill="none" fill-rule="evenodd">
        <path d="M12.3873753,7.22807596 C12.3873753,5.98521882 11.0588039,4.65664739 9.81594674,4.65664739 L8.2730896,4.65664739 L8.95880388,2.64236168 C9.21594674,1.74236168 8.44451817,0.970933106 8.40166103,0.928075963 C8.31594674,0.842361677 8.18737531,0.799504534 8.10166103,0.799504534 C7.9730896,0.799504534 7.88737531,0.842361677 7.80166103,0.928075963 L3.98737531,5.29950453 C3.98737531,5.29950453 3.98737531,5.29950453 3.94451817,5.34236168 C3.7730896,5.51379025 3.68737531,5.72807596 3.60166103,5.94236168 L0.81594674,5.94236168 C0.558803883,5.94236168 0.387375312,6.11379025 0.387375312,6.37093311 L0.387375312,11.0852188 C0.387375312,11.3423617 0.558803883,11.5137902 0.81594674,11.5137902 L4.20166103,11.5137902 C4.54451817,11.7709331 5.01594674,11.9423617 5.53023245,11.9423617 L9.38737531,11.9423617 C10.201661,11.9423617 10.8873753,11.6423617 11.401661,11.0852188 C12.6445182,9.75664739 12.3873753,7.27093311 12.3873753,7.22807596 Z M1.24451817,6.79950453 L3.38737531,6.79950453 C3.38737531,6.79950453 3.38737531,6.79950453 3.38737531,6.79950453 L3.38737531,9.79950453 C3.38737531,10.0995045 3.43023245,10.3995045 3.55880388,10.6566474 L1.24451817,10.6566474 L1.24451817,6.79950453 Z M10.7588039,10.528076 C10.4159467,10.9137902 9.98737531,11.0852188 9.38737531,11.0852188 L5.53023245,11.0852188 C4.75880388,11.0852188 4.24451817,10.5709331 4.24451817,9.79950453 L4.24451817,6.79950453 C4.24451817,6.45664739 4.3730896,6.15664739 4.58737531,5.89950453 C4.63023245,5.85664739 4.63023245,5.85664739 4.63023245,5.85664739 L8.10166103,1.91379025 C8.14451817,2.04236168 8.18737531,2.21379025 8.14451817,2.38521882 L7.28737531,4.95664739 L7.28737531,4.95664739 C7.28737531,4.99950453 7.24451817,5.04236168 7.24451817,5.08521882 C7.24451817,5.34236168 7.41594674,5.51379025 7.6730896,5.51379025 L9.81594674,5.51379025 C10.5873753,5.51379025 11.5302325,6.45664739 11.5302325,7.27093311 C11.5302325,7.27093311 11.7445182,9.45664739 10.7588039,10.528076 Z" id="reject-2" stroke="#DA291C" stroke-width="0.3" fill="#DA291C" fill-rule="nonzero" transform="translate(6.398389, 6.370933) scale(1, -1) translate(-6.398389, -6.370933) "></path>
    </g>
</svg>