<?xml version="1.0" encoding="UTF-8"?>
<svg width="13px" height="12px" viewBox="0 0 13 12" version="1.1" xmlns="http://www.w3.org/2000/svg" xmlns:xlink="http://www.w3.org/1999/xlink">
    <!-- Generator: Sketch 58 (84663) - https://sketch.com -->
    <title>reject</title>
    <desc>Created with Sketch.</desc>
    <g id="Page-1" stroke="none" stroke-width="1" fill="none" fill-rule="evenodd">
        <path d="M12.3873753,6.72807596 C12.3873753,5.48521882 11.0588039,4.15664739 9.81594674,4.15664739 L8.2730896,4.15664739 L8.95880388,2.14236168 C9.21594674,1.24236168 8.44451817,0.470933106 8.40166103,0.428075963 C8.31594674,0.342361677 8.18737531,0.299504534 8.10166103,0.299504534 C7.9730896,0.299504534 7.88737531,0.342361677 7.80166103,0.428075963 L3.98737531,4.79950453 C3.98737531,4.79950453 3.98737531,4.79950453 3.94451817,4.84236168 C3.7730896,5.01379025 3.68737531,5.22807596 3.60166103,5.44236168 L0.81594674,5.44236168 C0.558803883,5.44236168 0.387375312,5.61379025 0.387375312,5.87093311 L0.387375312,10.5852188 C0.387375312,10.8423617 0.558803883,11.0137902 0.81594674,11.0137902 L4.20166103,11.0137902 C4.54451817,11.2709331 5.01594674,11.4423617 5.53023245,11.4423617 L9.38737531,11.4423617 C10.201661,11.4423617 10.8873753,11.1423617 11.401661,10.5852188 C12.6445182,9.25664739 12.3873753,6.77093311 12.3873753,6.72807596 Z M1.24451817,6.29950453 L3.38737531,6.29950453 C3.38737531,6.29950453 3.38737531,6.29950453 3.38737531,6.29950453 L3.38737531,9.29950453 C3.38737531,9.59950453 3.43023245,9.89950453 3.55880388,10.1566474 L1.24451817,10.1566474 L1.24451817,6.29950453 Z M10.7588039,10.028076 C10.4159467,10.4137902 9.98737531,10.5852188 9.38737531,10.5852188 L5.53023245,10.5852188 C4.75880388,10.5852188 4.24451817,10.0709331 4.24451817,9.29950453 L4.24451817,6.29950453 C4.24451817,5.95664739 4.3730896,5.65664739 4.58737531,5.39950453 C4.63023245,5.35664739 4.63023245,5.35664739 4.63023245,5.35664739 L8.10166103,1.41379025 C8.14451817,1.54236168 8.18737531,1.71379025 8.14451817,1.88521882 L7.28737531,4.45664739 L7.28737531,4.45664739 C7.28737531,4.49950453 7.24451817,4.54236168 7.24451817,4.58521882 C7.24451817,4.84236168 7.41594674,5.01379025 7.6730896,5.01379025 L9.81594674,5.01379025 C10.5873753,5.01379025 11.5302325,5.95664739 11.5302325,6.77093311 C11.5302325,6.77093311 11.7445182,8.95664739 10.7588039,10.028076 Z" id="reject" stroke="#FFFFFF" stroke-width="0.3" fill="#FFFFFF" fill-rule="nonzero" transform="translate(6.398389, 5.870933) scale(1, -1) translate(-6.398389, -5.870933) "></path>
    </g>
</svg>