<?xml version="1.0" encoding="UTF-8"?>
<svg width="13px" height="14px" viewBox="0 0 13 14" version="1.1" xmlns="http://www.w3.org/2000/svg" xmlns:xlink="http://www.w3.org/1999/xlink">
    <!-- Generator: Sketch 55 (78076) - https://sketchapp.com -->
    <title>Remove_without hover</title>
    <desc>Created with Sketch.</desc>
    <g id="High-fed" stroke="none" stroke-width="1" fill="none" fill-rule="evenodd">
        <g id="option_" transform="translate(-1291.000000, -206.000000)" fill="#ffffff" fill-rule="nonzero">
            <g id="Group-49-Copy" transform="translate(749.482795, 193.000000)">
                <path d="M547.804812,26.3097672 C544.320024,26.3097672 541.495045,23.4847882 541.495045,20 C541.495045,16.5152118 544.320024,13.6902328 547.804812,13.6902328 C551.2896,13.6902328 554.114579,16.5152118 554.114579,20 C554.114579,23.4847882 551.2896,26.3097672 547.804812,26.3097672 Z M547.804812,25.5097672 C550.847772,25.5097672 553.314579,23.0429604 553.314579,20 C553.314579,16.9570396 550.847772,14.4902328 547.804812,14.4902328 C544.761851,14.4902328 542.295045,16.9570396 542.295045,20 C542.295045,23.0429604 544.761851,25.5097672 547.804812,25.5097672 Z M547.804812,19.4060303 L549.902833,17.3080095 C550.066853,17.1439893 550.332782,17.1439893 550.496802,17.3080095 C550.660823,17.4720297 550.660823,17.737959 550.496802,17.9019792 L548.398782,20 L550.496802,22.0980208 C550.660823,22.262041 550.660823,22.5279703 550.496802,22.6919905 C550.332782,22.8560107 550.066853,22.8560107 549.902833,22.6919905 L547.804812,20.5939697 L545.706791,22.6919905 C545.542771,22.8560107 545.276842,22.8560107 545.112821,22.6919905 C544.948801,22.5279703 544.948801,22.262041 545.112821,22.0980208 L547.210842,20 L545.112821,17.9019792 C544.948801,17.737959 544.948801,17.4720297 545.112821,17.3080095 C545.276842,17.1439893 545.542771,17.1439893 545.706791,17.3080095 L547.804812,19.4060303 Z" id="Remove_without-hover"></path>
            </g>
        </g>
    </g>
</svg>