<?xml version="1.0" encoding="UTF-8"?>
<svg width="39px" height="38px" viewBox="0 0 39 38" version="1.1" xmlns="http://www.w3.org/2000/svg" xmlns:xlink="http://www.w3.org/1999/xlink">
    <!-- Generator: Sketch 55.2 (78181) - https://sketchapp.com -->
    <title>Save</title>
    <desc>Created with Sketch.</desc>
    <g id="Page-1" stroke="none" stroke-width="1" fill="none" fill-rule="evenodd">
        <g id="Icons-Used" transform="translate(-873.000000, -333.000000)" fill="#000000" fill-rule="nonzero">
            <path d="M892.780002,334.583333 C883.200836,334.583333 875.363336,342.420833 875.363336,352 C875.363336,361.579167 883.200836,369.416667 892.780002,369.416667 C902.359169,369.416667 910.196669,361.579167 910.196669,352 C910.196669,342.420833 902.359169,334.583333 892.780002,334.583333 Z M892.780002,333 C903.309169,333 911.780002,341.470833 911.780002,352 C911.780002,362.529167 903.309169,371 892.780002,371 C882.250836,371 873.780002,362.529167 873.780002,352 C873.780002,341.470833 882.250836,333 892.780002,333 Z M902.834169,345.1125 C902.992502,345.270833 903.071669,345.429167 903.071669,345.666667 L903.071669,361.5 C903.071669,361.975 902.755002,362.291667 902.280002,362.291667 L883.280002,362.291667 C882.805002,362.291667 882.488336,361.975 882.488336,361.5 L882.488336,342.5 C882.488336,342.025 882.805002,341.708333 883.280002,341.708333 L899.113336,341.708333 C899.350836,341.708333 899.509169,341.7875 899.667502,341.945833 L902.834169,345.1125 Z M888.821669,343.291667 L888.821669,348.041667 L896.738336,348.041667 L896.738336,343.291667 L888.821669,343.291667 Z M898.321669,360.708333 L898.321669,352.791667 L887.238336,352.791667 L887.238336,360.708333 L898.321669,360.708333 Z M901.488336,360.708333 L901.488336,345.983333 L898.796669,343.291667 L898.321669,343.291667 L898.321669,348.833333 C898.321669,349.308333 898.005002,349.625 897.530002,349.625 L888.030002,349.625 C887.555002,349.625 887.238336,349.308333 887.238336,348.833333 L887.238336,343.291667 L884.071669,343.291667 L884.071669,360.708333 L885.655002,360.708333 L885.655002,352 C885.655002,351.525 885.971669,351.208333 886.446669,351.208333 L899.113336,351.208333 C899.588336,351.208333 899.905002,351.525 899.905002,352 L899.905002,360.708333 L901.488336,360.708333 Z M888.821669,355.166667 C888.821669,354.691667 889.138336,354.375 889.613336,354.375 L895.946669,354.375 C896.421669,354.375 896.738336,354.691667 896.738336,355.166667 C896.738336,355.641667 896.421669,355.958333 895.946669,355.958333 L889.613336,355.958333 C889.138336,355.958333 888.821669,355.641667 888.821669,355.166667 Z M888.821669,358.333333 C888.821669,357.858333 889.138336,357.541667 889.613336,357.541667 L895.946669,357.541667 C896.421669,357.541667 896.738336,357.858333 896.738336,358.333333 C896.738336,358.808333 896.421669,359.125 895.946669,359.125 L889.613336,359.125 C889.138336,359.125 888.821669,358.808333 888.821669,358.333333 Z" id="Save"></path>
        </g>
    </g>
</svg>