<?xml version="1.0" encoding="UTF-8"?>
<svg width="11px" height="13px" viewBox="0 0 11 13" version="1.1" xmlns="http://www.w3.org/2000/svg" xmlns:xlink="http://www.w3.org/1999/xlink">
    <!-- Generator: Sketch 57.1 (83088) - https://sketch.com -->
    <title>Send Reminder</title>
    <desc>Created with Sketch.</desc>
    <g id="Page-1" stroke="none" stroke-width="1" fill="none" fill-rule="evenodd">
        <g id="Editor-Tab" transform="translate(-769.000000, -836.000000)" fill="#AAAAAA">
            <path d="M779.101812,842.59934 C779.101812,839.968106 777.023081,837.827132 774.467076,837.827132 C771.912338,837.827132 769.832467,839.968106 769.832467,842.59934 C769.832467,844.02709 770.447604,845.306198 771.41481,846.182407 L770.719789,847.612765 C770.615979,847.826602 770.699533,848.087378 770.908419,848.194297 C770.969186,848.22559 771.032485,848.241236 771.095784,848.241236 C771.251499,848.241236 771.399618,848.152572 771.473044,848.001322 L772.106032,846.698744 C772.798521,847.12381 773.603808,847.372851 774.467076,847.372851 C775.330471,847.372851 776.135632,847.12381 776.829386,846.698744 L777.461108,848.001322 C777.534535,848.152572 777.68392,848.241236 777.838369,848.241236 C777.901668,848.241236 777.966232,848.22559 778.025733,848.194297 C778.234619,848.087378 778.318173,847.826602 778.214363,847.612765 L777.519343,846.182407 C778.486548,845.306198 779.101812,844.02709 779.101812,842.59934 Z M770.67548,842.59934 C770.67548,840.446631 772.376951,838.694213 774.467076,838.694213 C776.558468,838.694213 778.258673,840.446631 778.258673,842.59934 C778.258673,844.753352 776.558468,846.504466 774.467076,846.504466 C772.376951,846.504466 770.67548,844.753352 770.67548,842.59934 Z M775.612784,841.86395 C775.774829,842.037367 775.769765,842.312486 775.602656,842.478079 L774.759643,843.315171 L774.758251,843.313867 C774.677228,843.394708 774.572152,843.436432 774.467076,843.436432 C774.360734,843.436432 774.254392,843.394708 774.172104,843.312563 L772.487091,841.607085 C772.321248,841.438885 772.318716,841.16507 772.480887,840.994391 C772.644072,840.822149 772.911192,840.820845 773.077035,840.987742 L774.469608,842.397238 L775.017776,841.853519 C775.184884,841.686622 775.452005,841.691838 775.612784,841.86395 Z M769.853862,839.995488 C769.746254,839.995488 769.638646,839.953763 769.556358,839.869011 C769.337344,839.644743 769.217076,839.34485 769.217076,839.025399 C769.217076,838.707252 769.337344,838.407359 769.556358,838.183092 L770.599648,837.107389 C771.051475,836.643207 771.78574,836.641903 772.237694,837.107389 C772.40227,837.276894 772.40227,837.552013 772.237694,837.721518 C772.073117,837.891022 771.805996,837.891022 771.641419,837.721518 C771.51862,837.595041 771.318595,837.595041 771.195922,837.721518 L770.151493,838.795916 C770.093131,838.857199 770.060216,838.938039 770.060216,839.025399 C770.060216,839.11276 770.093131,839.194904 770.151493,839.254883 C770.315943,839.424387 770.315943,839.699506 770.152632,839.869011 C770.070344,839.953763 769.961596,839.995488 769.853862,839.995488 Z M779.717076,839.025399 C779.717076,839.34485 779.596809,839.644743 779.377795,839.869011 C779.295506,839.953763 779.187899,839.995488 779.080291,839.995488 C778.972683,839.995488 778.865075,839.953763 778.782786,839.869011 C778.61821,839.699506 778.61821,839.424387 778.782786,839.254883 C778.841021,839.194904 778.873937,839.11276 778.873937,839.025399 C778.873937,838.938039 778.841021,838.857199 778.782786,838.795916 L777.738357,837.721518 C777.615557,837.595041 777.415533,837.595041 777.292733,837.721518 C777.128157,837.891022 776.862302,837.891022 776.697725,837.721518 C776.533148,837.552013 776.533148,837.276894 776.697725,837.107389 C777.148412,836.643207 777.882678,836.641903 778.334631,837.107389 L779.377795,838.183092 C779.596809,838.407359 779.717076,838.707252 779.717076,839.025399 L779.717076,839.025399 Z" id="Send-Reminder"></path>
        </g>
    </g>
</svg>