<?xml version="1.0" encoding="UTF-8"?>
<svg width="38px" height="38px" viewBox="0 0 38 38" version="1.1" xmlns="http://www.w3.org/2000/svg" xmlns:xlink="http://www.w3.org/1999/xlink">
    <!-- Generator: Sketch 54 (76480) - https://sketchapp.com -->
    <title>Send mail-active</title>
    <desc>Created with Sketch.</desc>
    <g id="Page-1" stroke="none" stroke-width="1" fill="none" fill-rule="evenodd">
        <g id="Icons-Used" transform="translate(-1003.000000, -124.000000)" fill="#000000">
            <g id="Send-mail-active" transform="translate(1003.000003, 124.500000)">
                <path d="M19.0002336,1.5559425 C28.4314413,1.5559425 36.1036863,9.2281875 36.1036863,18.661965 C36.1036863,28.0934063 28.4314413,35.7656513 19.0002336,35.7656513 C9.56879238,35.7656513 1.89654738,28.0934063 1.89654738,18.661965 C1.89654738,9.2281875 9.56879238,1.5559425 19.0002336,1.5559425 M19.0002336,0 C8.69480125,0 0.34037125,8.35443 0.34037125,18.661965 C0.34037125,28.9671637 8.69480125,37.3215937 19.0002336,37.3215937 C29.3051988,37.3215937 37.6596288,28.9671637 37.6596288,18.661965 C37.6596288,8.35443 29.3051988,0 19.0002336,0" id="Fill-919"></path>
                <path d="M28.10203,15.7790325 L19.5490187,7.22602125 C19.2453063,6.92230875 18.7546938,6.92230875 18.4509812,7.22602125 L9.89797,15.7790325 C9.74611375,15.9308887 9.6690175,16.12947 9.6690175,16.3280512 L9.6690175,27.9906112 C9.6690175,28.4204812 10.0171188,28.7685825 10.4469887,28.7685825 L27.5530112,28.7685825 C27.980545,28.7685825 28.3309825,28.4204812 28.3309825,27.9906112 L28.3309825,16.3280512 C28.3309825,16.12947 28.2538862,15.9308887 28.10203,15.7790325 Z M11.22496,18.0428587 L15.5306687,21.8088937 L11.22496,26.1146025 L11.22496,18.0428587 Z M16.9884887,22.549485 L21.0115113,22.549485 L25.6746663,27.21264 L12.3253337,27.21264 L16.9884887,22.549485 Z M22.4693312,21.8088937 L26.77504,18.0428587 L26.77504,26.1146025 L22.4693312,21.8088937 Z M19.0002336,8.87541375 L26.4152575,16.2906712 L21.0395462,20.9935425 L16.9604537,20.9935425 L11.5847425,16.2906712 L19.0002336,8.87541375 Z M16.1170675,14.22309 L18.448645,11.8915125 C18.5210688,11.8190888 18.60751,11.7630187 18.7032962,11.7233025 C18.8927661,11.64387 19.1074675,11.64387 19.2967037,11.7233025 C19.39249,11.7630187 19.4789313,11.8190888 19.551355,11.8915125 L21.8829325,14.22309 C22.186645,14.5268025 22.186645,15.0197512 21.8829325,15.3234638 C21.7310762,15.47532 21.532495,15.55008 21.3315775,15.55008 C21.1332299,15.55008 20.934415,15.47532 20.7827924,15.3234638 L19.7782049,14.3188762 L19.7782049,18.661965 C19.7782049,19.0894988 19.42987,19.4376 19.0002336,19.4376 C18.57013,19.4376 18.2222624,19.0894988 18.2222624,18.661965 L18.2222624,14.3188762 L17.2174413,15.3234638 C17.065585,15.47532 16.8670038,15.55008 16.6684225,15.55008 C16.467505,15.55008 16.2689237,15.47532 16.1170675,15.3234638 C15.813355,15.0197512 15.813355,14.5268025 16.1170675,14.22309 L16.1170675,14.22309 Z" id="Fill-920"></path>
            </g>
        </g>
    </g>
</svg>