<?xml version="1.0" encoding="UTF-8"?>
<svg width="38px" height="38px" viewBox="0 0 38 38" version="1.1" xmlns="http://www.w3.org/2000/svg" xmlns:xlink="http://www.w3.org/1999/xlink">
    <!-- Generator: Sketch 58 (84663) - https://sketch.com -->
    <title>show/hide comments@1x</title>
    <desc>Created with Sketch.</desc>
    <g id="documnet-view" stroke="none" stroke-width="1" fill="none" fill-rule="evenodd">
        <g id="show/hide-comments" fill="#000000">
            <path d="M18.6895822,1.57166119 C28.1361633,1.57166119 35.8207242,9.3354311 35.8207242,18.876478 C35.8207242,28.417525 28.1361633,36.1789315 18.6895822,36.1789315 C9.24300109,36.1789315 1.55610018,28.417525 1.55610018,18.876478 C1.55610018,9.3354311 9.24300109,1.57166119 18.6895822,1.57166119 M18.6895822,0 C8.36784099,0 0,8.4515194 0,18.876478 C0,29.3014367 8.36784099,37.7529561 18.6895822,37.7529561 C29.0113234,37.7529561 37.3791644,29.3014367 37.3791644,18.876478 C37.3791644,8.4515194 29.0113234,0 18.6895822,0" id="Fill-279"></path>
            <g id="Group-23" transform="translate(19.000000, 18.685000) scale(-1, 1) translate(-19.000000, -18.685000) translate(9.000000, 9.090000)">
                <path d="M11.4554313,6.06 L6.06477115,6.06 C5.69217753,6.06 5.3904577,6.36473703 5.3904577,6.74105659 C5.3904577,7.11737614 5.69217753,7.42211318 6.06477115,7.42211318 L10.7811179,7.42211318 L10.7811179,14.2287931 L8.76,14.2287931 C8.38740638,14.2287931 8.08568655,14.5312804 8.08568655,14.9076 L8.08568655,15.9874735 L6.540638,14.4269745 C6.41509015,14.3001712 6.2429681,14.2287931 6.06477115,14.2287931 L1.34660194,14.2287931 L1.34660194,10.8253509 C1.34660194,10.4492359 1.0450846,10.1442943 0.674313454,10.1442943 C0.30192233,10.1442943 7.33635375e-13,10.4492359 7.33635375e-13,10.8253509 L7.33635375e-13,14.9076 C7.33635375e-13,15.2839196 0.30192233,15.5886566 0.674313454,15.5886566 L5.78532594,15.5886566 L8.28413315,18.1124519 C8.41170596,18.2433456 8.58382802,18.3108377 8.76,18.3108377 C8.84707351,18.3108377 8.93414702,18.294476 9.0171706,18.2597074 C9.27029126,18.1554014 9.43431345,17.9058852 9.43431345,17.6318264 L9.43431345,15.5886566 L11.4554313,15.5886566 C11.828025,15.5886566 12.1295423,15.2839196 12.1295423,14.9076 L12.1295423,6.74105659 C12.1295423,6.36473703 11.828025,6.06 11.4554313,6.06" id="Combined-Shape-Copy-8" transform="translate(6.064771, 12.185419) scale(-1, 1) translate(-6.064771, -12.185419) "></path>
                <g id="hide" transform="translate(13.500000, 5.050000) scale(-1, -1) translate(-13.500000, -5.050000) translate(7.000000, 0.000000)" fill-rule="nonzero" stroke="#000000" stroke-width="0.3">
                    <path d="M11.5349715,0.136491349 C11.3496354,-0.0459768448 11.0478024,-0.0434068702 10.8598187,0.136491349 L9.16531772,1.78127506 C7.06572505,0.856084224 4.82580652,1.08224198 2.68914664,2.43661858 C1.09790428,3.4440486 0.131509165,4.71104606 0.0917942974,4.76501552 C-0.035293279,4.93463384 -0.0299979633,5.16593155 0.105032587,5.33040992 C1.01053157,6.40979924 1.95839308,7.25018092 2.92743585,7.83613511 L1.43680448,9.28303079 C1.25146843,9.46292901 1.25146843,9.75590611 1.43680448,9.9383743 C1.52947251,10.0283234 1.65126477,10.074583 1.77305703,10.074583 C1.89484929,10.074583 2.01664155,10.0283234 2.10930957,9.9383743 L11.5349715,0.79183486 C11.7203075,0.611936641 11.7203075,0.318959542 11.5349715,0.136491349 Z M5.30768024,5.52572799 C5.23884114,5.37409949 5.20442159,5.20962112 5.20442159,5.03743282 C5.20442159,4.70590611 5.33680448,4.39236921 5.580389,4.15593155 C5.96165173,3.78585522 6.52560285,3.69847608 6.99159063,3.89122417 L5.30768024,5.52572799 Z M7.69586762,3.21018092 C6.8300835,2.67048626 5.6624664,2.76814529 4.90788391,3.50058804 C4.48425866,3.91178397 4.25391242,4.45661858 4.25391242,5.03486285 C4.25391242,5.45633868 4.37835234,5.85982468 4.60869857,6.20677125 L3.62641752,7.16023181 C2.76592872,6.67707659 1.91867821,5.96262366 1.09525662,5.0297229 C1.44739511,4.62880687 2.19138697,3.85524453 3.21073523,3.21018092 C4.97407536,2.09481196 6.72947251,1.85323435 8.43985947,2.48801807 L7.69586762,3.21018092 Z" id="Shape"></path>
                    <path d="M12.869391,4.74445573 C12.2154196,3.96318346 11.5376191,3.30526997 10.8492281,2.78356514 C10.6400631,2.62679669 10.3408778,2.66277634 10.176723,2.86323435 C10.0152159,3.06369237 10.0522831,3.35409949 10.2588004,3.51343791 C10.8042179,3.92720382 11.3496354,4.44119873 11.879167,5.04257277 C11.5667434,5.39722926 10.9577821,6.03458295 10.1317128,6.61796718 C8.54047047,7.74104606 6.93334216,8.14710204 5.35798574,7.82328524 C5.10116293,7.76931578 4.84698778,7.93122417 4.79403462,8.1805117 C4.73843381,8.42979924 4.90523625,8.67651679 5.16205906,8.72791628 C5.57244603,8.81272545 5.98548065,8.85384504 6.40116293,8.85384504 C7.02601018,8.85384504 7.65615275,8.75875598 8.28364766,8.56857786 C9.10706925,8.31929033 9.92519552,7.9080944 10.7168452,7.34783995 C12.0512648,6.39951934 12.8482098,5.35353969 12.8826293,5.30985013 C13.0097169,5.14023181 13.0044216,4.9089341 12.869391,4.74445573 Z" id="Path"></path>
                </g>
            </g>
        </g>
    </g>
</svg>