<?xml version="1.0" encoding="UTF-8"?>
<svg width="38px" height="38px" viewBox="0 0 38 38" version="1.1" xmlns="http://www.w3.org/2000/svg" xmlns:xlink="http://www.w3.org/1999/xlink">
    <!-- Generator: Sketch 58 (84663) - https://sketch.com -->
    <title>simple markup@1x</title>
    <desc>Created with Sketch.</desc>
    <g id="documnet-view" stroke="none" stroke-width="1" fill="none" fill-rule="evenodd">
        <g id="simple-markup">
            <path d="M14.6895822,18.3315 L22.7069849,18.3315 C23.0659699,18.3315 23.3569849,18.0375749 23.3569849,17.675 C23.3569849,17.3124251 23.0659699,17.0185 22.7069849,17.0185 L14.6895822,17.0185 C14.3305971,17.0185 14.0395822,17.3124251 14.0395822,17.675 C14.0395822,18.0375749 14.3305971,18.3315 14.6895822,18.3315 Z" id="Line-4" fill="#D4D4D4" fill-rule="nonzero"></path>
            <path d="M14.6895822,21.8584136 L22.7069849,21.8584136 C23.0659699,21.8584136 23.3569849,21.5644885 23.3569849,21.2019136 C23.3569849,20.8393386 23.0659699,20.5454136 22.7069849,20.5454136 L14.6895822,20.5454136 C14.3305971,20.5454136 14.0395822,20.8393386 14.0395822,21.2019136 C14.0395822,21.5644885 14.3305971,21.8584136 14.6895822,21.8584136 Z" id="Line-4-Copy" fill="#D4D4D4" fill-rule="nonzero"></path>
            <path d="M14.6895822,25.3853272 L22.7069849,25.3853272 C23.0659699,25.3853272 23.3569849,25.0914021 23.3569849,24.7288272 C23.3569849,24.3662522 23.0659699,24.0723272 22.7069849,24.0723272 L14.6895822,24.0723272 C14.3305971,24.0723272 14.0395822,24.3662522 14.0395822,24.7288272 C14.0395822,25.0914021 14.3305971,25.3853272 14.6895822,25.3853272 Z" id="Line-4-Copy-2" fill="#D4D4D4" fill-rule="nonzero"></path>
            <path d="M20.0388558,18.3315 L22.7069849,18.3315 C23.0659699,18.3315 23.3569849,18.0375749 23.3569849,17.675 C23.3569849,17.3124251 23.0659699,17.0185 22.7069849,17.0185 L20.0388558,17.0185 C19.6798707,17.0185 19.3888558,17.3124251 19.3888558,17.675 C19.3888558,18.0375749 19.6798707,18.3315 20.0388558,18.3315 Z" id="Line-4" fill="#000000" fill-rule="nonzero"></path>
            <path d="M17.0506761,21.8584136 L21.0338898,21.8584136 C21.3928749,21.8584136 21.6838898,21.5644885 21.6838898,21.2019136 C21.6838898,20.8393386 21.3928749,20.5454136 21.0338898,20.5454136 L17.0506761,20.5454136 C16.691691,20.5454136 16.4006761,20.8393386 16.4006761,21.2019136 C16.4006761,21.5644885 16.691691,21.8584136 17.0506761,21.8584136 Z" id="Line-4-Copy" fill="#000000" fill-rule="nonzero"></path>
            <path d="M14.6895822,25.3853272 L18.7069852,25.3853272 C19.0659703,25.3853272 19.3569852,25.0914021 19.3569852,24.7288272 C19.3569852,24.3662522 19.0659703,24.0723272 18.7069852,24.0723272 L14.6895822,24.0723272 C14.3305971,24.0723272 14.0395822,24.3662522 14.0395822,24.7288272 C14.0395822,25.0914021 14.3305971,25.3853272 14.6895822,25.3853272 Z" id="Line-4-Copy-2" fill="#000000" fill-rule="nonzero"></path>
            <path d="M25.681629,14.1027785 C25.6489334,14.023136 25.6008516,13.9532059 25.5431535,13.8929883 L21.0638586,9.36909462 C21.0042372,9.3106253 20.9349995,9.26225699 20.8561454,9.2290402 C20.7792147,9.19796016 20.6965141,9.18047764 20.6099669,9.18047764 L12.2899025,9.18047764 C11.9360209,9.18047764 11.6494537,9.46991049 11.6494537,9.82538841 L11.6494537,27.9275676 C11.6494537,28.2849881 11.9360209,28.5724784 12.2899025,28.5724784 L25.0911852,28.5724784 C25.4431435,28.5724784 25.7297107,28.2849881 25.7297107,27.9275676 L25.7297107,14.3514188 C25.7297107,14.2640062 25.7124013,14.1804776 25.681629,14.1027785 Z M21.2504157,11.3871603 L23.5448764,13.7045656 L21.2504157,13.7045656 L21.2504157,11.3871603 Z M12.9303513,27.2807144 L12.9303513,10.4722417 L19.9695181,10.4722417 L19.9695181,14.3514188 C19.9695181,14.7088393 20.2560853,14.9982721 20.6099669,14.9982721 L24.4507364,14.9982721 L24.4507364,27.2807144 L12.9303513,27.2807144 L12.9303513,27.2807144 Z" id="Fill-410" fill="#000000"></path>
            <path d="M18.6895822,1.57166119 C28.1361633,1.57166119 35.8207242,9.3354311 35.8207242,18.876478 C35.8207242,28.417525 28.1361633,36.1789315 18.6895822,36.1789315 C9.24300109,36.1789315 1.55610018,28.417525 1.55610018,18.876478 C1.55610018,9.3354311 9.24300109,1.57166119 18.6895822,1.57166119 M18.6895822,-1.91846539e-13 C8.36784099,-1.91846539e-13 -2.48689958e-14,8.4515194 -2.48689958e-14,18.876478 C-2.48689958e-14,29.3014367 8.36784099,37.7529561 18.6895822,37.7529561 C29.0113234,37.7529561 37.3791644,29.3014367 37.3791644,18.876478 C37.3791644,8.4515194 29.0113234,-1.91846539e-13 18.6895822,-1.91846539e-13" id="Fill-279" fill="#000000"></path>
        </g>
    </g>
</svg>