<?xml version="1.0" encoding="UTF-8"?>
<svg width="14px" height="14px" viewBox="0 0 14 14" version="1.1" xmlns="http://www.w3.org/2000/svg" xmlns:xlink="http://www.w3.org/1999/xlink">
    <!-- Generator: Sketch 55 (78076) - https://sketchapp.com -->
    <title>Combined Shape</title>
    <desc>Created with Sketch.</desc>
    <g id="Admin" stroke="none" stroke-width="1" fill="none" fill-rule="evenodd">
        <g id="admin-edit-FAQ-Copy-2" transform="translate(-1309.000000, -416.000000)" fill="#818181" stroke="#818181" stroke-width="0.25">
            <g id="Group-2" transform="translate(1278.000000, 417.000000)">
                <path d="M43.6,5.6 L38.4,5.6 L38.4,0.4 C38.4,0.16 38.24,0 38,0 C37.76,0 37.6,0.16 37.6,0.4 L37.6,5.6 L32.4,5.6 C32.16,5.6 32,5.76 32,6 C32,6.24 32.16,6.4 32.4,6.4 L37.6,6.4 L37.6,11.6 C37.6,11.84 37.76,12 38,12 C38.24,12 38.4,11.84 38.4,11.6 L38.4,6.4 L43.6,6.4 C43.84,6.4 44,6.24 44,6 C44,5.76 43.84,5.6 43.6,5.6 Z" id="Combined-Shape"></path>
            </g>
        </g>
    </g>
</svg>