<?xml version="1.0" encoding="UTF-8"?>
<svg width="14px" height="14px" viewBox="0 0 14 14" version="1.1" xmlns="http://www.w3.org/2000/svg" xmlns:xlink="http://www.w3.org/1999/xlink">
    <!-- Generator: Sketch 55 (78076) - https://sketchapp.com -->
    <title>Sub-topic-white</title>
    <desc>Created with Sketch.</desc>
    <g id="Admin" stroke="none" stroke-width="1" fill="none" fill-rule="evenodd">
        <g id="admin-edit-FAQ-Copy-4" transform="translate(-1313.000000, -606.000000)" fill="#FFFFFF" stroke="#FFFFFF" stroke-width="0.25">
            <g id="Group-15" transform="translate(1245.000000, 603.000000)">
                <path d="M80.6,9.6 L75.4,9.6 L75.4,4.4 C75.4,4.16 75.24,4 75,4 C74.76,4 74.6,4.16 74.6,4.4 L74.6,9.6 L69.4,9.6 C69.16,9.6 69,9.76 69,10 C69,10.24 69.16,10.4 69.4,10.4 L74.6,10.4 L74.6,15.6 C74.6,15.84 74.76,16 75,16 C75.24,16 75.4,15.84 75.4,15.6 L75.4,10.4 L80.6,10.4 C80.84,10.4 81,10.24 81,10 C81,9.76 80.84,9.6 80.6,9.6 Z" id="Sub-topic-white"></path>
            </g>
        </g>
    </g>
</svg>