<?xml version="1.0" encoding="UTF-8"?>
<svg width="38px" height="38px" viewBox="0 0 38 38" version="1.1" xmlns="http://www.w3.org/2000/svg" xmlns:xlink="http://www.w3.org/1999/xlink">
    <!-- Generator: Sketch 59.1 (86144) - https://sketch.com -->
    <title>suggest block</title>
    <desc>Created with Sketch.</desc>
    <g id="Page-1" stroke="none" stroke-width="1" fill="none" fill-rule="evenodd">
        <g id="suggest-block" fill="#000000">
            <path d="M18.6895822,1.55610018 C28.1361633,1.55610018 35.8207242,9.24300109 35.8207242,18.6895822 C35.8207242,28.1361633 28.1361633,35.8207242 18.6895822,35.8207242 C9.24300109,35.8207242 1.55610018,28.1361633 1.55610018,18.6895822 C1.55610018,9.24300109 9.24300109,1.55610018 18.6895822,1.55610018 M18.6895822,0 C8.36784099,0 -2.48689958e-14,8.36784099 -2.48689958e-14,18.6895822 C-2.48689958e-14,29.0113234 8.36784099,37.3791644 18.6895822,37.3791644 C29.0113234,37.3791644 37.3791644,29.0113234 37.3791644,18.6895822 C37.3791644,8.36784099 29.0113234,0 18.6895822,0" id="Fill-279-Copy"></path>
            <g id="Group-14" transform="translate(8.189582, 7.689582)">
                <path d="M6.33215187,4.08884166 C6.32833472,4.08884166 6.32469934,4.08702397 6.32106395,4.08702397 C6.31561088,4.08702397 6.31033958,4.08702397 6.30652243,4.08702397 C6.30106936,4.08702397 6.29561629,4.08702397 6.29016322,4.08702397 C6.28652783,4.08702397 6.28289245,4.08884166 6.27925707,4.08884166 C3.24189611,4.11247164 0.682769535,6.58271314 0.682769535,9.50737729 C0.682769535,11.4323116 1.73521238,13.0155201 1.76411366,13.0609624 C2.48937221,14.2406436 3.26552608,15.771139 3.26552608,16.1655779 L3.26552608,17.9996277 C3.26552608,18.0178046 3.27461454,18.0341638 3.27643223,18.0523407 C3.27643223,18.0688817 3.27097916,18.0832415 3.27297862,18.0996007 L3.87826958,21.7277111 C3.92716546,22.0203593 4.17982445,22.2348467 4.47429032,22.2348467 L8.10440019,22.2348467 C8.40050198,22.2348467 8.65334274,22.0203593 8.70042093,21.7277111 L9.30571189,18.0996007 C9.30952904,18.0832415 9.30207651,18.0688817 9.3038942,18.0523407 C9.30571189,18.0341638 9.31480035,18.0178046 9.31480035,17.9996277 L9.31480035,16.1655779 C9.31480035,15.7729567 10.1091311,14.2460966 10.8398427,13.08641 C10.885285,13.0209732 11.9613578,11.435947 11.9613578,9.50737729 C11.9613578,6.58271314 9.38750797,4.11247164 6.33215187,4.08884166 Z M7.59162967,21.0242648 L4.98687907,21.0242648 L4.58516945,18.6049187 L7.99515698,18.6049187 L7.59162967,21.0242648 Z M9.82920678,12.4211353 C9.42386178,13.0645978 8.10440019,15.2312849 8.10440019,16.1655779 L8.10440019,17.3945185 L6.89545418,17.3945185 L6.89545418,12.8064857 L7.92790243,11.7742192 C8.16420221,11.5377377 8.16420221,11.154205 7.92790243,10.9179052 C7.69160265,10.6816054 7.30806994,10.6816054 7.07177017,10.9179052 L6.30106936,11.688606 L5.5012855,10.9124521 C5.26135035,10.67797 4.87963532,10.6852408 4.64515324,10.9233583 C4.41248884,11.1632934 4.41794191,11.5468261 4.65787707,11.7794905 L5.68487225,12.7774026 L5.68487225,17.3945185 L4.47429032,17.3945185 L4.47429032,16.1655779 C4.47429032,15.2349203 3.19100077,13.0700508 2.78383808,12.4084115 C2.77474963,12.3938699 1.89316969,11.054232 1.89316969,9.50737729 C1.89316969,7.22981099 3.91080624,5.30487666 6.30652243,5.2976059 C8.71678014,5.30487666 10.7507759,7.22981099 10.7507759,9.50737729 C10.7507759,11.0505966 9.85101907,12.3902346 9.82920678,12.4211353 L9.82920678,12.4211353 Z" id="Fill-861-Copy-2" stroke="#000000" stroke-width="0.2"></path>
                <path d="M13.8135655,0 C13.9083346,0 13.9988917,0.018953821 14.0831309,0.0526495028 C14.1694761,0.0886617627 14.2452914,0.141100667 14.3105768,0.204490669 L14.3105768,0.204490669 L19.2154045,5.10910775 C19.2785839,5.17439313 19.3312334,5.25020842 19.367035,5.3365536 C19.4007307,5.4207928 19.4196845,5.51134995 19.4196845,5.60611905 L19.4196845,5.60611905 L19.4196845,20.324814 C19.4196845,20.7123144 19.1058935,21.0239994 18.7204991,21.0239994 L18.7204991,21.0239994 L8.41950391,21.023 L8.41950391,19.623 L18.0192078,19.6235227 L18.0192078,6.30741043 L13.8135655,6.30741043 C13.4260651,6.30741043 13.1122741,5.99361939 13.1122741,5.60611905 L13.1122741,5.60611905 L13.1122741,1.40047677 L5.4043869,1.40047677 L5.40350391,4.501 L4.00150391,4.501 L4.00180415,0.699185397 C4.00180415,0.345907233 4.26547578,0.0527957514 4.60789498,0.00639715833 L4.70309552,0 Z M14.5148569,2.39239341 L14.5148569,4.90482768 L17.0272911,4.90482768 L14.5148569,2.39239341 Z" id="Combined-Shape"></path>
            </g>
        </g>
    </g>
</svg>