<?xml version="1.0" encoding="UTF-8"?>
<svg width="14px" height="18px" viewBox="0 0 14 18" version="1.1" xmlns="http://www.w3.org/2000/svg" xmlns:xlink="http://www.w3.org/1999/xlink">
    <!-- Generator: Sketch 54 (76480) - https://sketchapp.com -->
    <title>Terms of Use</title>
    <desc>Created with Sketch.</desc>
    <g id="Admin" stroke="none" stroke-width="1" fill="none" fill-rule="evenodd">
        <g id="admin-edit-FAQ--2-V2" transform="translate(-41.000000, -391.000000)" fill="#FFFFFF">
            <g id="Group-7" transform="translate(0.000000, 150.000000)">
                <g id="Group-32" transform="translate(37.000000, 150.000000)">
                    <path d="M17.9268182,95.5612 C17.9594636,95.6332 17.9764545,95.7106 17.9764545,95.7916 L17.9764545,108.3718 C17.9764545,108.703 17.692,108.9712 17.3407273,108.9712 L4.63381818,108.9712 C4.28445455,108.9712 4,108.703 4,108.3718 L4,91.5976 C4,91.2682 4.28445455,91 4.63381818,91 L12.8944545,91 C12.9784545,91 13.0624545,91.0162 13.1388182,91.0468 C13.2151818,91.07578 13.2858182,91.1206 13.3430909,91.1746 L17.7893636,95.3668 C17.8485455,95.4226 17.8943636,95.4874 17.9268182,95.5612 Z M13.5301818,93.0448 L13.5301818,95.1922 L15.8077273,95.1922 L13.5301818,93.0448 Z M5.26954545,107.7724 L16.7069091,107.7724 L16.7069091,96.391 L12.8944545,96.391 C12.5431818,96.391 12.2587273,96.1228 12.2587273,95.7916 L12.2587273,92.197 L5.26954545,92.197 L5.26954545,107.7724 Z M14.7997273,105.3766 C15.151,105.3766 15.4354545,105.6448 15.4354545,105.976 C15.4354545,106.3054 15.151,106.5736 14.7997273,106.5736 L7.17672727,106.5736 C6.82545455,106.5736 6.541,106.3054 6.541,105.976 C6.541,105.6448 6.82545455,105.3766 7.17672727,105.3766 L14.7997273,105.3766 Z M14.7997273,102.98098 C15.151,102.98098 15.4354545,103.2472 15.4354545,103.5784 C15.4354545,103.9096 15.151,104.1778 14.7997273,104.1778 L7.17672727,104.1778 C6.82545455,104.1778 6.541,103.9096 6.541,103.5784 C6.541,103.2472 6.82545455,102.98098 7.17672727,102.98098 L14.7997273,102.98098 Z M14.7997273,100.5832 C15.151,100.5832 15.4354545,100.8514 15.4354545,101.1826 C15.4354545,101.5138 15.151,101.782 14.7997273,101.782 L7.17672727,101.782 C6.82545455,101.782 6.541,101.5138 6.541,101.1826 C6.541,100.8514 6.82545455,100.5832 7.17672727,100.5832 L14.7997273,100.5832 Z M14.7997273,98.1874 C15.151,98.1874 15.4354545,98.4556 15.4354545,98.7868 C15.4354545,99.118 15.151,99.3862 14.7997273,99.3862 L7.17672727,99.3862 C6.82545455,99.3862 6.541,99.118 6.541,98.7868 C6.541,98.4556 6.82545455,98.1874 7.17672727,98.1874 L14.7997273,98.1874 Z" id="Terms-of-Use"></path>
                </g>
            </g>
        </g>
    </g>
</svg>