<?xml version="1.0" encoding="UTF-8"?>
<svg width="24px" height="20px" viewBox="0 0 24 20" version="1.1" xmlns="http://www.w3.org/2000/svg" xmlns:xlink="http://www.w3.org/1999/xlink">
    <!-- Generator: Sketch 58 (84663) - https://sketch.com -->
    <title>tp-req</title>
    <desc>Created with Sketch.</desc>
    <g id="Project-Management" stroke="none" stroke-width="1" fill="none" fill-rule="evenodd">
        <path d="M22.7600326,1.68382125 C22.5573208,1.61124541 17.7795784,0.00706916387 11.7034793,1.60123495 C10.653382,1.25362172 6.60815505,0.167236527 0.630909255,1.66380033 C0.260522227,1.75639709 0,2.08674227 0,2.46964238 L0,19.1270482 C0,19.4048384 0.138394612,19.6626078 0.36738389,19.8177699 C0.595372121,19.9704294 0.886926775,20.0029634 1.14444586,19.9003562 C1.18799137,19.8803353 5.58858967,18.166044 11.4196827,19.9253824 C11.4997664,19.9479059 11.5808512,19.9606692 11.6604343,19.9606692 C11.7790583,19.9606692 11.8906749,19.9253824 11.9962853,19.8803353 C11.9980371,19.8803353 12.0000392,19.8878431 12.001791,19.8878431 C12.0403313,19.8703248 15.9621793,18.1560335 22.2620122,19.9303876 C22.5120234,19.9979582 22.7820556,19.9504085 22.9902732,19.7904914 C23.1979902,19.635079 23.3201178,19.3873201 23.3201178,19.1270482 L23.3201178,2.46964238 C23.3201178,2.1145213 23.0951328,1.79894154 22.7600326,1.68382125 Z M1.66574058,17.9958662 L1.66574058,3.12783013 C6.31910301,2.0917475 9.60954128,2.74518029 10.8273138,3.08028045 L10.8273138,18.0559289 C6.67747748,17.0398672 3.33022985,17.5654164 1.66574058,17.9958662 Z M21.6543773,18.0534263 C17.3030805,17.0323594 14.1054892,17.5453955 12.4930543,17.9783479 L12.4930543,3.11531706 C16.7537565,2.08674227 20.3204834,2.75994572 21.6543773,3.09779875 L21.6543773,18.0534263 L21.6543773,18.0534263 Z" id="tp-req" fill="#AAADAA"></path>
    </g>
</svg>