<?xml version="1.0" encoding="UTF-8"?>
<svg width="39px" height="38px" viewBox="0 0 39 38" version="1.1" xmlns="http://www.w3.org/2000/svg" xmlns:xlink="http://www.w3.org/1999/xlink">
    <!-- Generator: Sketch 59.1 (86144) - https://sketch.com -->
    <title>Upload_active</title>
    <desc>Created with Sketch.</desc>
    <g id="Project-Management" stroke="none" stroke-width="1" fill="none" fill-rule="evenodd">
        <path d="M19.46958,0.279999466 C29.7915543,0.279999466 38.1591605,8.6480737 38.1591605,18.969814 C38.1591605,29.2913203 29.7915543,37.6568205 19.46958,37.6568205 C9.1478397,37.6568205 0.779999466,29.2913203 0.779999466,18.969814 C0.779999466,8.6480737 9.1478397,0.279999466 19.46958,0.279999466 Z M19.46958,1.83609951 C10.0229997,1.83609951 2.33843951,9.52299973 2.33843951,18.969814 C2.33843951,28.4163943 10.0229997,36.1007205 19.46958,36.1007205 C28.9161603,36.1007205 36.6007205,28.4163943 36.6007205,18.969814 C36.6007205,9.52299973 28.9161603,1.83609951 19.46958,1.83609951 Z M27.2573342,25.9778802 C27.6876602,25.9778802 28.0365542,26.3265402 28.0365542,26.7571002 L28.0365542,26.7571002 L28.0365542,29.8716403 C28.0365542,30.3022003 27.6876602,30.6508603 27.2573342,30.6508603 L27.2573342,30.6508603 L11.6820598,30.6508603 C11.2514998,30.6508603 10.9028398,30.3022003 10.9028398,29.8716403 L10.9028398,29.8716403 L10.9028398,26.7571002 C10.9028398,26.3265402 11.2514998,25.9778802 11.6820598,25.9778802 C12.1126198,25.9778802 12.4612798,26.3265402 12.4612798,26.7571002 L12.4612798,26.7571002 L12.4612798,29.0924203 L26.4778802,29.0924203 L26.4778802,26.7571002 C26.4778802,26.3265402 26.8265402,25.9778802 27.2573342,25.9778802 Z M19.46958,7.28829967 C19.5702,7.28829967 19.67082,7.30935967 19.76676,7.34679967 C19.8627,7.38657967 19.949514,7.44507967 20.01948,7.51527967 L20.01948,7.51527967 L26.2485602,13.7464659 C26.5527602,14.0508999 26.5527602,14.5422999 26.2485602,14.8464999 C25.9443602,15.1504659 25.4531942,15.1504659 25.1487602,14.8464999 L25.1487602,14.8464999 L20.2488,9.94653974 L20.2488,26.7571002 C20.2488,27.1853202 19.90014,27.5339802 19.46958,27.5339802 C19.039254,27.5339802 18.69036,27.1853202 18.69036,26.7571002 L18.69036,26.7571002 L18.69036,9.94653974 L13.7903998,14.8464999 C13.4861998,15.1504659 12.9926938,15.1504659 12.6882598,14.8464999 C12.3840598,14.5422999 12.3840598,14.0508999 12.6882598,13.7464659 L12.6882598,13.7464659 L18.91734,7.51527967 C18.990114,7.44507967 19.07646,7.38657967 19.1724,7.34679967 C19.266,7.30935967 19.36662,7.28829967 19.46958,7.28829967 Z" id="Upload_active" fill="#000000"></path>
    </g>
</svg>