<?xml version="1.0" encoding="UTF-8"?>
<svg width="39px" height="38px" viewBox="0 0 39 38" version="1.1" xmlns="http://www.w3.org/2000/svg" xmlns:xlink="http://www.w3.org/1999/xlink">
    <!-- Generator: Sketch 59.1 (86144) - https://sketch.com -->
    <title>Upload_disabled</title>
    <desc>Created with Sketch.</desc>
    <g id="Project-Management" stroke="none" stroke-width="1" fill="none" fill-rule="evenodd">
        <path d="M19.46958,0.504178934 C29.7915543,0.504178934 38.1591605,8.87225317 38.1591605,19.1939935 C38.1591605,29.5154998 29.7915543,37.881 19.46958,37.881 C9.1478397,37.881 0.779999466,29.5154998 0.779999466,19.1939935 C0.779999466,8.87225317 9.1478397,0.504178934 19.46958,0.504178934 Z M19.46958,2.06027898 C10.0229997,2.06027898 2.33843951,9.7471792 2.33843951,19.1939935 C2.33843951,28.6405737 10.0229997,36.3249 19.46958,36.3249 C28.9161603,36.3249 36.6007205,28.6405737 36.6007205,19.1939935 C36.6007205,9.7471792 28.9161603,2.06027898 19.46958,2.06027898 Z M27.2573342,26.2020597 C27.6876602,26.2020597 28.0365542,26.5507197 28.0365542,26.9812797 L28.0365542,26.9812797 L28.0365542,30.0958198 C28.0365542,30.5263798 27.6876602,30.8750398 27.2573342,30.8750398 L27.2573342,30.8750398 L11.6820598,30.8750398 C11.2514998,30.8750398 10.9028398,30.5263798 10.9028398,30.0958198 L10.9028398,30.0958198 L10.9028398,26.9812797 C10.9028398,26.5507197 11.2514998,26.2020597 11.6820598,26.2020597 C12.1126198,26.2020597 12.4612798,26.5507197 12.4612798,26.9812797 L12.4612798,26.9812797 L12.4612798,29.3165998 L26.4778802,29.3165998 L26.4778802,26.9812797 C26.4778802,26.5507197 26.8265402,26.2020597 27.2573342,26.2020597 Z M19.46958,7.51247913 C19.5702,7.51247913 19.67082,7.53353913 19.76676,7.57097914 C19.8627,7.61075914 19.949514,7.66925914 20.01948,7.73945914 L20.01948,7.73945914 L26.2485602,13.9706453 C26.5527602,14.2750793 26.5527602,14.7664793 26.2485602,15.0706793 C25.9443602,15.3746454 25.4531942,15.3746454 25.1487602,15.0706793 L25.1487602,15.0706793 L20.2488,10.1707192 L20.2488,26.9812797 C20.2488,27.4094997 19.90014,27.7581597 19.46958,27.7581597 C19.039254,27.7581597 18.69036,27.4094997 18.69036,26.9812797 L18.69036,26.9812797 L18.69036,10.1707192 L13.7903998,15.0706793 C13.4861998,15.3746454 12.9926938,15.3746454 12.6882598,15.0706793 C12.3840598,14.7664793 12.3840598,14.2750793 12.6882598,13.9706453 L12.6882598,13.9706453 L18.91734,7.73945914 C18.990114,7.66925914 19.07646,7.61075914 19.1724,7.57097914 C19.266,7.53353913 19.36662,7.51247913 19.46958,7.51247913 Z" id="Upload_disabled" fill="#AEAEAE"></path>
    </g>
</svg>