<?xml version="1.0" encoding="UTF-8"?>
<svg width="38px" height="38px" viewBox="0 0 38 38" version="1.1" xmlns="http://www.w3.org/2000/svg" xmlns:xlink="http://www.w3.org/1999/xlink">
    <!-- Generator: Sketch 54 (76480) - https://sketchapp.com -->
    <title>Upload-active</title>
    <desc>Created with Sketch.</desc>
    <g id="Page-1" stroke="none" stroke-width="1" fill="none" fill-rule="evenodd">
        <g id="Icons-Used" transform="translate(-1068.000000, -124.000000)" fill="#000000">
            <g id="Upload-active" transform="translate(1068.250003, 124.500000)">
                <path d="M18.6598624,1.5559425 C28.0934063,1.5559425 35.7656512,9.2281875 35.7656512,18.6596288 C35.7656512,28.09107 28.0934063,35.7656513 18.6598624,35.7656513 C9.2281875,35.7656513 1.55617613,28.09107 1.55617613,18.6596288 C1.55617613,9.2281875 9.2281875,1.5559425 18.6598624,1.5559425 M18.6598624,6.82121026e-13 C8.35443,6.82121026e-13 0,8.35443 0,18.6596288 C0,28.9648275 8.35443,37.3192575 18.6598624,37.3192575 C28.9673974,37.3192575 37.3215937,28.9648275 37.3215937,18.6596288 C37.3215937,8.35443 28.9673974,6.82121026e-13 18.6598624,6.82121026e-13" id="Fill-570"></path>
                <path d="M27.8400495,15.8169202 L26.4270408,15.8169202 L26.4270408,13.685049 C26.4270408,13.5889321 26.4079461,13.4970872 26.3718783,13.4095141 C26.3358105,13.3240769 26.2848913,13.2471834 26.2191206,13.1809696 L21.2778333,8.20638984 C21.2141843,8.14038962 21.1358959,8.08891372 21.0508184,8.05281651 C20.9661652,8.01629212 20.8726011,7.99706875 20.7792491,7.99706875 L11.6010573,7.99706875 C11.2106765,7.99706875 10.894553,8.31553584 10.894553,8.70833327 L10.894553,15.8169202 L9.48154424,15.8169202 C9.09116345,15.8169202 8.77503988,16.1349601 8.77503988,16.5279711 L8.77503988,25.7680021 C8.77503988,26.1610131 9.09116345,26.4792666 9.48154424,26.4792666 L10.894553,26.4792666 L10.894553,28.6109242 C10.894553,29.0039353 11.2106765,29.3221888 11.6010573,29.3221888 L25.7205364,29.3221888 C26.1111294,29.3221888 26.4270408,29.0039353 26.4270408,28.6109242 L26.4270408,26.4792666 L27.8400495,26.4792666 C28.2304303,26.4792666 28.5465539,26.1610131 28.5465539,25.7680021 L28.5465539,16.5279711 C28.5465539,16.1349601 28.2304303,15.8169202 27.8400495,15.8169202 Z M21.4857535,10.4256206 L24.0170759,12.9737845 L21.4857535,12.9737845 L21.4857535,10.4256206 Z M12.3054401,9.41959779 L20.0727448,9.41959779 L20.0727448,13.685049 C20.0727448,14.07806 20.3888684,14.3941776 20.7792491,14.3941776 L25.0163659,14.3941776 L25.0163659,15.8169202 L12.3054401,15.8169202 L12.3054401,9.41959779 Z M12.3054401,27.9017956 L25.0163659,27.9017956 L25.0163659,26.4792666 L12.3054401,26.4792666 L12.3054401,27.9017956 Z M10.1880486,25.0567376 L27.1335451,25.0567376 L27.1335451,17.2392356 L10.1880486,17.2392356 L10.1880486,25.0567376 Z M22.5486925,23.7046942 C22.0225271,23.7046942 21.5557675,23.6043055 21.1505352,23.4056641 L21.1505352,22.4252724 C21.4836319,22.5747875 21.7658093,22.681584 21.9970675,22.7435259 C22.226204,22.803332 22.4383675,22.8355845 22.6295268,22.8355845 C22.8605728,22.8355845 23.0366685,22.79073 23.1599355,22.7008073 C23.2806565,22.6132342 23.3421839,22.4808066 23.3421839,22.3077963 C23.3421839,22.2095436 23.3167243,22.122184 23.2615618,22.0472129 C23.2085209,21.9703195 23.1278988,21.8976979 23.0239387,21.8272122 C22.917857,21.7569401 22.7056935,21.6456582 22.383205,21.4897353 C22.0819329,21.346628 21.854918,21.2099286 21.7042819,21.0796369 C21.5536458,20.9472092 21.4327126,20.7934223 21.3414823,20.620412 C21.2523737,20.4452658 21.2078194,20.2402166 21.2078194,20.0074003 C21.2078194,19.5673988 21.356546,19.2213782 21.651241,18.9693385 C21.948482,18.7172988 22.3577454,18.591279 22.8796675,18.591279 C23.1363853,18.591279 23.382495,18.6233179 23.6158748,18.683124 C23.8492546,18.7450659 24.0932426,18.8307167 24.3457171,18.9415714 L24.0083772,19.7617684 C23.7452945,19.652836 23.5267661,19.5780784 23.3549137,19.5332239 C23.1830613,19.4905053 23.0133305,19.4693596 22.8457214,19.4693596 C22.6484093,19.4693596 22.4958638,19.5161365 22.3895699,19.6101174 C22.2834882,19.7019623 22.2304473,19.8237103 22.2304473,19.9732254 C22.2304473,20.0674199 22.2516636,20.1483716 22.296218,20.2167213 C22.3386507,20.2850711 22.406543,20.3512849 22.4998949,20.4177123 C22.5932468,20.4815766 22.814109,20.5969168 23.1639666,20.7656552 C23.6264829,20.9877919 23.9426065,21.2099286 24.1146711,21.4342012 C24.2841897,21.6584738 24.3711767,21.9320863 24.3711767,22.256534 C24.3711767,22.7052928 24.2099325,23.0596435 23.8895657,23.318091 C23.5670772,23.5765384 23.1215339,23.7046942 22.5486925,23.7046942 Z M12.3054401,23.636558 L13.9454637,21.0713067 L12.4115218,18.6639006 L13.5656911,18.6639006 L14.6307517,20.4538095 L15.674596,18.6639006 L16.8033057,18.6639006 L15.2523907,21.1311128 L16.9221172,23.636558 L15.7257274,23.636558 L14.5777108,21.7569401 L13.4277848,23.636558 L12.3054401,23.636558 Z M20.5946669,23.636558 L17.5437562,23.636558 L17.5437562,18.6639006 L18.5918437,18.6639006 L18.5918437,22.7670212 L20.5946669,22.7670212 L20.5946669,23.636558 L20.5946669,23.636558 Z" id="Fill-571"></path>
            </g>
        </g>
    </g>
</svg>