<?xml version="1.0" encoding="UTF-8"?>
<svg width="15px" height="17px" viewBox="0 0 15 17" version="1.1" xmlns="http://www.w3.org/2000/svg" xmlns:xlink="http://www.w3.org/1999/xlink">
    <!-- Generator: Sketch 54 (76480) - https://sketchapp.com -->
    <title>Upload</title>
    <desc>Created with Sketch.</desc>
    <g id="Page-1" stroke="none" stroke-width="1" fill="none" fill-rule="evenodd">
        <g id="Icons-Used" transform="translate(-111.000000, -501.000000)" fill="#FFFFFF" fill-rule="nonzero">
            <path d="M120.890504,501.687344 C121.027068,501.687344 121.157167,501.745514 121.248226,501.847289 L125.270517,506.342951 C125.34926,506.430961 125.392795,506.544911 125.392795,506.663006 L125.392795,515.285253 C125.392795,516.541153 124.371111,517.562656 123.115574,517.562656 L113.790377,517.562656 C112.534478,517.562656 111.512794,516.540972 111.512794,515.285253 L111.512794,503.964747 C111.512794,502.708847 112.534659,501.687344 113.790377,501.687344 L120.890504,501.687344 Z M121.405171,503.650048 L121.405171,505.664303 C121.405171,505.9294 121.620074,506.144303 121.885171,506.144303 L123.636634,506.144303 L121.405171,503.650048 Z M123.115574,516.477489 C123.772823,516.477489 124.307629,515.942683 124.307629,515.285253 L124.307629,507.22947 L121.280004,507.22947 C120.749811,507.22947 120.320004,506.799663 120.320004,506.26947 L120.320004,502.772511 L113.790377,502.772511 C113.132947,502.772511 112.59796,503.307317 112.59796,503.964747 L112.59796,515.285253 C112.59796,515.942683 113.132947,516.477489 113.790377,516.477489 L123.115574,516.477489 Z M116.192122,510.817598 C116.192096,510.817576 116.19207,510.817553 116.192043,510.817531 C115.964332,510.622845 115.937559,510.280425 116.132245,510.052713 L118.042912,507.817925 C118.05915,507.798933 118.076846,507.781237 118.095838,507.765001 C118.297337,507.592738 118.600331,507.616438 118.772594,507.817937 L120.683109,510.052701 C120.683127,510.052722 120.683146,510.052744 120.683164,510.052765 C120.877813,510.280522 120.850974,510.622949 120.623218,510.817598 C120.395416,511.012285 120.052927,510.985466 119.858208,510.757692 L118.950343,509.695717 L118.950343,513.590017 C118.950343,513.889678 118.707421,514.1326 118.40776,514.1326 C118.1081,514.1326 117.865177,513.889678 117.865177,513.590017 L117.865177,509.695717 L116.957161,510.757717 C116.762421,510.985482 116.419928,511.012289 116.192122,510.817598 Z" id="Upload"></path>
        </g>
    </g>
</svg>