<?xml version="1.0" encoding="UTF-8"?>
<svg width="18px" height="13px" viewBox="0 0 18 13" version="1.1" xmlns="http://www.w3.org/2000/svg" xmlns:xlink="http://www.w3.org/1999/xlink">
    <!-- Generator: Sketch 54 (76480) - https://sketchapp.com -->
    <title>Usage Report</title>
    <desc>Created with Sketch.</desc>
    <g id="Admin" stroke="none" stroke-width="1" fill="none" fill-rule="evenodd">
        <g id="admin-edit-FAQ--2-V2" transform="translate(-12.000000, -166.000000)" fill="#FFFFFF">
            <g id="Group-7" transform="translate(0.000000, 150.000000)">
                <g id="Group-6-Copy-2">
                    <g id="Group-82">
                        <path d="M30,28.4086873 C30,28.7354187 29.7313702,29 29.3996394,29 L12.6003606,29 C12.2686298,29 12,28.7354187 12,28.4086873 L12,16.5895369 C12,16.2628056 12.2686298,16 12.6003606,16 C12.9320913,16 13.2007212,16.2628056 13.2007212,16.5895369 L13.2007212,27.8173747 L29.3996394,27.8173747 C29.7313702,27.8173747 30,28.081956 30,28.4086873 Z M15,26.6365251 C15.3317308,26.6365251 15.6003606,26.3719437 15.6003606,26.0452124 L15.6003606,23.6817375 C15.6003606,23.3550061 15.3317308,23.0906024 15,23.0906024 C14.6682692,23.0906024 14.3996394,23.3550061 14.3996394,23.6817375 L14.3996394,26.0452124 C14.3996394,26.3719437 14.6682692,26.6365251 15,26.6365251 Z M17.3996394,26.6365251 C17.7313702,26.6365251 18,26.3719437 18,26.0452124 L18,21.9077995 C18,21.5828439 17.7313702,21.3182625 17.3996394,21.3182625 C17.0679087,21.3182625 16.7992788,21.5828439 16.7992788,21.9077995 L16.7992788,26.0452124 C16.7992788,26.3719437 17.0679087,26.6365251 17.3996394,26.6365251 Z M19.7992788,26.6365251 C20.1310096,26.6365251 20.3996394,26.3719437 20.3996394,26.0452124 L20.3996394,16.5895369 C20.3996394,16.2628056 20.1310096,16 19.7992788,16 C19.469351,16 19.1989183,16.2628056 19.1989183,16.5895369 L19.1989183,26.0452124 C19.1989183,26.3719437 19.469351,26.6365251 19.7992788,26.6365251 Z M22.1989183,26.6365251 C22.530649,26.6365251 22.7992788,26.3719437 22.7992788,26.0452124 L22.7992788,19.5443245 C22.7992788,19.2175932 22.530649,18.9530119 22.1989183,18.9530119 C21.8689904,18.9530119 21.6003606,19.2175932 21.6003606,19.5443245 L21.6003606,26.0452124 C21.6003606,26.3719437 21.8689904,26.6365251 22.1989183,26.6365251 Z M24.6003606,26.6365251 C24.9302885,26.6365251 25.1989183,26.3719437 25.1989183,26.0452124 L25.1989183,17.7721623 C25.1989183,17.445431 24.9302885,17.1808496 24.6003606,17.1808496 C24.2686298,17.1808496 24,17.445431 24,17.7721623 L24,26.0452124 C24,26.3719437 24.2686298,26.6365251 24.6003606,26.6365251 Z M27,26.6365251 C27.3317308,26.6365251 27.6003606,26.3719437 27.6003606,26.0452124 L27.6003606,22.4991121 C27.6003606,22.1723808 27.3317308,21.9077995 27,21.9077995 C26.6682692,21.9077995 26.3996394,22.1723808 26.3996394,22.4991121 L26.3996394,26.0452124 C26.3996394,26.3719437 26.6682692,26.6365251 27,26.6365251 L27,26.6365251 Z" id="Usage-Report"></path>
                    </g>
                </g>
            </g>
        </g>
    </g>
</svg>