<?xml version="1.0" encoding="UTF-8"?>
<svg width="9px" height="19px" viewBox="0 0 9 19" version="1.1" xmlns="http://www.w3.org/2000/svg" xmlns:xlink="http://www.w3.org/1999/xlink">
    <!-- Generator: Sketch 54 (76480) - https://sketchapp.com -->
    <title>User Manual</title>
    <desc>Created with Sketch.</desc>
    <g id="Page-1" stroke="none" stroke-width="1" fill="none" fill-rule="evenodd">
        <g id="Icons-Used" transform="translate(-615.000000, -366.000000)" fill="#FFFFFF" fill-rule="nonzero">
            <g id="Group-90" transform="translate(595.637178, 352.125000)">
                <path d="M26.0192308,15.8819337 C26.0192308,16.4274245 25.8223041,16.8791523 25.4284449,17.2371306 C25.0345856,17.5951089 24.566659,17.7740954 24.0246508,17.7740954 C23.4754159,17.7740954 23.0038759,17.5882904 22.6100167,17.2166748 C22.2161574,16.8450592 22.0192308,16.40015 22.0192308,15.8819337 C22.0192308,15.3705361 22.2161574,14.9290362 22.6100167,14.5574206 C23.0038759,14.185805 23.4754159,14 24.0246508,14 C24.566659,14 25.0345856,14.185805 25.4284449,14.5574206 C25.8223041,14.9290362 26.0192308,15.3705361 26.0192308,15.8819337 Z M28,29.3776055 L28,32 L20.0384615,32 L20.0384615,29.3776055 L22.323634,29.3776055 L22.323634,21.7472861 L20.0384615,21.7472861 L20,19.0341562 L25.7334953,19.0341562 L25.7719569,29.3776055 L28,29.3776055 Z" id="User-Manual"></path>
            </g>
        </g>
    </g>
</svg>