<?xml version="1.0" encoding="UTF-8"?>
<svg width="21px" height="15px" viewBox="0 0 21 15" version="1.1" xmlns="http://www.w3.org/2000/svg" xmlns:xlink="http://www.w3.org/1999/xlink">
    <!-- Generator: Sketch 54 (76480) - https://sketchapp.com -->
    <title>Users</title>
    <desc>Created with Sketch.</desc>
    <g id="Page-1" stroke="none" stroke-width="1" fill="none" fill-rule="evenodd">
        <g id="Icons-Used" transform="translate(-108.000000, -367.000000)" fill="#FFFFFF" fill-rule="nonzero">
            <path d="M111.349466,377.661573 C110.136289,377.661573 109.149368,376.674651 109.149368,375.461475 C109.149368,374.248298 110.136485,373.261573 111.349466,373.261573 C112.562446,373.261573 113.549367,374.248298 113.549367,375.461475 C113.549367,376.674651 112.562642,377.661573 111.349466,377.661573 Z M111.349466,374.187217 C110.646738,374.187217 110.075208,374.758944 110.075208,375.461475 C110.075208,376.164005 110.646738,376.735732 111.349466,376.735732 C112.052193,376.735732 112.623724,376.164202 112.623724,375.461475 C112.623724,374.758747 112.052193,374.187217 111.349466,374.187217 Z M109.147309,381.358425 L109.147309,381.58012 L108.068806,381.58012 L108.068806,381.358425 C108.068806,379.662654 109.448394,378.283066 111.144165,378.283295 L112.231889,378.283295 C112.32798,378.283295 112.422927,378.2881 112.51673,378.297022 C112.785783,378.322875 112.996268,378.558755 112.996268,378.833757 C112.996268,378.984528 112.935182,379.123631 112.824677,379.225441 C112.711199,379.329768 112.556081,379.382161 112.399819,379.368662 C112.344453,379.363858 112.2884,379.36157 112.231889,379.36157 L111.144165,379.36157 C110.043012,379.36157 109.147309,380.257272 109.147309,381.358425 Z M113.011093,381.58012 L113.011665,381.58012 L113.011665,379.920554 C113.011665,378.98653 113.317954,378.100837 113.897644,377.35928 C114.696684,376.337173 115.893528,375.750905 117.181315,375.750905 L119.783484,375.750905 C120.593964,375.750905 121.382136,375.986842 122.062778,376.433263 C123.246467,377.209424 123.953134,378.513226 123.953134,379.920554 L123.953134,381.58012 L122.605004,381.58012 L122.605004,379.920554 C122.605004,378.3648 121.338952,377.099034 119.783198,377.099034 L117.181029,377.099034 C115.624989,377.099034 114.359223,378.3648 114.359223,379.920554 L114.359223,381.58012 L113.011093,381.58012 Z M125.761424,378.283066 C127.457196,378.283066 128.836783,379.662654 128.836783,381.358425 L128.836783,381.58012 L127.75828,381.58012 L127.75828,381.358425 C127.75828,380.257272 126.862577,379.36157 125.761424,379.36157 L124.6737,379.36157 C124.636865,379.36157 124.600259,379.362485 124.563882,379.364773 C124.416543,379.373238 124.274924,379.322218 124.166707,379.220408 C124.059177,379.119055 123.997633,378.976063 123.997633,378.827809 C123.997633,378.540681 124.225506,378.303428 124.516294,378.287413 C124.568458,378.284668 124.62085,378.283066 124.6737,378.283066 L125.761424,378.283066 Z M125.40159,377.661376 C124.188664,377.661376 123.201591,376.674499 123.201591,375.461376 C123.201591,374.248254 124.188468,373.261573 125.40159,373.261573 C126.614713,373.261573 127.60159,374.248254 127.60159,375.461376 C127.60159,376.674499 126.614713,377.661376 125.40159,377.661376 Z M125.40159,374.187175 C124.699091,374.187175 124.12739,374.758877 124.12739,375.461376 C124.12739,376.163876 124.699091,376.735577 125.40159,376.735577 C126.10409,376.735577 126.675791,376.164072 126.675791,375.461376 C126.675791,374.75868 126.104286,374.187175 125.40159,374.187175 Z M118.481971,375.219833 C116.400389,375.219833 114.706994,373.52617 114.706994,371.444856 C114.706994,369.363274 116.400389,367.66988 118.481971,367.66988 C120.563552,367.66988 122.256947,369.363274 122.256947,371.444856 C122.256947,373.526438 120.563284,375.219833 118.481971,375.219833 Z M118.481971,368.932492 C117.096661,368.932492 115.969606,370.059546 115.969606,371.444856 C115.969606,372.829898 117.096661,373.956953 118.481971,373.956953 C119.867013,373.956953 120.994067,372.829898 120.994067,371.444856 C120.994067,370.059546 119.867013,368.932492 118.481971,368.932492 Z" id="Users"></path>
        </g>
    </g>
</svg>