<?xml version="1.0" encoding="UTF-8"?>
<svg width="38px" height="38px" viewBox="0 0 38 38" version="1.1" xmlns="http://www.w3.org/2000/svg" xmlns:xlink="http://www.w3.org/1999/xlink">
    <!-- Generator: Sketch 54 (76480) - https://sketchapp.com -->
    <title>View-hidden-active</title>
    <desc>Created with Sketch.</desc>
    <g id="Page-1" stroke="none" stroke-width="1" fill="none" fill-rule="evenodd">
        <g id="Icons-Used" transform="translate(-1423.000000, -124.000000)" fill="#000000">
            <path d="M1453.78631,142.765541 C1453.86937,142.891896 1453.89628,143.03463 1453.89839,143.177131 C1453.91009,143.345604 1453.87943,143.516417 1453.77695,143.668511 C1451.61932,146.825044 1447.47347,150.199423 1442.30813,150.199423 C1436.62263,150.199423 1432.40892,146.059895 1430.81521,143.614693 C1430.73215,143.488338 1430.70524,143.345604 1430.70313,143.202869 C1430.69167,143.03463 1430.72209,142.863583 1430.82481,142.711489 C1432.9822,139.554956 1437.12828,136.180811 1442.29409,136.180811 C1447.97983,136.180811 1452.19306,140.320105 1453.78631,142.765541 Z M1442.30813,148.640811 C1446.64702,148.640811 1450.19549,145.903121 1452.19494,143.20053 C1450.59725,140.996338 1447.0076,137.739423 1442.29409,137.739423 C1437.95474,137.739423 1434.40603,140.476879 1432.40658,143.179704 C1434.00451,145.383662 1437.59462,148.640811 1442.30813,148.640811 Z M1442.23185,139.295226 C1444.37871,139.295226 1446.12545,141.043136 1446.12545,143.18883 C1446.12545,145.336864 1444.37871,147.082434 1442.23185,147.082434 C1440.08522,147.082434 1438.33848,145.336864 1438.33848,143.18883 C1438.33848,141.043136 1440.08522,139.295226 1442.23185,139.295226 Z M1442.23185,145.526396 C1443.5202,145.526396 1444.56801,144.478118 1444.56801,143.18883 C1444.56801,141.902116 1443.5202,140.853604 1442.23185,140.853604 C1440.94373,140.853604 1439.89592,141.902116 1439.89592,143.18883 C1439.89592,144.478118 1440.94373,145.526396 1442.23185,145.526396 Z M1442.23185,126.058611 C1432.78565,126.058611 1425.10046,133.742629 1425.10046,143.18883 C1425.10046,152.635031 1432.78565,160.321623 1442.23185,160.321623 C1451.67828,160.321623 1459.36347,152.635031 1459.36347,143.18883 C1459.36347,133.742629 1451.67828,126.058611 1442.23185,126.058611 Z M1442.23185,124.5 C1452.55364,124.5 1460.92091,132.867504 1460.92091,143.18883 C1460.92091,153.512496 1452.55364,161.88 1442.23185,161.88 C1431.91052,161.88 1423.54302,153.512496 1423.54302,143.18883 C1423.54302,132.867504 1431.91052,124.5 1442.23185,124.5 Z" id="View-hidden-active"></path>
        </g>
    </g>
</svg>