<?xml version="1.0" encoding="UTF-8"?>
<svg width="11px" height="11px" viewBox="0 0 11 11" version="1.1" xmlns="http://www.w3.org/2000/svg" xmlns:xlink="http://www.w3.org/1999/xlink">
    <!-- Generator: Sketch 58 (84663) - https://sketch.com -->
    <title>view-history</title>
    <desc>Created with Sketch.</desc>
    <g id="Page-1" stroke="none" stroke-width="1" fill="none" fill-rule="evenodd">
        <path d="M0.90136199,8.82857291 L1.85969532,8.82857291 C1.23469532,7.99523957 0.90136199,6.95357291 0.90136199,5.91190624 C0.90136199,3.16190624 3.15136199,0.91190624 5.90136199,0.91190624 C8.65136199,0.91190624 10.901362,3.16190624 10.901362,5.91190624 C10.901362,8.66190624 8.65136199,10.9119062 5.90136199,10.9119062 C5.65136199,10.9119062 5.48469532,10.7452396 5.48469532,10.4952396 C5.48469532,10.2452396 5.65136199,10.0785729 5.90136199,10.0785729 C8.19302866,10.0785729 10.0680287,8.20357291 10.0680287,5.91190624 C10.0680287,3.62023957 8.19302866,1.74523957 5.90136199,1.74523957 C3.60969532,1.74523957 1.73469532,3.62023957 1.73469532,5.91190624 C1.73469532,6.82857291 2.02636199,7.70357291 2.56802866,8.41190624 L2.56802866,7.16190624 C2.56802866,6.91190624 2.73469532,6.74523957 2.98469532,6.74523957 C3.23469532,6.74523957 3.40136199,6.91190624 3.40136199,7.16190624 L3.40136199,9.24523957 C3.40136199,9.49523957 3.23469532,9.66190624 2.98469532,9.66190624 L0.90136199,9.66190624 C0.65136199,9.66190624 0.484695324,9.49523957 0.484695324,9.24523957 C0.484695324,8.99523957 0.65136199,8.82857291 0.90136199,8.82857291 Z M6.85969532,4.78690624 L5.90136199,5.74523957 L4.23469532,4.07857291 C4.06802866,3.91190624 3.81802866,3.91190624 3.65136199,4.07857291 C3.48469532,4.24523957 3.48469532,4.49523957 3.65136199,4.66190624 L5.60969532,6.62023957 C5.69302866,6.70357291 5.81802866,6.74523957 5.90136199,6.74523957 C5.98469532,6.74523957 6.10969532,6.70357291 6.19302866,6.62023957 L7.44302866,5.37023957 C7.60969532,5.20357291 7.60969532,4.95357291 7.44302866,4.78690624 C7.27636199,4.62023957 7.02636199,4.62023957 6.85969532,4.78690624 Z" id="view-history" fill="#AAAAAA"></path>
    </g>
</svg>