<?xml version="1.0" encoding="UTF-8"?>
<svg width="14px" height="12px" viewBox="0 0 14 12" version="1.1" xmlns="http://www.w3.org/2000/svg" xmlns:xlink="http://www.w3.org/1999/xlink">
    <!-- Generator: Sketch 58 (84663) - https://sketch.com -->
    <title>view-comment</title>
    <desc>Created with Sketch.</desc>
    <g id="Page-1" stroke="none" stroke-width="1" fill="none" fill-rule="evenodd">
        <path d="M12.7030424,3.72170382 C12.9452282,3.72170382 13.1412145,3.91782171 13.1412145,4.16000755 L13.1412145,4.16000755 L13.1412145,9.41570362 C13.1412145,9.65788946 12.9452282,9.85400734 12.7030424,9.85400734 L12.7030424,9.85400734 L11.3893158,9.85400734 L11.3893158,11.1689185 C11.3893158,11.345293 11.2827014,11.5058727 11.118173,11.5730003 C11.0642076,11.5953762 11.0076099,11.605906 10.9510121,11.605906 C10.8365003,11.605906 10.724621,11.5624705 10.6416986,11.478232 L10.6416986,11.478232 L9.01747401,9.85400734 L5.69531602,9.85400734 C5.4532618,9.85400734 5.25701229,9.65788946 5.25701229,9.41570362 L5.25701229,9.41570362 L5.25701229,6.7885137 C5.25701229,6.54645948 5.4532618,6.35020997 5.69531602,6.35020997 C5.93631726,6.35020997 6.13230352,6.54645948 6.13230352,6.7885137 L6.13230352,6.7885137 L6.13230352,8.97884774 L9.19911339,8.97884774 C9.31494141,8.97884774 9.42682074,9.02478407 9.50842684,9.10639017 L9.50842684,9.10639017 L10.5127084,10.1106717 L10.5127084,9.41570362 C10.5127084,9.17351777 10.7088262,8.97884774 10.9510121,8.97884774 L10.9510121,8.97884774 L12.2647387,8.97884774 L12.2647387,4.59831128 L9.19911339,4.59831128 C8.95692755,4.59831128 8.76080966,4.4021934 8.76080966,4.16000755 C8.76080966,3.91782171 8.95692755,3.72170382 9.19911339,3.72170382 L9.19911339,3.72170382 Z M7.44721471,0.217906449 C7.68808432,0.217906449 7.88420221,0.414155957 7.88420221,0.656210178 L7.88420221,0.656210178 L7.88420221,5.03529878 C7.88420221,5.27748463 7.68808432,5.47360251 7.44721471,5.47360251 L7.44721471,5.47360251 L3.68543676,5.47360251 L2.06252836,7.09782714 C1.9782898,7.18206569 1.86641047,7.22563282 1.75189869,7.22563282 C1.69530091,7.22563282 1.63870313,7.21497138 1.58473781,7.19272714 C1.42165723,7.12546792 1.31491119,6.96488817 1.31491119,6.7885137 L1.31491119,6.7885137 L1.31491119,5.47360251 L0.438303729,5.47360251 C0.196117885,5.47360251 9.05941988e-13,5.27748463 9.05941988e-13,5.03529878 L9.05941988e-13,5.03529878 L9.05941988e-13,0.656210178 C9.05941988e-13,0.414155957 0.196117885,0.217906449 0.438303729,0.217906449 L0.438303729,0.217906449 Z M7.00891098,1.09319768 L0.876607457,1.09319768 L0.876607457,4.59831128 L1.75189869,4.59831128 C1.99408453,4.59831128 2.19020242,4.79442917 2.19020242,5.03529878 L2.19020242,5.03529878 L2.19020242,5.73026686 L3.19448393,4.72598534 C3.27740626,4.64437924 3.38796936,4.59831128 3.5051136,4.59831128 L3.5051136,4.59831128 L7.00891098,4.59831128 L7.00891098,1.09319768 Z" id="view-comment" fill="#AAAAAA"></path>
    </g>
</svg>