<?xml version="1.0" encoding="UTF-8"?>
<svg width="15px" height="14px" viewBox="0 0 15 14" version="1.1" xmlns="http://www.w3.org/2000/svg" xmlns:xlink="http://www.w3.org/1999/xlink">
    <!-- Generator: Sketch 54 (76480) - https://sketchapp.com -->
    <title>View more</title>
    <desc>Created with Sketch.</desc>
    <g id="Page-1" stroke="none" stroke-width="1" fill="none" fill-rule="evenodd">
        <g id="Icons-Used" transform="translate(-1129.000000, -521.000000)" fill="#000000" fill-rule="nonzero">
            <path d="M1137.08916,527.5 L1139.03874,527.5 C1139.26564,527.5 1139.44958,527.723858 1139.44958,528 C1139.44958,528.276142 1139.26564,528.5 1139.03874,528.5 L1137.08916,528.5 L1137.08916,530.449577 C1137.08916,530.676477 1136.8653,530.860417 1136.58916,530.860417 C1136.31302,530.860417 1136.08916,530.676477 1136.08916,530.449577 L1136.08916,528.5 L1134.13958,528.5 C1133.91268,528.5 1133.72874,528.276142 1133.72874,528 C1133.72874,527.723858 1133.91268,527.5 1134.13958,527.5 L1136.08916,527.5 L1136.08916,525.550423 C1136.08916,525.323523 1136.31302,525.139583 1136.58916,525.139583 C1136.8653,525.139583 1137.08916,525.323523 1137.08916,525.550423 L1137.08916,527.5 Z M1136.49998,521.90524 C1133.13963,521.90524 1130.40524,524.639632 1130.40524,527.999978 C1130.40524,531.360324 1133.13963,534.093883 1136.49998,534.093883 C1139.86032,534.093883 1142.59388,531.360324 1142.59388,527.999978 C1142.59388,524.639632 1139.86032,521.90524 1136.49998,521.90524 Z M1136.5,521 C1140.36591,521 1143.5,524.134093 1143.5,528 C1143.5,531.865907 1140.36591,535 1136.5,535 C1132.63409,535 1129.5,531.865907 1129.5,528 C1129.5,524.134093 1132.63409,521 1136.5,521 Z" id="View-more"></path>
        </g>
    </g>
</svg>