<?xml version="1.0" encoding="UTF-8"?>
<svg width="14px" height="14px" viewBox="0 0 14 14" version="1.1" xmlns="http://www.w3.org/2000/svg" xmlns:xlink="http://www.w3.org/1999/xlink">
    <!-- Generator: Sketch 54 (76480) - https://sketchapp.com -->
    <title>View less</title>
    <desc>Created with Sketch.</desc>
    <g id="Page-1" stroke="none" stroke-width="1" fill="none" fill-rule="evenodd">
        <g id="Icons-Used" transform="translate(-1160.000000, -521.000000)" fill="#000000" fill-rule="nonzero">
            <path d="M1164.63958,528.5 C1164.41268,528.5 1164.22874,528.276142 1164.22874,528 C1164.22874,527.723858 1164.41268,527.5 1164.63958,527.5 L1169.53874,527.5 C1169.76564,527.5 1169.94958,527.723858 1169.94958,528 C1169.94958,528.276142 1169.76564,528.5 1169.53874,528.5 L1164.63958,528.5 Z M1166.99998,521.90524 C1163.63963,521.90524 1160.90524,524.639632 1160.90524,527.999978 C1160.90524,531.360324 1163.63963,534.093883 1166.99998,534.093883 C1170.36032,534.093883 1173.09388,531.360324 1173.09388,527.999978 C1173.09388,524.639632 1170.36032,521.90524 1166.99998,521.90524 Z M1167,521 C1170.86591,521 1174,524.134093 1174,528 C1174,531.865907 1170.86591,535 1167,535 C1163.13409,535 1160,531.865907 1160,528 C1160,524.134093 1163.13409,521 1167,521 Z" id="View-less"></path>
        </g>
    </g>
</svg>