<?xml version="1.0" encoding="UTF-8"?>
<svg width="23px" height="16px" viewBox="0 0 23 16" version="1.1" xmlns="http://www.w3.org/2000/svg" xmlns:xlink="http://www.w3.org/1999/xlink">
    <!-- Generator: Sketch 54 (76480) - https://sketchapp.com -->
    <title>What’s new</title>
    <desc>Created with Sketch.</desc>
    <g id="Admin" stroke="none" stroke-width="1" fill="none" fill-rule="evenodd">
        <g id="admin-edit-FAQ--2-V2" transform="translate(-37.000000, -436.000000)" fill="#FFFFFF" fill-rule="nonzero">
            <g id="Group-7" transform="translate(0.000000, 150.000000)">
                <g id="Group-32" transform="translate(37.000000, 150.000000)">
                    <path d="M13.0350953,137.966658 C12.958533,137.748523 12.8054085,137.6031 12.5757217,137.457677 C12.3460349,137.384965 12.1163481,137.384965 11.8866614,137.530389 L0.40232198,144.074434 C0.0960729298,144.219857 -0.0570515952,144.583415 0.0195106673,144.874262 L1.01482008,148.509842 C1.09138234,148.800689 1.39763139,149.091535 1.7804427,149.091535 L5.37886904,149.091535 C5.37886904,149.091535 5.37886904,149.091535 5.37886904,149.091535 C5.37886904,150.691191 6.75698977,152 8.44135954,152 C10.1257293,152 11.50385,150.691191 11.50385,149.091535 C11.50385,149.091535 11.50385,149.091535 11.50385,149.091535 L15.3319632,149.091535 L15.3319632,149.091535 C15.56165,149.091535 15.7913367,149.018824 15.9444613,148.800689 C16.0975858,148.655266 16.0975858,148.364419 16.0975858,148.146284 L13.0350953,137.966658 Z M9.97260479,149.091535 C9.97260479,149.891363 9.28354443,150.545768 8.44135954,150.545768 C7.59917465,150.545768 6.91011429,149.891363 6.91011429,149.091535 C6.91011429,149.091535 6.91011429,149.091535 6.91011429,149.091535 L9.97260479,149.091535 C9.97260479,149.091535 9.97260479,149.091535 9.97260479,149.091535 Z M2.3929408,147.637303 L1.70388044,145.092397 L11.8100991,139.348179 L14.3366538,147.637303 L2.3929408,147.637303 Z M17.0928952,143.274606 C17.0163329,143.274606 16.9397707,143.274606 16.8632084,143.274606 C16.5569594,143.274606 16.2507103,143.056471 16.0975858,142.765625 C15.9444613,142.402067 16.2507103,141.965797 16.6335216,141.893086 L21.99288,140.438853 C22.3756913,140.366142 22.8350649,140.584276 22.9116272,140.947835 C23.0647517,141.311393 22.7585026,141.747662 22.3756913,141.820374 L17.0928952,143.274606 Z M14.7194651,140.075295 C14.4897783,139.784449 14.4897783,139.275467 14.8725896,139.057333 L18.7007027,136.148868 C19.0069518,135.930733 19.5428876,135.930733 19.7725744,136.294291 C20.0022612,136.585138 20.0022612,137.094119 19.6194499,137.312254 L15.7913367,140.220718 C15.6382122,140.29343 15.4850877,140.366142 15.3319632,140.366142 C15.1022764,140.366142 14.8725896,140.29343 14.7194651,140.075295 Z M22.9881894,147.05561 C22.9116272,147.419168 22.6053781,147.637303 22.2225668,147.637303 C22.1460045,147.637303 22.1460045,147.637303 22.0694423,147.637303 L17.4757065,146.910187 C17.0928952,146.837475 16.7866462,146.473917 16.8632084,146.037648 C16.9397707,145.601378 17.322582,145.383243 17.7819556,145.455955 L22.3756913,146.183071 C22.7585026,146.255782 23.0647517,146.61934 22.9881894,147.05561 Z" id="What’s-new"></path>
                </g>
            </g>
        </g>
    </g>
</svg>