<?xml version="1.0" encoding="UTF-8"?>
<svg width="21px" height="20px" viewBox="0 0 21 20" version="1.1" xmlns="http://www.w3.org/2000/svg" xmlns:xlink="http://www.w3.org/1999/xlink">
    <!-- Generator: sketchtool 54 (76480) - https://sketchapp.com -->
    <title>6269AE66-75F0-4800-A9C7-81986721A325</title>
    <desc>Created with sketchtool.</desc>
    <g id="Upload-Excel" stroke="none" stroke-width="1" fill="none" fill-rule="evenodd">
        <g id="Upload-Excel_" transform="translate(-579.000000, -16.000000)" fill="#FFFFFF">
            <g id="Top-Nav---Project-Setup">
                <g id="Group-47">
                    <path d="M582.512402,35.9375 C581.713356,35.9375 580.963689,35.6277574 580.39897,35.0621404 C579.8347,34.498768 579.524059,33.7468565 579.524059,32.9500548 C579.524059,32.1510087 579.8347,31.4015662 580.39897,30.8379693 L587.744359,23.4916823 C587.201187,21.4469321 587.782516,19.2293545 589.286339,17.7232871 C589.609548,17.4000774 589.984382,17.1082909 590.399616,16.8542121 C591.941596,15.9103949 593.804541,15.7171425 595.514859,16.3231606 C595.757266,16.4086765 595.936827,16.6127027 595.99294,16.8613946 C596.051297,17.1127799 595.974984,17.3731432 595.793178,17.5549487 L593.059363,20.288764 C593.360127,20.6882871 593.687826,21.0678341 594.040214,21.4199979 C594.394847,21.7746308 594.77417,22.1023295 595.173693,22.4008496 L597.905264,19.6692788 C598.087069,19.4874733 598.347433,19.4111599 598.598818,19.4672727 C598.847959,19.5233855 599.052209,19.705191 599.137501,19.9453537 C599.745763,21.6556717 599.552735,23.5186164 598.607796,25.0628405 C598.356411,25.4758307 598.06238,25.8484196 597.73917,26.1738739 C596.233102,27.6801657 594.015525,28.2612698 591.970775,27.7158534 L584.624488,35.0621404 C584.061115,35.6277574 583.309204,35.9375 582.512402,35.9375 Z M593.508265,17.4696573 C592.695752,17.4696573 591.889972,17.6920884 591.178462,18.1272992 C590.859741,18.3225717 590.585911,18.5358003 590.343504,18.7782076 C589.129223,19.9924885 588.718477,21.8262546 589.295317,23.4512811 C589.391831,23.722867 589.324495,24.0258761 589.120245,24.2301267 L581.455237,31.8928898 C581.172429,32.1756983 581.017557,32.5505318 581.017557,32.9500548 C581.017557,33.3495779 581.172429,33.7244114 581.455237,34.0049754 C582.020854,34.5705923 583.00395,34.5705923 583.567323,34.0049754 L591.23233,26.3422122 C591.436581,26.1379617 591.73959,26.0683818 592.011176,26.1651203 C593.633958,26.7442043 595.467724,26.3309897 596.682005,25.1167088 C596.924412,24.8765461 597.14213,24.5959821 597.332913,24.283995 C597.332913,24.283995 597.332913,24.283995 597.332913,24.2817504 C597.815483,23.4961713 598.035445,22.5983666 597.983822,21.7028064 L595.7842,23.902428 C595.532815,24.1538133 595.140025,24.1942145 594.84375,23.9966974 C594.17713,23.5567731 593.553155,23.0450245 592.985294,22.477163 C592.419677,21.911546 591.907928,21.2853272 591.465759,20.6187072 C591.268242,20.3224317 591.308644,19.9273976 591.560029,19.6782568 L593.75965,17.4766152 C593.674359,17.4719018 593.591312,17.4696573 593.508265,17.4696573 L593.508265,17.4696573 Z" id="Fill-1480"></path>
                </g>
            </g>
        </g>
    </g>
</svg>