<?xml version="1.0" encoding="UTF-8"?>
<svg width="16px" height="13px" viewBox="0 0 16 13" version="1.1" xmlns="http://www.w3.org/2000/svg" xmlns:xlink="http://www.w3.org/1999/xlink">
    <!-- Generator: Sketch 55.2 (78181) - https://sketchapp.com -->
    <title>Align left inactive</title>
    <desc>Created with Sketch.</desc>
    <g id="Page-1" stroke="none" stroke-width="1" fill="none" fill-rule="evenodd">
        <g id="Editor-Tab" transform="translate(-1014.000000, -356.000000)" fill="#D0D0CE">
            <path d="M1015.19343,363.016154 C1014.93598,363.016154 1014.72727,362.80745 1014.72727,362.55 C1014.72727,362.29255 1014.93598,362.083846 1015.19343,362.083846 L1027.38612,362.083846 C1027.64357,362.083846 1027.85227,362.29255 1027.85227,362.55 C1027.85227,362.80745 1027.64357,363.016154 1027.38612,363.016154 L1015.19343,363.016154 Z M1015.19343,365.813077 C1014.93598,365.813077 1014.72727,365.604373 1014.72727,365.346923 C1014.72727,365.089473 1014.93598,364.880769 1015.19343,364.880769 L1029.26112,364.880769 C1029.51857,364.880769 1029.72727,365.089473 1029.72727,365.346923 C1029.72727,365.604373 1029.51857,365.813077 1029.26112,365.813077 L1015.19343,365.813077 Z M1015.19343,360.219231 C1014.93598,360.219231 1014.72727,360.010527 1014.72727,359.753077 C1014.72727,359.495627 1014.93598,359.286923 1015.19343,359.286923 L1029.26112,359.286923 C1029.51857,359.286923 1029.72727,359.495627 1029.72727,359.753077 C1029.72727,360.010527 1029.51857,360.219231 1029.26112,360.219231 L1015.19343,360.219231 Z M1015.19343,357.422308 C1014.93598,357.422308 1014.72727,357.213604 1014.72727,356.956154 C1014.72727,356.698704 1014.93598,356.49 1015.19343,356.49 L1027.38612,356.49 C1027.64357,356.49 1027.85227,356.698704 1027.85227,356.956154 C1027.85227,357.213604 1027.64357,357.422308 1027.38612,357.422308 L1015.19343,357.422308 Z M1015.19343,368.61 C1014.93598,368.61 1014.72727,368.401296 1014.72727,368.143846 C1014.72727,367.886396 1014.93598,367.677692 1015.19343,367.677692 L1027.38612,367.677692 C1027.64357,367.677692 1027.85227,367.886396 1027.85227,368.143846 C1027.85227,368.401296 1027.64357,368.61 1027.38612,368.61 L1015.19343,368.61 Z" id="Align-left-inactive"></path>
        </g>
    </g>
</svg>