<?xml version="1.0" encoding="UTF-8"?>
<svg width="16px" height="13px" viewBox="0 0 16 13" version="1.1" xmlns="http://www.w3.org/2000/svg" xmlns:xlink="http://www.w3.org/1999/xlink">
    <!-- Generator: Sketch 55.2 (78181) - https://sketchapp.com -->
    <title>Align right inactive</title>
    <desc>Created with Sketch.</desc>
    <g id="Page-1" stroke="none" stroke-width="1" fill="none" fill-rule="evenodd">
        <g id="Editor-Tab" transform="translate(-1068.000000, -356.000000)" fill="#D0D0CE">
            <path d="M1071.06843,363.016154 C1070.81098,363.016154 1070.60227,362.80745 1070.60227,362.55 C1070.60227,362.29255 1070.81098,362.083846 1071.06843,362.083846 L1083.26112,362.083846 C1083.51857,362.083846 1083.72727,362.29255 1083.72727,362.55 C1083.72727,362.80745 1083.51857,363.016154 1083.26112,363.016154 L1071.06843,363.016154 Z M1069.19343,365.813077 C1068.93598,365.813077 1068.72727,365.604373 1068.72727,365.346923 C1068.72727,365.089473 1068.93598,364.880769 1069.19343,364.880769 L1083.26112,364.880769 C1083.51857,364.880769 1083.72727,365.089473 1083.72727,365.346923 C1083.72727,365.604373 1083.51857,365.813077 1083.26112,365.813077 L1069.19343,365.813077 Z M1069.19343,360.219231 C1068.93598,360.219231 1068.72727,360.010527 1068.72727,359.753077 C1068.72727,359.495627 1068.93598,359.286923 1069.19343,359.286923 L1083.26112,359.286923 C1083.51857,359.286923 1083.72727,359.495627 1083.72727,359.753077 C1083.72727,360.010527 1083.51857,360.219231 1083.26112,360.219231 L1069.19343,360.219231 Z M1071.06843,357.422308 C1070.81098,357.422308 1070.60227,357.213604 1070.60227,356.956154 C1070.60227,356.698704 1070.81098,356.49 1071.06843,356.49 L1083.26112,356.49 C1083.51857,356.49 1083.72727,356.698704 1083.72727,356.956154 C1083.72727,357.213604 1083.51857,357.422308 1083.26112,357.422308 L1071.06843,357.422308 Z M1071.06843,368.61 C1070.81098,368.61 1070.60227,368.401296 1070.60227,368.143846 C1070.60227,367.886396 1070.81098,367.677692 1071.06843,367.677692 L1083.26112,367.677692 C1083.51857,367.677692 1083.72727,367.886396 1083.72727,368.143846 C1083.72727,368.401296 1083.51857,368.61 1083.26112,368.61 L1071.06843,368.61 Z" id="Align-right-inactive"></path>
        </g>
    </g>
</svg>