<?xml version="1.0" encoding="UTF-8"?>
<svg width="38px" height="38px" viewBox="0 0 38 38" version="1.1" xmlns="http://www.w3.org/2000/svg" xmlns:xlink="http://www.w3.org/1999/xlink">
    <!-- Generator: Sketch 55.2 (78181) - https://sketchapp.com -->
    <title>Attributes inactive</title>
    <desc>Created with Sketch.</desc>
    <g id="Page-1" stroke="none" stroke-width="1" fill="none" fill-rule="evenodd">
        <g id="Editor-Tab" transform="translate(-305.000000, -309.000000)" fill="#D0D0CE">
            <path d="M324,310.581946 C314.396519,310.581946 306.581946,318.396519 306.581946,328 C306.581946,337.603481 314.396519,345.415675 324,345.415675 C333.603481,345.415675 341.415675,337.603481 341.415675,328 C341.415675,318.396519 333.603481,310.581946 324,310.581946 Z M324,309 C334.493176,309 343,317.506824 343,328 C343,338.493176 334.493176,347 324,347 C313.506824,347 305,338.493176 305,328 C305,317.506824 313.506824,309 324,309 Z M331.722457,319.639684 C332.109082,319.639684 332.422165,319.952977 332.422165,320.339392 L332.422165,335.722455 C332.422165,336.109081 332.109082,336.422163 331.722457,336.422163 L316.339394,336.422163 C315.952768,336.422163 315.639686,336.109081 315.639686,335.722455 L315.639686,320.339392 C315.639686,319.952977 315.952768,319.639684 316.339394,319.639684 L331.722457,319.639684 Z M317.036357,335.027562 L331.025494,335.027562 L331.025494,321.036322 L317.036357,321.036322 L317.036357,335.027562 Z M325.600498,324.37145 C325.600498,323.800817 326.063846,323.335914 326.634479,323.335914 C327.206667,323.335914 327.670015,323.800817 327.670015,324.37145 C327.670015,324.942084 327.206667,325.405432 326.634479,325.405432 C326.063846,325.405432 325.600498,324.942084 325.600498,324.37145 Z M325.595794,328.072377 C325.595794,327.500291 326.060195,327.034332 326.632126,327.034332 C327.205614,327.034332 327.670015,327.500291 327.670015,328.072377 C327.670015,328.642593 327.205614,329.108553 326.632126,329.108553 C326.060195,329.108553 325.595794,328.642593 325.595794,328.072377 Z M325.595794,331.773784 C325.595794,331.20201 326.060195,330.737453 326.632126,330.737453 C327.205614,330.737453 327.670015,331.20201 327.670015,331.773784 C327.670015,332.345714 327.205614,332.811674 326.632126,332.811674 C326.060195,332.811674 325.595794,332.345714 325.595794,331.773784 Z M320.297769,331.773784 C320.297769,331.20201 320.762049,330.737453 321.334022,330.737453 C321.907554,330.737453 322.37199,331.20201 322.37199,331.773784 C322.37199,332.345714 321.907554,332.811674 321.334022,332.811674 C320.762049,332.811674 320.297769,332.345714 320.297769,331.773784 Z M320.297769,328.072377 C320.297769,327.500291 320.762049,327.034332 321.334022,327.034332 C321.907554,327.034332 322.37199,327.500291 322.37199,328.072377 C322.37199,328.642593 321.907554,329.108553 321.334022,329.108553 C320.762049,329.108553 320.297769,328.642593 320.297769,328.072377 Z M320.297769,324.3691 C320.297769,323.79717 320.762049,323.331211 321.334022,323.331211 C321.907554,323.331211 322.37199,323.79717 322.37199,324.3691 C322.37199,324.941031 321.907554,325.405432 321.334022,325.405432 C320.762049,325.405432 320.297769,324.941031 320.297769,324.3691 Z" id="Attributes-inactive"></path>
        </g>
    </g>
</svg>