<?xml version="1.0" encoding="UTF-8"?>
<svg width="8px" height="11px" viewBox="0 0 8 11" version="1.1" xmlns="http://www.w3.org/2000/svg" xmlns:xlink="http://www.w3.org/1999/xlink">
    <!-- Generator: Sketch 55.2 (78181) - https://sketchapp.com -->
    <title>Bold inactive</title>
    <desc>Created with Sketch.</desc>
    <g id="Page-1" stroke="none" stroke-width="1" fill="none" fill-rule="evenodd">
        <g id="Editor-Tab" transform="translate(-720.000000, -358.000000)" fill="#D0D0CE" fill-rule="nonzero">
            <path d="M720.181818,358.51 L723.12001,358.51 C724.458885,358.51 725.430739,358.713794 726.0356,359.121389 C726.640462,359.528983 726.942888,360.177209 726.942888,361.066088 C726.942888,361.669419 726.81051,362.164512 726.545748,362.551382 C726.280987,362.938251 725.929053,363.17083 725.489936,363.249124 L725.489936,363.318208 C726.08834,363.460981 726.519916,363.728101 726.784678,364.119576 C727.049439,364.511051 727.181818,365.031474 727.181818,365.680862 C727.181818,366.601979 726.870782,367.32044 726.2487,367.836265 C725.626618,368.352091 724.781762,368.61 723.714106,368.61 L720.181818,368.61 L720.181818,358.51 Z M722.183663,362.509932 L723.346025,362.509932 C723.888463,362.509932 724.281294,362.420124 724.52453,362.240506 C724.767767,362.060888 724.889383,361.763832 724.889383,361.34933 C724.889383,360.96246 724.757004,360.684978 724.492243,360.516874 C724.227481,360.34877 723.80882,360.26472 723.236246,360.26472 L722.183663,360.26472 L722.183663,362.509932 Z M722.183663,364.209384 L722.183663,366.841464 L723.488091,366.841464 C724.03914,366.841464 724.445962,366.728629 724.708571,366.502955 C724.97118,366.277281 725.102482,365.931867 725.102482,365.466703 C725.102482,364.628486 724.542832,364.209384 723.423516,364.209384 L722.183663,364.209384 Z" id="Bold-inactive"></path>
        </g>
    </g>
</svg>