<?xml version="1.0" encoding="UTF-8"?>
<svg width="14px" height="12px" viewBox="0 0 14 12" version="1.1" xmlns="http://www.w3.org/2000/svg" xmlns:xlink="http://www.w3.org/1999/xlink">
    <!-- Generator: Sketch 55.2 (78181) - https://sketchapp.com -->
    <title>Bullets inactive</title>
    <desc>Created with Sketch.</desc>
    <g id="Page-1" stroke="none" stroke-width="1" fill="none" fill-rule="evenodd">
        <g id="Editor-Tab" transform="translate(-1014.000000, -323.000000)" fill="#D0D0CE">
            <path d="M1015.3039,325.109565 L1016.64916,325.109565 L1016.64916,323.73795 L1015.3039,323.73795 L1015.3039,325.109565 Z M1016.93747,325.697485 L1015.01558,325.697485 C1014.85644,325.697485 1014.72727,325.565791 1014.72727,325.403525 L1014.72727,323.44399 C1014.72727,323.281137 1014.85644,323.150031 1015.01558,323.150031 L1016.93747,323.150031 C1017.09662,323.150031 1017.22579,323.281137 1017.22579,323.44399 L1017.22579,325.403525 C1017.22579,325.565791 1017.09662,325.697485 1016.93747,325.697485 Z M1015.3039,329.400808 L1016.64916,329.400808 L1016.64916,328.029192 L1015.3039,328.029192 L1015.3039,329.400808 Z M1016.93747,329.988727 L1015.01558,329.988727 C1014.85644,329.988727 1014.72727,329.857033 1014.72727,329.694767 L1014.72727,327.735233 C1014.72727,327.572379 1014.85644,327.441273 1015.01558,327.441273 L1016.93747,327.441273 C1017.09662,327.441273 1017.22579,327.572379 1017.22579,327.735233 L1017.22579,329.694767 C1017.22579,329.857033 1017.09662,329.988727 1016.93747,329.988727 Z M1015.3039,333.682081 L1016.64916,333.682081 L1016.64916,332.310465 L1015.3039,332.310465 L1015.3039,333.682081 Z M1016.93747,334.27 L1015.01558,334.27 C1014.85644,334.27 1014.72727,334.138306 1014.72727,333.97604 L1014.72727,332.016506 C1014.72727,331.853652 1014.85644,331.722546 1015.01558,331.722546 L1016.93747,331.722546 C1017.09662,331.722546 1017.22579,331.853652 1017.22579,332.016506 L1017.22579,333.97604 C1017.22579,334.138306 1017.09662,334.27 1016.93747,334.27 Z M1019.62777,324.777788 C1019.40685,324.777788 1019.22777,324.598702 1019.22777,324.377788 C1019.22777,324.156874 1019.40685,323.977788 1019.62777,323.977788 L1027.55921,323.977788 C1027.78012,323.977788 1027.95921,324.156874 1027.95921,324.377788 C1027.95921,324.598702 1027.78012,324.777788 1027.55921,324.777788 L1019.62777,324.777788 Z M1019.62777,329.052776 C1019.40685,329.052776 1019.22777,328.87369 1019.22777,328.652776 C1019.22777,328.431862 1019.40685,328.252776 1019.62777,328.252776 L1027.55921,328.252776 C1027.78012,328.252776 1027.95921,328.431862 1027.95921,328.652776 C1027.95921,328.87369 1027.78012,329.052776 1027.55921,329.052776 L1019.62777,329.052776 Z M1019.62777,333.269147 C1019.40685,333.269147 1019.22777,333.090061 1019.22777,332.869147 C1019.22777,332.648233 1019.40685,332.469147 1019.62777,332.469147 L1027.55921,332.469147 C1027.78012,332.469147 1027.95921,332.648233 1027.95921,332.869147 C1027.95921,333.090061 1027.78012,333.269147 1027.55921,333.269147 L1019.62777,333.269147 Z" id="Bullets-inactive"></path>
        </g>
    </g>
</svg>