<?xml version="1.0" encoding="UTF-8"?>
<svg width="16px" height="13px" viewBox="0 0 16 13" version="1.1" xmlns="http://www.w3.org/2000/svg" xmlns:xlink="http://www.w3.org/1999/xlink">
    <!-- Generator: Sketch 55.2 (78181) - https://sketchapp.com -->
    <title>Center text inactive</title>
    <desc>Created with Sketch.</desc>
    <g id="Page-1" stroke="none" stroke-width="1" fill="none" fill-rule="evenodd">
        <g id="Editor-Tab" transform="translate(-1041.000000, -356.000000)" fill="#D0D0CE">
            <path d="M1044.06843,363.016154 C1043.81098,363.016154 1043.60227,362.80745 1043.60227,362.55 C1043.60227,362.29255 1043.81098,362.083846 1044.06843,362.083846 L1054.38612,362.083846 C1054.64357,362.083846 1054.85227,362.29255 1054.85227,362.55 C1054.85227,362.80745 1054.64357,363.016154 1054.38612,363.016154 L1044.06843,363.016154 Z M1042.19343,365.813077 C1041.93598,365.813077 1041.72727,365.604373 1041.72727,365.346923 C1041.72727,365.089473 1041.93598,364.880769 1042.19343,364.880769 L1056.26112,364.880769 C1056.51857,364.880769 1056.72727,365.089473 1056.72727,365.346923 C1056.72727,365.604373 1056.51857,365.813077 1056.26112,365.813077 L1042.19343,365.813077 Z M1042.19343,360.219231 C1041.93598,360.219231 1041.72727,360.010527 1041.72727,359.753077 C1041.72727,359.495627 1041.93598,359.286923 1042.19343,359.286923 L1056.26112,359.286923 C1056.51857,359.286923 1056.72727,359.495627 1056.72727,359.753077 C1056.72727,360.010527 1056.51857,360.219231 1056.26112,360.219231 L1042.19343,360.219231 Z M1044.06843,357.422308 C1043.81098,357.422308 1043.60227,357.213604 1043.60227,356.956154 C1043.60227,356.698704 1043.81098,356.49 1044.06843,356.49 L1054.38612,356.49 C1054.64357,356.49 1054.85227,356.698704 1054.85227,356.956154 C1054.85227,357.213604 1054.64357,357.422308 1054.38612,357.422308 L1044.06843,357.422308 Z M1044.06843,368.61 C1043.81098,368.61 1043.60227,368.401296 1043.60227,368.143846 C1043.60227,367.886396 1043.81098,367.677692 1044.06843,367.677692 L1054.38612,367.677692 C1054.64357,367.677692 1054.85227,367.886396 1054.85227,368.143846 C1054.85227,368.401296 1054.64357,368.61 1054.38612,368.61 L1044.06843,368.61 Z" id="Center-text-inactive"></path>
        </g>
    </g>
</svg>