<?xml version="1.0" encoding="UTF-8"?>
<svg width="16px" height="16px" viewBox="0 0 16 16" version="1.1" xmlns="http://www.w3.org/2000/svg" xmlns:xlink="http://www.w3.org/1999/xlink">
    <!-- Generator: Sketch 55.2 (78181) - https://sketchapp.com -->
    <title>Clear all formatting inactive</title>
    <desc>Created with Sketch.</desc>
    <g id="Page-1" stroke="none" stroke-width="1" fill="none" fill-rule="evenodd">
        <g id="Editor-Tab" transform="translate(-971.000000, -319.000000)" fill="#D0D0CE">
            <path d="M976.754585,322.933857 L984.168133,330.334014 L985.594252,328.910219 L985.594252,328.631972 L986.545455,328.631972 L986.545455,329.303375 L981.035141,334.804706 L976.836535,334.804706 L971.941173,329.917325 L971.942124,329.9159 C970.973801,328.942033 970.967618,327.363712 971.93071,326.392219 L972.227485,326.092604 L972.237473,326.100676 L977.558973,320.787851 C978.67283,319.676284 978.80695,319.540958 979.023348,319.610283 L979.411439,319.610283 L979.411439,320.559934 L979.132737,320.559934 C978.786088,320.905845 977.83065,321.859616 976.754585,322.933857 Z M976.082006,323.605301 C974.372243,325.312192 972.613197,327.06837 972.613197,327.06837 L972.492395,327.188976 C972.012038,327.796278 972.056744,328.688476 972.622234,329.252094 L972.621283,329.253518 L977.230332,333.855054 L980.641343,333.855054 L983.494266,331.006783 L976.082006,323.605301 Z M983.691848,334.32988 C983.691848,334.591984 983.477828,334.804706 983.216247,334.804706 C982.954667,334.804706 982.740646,334.591984 982.740646,334.32988 C982.740646,334.067776 982.954667,333.855054 983.216247,333.855054 C983.477828,333.855054 983.691848,334.067776 983.691848,334.32988 Z M985.594252,334.32988 C985.594252,334.591984 985.380232,334.804706 985.118651,334.804706 C984.857071,334.804706 984.64305,334.591984 984.64305,334.32988 C984.64305,334.067776 984.857071,333.855054 985.118651,333.855054 C985.380232,333.855054 985.594252,334.067776 985.594252,334.32988 Z" id="Clear-all-formatting-inactive"></path>
        </g>
    </g>
</svg>