<?xml version="1.0" encoding="UTF-8"?>
<svg width="16px" height="16px" viewBox="0 0 16 16" version="1.1" xmlns="http://www.w3.org/2000/svg" xmlns:xlink="http://www.w3.org/1999/xlink">
    <!-- Generator: Sketch 55.2 (78181) - https://sketchapp.com -->
    <title>Copy block inactive</title>
    <desc>Created with Sketch.</desc>
    <g id="Page-1" stroke="none" stroke-width="1" fill="none" fill-rule="evenodd">
        <g id="Editor-Tab" transform="translate(-364.000000, -309.000000)" fill="#D0D0CE" fill-rule="nonzero">
            <path d="M369.339073,311.713884 L377.239655,311.713884 C378.502021,311.713884 379.52537,312.737233 379.52537,313.999598 L379.52537,322.024901 C379.52537,323.287267 378.502021,324.310616 377.239655,324.310616 L369.339073,324.310616 C368.076707,324.310616 367.053358,323.287267 367.053358,322.024901 L367.053358,313.999598 C367.053358,312.737233 368.076707,311.713884 369.339073,311.713884 Z M369.339073,313.085313 C368.834127,313.085313 368.424787,313.494652 368.424787,313.999598 L368.424787,322.024901 C368.424787,322.529848 368.834127,322.939187 369.339073,322.939187 L377.239655,322.939187 C377.744602,322.939187 378.153941,322.529848 378.153941,322.024901 L378.153941,313.999598 C378.153941,313.494652 377.744602,313.085313 377.239655,313.085313 L369.339073,313.085313 Z M375.804672,309.282515 C376.183381,309.282515 376.490386,309.58952 376.490386,309.968229 C376.490386,310.346939 376.183381,310.653944 375.804672,310.653944 L367.537145,310.653944 C366.65349,310.653944 365.937145,311.370288 365.937145,312.253944 L365.937145,319.658023 C365.937145,320.036733 365.630141,320.343737 365.251431,320.343737 C364.872722,320.343737 364.565717,320.036733 364.565717,319.658023 L364.565717,312.253944 C364.565717,310.612869 365.896071,309.282515 367.537145,309.282515 L375.804672,309.282515 Z" id="Copy-block-inactive"></path>
        </g>
    </g>
</svg>