<?xml version="1.0" encoding="UTF-8"?>
<svg width="39px" height="39px" viewBox="0 0 39 39" version="1.1" xmlns="http://www.w3.org/2000/svg" xmlns:xlink="http://www.w3.org/1999/xlink">
    <!-- Generator: Sketch 55.2 (78181) - https://sketchapp.com -->
    <title>Create block inactive</title>
    <desc>Created with Sketch.</desc>
    <g id="Page-1" stroke="none" stroke-width="1" fill="none" fill-rule="evenodd">
        <g id="Editor-Tab" transform="translate(-157.000000, -309.000000)" fill="#D0D0CE" fill-rule="nonzero">
            <path d="M179.899778,330.953926 L182.443536,330.953926 C182.864629,330.953926 183.205992,331.295289 183.205992,331.716383 C183.205992,332.137476 182.864629,332.478839 182.443536,332.478839 L179.899778,332.478839 L179.899778,335.055659 C179.899778,335.476752 179.558415,335.818116 179.137321,335.818116 C178.716228,335.818116 178.374865,335.476752 178.374865,335.055659 L178.374865,332.478839 L175.831107,332.478839 C175.410014,332.478839 175.06865,332.137476 175.06865,331.716383 C175.06865,331.295289 175.410014,330.953926 175.831107,330.953926 L178.374865,330.953926 L178.374865,328.377106 C178.374865,327.956013 178.716228,327.614649 179.137321,327.614649 C179.558415,327.614649 179.899778,327.956013 179.899778,328.377106 L179.899778,330.953926 Z M181.443356,325.709747 C181.443356,326.13084 181.101993,326.472204 180.680899,326.472204 C180.259806,326.472204 179.918442,326.13084 179.918442,325.709747 L179.918442,324.472737 C179.918442,322.923113 178.662224,321.666895 177.112601,321.666895 L172.354869,321.666895 C170.805246,321.666895 169.549028,322.923113 169.549028,324.472737 L169.549028,330.550738 C169.549028,332.100362 170.805246,333.35658 172.354869,333.35658 L173.544302,333.35658 C173.965396,333.35658 174.306759,333.697944 174.306759,334.119037 C174.306759,334.54013 173.965396,334.881494 173.544302,334.881494 L172.354869,334.881494 C169.963059,334.881494 168.024114,332.942548 168.024114,330.550738 L168.024114,324.472737 C168.024114,322.080926 169.963059,320.141981 172.354869,320.141981 L177.112601,320.141981 C179.504411,320.141981 181.443356,322.080926 181.443356,324.472737 L181.443356,325.709747 Z M176.279998,310.880564 C166.676517,310.880564 158.861943,318.773284 158.861943,328.472799 C158.861943,338.172315 166.676517,346.062631 176.279998,346.062631 C185.883478,346.062631 193.695673,338.172315 193.695673,328.472799 C193.695673,318.773284 185.883478,310.880564 176.279998,310.880564 Z M176.279998,309.282799 C186.773174,309.282799 195.279998,317.874691 195.279998,328.472799 C195.279998,339.070907 186.773174,347.662799 176.279998,347.662799 C165.786821,347.662799 157.279998,339.070907 157.279998,328.472799 C157.279998,317.874691 165.786821,309.282799 176.279998,309.282799 Z" id="Create-block-inactive"></path>
        </g>
    </g>
</svg>