<?xml version="1.0" encoding="UTF-8"?>
<svg width="17px" height="17px" viewBox="0 0 17 17" version="1.1" xmlns="http://www.w3.org/2000/svg" xmlns:xlink="http://www.w3.org/1999/xlink">
    <!-- Generator: Sketch 55.2 (78181) - https://sketchapp.com -->
    <title>Find &amp; Replace inactive</title>
    <desc>Created with Sketch.</desc>
    <g id="Page-1" stroke="none" stroke-width="1" fill="none" fill-rule="evenodd">
        <g id="Editor-Tab" transform="translate(-1138.000000, -354.000000)" fill="#D0D0CE">
            <path d="M1141.28764,364.82867 L1141.27628,364.82867 L1141.27628,364.776001 L1140.75911,365.3016 C1140.75156,365.311475 1140.73863,365.316962 1140.7257,365.315864 C1140.70308,365.314767 1140.68584,365.295016 1140.68692,365.271973 L1140.68692,364.630062 C1140.68692,364.591657 1140.70308,364.553252 1140.73001,364.528015 L1141.58981,363.647993 C1141.6049,363.633728 1141.62968,363.633728 1141.64692,363.647993 L1142.50779,364.52582 C1142.53688,364.551058 1142.55197,364.589463 1142.55089,364.627867 L1142.55089,365.269779 C1142.55304,365.284043 1142.54766,365.298308 1142.53688,365.305989 C1142.51857,365.320254 1142.49379,365.316962 1142.47978,365.299405 L1141.96476,364.788071 L1141.96476,364.82867 L1141.94321,364.82867 C1141.91559,365.668991 1142.22473,366.484983 1142.80215,367.089953 C1143.50787,367.680292 1144.40107,367.989726 1145.31474,367.960099 L1145.35137,368.626151 C1145.3406,368.627248 1145.29104,368.629443 1145.21131,368.629443 C1144.16511,368.64261 1143.15124,368.269533 1142.35609,367.578245 C1141.64212,366.849003 1141.25777,365.854316 1141.28765,364.82867 Z M1151.2051,360.066568 C1151.23085,359.22617 1150.92178,358.410089 1150.34639,357.805066 C1149.63851,357.215824 1148.74639,356.90639 1147.8338,356.934919 L1147.79501,356.268868 C1148.88754,356.226074 1149.95528,356.599151 1150.79245,357.316774 C1151.50438,358.045004 1151.8907,359.040784 1151.85891,360.066568 L1151.87151,360.066568 L1151.87151,360.119237 L1152.3876,359.593638 C1152.39515,359.583763 1152.40807,359.578276 1152.421,359.578276 C1152.44363,359.580471 1152.46087,359.600222 1152.45979,359.623265 L1152.45979,360.265176 C1152.46087,360.303581 1152.44471,360.340889 1152.41669,360.367224 L1151.55797,361.245051 C1151.54181,361.259315 1151.51703,361.259315 1151.49979,361.245051 L1150.63892,360.367224 C1150.60983,360.340889 1150.59474,360.303581 1150.59582,360.265176 L1150.59582,359.623265 C1150.59474,359.609 1150.59905,359.594736 1150.6109,359.585957 C1150.62814,359.57279 1150.65292,359.576082 1150.66693,359.593638 L1151.18195,360.104973 L1151.18195,360.066568 L1151.2051,360.066568 Z M1139.50168,354.47 L1146.0202,354.47 C1146.34748,354.47 1146.61279,354.735313 1146.61279,355.062593 L1146.61279,361.658148 C1146.61279,361.985428 1146.34748,362.250741 1146.0202,362.250741 L1139.50168,362.250741 C1139.1744,362.250741 1138.90909,361.985428 1138.90909,361.658148 L1138.90909,355.062593 C1138.90909,354.735313 1139.1744,354.47 1139.50168,354.47 Z M1139.90909,361.250741 L1145.61279,361.250741 L1145.61279,355.47 L1139.90909,355.47 L1139.90909,361.250741 Z M1154.27878,370.329876 L1154.27878,369.648066 L1154.96059,369.648066 L1154.96059,370.329876 L1154.27878,370.329876 Z M1152.91857,370.329876 L1152.91857,369.648066 L1153.58248,369.648066 L1153.58248,370.329876 L1152.91857,370.329876 Z M1151.55921,370.329876 L1151.55921,369.648066 L1152.22312,369.648066 L1152.22312,370.329876 L1151.55921,370.329876 Z M1150.199,370.329876 L1150.199,369.648066 L1150.86291,369.648066 L1150.86291,370.329876 L1150.199,370.329876 Z M1148.83879,370.329876 L1148.83879,369.648066 L1149.5027,369.648066 L1149.5027,370.329876 L1148.83879,370.329876 Z M1147.46068,370.329876 L1147.46068,369.648066 L1148.14249,369.648066 L1148.14249,370.329876 L1147.46068,370.329876 Z M1147.46068,364.871984 L1147.46068,364.208071 L1148.14249,364.208071 L1148.14249,364.871984 L1147.46068,364.871984 Z M1147.46068,366.231343 L1147.46068,365.56743 L1148.14249,365.56743 L1148.14249,366.231343 L1147.46068,366.231343 Z M1147.46068,367.591555 L1147.46068,366.927642 L1148.14249,366.927642 L1148.14249,367.591555 L1147.46068,367.591555 Z M1147.46068,368.951767 L1147.46068,368.287854 L1148.14249,368.287854 L1148.14249,368.951767 L1147.46068,368.951767 Z M1147.46068,363.511772 L1147.46068,362.829961 L1148.14249,362.829961 L1148.14249,363.511772 L1147.46068,363.511772 Z M1152.91857,363.511772 L1152.91857,362.829961 L1153.58248,362.829961 L1153.58248,363.511772 L1152.91857,363.511772 Z M1151.55921,363.511772 L1151.55921,362.829961 L1152.22312,362.829961 L1152.22312,363.511772 L1151.55921,363.511772 Z M1150.199,363.511772 L1150.199,362.829961 L1150.86291,362.829961 L1150.86291,363.511772 L1150.199,363.511772 Z M1148.83879,363.511772 L1148.83879,362.829961 L1149.5027,362.829961 L1149.5027,363.511772 L1148.83879,363.511772 Z M1154.27887,362.829791 L1154.96068,362.829791 L1154.96068,363.511601 L1154.61977,363.511601 L1154.27887,363.511601 L1154.27887,362.829791 Z M1154.27878,364.871984 L1154.27878,364.208071 L1154.96059,364.208071 L1154.96059,364.871984 L1154.27878,364.871984 Z M1154.27878,366.231343 L1154.27878,365.56743 L1154.96059,365.56743 L1154.96059,366.231343 L1154.27878,366.231343 Z M1154.27878,367.591555 L1154.27878,366.927642 L1154.96059,366.927642 L1154.96059,367.591555 L1154.27878,367.591555 Z M1154.27878,368.951767 L1154.27878,368.287854 L1154.96059,368.287854 L1154.96059,368.951767 L1154.27878,368.951767 Z" id="Find-&amp;-Replace-inactive"></path>
        </g>
    </g>
</svg>