<?xml version="1.0" encoding="UTF-8"?>
<svg width="8px" height="11px" viewBox="0 0 8 11" version="1.1" xmlns="http://www.w3.org/2000/svg" xmlns:xlink="http://www.w3.org/1999/xlink">
    <!-- Generator: Sketch 55.2 (78181) - https://sketchapp.com -->
    <title>Italics inactive</title>
    <desc>Created with Sketch.</desc>
    <g id="Page-1" stroke="none" stroke-width="1" fill="none" fill-rule="evenodd">
        <g id="Editor-Tab" transform="translate(-764.000000, -358.000000)" fill="#D0D0CE" fill-rule="nonzero">
            <path d="M768.602077,368.267375 L768.496473,368.61 L764.181818,368.61 L764.287422,368.267375 L764.521258,368.267375 C764.833041,368.267375 765.097047,368.211512 765.313284,368.099786 C765.52952,367.98806 765.676609,367.858956 765.754555,367.712471 C765.832501,367.565985 765.946904,367.244467 766.097766,366.747906 L768.066516,360.319956 C768.222408,359.823395 768.300353,359.513049 768.300353,359.388909 C768.300353,359.031385 767.976002,358.852625 767.327292,358.852625 L767.055741,358.852625 L767.161344,358.51 L771.181818,358.51 L771.076215,358.852625 L770.865008,358.852625 C770.623627,358.852625 770.40488,358.894832 770.208758,358.979248 C770.012636,359.063663 769.87309,359.180353 769.790116,359.329322 C769.707141,359.47829 769.570109,359.863119 769.379016,360.48382 L767.470611,366.673422 C767.324777,367.145155 767.251861,367.443087 767.251861,367.567227 C767.251861,367.810542 767.358721,367.98806 767.572443,368.099786 C767.786166,368.211512 768.031314,368.267375 768.307896,368.267375 L768.602077,368.267375 Z" id="Italics-inactive"></path>
        </g>
    </g>
</svg>