<?xml version="1.0" encoding="UTF-8"?>
<svg width="16px" height="13px" viewBox="0 0 16 13" version="1.1" xmlns="http://www.w3.org/2000/svg" xmlns:xlink="http://www.w3.org/1999/xlink">
    <!-- Generator: Sketch 55.2 (78181) - https://sketchapp.com -->
    <title>Justify text inactive</title>
    <desc>Created with Sketch.</desc>
    <g id="Page-1" stroke="none" stroke-width="1" fill="none" fill-rule="evenodd">
        <g id="Editor-Tab" transform="translate(-1095.000000, -356.000000)" fill="#D0D0CE">
            <path d="M1096.19343,363.016154 C1095.93598,363.016154 1095.72727,362.80745 1095.72727,362.55 C1095.72727,362.29255 1095.93598,362.083846 1096.19343,362.083846 L1110.26112,362.083846 C1110.51857,362.083846 1110.72727,362.29255 1110.72727,362.55 C1110.72727,362.80745 1110.51857,363.016154 1110.26112,363.016154 L1096.19343,363.016154 Z M1096.19343,365.813077 C1095.93598,365.813077 1095.72727,365.604373 1095.72727,365.346923 C1095.72727,365.089473 1095.93598,364.880769 1096.19343,364.880769 L1110.26112,364.880769 C1110.51857,364.880769 1110.72727,365.089473 1110.72727,365.346923 C1110.72727,365.604373 1110.51857,365.813077 1110.26112,365.813077 L1096.19343,365.813077 Z M1096.19343,360.219231 C1095.93598,360.219231 1095.72727,360.010527 1095.72727,359.753077 C1095.72727,359.495627 1095.93598,359.286923 1096.19343,359.286923 L1110.26112,359.286923 C1110.51857,359.286923 1110.72727,359.495627 1110.72727,359.753077 C1110.72727,360.010527 1110.51857,360.219231 1110.26112,360.219231 L1096.19343,360.219231 Z M1096.19343,357.422308 C1095.93598,357.422308 1095.72727,357.213604 1095.72727,356.956154 C1095.72727,356.698704 1095.93598,356.49 1096.19343,356.49 L1110.26112,356.49 C1110.51857,356.49 1110.72727,356.698704 1110.72727,356.956154 C1110.72727,357.213604 1110.51857,357.422308 1110.26112,357.422308 L1096.19343,357.422308 Z M1096.19343,368.61 C1095.93598,368.61 1095.72727,368.401296 1095.72727,368.143846 C1095.72727,367.886396 1095.93598,367.677692 1096.19343,367.677692 L1110.26112,367.677692 C1110.51857,367.677692 1110.72727,367.886396 1110.72727,368.143846 C1110.72727,368.401296 1110.51857,368.61 1110.26112,368.61 L1096.19343,368.61 Z" id="Justify-text-inactive"></path>
        </g>
    </g>
</svg>