<?xml version="1.0" encoding="UTF-8"?>
<svg width="14px" height="13px" viewBox="0 0 14 13" version="1.1" xmlns="http://www.w3.org/2000/svg" xmlns:xlink="http://www.w3.org/1999/xlink">
    <!-- Generator: Sketch 55.2 (78181) - https://sketchapp.com -->
    <title>Numbering inactive</title>
    <desc>Created with Sketch.</desc>
    <g id="Page-1" stroke="none" stroke-width="1" fill="none" fill-rule="evenodd">
        <g id="Editor-Tab" transform="translate(-1041.000000, -322.000000)" fill="#D0D0CE">
            <path d="M1042.73432,325.099245 L1042.73432,323.093563 C1042.37762,323.379565 1042.13768,323.523177 1042.01392,323.523177 C1041.95495,323.523177 1041.90241,323.498733 1041.85688,323.449232 C1041.81134,323.400343 1041.78857,323.343509 1041.78857,323.27812 C1041.78857,323.203564 1041.81134,323.148563 1041.85571,323.113119 C1041.90066,323.077674 1041.98006,323.032451 1042.0939,322.976229 C1042.26378,322.893117 1042.39922,322.804505 1042.50139,322.712227 C1042.60297,322.619337 1042.69346,322.515447 1042.77227,322.401169 C1042.8505,322.286279 1042.90187,322.216001 1042.92581,322.189723 C1042.94974,322.162833 1042.99411,322.15 1043.06067,322.15 C1043.13481,322.15 1043.19436,322.180556 1043.23931,322.240445 C1043.28426,322.300946 1043.30703,322.384057 1043.30703,322.489169 L1043.30703,325.013078 C1043.30703,325.308858 1043.2107,325.456137 1043.01805,325.456137 C1042.93223,325.456137 1042.86393,325.426192 1042.81197,325.365692 C1042.76001,325.305803 1042.73432,325.21658 1042.73432,325.099245 Z M1042.4792,329.288008 L1043.57849,329.288008 C1043.68766,329.288008 1043.77115,329.311842 1043.82894,329.358898 C1043.88674,329.405343 1043.91535,329.46951 1043.91535,329.550177 C1043.91535,329.6229 1043.89258,329.6834 1043.84704,329.732901 C1043.8015,329.783012 1043.73203,329.808068 1043.63921,329.808068 L1042.08981,329.808068 C1041.98414,329.808068 1041.90241,329.777512 1041.84345,329.717012 C1041.78448,329.6559 1041.75471,329.5844 1041.75471,329.501899 C1041.75471,329.448732 1041.77398,329.378454 1041.81134,329.291675 C1041.84929,329.203674 1041.89074,329.135229 1041.93569,329.085729 C1042.1225,328.882839 1042.29122,328.708671 1042.44126,328.563836 C1042.59129,328.419613 1042.69871,328.324279 1042.76351,328.278445 C1042.87852,328.1935 1042.97426,328.107333 1043.05074,328.021165 C1043.12722,327.935609 1043.1856,327.847608 1043.2253,327.757163 C1043.26558,327.666718 1043.28543,327.578106 1043.28543,327.491328 C1043.28543,327.397827 1043.26441,327.313493 1043.22179,327.238937 C1043.17859,327.164992 1043.12021,327.106936 1043.04665,327.065991 C1042.9731,327.025046 1042.89253,327.004268 1042.80555,327.004268 C1042.62165,327.004268 1042.47687,327.089213 1042.37179,327.257881 C1042.35777,327.280493 1042.33442,327.340382 1042.30115,327.438772 C1042.26845,327.537161 1042.23109,327.61294 1042.18964,327.665496 C1042.14819,327.718663 1042.08748,327.744941 1042.0075,327.744941 C1041.93744,327.744941 1041.87906,327.720496 1041.83294,327.672218 C1041.78682,327.62394 1041.76288,327.557939 1041.76288,327.474216 C1041.76288,327.372771 1041.78507,327.266437 1041.82827,327.156436 C1041.87205,327.046435 1041.93686,326.946823 1042.02326,326.856378 C1042.10966,326.767155 1042.21941,326.695044 1042.35194,326.640043 C1042.48446,326.584432 1042.63975,326.556931 1042.81839,326.556931 C1043.03323,326.556931 1043.21596,326.592376 1043.36774,326.662655 C1043.46582,326.70971 1043.55222,326.774489 1043.62695,326.856378 C1043.70109,326.938879 1043.75889,327.034213 1043.80034,327.14238 C1043.84179,327.250548 1043.8628,327.362382 1043.8628,327.478494 C1043.8628,327.660607 1043.8196,327.826219 1043.7332,327.975331 C1043.6468,328.124444 1043.55865,328.241778 1043.46874,328.326112 C1043.37884,328.410446 1043.22822,328.543058 1043.01688,328.723948 C1042.80613,328.904839 1042.66135,329.044784 1042.58254,329.144396 C1042.54868,329.18473 1042.51423,329.232397 1042.4792,329.288008 Z M1042.69813,332.264318 C1042.82715,332.264318 1042.93865,332.225206 1043.03206,332.145761 C1043.12488,332.066316 1043.17217,331.952037 1043.17217,331.803536 C1043.17217,331.691091 1043.13481,331.593923 1043.06067,331.512034 C1042.98594,331.430144 1042.88553,331.389811 1042.75943,331.389811 C1042.67361,331.389811 1042.60297,331.402033 1042.54751,331.427089 C1042.49205,331.452145 1042.44826,331.485145 1042.41615,331.52609 C1042.38346,331.567645 1042.3531,331.620201 1042.3245,331.68498 C1042.29589,331.749147 1042.26962,331.810258 1042.24568,331.867703 C1042.23167,331.89887 1042.20599,331.923315 1042.16979,331.940426 C1042.13301,331.958149 1042.09098,331.967315 1042.04311,331.967315 C1041.98706,331.967315 1041.93569,331.943482 1041.8884,331.895815 C1041.8417,331.848148 1041.81776,331.78398 1041.81776,331.704535 C1041.81776,331.628146 1041.83995,331.547479 1041.88431,331.463756 C1041.92868,331.378811 1041.99348,331.298143 1042.07813,331.221754 C1042.16337,331.145364 1042.26845,331.084253 1042.39514,331.037808 C1042.52124,330.991363 1042.66252,330.968752 1042.81839,330.968752 C1042.95441,330.968752 1043.07876,330.987696 1043.19085,331.026808 C1043.30353,331.065919 1043.40102,331.122142 1043.48334,331.195476 C1043.56623,331.26881 1043.6287,331.354366 1043.67132,331.450922 C1043.71335,331.54809 1043.73378,331.652591 1043.73378,331.764425 C1043.73378,331.911093 1043.70343,332.036982 1043.64271,332.142094 C1043.58141,332.247206 1043.49384,332.349874 1043.38059,332.450097 C1043.48976,332.511208 1043.582,332.582098 1043.65731,332.661543 C1043.73262,332.740377 1043.78866,332.828378 1043.82661,332.924323 C1043.86455,333.020879 1043.88382,333.124769 1043.88382,333.236603 C1043.88382,333.370437 1043.85813,333.499994 1043.80676,333.624662 C1043.75538,333.749329 1043.68007,333.860552 1043.58025,333.958942 C1043.48042,334.056109 1043.36249,334.132499 1043.2253,334.18811 C1043.08869,334.2425 1042.93748,334.27 1042.77227,334.27 C1042.60355,334.27 1042.45235,334.238833 1042.31924,334.175888 C1042.18614,334.112943 1042.0758,334.033498 1041.9894,333.938164 C1041.903,333.844052 1041.83819,333.745663 1041.79383,333.644217 C1041.74946,333.542772 1041.72727,333.459049 1041.72727,333.393049 C1041.72727,333.308104 1041.75354,333.239047 1041.80667,333.187103 C1041.85921,333.135158 1041.9246,333.10888 1042.00341,333.10888 C1042.04252,333.10888 1042.08047,333.121102 1042.11667,333.145547 C1042.15344,333.16938 1042.17738,333.198103 1042.18847,333.232325 C1042.26145,333.436438 1042.33968,333.587995 1042.42316,333.686995 C1042.50664,333.786607 1042.62457,333.836108 1042.77577,333.836108 C1042.86334,333.836108 1042.94683,333.813496 1043.02739,333.768885 C1043.10854,333.724273 1043.17509,333.657662 1043.22763,333.569661 C1043.28076,333.481049 1043.30703,333.378993 1043.30703,333.262881 C1043.30703,333.091157 1043.26149,332.956101 1043.17217,332.858933 C1043.08227,332.761155 1042.95733,332.712266 1042.79679,332.712266 C1042.76935,332.712266 1042.72557,332.71471 1042.6666,332.720821 C1042.60764,332.726932 1042.56969,332.729988 1042.55276,332.729988 C1042.4757,332.729988 1042.41615,332.709821 1042.37354,332.668876 C1042.33209,332.628543 1042.31049,332.57232 1042.31049,332.500208 C1042.31049,332.42993 1042.33617,332.373096 1042.38638,332.329707 C1042.43717,332.286318 1042.5119,332.264318 1042.61173,332.264318 L1042.69813,332.264318 Z M1046.66221,324.777788 C1046.4413,324.777788 1046.26221,324.598702 1046.26221,324.377788 C1046.26221,324.156874 1046.4413,323.977788 1046.66221,323.977788 L1054.59365,323.977788 C1054.81457,323.977788 1054.99365,324.156874 1054.99365,324.377788 C1054.99365,324.598702 1054.81457,324.777788 1054.59365,324.777788 L1046.66221,324.777788 Z M1046.66221,329.052776 C1046.4413,329.052776 1046.26221,328.87369 1046.26221,328.652776 C1046.26221,328.431862 1046.4413,328.252776 1046.66221,328.252776 L1054.59365,328.252776 C1054.81457,328.252776 1054.99365,328.431862 1054.99365,328.652776 C1054.99365,328.87369 1054.81457,329.052776 1054.59365,329.052776 L1046.66221,329.052776 Z M1046.66221,333.269147 C1046.4413,333.269147 1046.26221,333.090061 1046.26221,332.869147 C1046.26221,332.648233 1046.4413,332.469147 1046.66221,332.469147 L1054.59365,332.469147 C1054.81457,332.469147 1054.99365,332.648233 1054.99365,332.869147 C1054.99365,333.090061 1054.81457,333.269147 1054.59365,333.269147 L1046.66221,333.269147 Z" id="Numbering-inactive"></path>
        </g>
    </g>
</svg>