<?xml version="1.0" encoding="UTF-8"?>
<svg width="15px" height="15px" viewBox="0 0 15 15" version="1.1" xmlns="http://www.w3.org/2000/svg" xmlns:xlink="http://www.w3.org/1999/xlink">
    <!-- Generator: Sketch 55.2 (78181) - https://sketchapp.com -->
    <title>Superscript inactive</title>
    <desc>Created with Sketch.</desc>
    <g id="Page-1" stroke="none" stroke-width="1" fill="none" fill-rule="evenodd">
        <g id="Editor-Tab" transform="translate(-903.000000, -354.000000)" fill="#D0D0CE" fill-rule="nonzero">
            <path d="M917.067192,361.365494 L912.712212,361.365494 L912.712212,360.583267 L914.36895,358.91774 C914.85821,358.416761 915.18267,358.061539 915.342339,357.852066 C915.502007,357.642592 915.618461,357.445573 915.691704,357.261001 C915.764946,357.07643 915.801567,356.878678 915.801567,356.66774 C915.801567,356.377699 915.71441,356.149186 915.540093,355.982193 C915.365775,355.8152 915.124811,355.731704 914.817192,355.731704 C914.571097,355.731704 914.333062,355.777114 914.103081,355.867935 C913.873099,355.958756 913.607233,356.122817 913.305473,356.360122 L912.747368,355.67897 C913.104792,355.377211 913.451956,355.163346 913.788872,355.037369 C914.125788,354.911391 914.484671,354.848404 914.865532,354.848404 C915.463191,354.848404 915.94219,355.004408 916.302544,355.316421 C916.662897,355.628435 916.843071,356.048108 916.843071,356.575454 C916.843071,356.865495 916.79107,357.140883 916.687065,357.401626 C916.583061,357.66237 916.423394,357.931166 916.208061,358.208023 C915.992728,358.48488 915.634577,358.859144 915.133598,359.330826 L914.017387,360.41188 L914.017387,360.455826 L917.067192,360.455826 L917.067192,361.365494 Z M911.635695,368.61 L910.383515,365.410749 L906.351771,365.410749 L905.113351,368.61 L903.929973,368.61 L907.906676,358.51 L908.890531,358.51 L912.846594,368.61 L911.635695,368.61 Z M910.018869,364.358093 L908.849251,361.241403 C908.697888,360.846942 908.54194,360.363046 908.381403,359.7897 C908.280495,360.230029 908.136014,360.713926 907.947956,361.241403 L906.764578,364.358093 L910.018869,364.358093 Z" id="Superscript-inactive"></path>
        </g>
    </g>
</svg>