<?xml version="1.0" encoding="UTF-8"?>
<svg width="11px" height="12px" viewBox="0 0 11 12" version="1.1" xmlns="http://www.w3.org/2000/svg" xmlns:xlink="http://www.w3.org/1999/xlink">
    <!-- Generator: Sketch 55.2 (78181) - https://sketchapp.com -->
    <title>Underline inactive</title>
    <desc>Created with Sketch.</desc>
    <g id="Page-1" stroke="none" stroke-width="1" fill="none" fill-rule="evenodd">
        <g id="Editor-Tab" transform="translate(-807.000000, -358.000000)" fill="#D0D0CE" fill-rule="nonzero">
            <path d="M815.738459,358.51 L815.738459,364.108398 C815.738459,365.094731 815.44354,365.869978 814.853693,366.43416 C814.263846,366.998343 813.453308,367.28043 812.422053,367.28043 C811.390797,367.28043 810.592954,366.99637 810.028498,366.428242 C809.464042,365.860114 809.181818,365.07895 809.181818,364.084727 L809.181818,358.51 L810.177912,358.51 L810.177912,364.155742 C810.177912,364.877738 810.373222,365.432049 810.763849,365.818691 C811.154476,366.205334 811.728689,366.398652 812.486506,366.398652 C813.209166,366.398652 813.765801,366.204348 814.156428,365.815732 C814.547055,365.427117 814.742365,364.869847 814.742365,364.143906 L814.742365,358.51 L815.738459,358.51 Z M807.781818,369.505 L807.781818,368.705 L817.581818,368.705 L817.581818,369.505 L807.781818,369.505 Z" id="Underline-inactive"></path>
        </g>
    </g>
</svg>