<?xml version="1.0" encoding="UTF-8"?>
<svg width="16px" height="15px" viewBox="0 0 16 15" version="1.1" xmlns="http://www.w3.org/2000/svg" xmlns:xlink="http://www.w3.org/1999/xlink">
    <!-- Generator: Sketch 55.2 (78181) - https://sketchapp.com -->
    <title>Zoom in inactive</title>
    <desc>Created with Sketch.</desc>
    <g id="Page-1" stroke="none" stroke-width="1" fill="none" fill-rule="evenodd">
        <g id="Editor-Tab" transform="translate(-1181.000000, -355.000000)" fill="#D0D0CE" fill-rule="nonzero">
            <path d="M1189.18182,359.979091 C1189.50909,359.979091 1189.72727,360.199455 1189.72727,360.53 C1189.72727,360.860545 1189.50909,361.080909 1189.18182,361.080909 L1187.54545,361.080909 L1187.54545,362.733636 C1187.54545,363.064182 1187.32727,363.284545 1187,363.284545 C1186.67273,363.284545 1186.45455,363.064182 1186.45455,362.733636 L1186.45455,361.080909 L1184.81818,361.080909 C1184.49091,361.080909 1184.27273,360.860545 1184.27273,360.53 C1184.27273,360.199455 1184.49091,359.979091 1184.81818,359.979091 L1186.45455,359.979091 L1186.45455,358.326364 C1186.45455,357.995818 1186.67273,357.775455 1187,357.775455 C1187.32727,357.775455 1187.54545,357.995818 1187.54545,358.326364 L1187.54545,359.979091 L1189.18182,359.979091 Z M1191.2,364.000727 L1196.10909,368.958909 C1196.32727,369.179273 1196.32727,369.509818 1196.10909,369.730182 C1196,369.840364 1195.83636,369.895455 1195.72727,369.895455 C1195.61818,369.895455 1195.45455,369.840364 1195.34545,369.730182 L1190.43636,364.772 C1189.50909,365.598364 1188.30909,366.039091 1187,366.039091 C1184,366.039091 1181.54545,363.56 1181.54545,360.53 C1181.54545,357.5 1184,355.020909 1187,355.020909 C1190,355.020909 1192.45455,357.5 1192.45455,360.53 C1192.45455,361.852182 1191.96364,363.064182 1191.2,364.000727 Z M1187,364.937273 C1189.4,364.937273 1191.36364,362.954 1191.36364,360.53 C1191.36364,358.106 1189.4,356.122727 1187,356.122727 C1184.6,356.122727 1182.63636,358.106 1182.63636,360.53 C1182.63636,362.954 1184.6,364.937273 1187,364.937273 Z" id="Zoom-in-inactive"></path>
        </g>
    </g>
</svg>