<?xml version="1.0" encoding="UTF-8"?>
<svg width="16px" height="16px" viewBox="0 0 16 16" version="1.1" xmlns="http://www.w3.org/2000/svg" xmlns:xlink="http://www.w3.org/1999/xlink">
    <!-- Generator: Sketch 55.2 (78181) - https://sketchapp.com -->
    <title>Zoom out inactive</title>
    <desc>Created with Sketch.</desc>
    <g id="Page-1" stroke="none" stroke-width="1" fill="none" fill-rule="evenodd">
        <g id="Editor-Tab" transform="translate(-1181.000000, -320.000000)" fill="#D0D0CE" fill-rule="nonzero">
            <path d="M1191.2,329.660727 L1196.10909,334.618909 C1196.32727,334.839273 1196.32727,335.169818 1196.10909,335.390182 C1196,335.500364 1195.83636,335.555455 1195.72727,335.555455 C1195.61818,335.555455 1195.45455,335.500364 1195.34545,335.390182 L1190.43636,330.432 C1189.50909,331.258364 1188.30909,331.699091 1187,331.699091 C1184,331.699091 1181.54545,329.22 1181.54545,326.19 C1181.54545,323.16 1184,320.680909 1187,320.680909 C1190,320.680909 1192.45455,323.16 1192.45455,326.19 C1192.45455,327.512182 1191.96364,328.724182 1191.2,329.660727 Z M1187,330.597273 C1189.4,330.597273 1191.36364,328.614 1191.36364,326.19 C1191.36364,323.766 1189.4,321.782727 1187,321.782727 C1184.6,321.782727 1182.63636,323.766 1182.63636,326.19 C1182.63636,328.614 1184.6,330.597273 1187,330.597273 Z M1189.18182,325.639091 C1189.50909,325.639091 1189.72727,325.859455 1189.72727,326.19 C1189.72727,326.520545 1189.50909,326.740909 1189.18182,326.740909 L1184.81818,326.740909 C1184.49091,326.740909 1184.27273,326.520545 1184.27273,326.19 C1184.27273,325.859455 1184.49091,325.639091 1184.81818,325.639091 L1189.18182,325.639091 Z" id="Zoom-out-inactive"></path>
        </g>
    </g>
</svg>