<?xml version="1.0" encoding="UTF-8"?>
<svg width="39px" height="39px" viewBox="0 0 39 39" version="1.1" xmlns="http://www.w3.org/2000/svg" xmlns:xlink="http://www.w3.org/1999/xlink">
    <!-- Generator: Sketch 55.2 (78181) - https://sketchapp.com -->
    <title>Create block</title>
    <desc>Created with Sketch.</desc>
    <g id="Page-1" stroke="none" stroke-width="1" fill="none" fill-rule="evenodd">
        <g id="Editor-Tab" transform="translate(-157.000000, -109.000000)" fill="#000000" fill-rule="nonzero">
            <path d="M179.899778,130.731811 L182.410801,130.731811 C182.827725,130.731811 183.165709,131.073175 183.165709,131.494268 C183.165709,131.915361 182.827725,132.256725 182.410801,132.256725 L179.899778,132.256725 L179.899778,134.800482 C179.899778,135.217406 179.558415,135.55539 179.137321,135.55539 C178.716228,135.55539 178.374865,135.217406 178.374865,134.800482 L178.374865,132.256725 L175.863842,132.256725 C175.446918,132.256725 175.108934,131.915361 175.108934,131.494268 C175.108934,131.073175 175.446918,130.731811 175.863842,130.731811 L178.374865,130.731811 L178.374865,128.188054 C178.374865,127.77113 178.716228,127.433146 179.137321,127.433146 C179.558415,127.433146 179.899778,127.77113 179.899778,128.188054 L179.899778,130.731811 Z M181.443356,125.547104 C181.443356,125.964028 181.101993,126.302011 180.680899,126.302011 C180.259806,126.302011 179.918442,125.964028 179.918442,125.547104 L179.918442,124.322341 C179.918442,122.78806 178.662224,121.54428 177.112601,121.54428 L172.354869,121.54428 C170.805246,121.54428 169.549028,122.78806 169.549028,124.322341 L169.549028,130.340165 C169.549028,131.874445 170.805246,133.118226 172.354869,133.118226 L173.544302,133.118226 C173.965396,133.118226 174.306759,133.456209 174.306759,133.873134 C174.306759,134.290058 173.965396,134.628041 173.544302,134.628041 L172.354869,134.628041 C169.963059,134.628041 168.024114,132.708294 168.024114,130.340165 L168.024114,124.322341 C168.024114,121.954212 169.963059,120.034465 172.354869,120.034465 L177.112601,120.034465 C179.504411,120.034465 181.443356,121.954212 181.443356,124.322341 L181.443356,125.547104 Z M176.279998,110.864745 C166.676517,110.864745 158.861943,118.679319 158.861943,128.282799 C158.861943,137.88628 166.676517,145.698475 176.279998,145.698475 C185.883478,145.698475 193.695673,137.88628 193.695673,128.282799 C193.695673,118.679319 185.883478,110.864745 176.279998,110.864745 Z M176.279998,109.282799 C186.773174,109.282799 195.279998,117.789623 195.279998,128.282799 C195.279998,138.775976 186.773174,147.282799 176.279998,147.282799 C165.786821,147.282799 157.279998,138.775976 157.279998,128.282799 C157.279998,117.789623 165.786821,109.282799 176.279998,109.282799 Z" id="Create-block"></path>
        </g>
    </g>
</svg>