<?xml version="1.0" encoding="UTF-8"?>
<svg width="38px" height="38px" viewBox="0 0 38 38" version="1.1" xmlns="http://www.w3.org/2000/svg" xmlns:xlink="http://www.w3.org/1999/xlink">
    <!-- Generator: Sketch 55.2 (78181) - https://sketchapp.com -->
    <title>Attributes</title>
    <desc>Created with Sketch.</desc>
    <g id="Page-1" stroke="none" stroke-width="1" fill="none" fill-rule="evenodd">
        <g id="Editor-Tab" transform="translate(-305.000000, -109.000000)" fill="#000000">
            <path d="M324,110.581946 C314.396519,110.581946 306.581946,118.396519 306.581946,128 C306.581946,137.603481 314.396519,145.415675 324,145.415675 C333.603481,145.415675 341.415675,137.603481 341.415675,128 C341.415675,118.396519 333.603481,110.581946 324,110.581946 Z M324,109 C334.493176,109 343,117.506824 343,128 C343,138.493176 334.493176,147 324,147 C313.506824,147 305,138.493176 305,128 C305,117.506824 313.506824,109 324,109 Z M331.722457,119.639684 C332.109082,119.639684 332.422165,119.952977 332.422165,120.339392 L332.422165,135.722455 C332.422165,136.109081 332.109082,136.422163 331.722457,136.422163 L316.339394,136.422163 C315.952768,136.422163 315.639686,136.109081 315.639686,135.722455 L315.639686,120.339392 C315.639686,119.952977 315.952768,119.639684 316.339394,119.639684 L331.722457,119.639684 Z M317.036357,135.027562 L331.025494,135.027562 L331.025494,121.036322 L317.036357,121.036322 L317.036357,135.027562 Z M325.600498,124.37145 C325.600498,123.800817 326.063846,123.335914 326.634479,123.335914 C327.206667,123.335914 327.670015,123.800817 327.670015,124.37145 C327.670015,124.942084 327.206667,125.405432 326.634479,125.405432 C326.063846,125.405432 325.600498,124.942084 325.600498,124.37145 Z M325.595794,128.072377 C325.595794,127.500291 326.060195,127.034332 326.632126,127.034332 C327.205614,127.034332 327.670015,127.500291 327.670015,128.072377 C327.670015,128.642593 327.205614,129.108553 326.632126,129.108553 C326.060195,129.108553 325.595794,128.642593 325.595794,128.072377 Z M325.595794,131.773784 C325.595794,131.20201 326.060195,130.737453 326.632126,130.737453 C327.205614,130.737453 327.670015,131.20201 327.670015,131.773784 C327.670015,132.345714 327.205614,132.811674 326.632126,132.811674 C326.060195,132.811674 325.595794,132.345714 325.595794,131.773784 Z M320.297769,131.773784 C320.297769,131.20201 320.762049,130.737453 321.334022,130.737453 C321.907554,130.737453 322.37199,131.20201 322.37199,131.773784 C322.37199,132.345714 321.907554,132.811674 321.334022,132.811674 C320.762049,132.811674 320.297769,132.345714 320.297769,131.773784 Z M320.297769,128.072377 C320.297769,127.500291 320.762049,127.034332 321.334022,127.034332 C321.907554,127.034332 322.37199,127.500291 322.37199,128.072377 C322.37199,128.642593 321.907554,129.108553 321.334022,129.108553 C320.762049,129.108553 320.297769,128.642593 320.297769,128.072377 Z M320.297769,124.3691 C320.297769,123.79717 320.762049,123.331211 321.334022,123.331211 C321.907554,123.331211 322.37199,123.79717 322.37199,124.3691 C322.37199,124.941031 321.907554,125.405432 321.334022,125.405432 C320.762049,125.405432 320.297769,124.941031 320.297769,124.3691 Z" id="Attributes"></path>
        </g>
    </g>
</svg>