<?xml version="1.0" encoding="UTF-8"?>
<svg width="28px" height="29px" viewBox="0 0 28 29" version="1.1" xmlns="http://www.w3.org/2000/svg" xmlns:xlink="http://www.w3.org/1999/xlink">
    <!-- Generator: Sketch 55.2 (78181) - https://sketchapp.com -->
    <title>Block staffing</title>
    <desc>Created with Sketch.</desc>
    <g id="Page-1" stroke="none" stroke-width="1" fill="none" fill-rule="evenodd">
        <g id="Editor-Tab" transform="translate(-443.000000, -145.000000)" fill="#000000">
            <path d="M453.608752,154.975666 C452.760978,154.975666 452.071681,154.293342 452.071681,153.453804 C452.071681,152.615942 452.760978,151.933465 453.608752,151.933465 C454.454987,151.933465 455.144284,152.615942 455.144284,153.453804 C455.144284,154.293342 454.454987,154.975666 453.608752,154.975666 Z M453.608752,152.79433 C453.240716,152.79433 452.942688,153.091391 452.942688,153.453804 C452.942688,153.818198 453.240716,154.113278 453.608752,154.113278 C453.974787,154.113278 454.274816,153.818198 454.274816,153.453804 C454.274816,153.091391 453.974787,152.79433 453.608752,152.79433 Z M459.752421,154.975666 C458.906185,154.975666 458.216888,154.293342 458.216888,153.453804 C458.216888,152.615942 458.906185,151.933465 459.752421,151.933465 C460.600195,151.933465 461.289492,152.615942 461.289492,153.453804 C461.289492,154.293342 460.600195,154.975666 459.752421,154.975666 Z M459.752421,152.79433 C459.386385,152.79433 459.086356,153.091391 459.086356,153.453804 C459.086356,153.818198 459.386385,154.113278 459.752421,154.113278 C460.120456,154.113278 460.418485,153.818198 460.418485,153.453804 C460.418485,153.091391 460.120456,152.79433 459.752421,152.79433 Z M463.849738,164.100898 C464.131304,164.100898 464.360557,164.32773 464.360557,164.608186 C464.360557,164.888336 464.131304,165.113797 463.849738,165.113797 L449.512049,165.113797 C449.229253,165.113797 449,164.888336 449,164.608186 C449,164.32773 449.229253,164.100898 449.512049,164.100898 L450.024099,164.100898 L450.024099,159.030919 C450.024099,158.750616 450.253352,158.523631 450.536148,158.523631 L451.048505,158.523631 L451.048505,156.496157 C451.048505,156.215702 451.277758,155.98887 451.560862,155.98887 L455.656641,155.98887 C455.939746,155.98887 456.168998,156.215702 456.168998,156.496157 L456.168998,158.523631 L457.192174,158.523631 L457.192174,156.496157 C457.192174,156.215702 457.421427,155.98887 457.704531,155.98887 L461.80031,155.98887 C462.083414,155.98887 462.312667,156.215702 462.312667,156.496157 L462.312667,158.523631 L462.825024,158.523631 C463.108129,158.523631 463.337381,158.750616 463.337381,159.030919 L463.337381,164.100898 L463.849738,164.100898 Z M458.216888,158.523631 L461.289492,158.523631 L461.289492,157.003292 L458.216888,157.003292 L458.216888,158.523631 Z M452.071681,158.523631 L455.144284,158.523631 L455.144284,157.003292 L452.071681,157.003292 L452.071681,158.523631 Z M451.048505,164.100746 L462.312667,164.100746 L462.312667,159.538206 L451.048505,159.538206 L451.048505,164.100746 Z M469.833333,159.28 C469.833333,152.221667 464.058333,146.446667 457,146.446667 C449.941667,146.446667 444.166667,152.221667 444.166667,159.28 C444.166667,166.338333 449.941667,172.113333 457,172.113333 C464.058333,172.113333 469.833333,166.338333 469.833333,159.28 Z M443,159.28 C443,151.521667 449.241667,145.28 457,145.28 C464.758333,145.28 471,151.521667 471,159.28 C471,167.038333 464.758333,173.28 457,173.28 C449.241667,173.28 443,167.038333 443,159.28 Z" id="Block-staffing"></path>
        </g>
    </g>
</svg>