<?xml version="1.0" encoding="UTF-8"?>
<svg width="16px" height="16px" viewBox="0 0 16 16" version="1.1" xmlns="http://www.w3.org/2000/svg" xmlns:xlink="http://www.w3.org/1999/xlink">
    <!-- Generator: Sketch 55.2 (78181) - https://sketchapp.com -->
    <title>Copy block</title>
    <desc>Created with Sketch.</desc>
    <g id="Page-1" stroke="none" stroke-width="1" fill="none" fill-rule="evenodd">
        <g id="Editor-Tab" transform="translate(-364.000000, -109.000000)" fill="#000000" fill-rule="nonzero">
            <path d="M369.339073,111.713884 L377.239655,111.713884 C378.502021,111.713884 379.52537,112.737233 379.52537,113.999598 L379.52537,122.024901 C379.52537,123.287267 378.502021,124.310616 377.239655,124.310616 L369.339073,124.310616 C368.076707,124.310616 367.053358,123.287267 367.053358,122.024901 L367.053358,113.999598 C367.053358,112.737233 368.076707,111.713884 369.339073,111.713884 Z M369.339073,113.085313 C368.834127,113.085313 368.424787,113.494652 368.424787,113.999598 L368.424787,122.024901 C368.424787,122.529848 368.834127,122.939187 369.339073,122.939187 L377.239655,122.939187 C377.744602,122.939187 378.153941,122.529848 378.153941,122.024901 L378.153941,113.999598 C378.153941,113.494652 377.744602,113.085313 377.239655,113.085313 L369.339073,113.085313 Z M375.804672,109.282515 C376.183381,109.282515 376.490386,109.58952 376.490386,109.968229 C376.490386,110.346939 376.183381,110.653944 375.804672,110.653944 L367.537145,110.653944 C366.65349,110.653944 365.937145,111.370288 365.937145,112.253944 L365.937145,119.658023 C365.937145,120.036733 365.630141,120.343737 365.251431,120.343737 C364.872722,120.343737 364.565717,120.036733 364.565717,119.658023 L364.565717,112.253944 C364.565717,110.612869 365.896071,109.282515 367.537145,109.282515 L375.804672,109.282515 Z" id="Copy-block"></path>
        </g>
    </g>
</svg>