<?xml version="1.0" encoding="UTF-8"?>
<svg width="28px" height="28px" viewBox="0 0 28 28" version="1.1" xmlns="http://www.w3.org/2000/svg" xmlns:xlink="http://www.w3.org/1999/xlink">
    <!-- Generator: Sketch 55.2 (78181) - https://sketchapp.com -->
    <title>Demote</title>
    <desc>Created with Sketch.</desc>
    <g id="Page-1" stroke="none" stroke-width="1" fill="none" fill-rule="evenodd">
        <g id="Editor-Tab" transform="translate(-527.000000, -145.000000)" fill="#000000">
            <path d="M548.094665,157.245178 C548.054107,157.332808 547.997615,157.412471 547.92519,157.476202 L544.286556,160.812764 C544.140258,160.948191 543.943262,161.021216 543.734678,161.021216 C543.526094,161.021216 543.330546,160.948191 543.184247,160.812764 C543.0365,160.678664 542.955384,160.499422 542.955384,160.309557 C542.955384,160.119693 543.0365,159.940451 543.184247,159.805024 L545.491709,157.684654 L533.779293,157.684654 C533.349089,157.684654 533,157.364673 533,156.972995 C533,156.57999 533.349089,156.258682 533.779293,156.258682 L545.491709,156.258682 L543.184247,154.138312 C543.0365,154.002884 542.955384,153.823642 542.955384,153.633778 C542.955384,153.443914 543.0365,153.264672 543.182799,153.130572 C543.330546,152.995144 543.526094,152.920792 543.734678,152.920792 C543.943262,152.920792 544.140258,152.995144 544.286556,153.129244 L547.92519,156.467134 C547.997615,156.530865 548.054107,156.610528 548.094665,156.699485 C548.135223,156.788442 548.155502,156.881383 548.155502,156.972995 C548.155502,157.06328 548.135223,157.154893 548.094665,157.245178 Z M539.558172,161.749538 C539.885113,161.749538 540.150151,162.045199 540.150151,162.409915 C540.150151,162.774631 539.885113,163.070292 539.558172,163.070292 L533.591979,163.070292 C533.265038,163.070292 533,162.774631 533,162.409915 C533,162.045199 533.265038,161.749538 533.591979,161.749538 L539.558172,161.749538 Z M540.651171,159.164571 C540.978113,159.164571 541.243151,159.460232 541.243151,159.824948 C541.243151,160.189664 540.978113,160.485325 540.651171,160.485325 L533.591979,160.485325 C533.265038,160.485325 533,160.189664 533,159.824948 C533,159.460232 533.265038,159.164571 533.591979,159.164571 L540.651171,159.164571 Z M537.372172,164.334506 C537.699113,164.334506 537.964151,164.630166 537.964151,164.994883 C537.964151,165.359599 537.699113,165.65526 537.372172,165.65526 L533.591979,165.65526 C533.265038,165.65526 533,165.359599 533,164.994883 C533,164.630166 533.265038,164.334506 533.591979,164.334506 L537.372172,164.334506 Z M541,146.166667 C533.941667,146.166667 528.166667,151.941667 528.166667,159 C528.166667,166.058333 533.941667,171.833333 541,171.833333 C548.058333,171.833333 553.833333,166.058333 553.833333,159 C553.833333,151.941667 548.058333,146.166667 541,146.166667 Z M541,145 C548.758333,145 555,151.241667 555,159 C555,166.758333 548.758333,173 541,173 C533.241667,173 527,166.758333 527,159 C527,151.241667 533.241667,145 541,145 Z" id="Demote"></path>
        </g>
    </g>
</svg>