<?xml version="1.0" encoding="UTF-8"?>
<svg width="38px" height="38px" viewBox="0 0 38 38" version="1.1" xmlns="http://www.w3.org/2000/svg" xmlns:xlink="http://www.w3.org/1999/xlink">
    <!-- Generator: Sketch 55.2 (78181) - https://sketchapp.com -->
    <title>Generate</title>
    <desc>Created with Sketch.</desc>
    <g id="Page-1" stroke="none" stroke-width="1" fill="none" fill-rule="evenodd">
        <g id="Editor-Tab" transform="translate(-108.000000, -109.000000)" fill="#000000" fill-rule="nonzero">
            <path d="M127,110.583333 C117.420833,110.583333 109.583333,118.420833 109.583333,128 C109.583333,137.579167 117.420833,145.416667 127,145.416667 C136.579167,145.416667 144.416667,137.579167 144.416667,128 C144.416667,118.420833 136.579167,110.583333 127,110.583333 Z M127,109 C137.529167,109 146,117.470833 146,128 C146,138.529167 137.529167,147 127,147 C116.470833,147 108,138.529167 108,128 C108,117.470833 116.470833,109 127,109 Z M137.988333,126.448333 C137.988333,126.448333 137.988333,123.281667 137.988333,123.281667 L137.988333,137.531667 C137.988333,138.006667 137.671667,138.323333 137.196667,138.323333 L123.738333,138.323333 C123.263333,138.323333 122.946667,138.006667 122.946667,137.531667 L122.946667,136.74 C122.946667,136.265 123.263333,135.948333 123.738333,135.948333 C124.213333,135.948333 124.53,136.265 124.53,136.74 L136.405,136.74 L136.405,124.073333 L132.446667,124.073333 C131.971667,124.073333 131.655,123.756667 131.655,123.281667 L131.655,119.323333 L124.53,119.323333 L124.53,120.906667 C124.53,121.381667 124.213333,121.698333 123.738333,121.698333 C123.263333,121.698333 122.946667,121.381667 122.946667,120.906667 L122.946667,118.531667 C122.946667,118.056667 123.263333,117.74 123.738333,117.74 L132.446667,117.74 C132.525833,117.74 132.684167,117.74 132.763333,117.819167 C132.8425,117.819167 132.921667,117.898333 133.000833,117.9775 L137.750833,122.7275 C137.83,122.806667 137.83,122.885833 137.909167,122.965 C137.988333,123.123333 137.988333,126.369167 137.988333,126.448333 Z M133.238333,122.49 L135.296667,122.49 L133.238333,120.431667 L133.238333,122.49 Z M134.821667,128.806867 C134.821667,129.281867 134.505,129.598533 134.03,129.598533 L131.655,129.598533 C131.18,129.598533 130.863333,129.281867 130.863333,128.806867 C130.863333,128.331867 131.18,128.0152 131.655,128.0152 L134.03,128.0152 C134.505,128.0152 134.821667,128.331867 134.821667,128.806867 Z M134.821667,131.991267 C134.821667,132.466267 134.505,132.782933 134.03,132.782933 L130.863333,132.782933 C130.388333,132.782933 130.071667,132.466267 130.071667,131.991267 C130.071667,131.516267 130.388333,131.1996 130.863333,131.1996 L134.03,131.1996 C134.505,131.1996 134.821667,131.516267 134.821667,131.991267 Z M128.725833,127.450214 C129.121667,127.76688 129.675833,128.162714 129.675833,128.875214 C129.675833,129.587714 129.0425,130.062714 128.646667,130.37938 C128.488333,130.458547 128.33,130.61688 128.250833,130.696047 C128.250833,130.775214 128.250833,131.012714 128.33,131.171047 C128.488333,131.646047 128.646667,132.358547 128.250833,132.912714 C127.855,133.46688 127.1425,133.46688 126.588333,133.46688 C126.43,133.46688 126.1925,133.46688 126.113333,133.46688 C126.113333,133.625214 126.034167,133.783547 125.955,133.94188 C125.796667,134.496047 125.559167,135.12938 124.846667,135.36688 C124.688333,135.446047 124.609167,135.446047 124.450833,135.446047 C123.896667,135.446047 123.500833,135.12938 123.105,134.89188 C122.946667,134.812714 122.788333,134.733547 122.709167,134.65438 C122.63,134.65438 122.471667,134.812714 122.313333,134.89188 C121.838333,135.208547 121.205,135.60438 120.571667,135.36688 C119.859167,135.12938 119.621667,134.41688 119.463333,133.94188 C119.463333,133.783547 119.384167,133.546047 119.305,133.46688 C119.225833,133.46688 118.988333,133.46688 118.83,133.46688 C118.275833,133.46688 117.563333,133.387714 117.1675,132.833547 C116.771667,132.27938 117.009167,131.646047 117.1675,131.09188 C117.246667,130.933547 117.325833,130.61688 117.325833,130.537714 C117.325833,130.537714 117.088333,130.300214 116.93,130.221047 C116.534167,129.90438 115.98,129.508547 115.98,128.796047 C115.98,128.083547 116.613333,127.608547 117.009167,127.29188 C117.1675,127.212714 117.325833,127.05438 117.405,126.975214 C117.405,126.896047 117.405,126.658547 117.325833,126.500214 C117.1675,126.025214 117.009167,125.312714 117.405,124.758547 C117.800833,124.20438 118.513333,124.20438 119.0675,124.20438 C119.225833,124.20438 119.463333,124.20438 119.5425,124.20438 C119.5425,124.046047 119.621667,123.887714 119.700833,123.72938 C119.859167,123.175214 120.096667,122.54188 120.809167,122.30438 C121.521667,122.146047 122.075833,122.54188 122.550833,122.858547 C122.709167,122.937714 122.8675,123.01688 122.946667,123.096047 C123.025833,123.096047 123.184167,122.937714 123.3425,122.858547 C123.8175,122.54188 124.450833,122.146047 125.084167,122.383547 C125.796667,122.621047 126.034167,123.333547 126.1925,123.808547 C126.1925,123.96688 126.271667,124.20438 126.350833,124.283547 C126.43,124.283547 126.6675,124.283547 126.825833,124.283547 C127.38,124.283547 128.0925,124.362714 128.488333,124.91688 C128.884167,125.471047 128.646667,126.10438 128.488333,126.658547 C128.409167,126.737714 128.33,127.05438 128.33,127.133547 C128.409167,127.212714 128.5675,127.371047 128.725833,127.450214 Z M127.696667,129.112714 C127.775833,129.033547 127.855,128.95438 127.934167,128.875214 C127.855,128.796047 127.775833,128.71688 127.696667,128.637714 C127.300833,128.321047 126.905,128.00438 126.746667,127.52938 C126.588333,127.05438 126.746667,126.57938 126.905,126.10438 C126.905,126.025214 126.984167,125.86688 126.984167,125.787714 C126.905,125.787714 126.746667,125.787714 126.6675,125.787714 C126.271667,125.787714 125.7175,125.787714 125.321667,125.471047 C124.925833,125.15438 124.7675,124.600214 124.609167,124.20438 C124.609167,124.125214 124.609167,123.96688 124.53,123.887714 C124.371667,123.96688 124.2925,124.125214 124.213333,124.20438 C123.8175,124.44188 123.3425,124.837714 122.8675,124.837714 C122.3925,124.837714 121.996667,124.362714 121.600833,124.125214 C121.521667,124.125214 121.363333,123.96688 121.284167,123.887714 C121.205,123.96688 121.125833,124.125214 121.125833,124.20438 C120.9675,124.600214 120.809167,125.075214 120.413333,125.39188 C119.938333,125.708547 119.463333,125.708547 118.988333,125.708547 C118.909167,125.708547 118.750833,125.708547 118.671667,125.708547 C118.671667,125.787714 118.750833,125.946047 118.750833,126.025214 C118.83,126.500214 118.988333,126.975214 118.83,127.450214 C118.671667,127.925214 118.275833,128.24188 117.88,128.47938 C117.800833,128.558547 117.721667,128.637714 117.6425,128.71688 C117.721667,128.796047 117.800833,128.875214 117.88,128.95438 C118.275833,129.271047 118.671667,129.587714 118.83,130.062714 C118.988333,130.537714 118.83,131.012714 118.671667,131.487714 C118.671667,131.56688 118.5925,131.725214 118.5925,131.80438 C118.671667,131.80438 118.83,131.80438 118.909167,131.80438 C119.305,131.80438 119.859167,131.80438 120.255,132.121047 C120.650833,132.437714 120.809167,132.99188 120.9675,133.387714 C120.9675,133.46688 120.9675,133.625214 121.046667,133.70438 C121.205,133.625214 121.284167,133.46688 121.363333,133.387714 C121.759167,133.150214 122.234167,132.75438 122.709167,132.75438 C123.184167,132.75438 123.58,133.22938 123.975833,133.46688 C124.055,133.46688 124.213333,133.625214 124.2925,133.70438 C124.371667,133.625214 124.450833,133.46688 124.450833,133.387714 C124.609167,132.99188 124.7675,132.51688 125.163333,132.200214 C125.638333,131.883547 126.113333,131.883547 126.588333,131.883547 C126.6675,131.883547 126.825833,131.883547 126.905,131.883547 C126.905,131.80438 126.825833,131.646047 126.825833,131.56688 C126.746667,131.09188 126.588333,130.61688 126.746667,130.14188 C126.905,129.66688 127.300833,129.350214 127.696667,129.112714 Z M124.055,126.500214 C124.609167,126.81688 125.084167,127.371047 125.321667,128.083547 C125.559167,128.71688 125.48,129.42938 125.163333,130.062714 C124.7675,130.696047 124.2925,131.09188 123.58,131.32938 C123.3425,131.487714 123.025833,131.487714 122.788333,131.487714 C122.3925,131.487714 121.996667,131.408547 121.600833,131.171047 C120.9675,130.775214 120.571667,130.300214 120.334167,129.587714 C120.096667,128.95438 120.175833,128.24188 120.4925,127.608547 C120.888333,126.975214 121.363333,126.57938 122.075833,126.34188 C122.709167,126.10438 123.421667,126.183547 124.055,126.500214 Z M123.738333,129.271047 C123.8175,129.033547 123.896667,128.71688 123.8175,128.47938 C123.659167,128.162714 123.500833,128.00438 123.263333,127.846047 C123.105,127.76688 122.946667,127.687714 122.788333,127.687714 C122.709167,127.687714 122.550833,127.76688 122.471667,127.76688 C122.155,127.925214 121.996667,128.083547 121.838333,128.321047 C121.68,128.558547 121.68,128.875214 121.759167,129.112714 C121.9175,129.42938 122.075833,129.587714 122.313333,129.746047 C122.550833,129.90438 122.8675,129.90438 123.105,129.825214 C123.421667,129.66688 123.58,129.508547 123.738333,129.271047 Z" id="Generate"></path>
        </g>
    </g>
</svg>