<?xml version="1.0" encoding="UTF-8"?>
<svg width="28px" height="28px" viewBox="0 0 28 28" version="1.1" xmlns="http://www.w3.org/2000/svg" xmlns:xlink="http://www.w3.org/1999/xlink">
    <!-- Generator: Sketch 55.2 (78181) - https://sketchapp.com -->
    <title>Promote</title>
    <desc>Created with Sketch.</desc>
    <g id="Page-1" stroke="none" stroke-width="1" fill="none" fill-rule="evenodd">
        <g id="Editor-Tab" transform="translate(-527.000000, -109.000000)" fill="#000000">
            <path d="M533.060837,121.245178 C533.020279,121.154893 533,121.06328 533,120.972995 C533,120.881383 533.020279,120.788442 533.060837,120.699485 C533.101395,120.610528 533.157887,120.530865 533.230312,120.467134 L536.868946,117.129244 C537.015244,116.995144 537.21224,116.920792 537.420824,116.920792 C537.629408,116.920792 537.824956,116.995144 537.972703,117.130572 C538.119002,117.264672 538.200118,117.443914 538.200118,117.633778 C538.200118,117.823642 538.119002,118.002884 537.971255,118.138312 L535.663793,120.258682 L547.376209,120.258682 C547.806413,120.258682 548.155502,120.57999 548.155502,120.972995 C548.155502,121.364673 547.806413,121.684654 547.376209,121.684654 L535.663793,121.684654 L537.971255,123.805024 C538.119002,123.940451 538.200118,124.119693 538.200118,124.309557 C538.200118,124.499422 538.119002,124.678664 537.971255,124.812764 C537.824956,124.948191 537.629408,125.021216 537.420824,125.021216 C537.21224,125.021216 537.015244,124.948191 536.868946,124.812764 L533.230312,121.476202 C533.157887,121.412471 533.101395,121.332808 533.060837,121.245178 Z M541.59733,125.749538 L547.563523,125.749538 C547.890464,125.749538 548.155502,126.045199 548.155502,126.409915 C548.155502,126.774631 547.890464,127.070292 547.563523,127.070292 L541.59733,127.070292 C541.270389,127.070292 541.005351,126.774631 541.005351,126.409915 C541.005351,126.045199 541.270389,125.749538 541.59733,125.749538 Z M540.504331,123.164571 L547.563523,123.164571 C547.890464,123.164571 548.155502,123.460232 548.155502,123.824948 C548.155502,124.189664 547.890464,124.485325 547.563523,124.485325 L540.504331,124.485325 C540.177389,124.485325 539.912351,124.189664 539.912351,123.824948 C539.912351,123.460232 540.177389,123.164571 540.504331,123.164571 Z M543.78333,128.334506 L547.563523,128.334506 C547.890464,128.334506 548.155502,128.630166 548.155502,128.994883 C548.155502,129.359599 547.890464,129.65526 547.563523,129.65526 L543.78333,129.65526 C543.456389,129.65526 543.191351,129.359599 543.191351,128.994883 C543.191351,128.630166 543.456389,128.334506 543.78333,128.334506 Z M541,110.166667 C533.941667,110.166667 528.166667,115.941667 528.166667,123 C528.166667,130.058333 533.941667,135.833333 541,135.833333 C548.058333,135.833333 553.833333,130.058333 553.833333,123 C553.833333,115.941667 548.058333,110.166667 541,110.166667 Z M541,109 C548.758333,109 555,115.241667 555,123 C555,130.758333 548.758333,137 541,137 C533.241667,137 527,130.758333 527,123 C527,115.241667 533.241667,109 541,109 Z" id="Promote"></path>
        </g>
    </g>
</svg>