<?xml version="1.0" encoding="UTF-8"?>
<svg width="38px" height="39px" viewBox="0 0 38 39" version="1.1" xmlns="http://www.w3.org/2000/svg" xmlns:xlink="http://www.w3.org/1999/xlink">
    <!-- Generator: Sketch 55.2 (78181) - https://sketchapp.com -->
    <title>Publish</title>
    <desc>Created with Sketch.</desc>
    <g id="Page-1" stroke="none" stroke-width="1" fill="none" fill-rule="evenodd">
        <g id="Editor-Tab" transform="translate(-60.000000, -109.000000)" fill="#000000" fill-rule="nonzero">
            <path d="M79,110.673333 C69.4208333,110.673333 61.5833333,118.510833 61.5833333,128.09 C61.5833333,137.669167 69.4208333,145.506667 79,145.506667 C88.5791667,145.506667 96.4166667,137.669167 96.4166667,128.09 C96.4166667,118.510833 88.5791667,110.673333 79,110.673333 Z M79,109.09 C89.5291667,109.09 98,117.560833 98,128.09 C98,138.619167 89.5291667,147.09 79,147.09 C68.4708333,147.09 60,138.619167 60,128.09 C60,117.560833 68.4708333,109.09 79,109.09 Z M71.9915828,133.933698 L75.0380688,133.933698 C75.4522823,133.933698 75.7880688,134.266159 75.7880688,134.676272 C75.7880688,135.086384 75.4522823,135.418846 75.0380688,135.418846 L71.3014514,135.418846 C71.2568088,135.418846 71.2130772,135.414984 71.1705787,135.40758 C70.7594694,135.386104 70.4331428,135.049581 70.4331428,134.637163 L70.4331428,120.662371 C70.4331428,120.236074 70.7818028,119.890866 71.2123628,119.890866 L86.7876372,119.890866 C87.2179632,119.890866 87.5668572,120.236074 87.5668572,120.662371 L87.5668572,134.637163 C87.5668572,135.061227 87.2216088,135.40505 86.7943928,135.40864 C86.7538575,135.415353 86.7122209,135.418846 86.6697601,135.418846 L82.9331428,135.418846 C82.5189292,135.418846 82.1831428,135.086384 82.1831428,134.676272 C82.1831428,134.266159 82.5189292,133.933698 82.9331428,133.933698 L86.0081832,133.933698 L86.0081832,121.433876 L71.9915828,121.433876 L71.9915828,133.933698 Z M74.2185628,130.558922 L78.447643,126.369628 C78.520417,126.300123 78.606763,126.242203 78.702703,126.202816 C78.796303,126.165747 78.896923,126.144896 78.999883,126.144896 C79.100503,126.144896 79.201123,126.165747 79.297063,126.202816 C79.393003,126.242203 79.479817,126.300123 79.549783,126.369628 L83.7788632,130.558922 C84.0830632,130.860341 84.0830632,131.346876 83.7788632,131.648064 C83.4746632,131.949021 82.9834972,131.949021 82.6790632,131.648064 L79.779103,128.776816 L79.779103,137.500144 C79.779103,137.924124 79.430443,138.269332 78.999883,138.269332 C78.569557,138.269332 78.220663,137.924124 78.220663,137.500144 L78.220663,128.776816 L75.3207028,131.648064 C75.0165028,131.949021 74.5229968,131.949021 74.2185628,131.648064 C73.9143628,131.346876 73.9143628,130.860341 74.2185628,130.558922 Z" id="Publish"></path>
        </g>
    </g>
</svg>