<?xml version="1.0" encoding="UTF-8"?>
<svg width="13px" height="19px" viewBox="0 0 13 19" version="1.1" xmlns="http://www.w3.org/2000/svg" xmlns:xlink="http://www.w3.org/1999/xlink">
    <!-- Generator: Sketch 55.2 (78181) - https://sketchapp.com -->
    <title>Remove</title>
    <desc>Created with Sketch.</desc>
    <g id="Page-1" stroke="none" stroke-width="1" fill="none" fill-rule="evenodd">
        <g id="Editor-Tab" transform="translate(-366.000000, -164.000000)" fill="#000000">
            <path d="M367.33157,167.804243 L378.332435,167.804243 C378.670358,167.804243 378.944003,167.527862 378.944003,167.18656 C378.944003,166.845258 378.670358,166.569063 378.332435,166.569063 L376.281205,166.569063 C375.768811,165.114818 374.396733,164.1 372.832002,164.1 C371.375627,164.1 370.056993,164.971805 369.471321,166.32032 C369.436243,166.403791 369.408695,166.487261 369.37931,166.569063 L367.33157,166.569063 C366.993646,166.569063 366.720002,166.845258 366.720002,167.18656 C366.720002,167.527862 366.993646,167.804243 367.33157,167.804243 Z M372.832002,165.335366 C373.720887,165.335366 374.516108,165.825061 374.945858,166.569063 L370.719983,166.569063 C371.153406,165.813931 371.954137,165.335366 372.832002,165.335366 Z M378.332435,169.039609 L367.33157,169.039609 C366.993646,169.039609 366.720002,169.314135 366.720002,169.655437 C366.720002,169.99674 366.993646,170.273306 367.33157,170.273306 L367.33157,182.001678 C367.33157,182.34298 367.605214,182.619361 367.943137,182.619361 L377.722705,182.619361 C378.058791,182.619361 378.332435,182.34298 378.332435,182.001678 L378.332435,170.273306 C378.670358,170.273306 378.944003,169.99674 378.944003,169.655437 C378.944003,169.314135 378.670358,169.039609 378.332435,169.039609 Z M368.554704,181.38418 L377.111137,181.38418 L377.111137,170.273306 L368.554704,170.273306 L368.554704,181.38418 Z M369.776002,179.532801 L369.776002,172.126169 C369.776002,171.784867 370.049647,171.508486 370.38757,171.508486 C370.725493,171.508486 370.999137,171.784867 370.999137,172.126169 L370.999137,179.532801 C370.999137,179.874103 370.725493,180.150669 370.38757,180.150669 C370.049647,180.150669 369.776002,179.874103 369.776002,179.532801 Z M372.222272,179.532801 L372.222272,172.126169 C372.222272,171.784867 372.495916,171.508486 372.832002,171.508486 C373.169926,171.508486 373.44357,171.784867 373.44357,172.126169 L373.44357,179.532801 C373.44357,179.874103 373.169926,180.150669 372.832002,180.150669 C372.495916,180.150669 372.222272,179.874103 372.222272,179.532801 Z M374.666888,172.126169 C374.666888,171.784867 374.940349,171.508486 375.276435,171.508486 C375.614358,171.508486 375.888003,171.784867 375.888003,172.126169 L375.888003,179.532801 C375.888003,179.874103 375.614358,180.150669 375.276435,180.150669 C374.940349,180.150669 374.666888,179.874103 374.666888,179.532801 L374.666888,172.126169 Z" id="Remove"></path>
        </g>
    </g>
</svg>