<?xml version="1.0" encoding="UTF-8"?>
<svg width="14px" height="14px" viewBox="0 0 14 14" version="1.1" xmlns="http://www.w3.org/2000/svg" xmlns:xlink="http://www.w3.org/1999/xlink">
    <!-- Generator: Sketch 55 (78076) - https://sketchapp.com -->
    <title>Copy_clicked</title>
    <desc>Created with Sketch.</desc>
    <g id="Page-1" stroke="none" stroke-width="1" fill="none" fill-rule="evenodd">
        <g id="Icons-Used-Copy" transform="translate(-364.000000, -708.000000)" fill="#000000">
            <path d="M364.883515,717.82351 C364.599515,717.82351 364.367515,717.589013 364.367515,717.298683 L364.367515,710.615001 C364.367515,709.173502 365.522515,708 366.943515,708 L374.392515,708 C374.676515,708 374.908515,708.235512 374.908515,708.523812 C374.908515,708.813127 374.676515,709.047625 374.392515,709.047625 L366.943515,709.047625 C366.092515,709.047625 365.399515,709.751117 365.399515,710.615001 L365.399515,717.298683 C365.399515,717.589013 365.168515,717.82351 364.883515,717.82351 Z M368.567515,721.41 C367.487515,721.41 366.609515,720.518707 366.609515,719.422356 L366.609515,712.195574 C366.609515,711.099223 367.487515,710.208945 368.567515,710.208945 L375.685515,710.208945 C376.765515,710.208945 377.643515,711.099223 377.643515,712.195574 L377.643515,719.422356 C377.643515,720.518707 376.765515,721.41 375.685515,721.41 L368.567515,721.41 Z M368.567515,711.256569 C368.056515,711.256569 367.641515,711.677852 367.641515,712.195574 L367.641515,719.422356 C367.641515,719.940077 368.056515,720.36136 368.567515,720.36136 L375.685515,720.36136 C376.196515,720.36136 376.610515,719.940077 376.610515,719.422356 L376.610515,712.195574 C376.610515,711.677852 376.196515,711.256569 375.685515,711.256569 L368.567515,711.256569 Z" id="Copy_clicked"></path>
        </g>
    </g>
</svg>