<?xml version="1.0" encoding="UTF-8"?>
<svg width="17px" height="15px" viewBox="0 0 17 15" version="1.1" xmlns="http://www.w3.org/2000/svg" xmlns:xlink="http://www.w3.org/1999/xlink">
    <!-- Generator: Sketch 55 (78076) - https://sketchapp.com -->
    <title>Filter</title>
    <desc>Created with Sketch.</desc>
    <g id="High-fed" stroke="none" stroke-width="1" fill="none" fill-rule="evenodd">
        <g id="option-copy" transform="translate(-632.000000, -137.000000)" fill="#000000">
            <g id="Group" transform="translate(631.934106, 136.531206)">
                <path d="M7.13800278,14.7462442 C7.05550277,14.7462442 6.97135277,14.7264442 6.89380277,14.6884942 C6.70735277,14.5946092 6.59020276,14.4046942 6.59020276,14.1967942 L6.59020276,6.76684403 L0.198102626,1.44064392 C0.0199026223,1.29214391 -0.0460973792,1.04959391 0.0331026226,0.831793904 C0.112302624,0.6139939 0.318552629,0.468793896 0.549552634,0.468793896 L15.924253,0.468793896 C16.155253,0.468793896 16.361503,0.6139939 16.440703,0.831793904 C16.519903,1.04959391 16.453903,1.29214391 16.275703,1.44064392 L9.88360284,6.76684403 L9.88360284,12.5500942 C9.88360284,12.7233442 9.80275283,12.8850442 9.66415283,12.9889942 L7.46800278,14.6373442 C7.37081778,14.7099442 7.25515278,14.7462442 7.13800278,14.7462442 Z M2.06590267,1.56785892 L7.48945278,6.08704402 C7.61485279,6.19264402 7.68761779,6.34609402 7.68761779,6.50944403 L7.68761779,13.0997092 L8.78651781,12.2761942 L8.78651781,6.50944403 C8.78651781,6.34609402 8.85895281,6.19264402 8.98435282,6.08704402 L14.4079029,1.56785892 L2.06590267,1.56785892 L2.06590267,1.56785892 Z" id="Filter"></path>
            </g>
        </g>
    </g>
</svg>