<?xml version="1.0" encoding="UTF-8"?>
<svg width="20px" height="6px" viewBox="0 0 20 6" version="1.1" xmlns="http://www.w3.org/2000/svg" xmlns:xlink="http://www.w3.org/1999/xlink">
    <!-- Generator: Sketch 55 (78076) - https://sketchapp.com -->
    <title>Move to default template_without hover</title>
    <desc>Created with Sketch.</desc>
    <g id="High-fed" stroke="none" stroke-width="1" fill="none" fill-rule="evenodd">
        <g id="option_" transform="translate(-654.000000, -399.000000)" fill="#D0D0CE" fill-rule="nonzero">
            <g id="Group-46" transform="translate(55.000676, 381.846841)">
                <path d="M600.349391,22.85 C600.610558,22.85 600.870298,22.7443916 601.057539,22.5331748 C603.03841,20.3211067 605.877564,19.0509514 608.846016,19.0509514 C611.005851,19.0509514 613.090618,19.7217076 614.840007,20.949334 L614.54516,20.949334 C614.020829,20.949334 613.595255,21.3743365 613.595255,21.8998097 C613.595255,22.4249975 614.020829,22.85 614.54516,22.85 L617.394875,22.85 C617.919492,22.85 618.34478,22.4249975 618.34478,21.8998097 L618.34478,19.0509514 C618.34478,18.5257636 617.919492,18.1004757 617.394875,18.1004757 C616.870543,18.1004757 616.44497,18.5257636 616.44497,19.0509514 L616.44497,19.7790786 C614.278856,18.08335 611.614669,17.15 608.846016,17.15 C605.337534,17.15 601.982897,18.651352 599.642101,21.2658738 C599.292451,21.6569104 599.325275,22.2591637 599.716312,22.6073861 C599.897559,22.7700801 600.123903,22.85 600.349391,22.85 L600.349391,22.85 Z" id="Move-to-default-template_without-hover"></path>
            </g>
        </g>
    </g>
</svg>