<?xml version="1.0" encoding="UTF-8"?>
<svg width="38px" height="38px" viewBox="0 0 38 38" version="1.1" xmlns="http://www.w3.org/2000/svg" xmlns:xlink="http://www.w3.org/1999/xlink">
    <!-- Generator: Sketch 58 (84663) - https://sketch.com -->
    <title>clear filter@1x</title>
    <desc>Created with Sketch.</desc>
    <g id="10-August-information-gathering" stroke="none" stroke-width="1" fill="none" fill-rule="evenodd">
        <g id="clear-filter" transform="translate(0.590419, 0.000000)" fill="#000000">
            <path d="M35.820721,18.6898145 C35.820721,28.1363948 28.1361608,35.820721 18.6895805,35.820721 C9.24300026,35.820721 1.55844004,28.1363948 1.55844004,18.6898145 C1.55844004,9.24300026 9.24300026,1.55610004 18.6895805,1.55610004 C28.1361608,1.55610004 35.820721,9.24300026 35.820721,18.6898145 Z M-5.68434189e-14,18.6898145 C-5.68434189e-14,29.0113208 8.36784024,37.3768211 18.6895805,37.3768211 C29.0115548,37.3768211 37.3791611,29.0113208 37.3791611,18.6898145 C37.3791611,8.36807424 29.0115548,-2.84217094e-14 18.6895805,-2.84217094e-14 C8.36784024,-2.84217094e-14 -5.68434189e-14,8.36807424 -5.68434189e-14,18.6898145 Z" id="Fill-1759"></path>
            <path d="M26.8700757,13.4341956 C27.1300526,13.4341956 27.3621748,13.5976096 27.4513097,13.8427307 C27.5404447,14.0878518 27.4661656,14.3608275 27.265612,14.5279555 L20.07168,20.5222798 L20.07168,27.030987 C20.07168,27.2259696 19.9806881,27.4079535 19.824702,27.5249431 L17.3530645,29.3800639 C17.2436885,29.4617709 17.1135144,29.5026244 16.981669,29.5026244 C16.8888201,29.5026244 16.7941142,29.4803407 16.7068362,29.4376302 C16.4969978,29.3319681 16.3651523,29.11823 16.3651523,28.8842508 L16.3651523,20.5222798 L9.17122038,14.5279555 C8.97066678,14.3608275 8.89638767,14.0878518 8.9855226,13.8427307 C9.07465753,13.5976096 9.30677976,13.4341956 9.56675665,13.4341956 L26.8700757,13.4341956 Z M25.1635131,14.6711285 L11.2733192,14.6711285 L17.3772052,19.757205 C17.5183355,19.8760515 17.6002283,20.0487505 17.6002283,20.2325913 L17.6002283,27.6495463 L18.8369755,26.7227287 L18.8369755,20.2325913 C18.8369755,20.0487505 18.9184968,19.8760515 19.0596271,19.757205 L25.1635131,14.6711285 Z M22.234607,22.6508624 L23.2312867,24.1814776 L24.2358765,22.6508624 L25.2879272,22.6508624 L23.8166382,24.7905596 L25.3630737,27.0251787 L24.311023,27.0251787 L23.2312867,25.3877764 L22.1555055,27.0251787 L21.1034547,27.0251787 L22.64198,24.7905596 L21.1746461,22.6508624 L22.234607,22.6508624 Z" id="Combined-Shape"></path>
        </g>
    </g>
</svg>