<?xml version="1.0" encoding="UTF-8"?>
<svg width="38px" height="39px" viewBox="0 0 38 39" version="1.1" xmlns="http://www.w3.org/2000/svg" xmlns:xlink="http://www.w3.org/1999/xlink">
    <!-- Generator: Sketch 58 (84663) - https://sketch.com -->
    <title>Create infro request@1x</title>
    <desc>Created with Sketch.</desc>
    <g id="10-August-information-gathering" stroke="none" stroke-width="1" fill="none" fill-rule="evenodd">
        <g id="Create-infro-request" transform="translate(0.279998, 0.779999)" fill="#000000">
            <g id="Group-30" transform="translate(10.318581, 10.318581)" fill-rule="nonzero">
                <path d="M13.4020015,5.68000055 L13.4020015,4.51000041 C13.4020015,2.18377677 11.5162246,0.297999917 9.19000097,0.297999917 L4.51000041,0.297999917 C2.18377677,0.297999917 0.297999917,2.18377677 0.297999917,4.51000041 L0.297999917,10.3600011 C0.297999917,12.6862247 2.18377677,14.5720016 4.51000041,14.5720016 L5.68000055,14.5720016 C6.06770449,14.5720016 6.38200063,14.2577055 6.38200063,13.8700015 C6.38200063,13.4822976 6.06770449,13.1680014 5.68000055,13.1680014 L4.51000041,13.1680014 C2.95918465,13.1680014 1.70200008,11.9108169 1.70200008,10.3600011 L1.70200008,4.51000041 C1.70200008,2.95918465 2.95918465,1.70200008 4.51000041,1.70200008 L9.19000097,1.70200008 C10.7408167,1.70200008 11.9980013,2.95918465 11.9980013,4.51000041 L11.9980013,5.68000055 C11.9980013,6.06770449 12.3122974,6.38200063 12.7000014,6.38200063 C13.0877053,6.38200063 13.4020015,6.06770449 13.4020015,5.68000055 Z" id="Path-4"></path>
                <path d="M10.1740944,12.5740016 L9.99409443,11.1160016 L10.0390944,11.0710016 C11.1820944,11.0350016 11.7040944,10.6660016 11.7040944,10.0720016 L11.7040944,10.0540016 C11.7040944,9.5500016 11.3170944,9.1990016 10.6690944,9.1990016 C10.1020944,9.1990016 9.63409443,9.4510016 9.20209443,9.9100016 L8.52709443,9.1900016 C9.04909443,8.5960016 9.72409443,8.1910016 10.6960944,8.1910016 C11.9560944,8.1910016 12.8110944,8.8930016 12.8110944,10.0180016 L12.8110944,10.0360016 C12.8110944,11.1700016 11.9920944,11.6830016 10.9930944,11.8540016 L10.9030944,12.5740016 L10.1740944,12.5740016 Z M9.91309443,14.5720016 L9.91309443,13.3300016 L11.1190944,13.3300016 L11.1190944,14.5720016 L9.91309443,14.5720016 Z" id="?"></path>
            </g>
            <path d="M18.6895822,1.55610018 C28.1361633,1.55610018 35.8207242,9.24300109 35.8207242,18.6895822 C35.8207242,28.1361633 28.1361633,35.8207242 18.6895822,35.8207242 C9.24300109,35.8207242 1.55610018,28.1361633 1.55610018,18.6895822 C1.55610018,9.24300109 9.24300109,1.55610018 18.6895822,1.55610018 M18.6895822,-1.13686838e-13 C8.36784099,-1.13686838e-13 -2.13162821e-13,8.36784099 -2.13162821e-13,18.6895822 C-2.13162821e-13,29.0113234 8.36784099,37.3791644 18.6895822,37.3791644 C29.0113234,37.3791644 37.3791644,29.0113234 37.3791644,18.6895822 C37.3791644,8.36784099 29.0113234,-1.13686838e-13 18.6895822,-1.13686838e-13" id="Fill-279"></path>
        </g>
    </g>
</svg>