<?xml version="1.0" encoding="UTF-8"?>
<svg width="38px" height="38px" viewBox="0 0 38 38" version="1.1" xmlns="http://www.w3.org/2000/svg" xmlns:xlink="http://www.w3.org/1999/xlink">
    <!-- Generator: Sketch 58 (84663) - https://sketch.com -->
    <title>delete@1x</title>
    <desc>Created with Sketch.</desc>
    <g id="10-August-information-gathering" stroke="none" stroke-width="1" fill="none" fill-rule="evenodd">
        <g id="delete" transform="translate(0.239998, 0.279999)" fill="#000000">
            <path d="M18.6895822,1.55610018 C28.1361633,1.55610018 35.8207242,9.24300109 35.8207242,18.6895822 C35.8207242,28.1361633 28.1361633,35.8207242 18.6895822,35.8207242 C9.24300109,35.8207242 1.55610018,28.1361633 1.55610018,18.6895822 C1.55610018,9.24300109 9.24300109,1.55610018 18.6895822,1.55610018 M18.6895822,0 C8.36784099,0 -2.27373675e-13,8.36784099 -2.27373675e-13,18.6895822 C-2.27373675e-13,29.0113234 8.36784099,37.3791644 18.6895822,37.3791644 C29.0113234,37.3791644 37.3791644,29.0113234 37.3791644,18.6895822 C37.3791644,8.36784099 29.0113234,0 18.6895822,0" id="Fill-279"></path>
            <path d="M13.1891493,13.1891493 L24.1900151,13.1891493 C24.5279382,13.1891493 24.8015824,12.9155051 24.8015824,12.577582 C24.8015824,12.2396589 24.5279382,11.9661983 24.1900151,11.9661983 L22.1387852,11.9661983 C21.626391,10.5263521 20.254313,9.52158184 18.6895822,9.52158184 C17.2332071,9.52158184 15.9145725,10.384755 15.3289003,11.7199185 C15.2938225,11.8025627 15.2662744,11.8852069 15.2368898,11.9661983 L13.1891493,11.9661983 C12.8512262,11.9661983 12.577582,12.2396589 12.577582,12.577582 C12.577582,12.9155051 12.8512262,13.1891493 13.1891493,13.1891493 Z M18.6895822,10.7447165 C19.5784669,10.7447165 20.373688,11.2295627 20.8034381,11.9661983 L16.5775629,11.9661983 C17.010986,11.2185434 17.8117168,10.7447165 18.6895822,10.7447165 Z M24.1900151,14.412284 L13.1891493,14.412284 C12.8512262,14.412284 12.577582,14.6840917 12.577582,15.0220148 C12.577582,15.3599378 12.8512262,15.6337657 13.1891493,15.6337657 L13.1891493,27.2460152 C13.1891493,27.5839383 13.4627935,27.8575826 13.8007166,27.8575826 L23.5802843,27.8575826 C23.9163709,27.8575826 24.1900151,27.5839383 24.1900151,27.2460152 L24.1900151,15.6337657 C24.5279382,15.6337657 24.8015824,15.3599378 24.8015824,15.0220148 C24.8015824,14.6840917 24.5279382,14.412284 24.1900151,14.412284 Z M14.412284,26.6346316 L22.968717,26.6346316 L22.968717,15.6337657 L14.412284,15.6337657 L14.412284,26.6346316 Z M15.6335821,24.8015824 L15.6335821,17.4682841 C15.6335821,17.130361 15.9072263,16.8567167 16.2451494,16.8567167 C16.5830725,16.8567167 16.8567167,17.130361 16.8567167,17.4682841 L16.8567167,24.8015824 C16.8567167,25.1395055 16.5830725,25.4133334 16.2451494,25.4133334 C15.9072263,25.4133334 15.6335821,25.1395055 15.6335821,24.8015824 Z M18.0798514,24.8015824 L18.0798514,17.4682841 C18.0798514,17.130361 18.3534957,16.8567167 18.6895822,16.8567167 C19.0275053,16.8567167 19.3011495,17.130361 19.3011495,17.4682841 L19.3011495,24.8015824 C19.3011495,25.1395055 19.0275053,25.4133334 18.6895822,25.4133334 C18.3534957,25.4133334 18.0798514,25.1395055 18.0798514,24.8015824 Z M20.5244679,17.4682841 C20.5244679,17.130361 20.7979284,16.8567167 21.134015,16.8567167 C21.4719381,16.8567167 21.7455823,17.130361 21.7455823,17.4682841 L21.7455823,24.8015824 C21.7455823,25.1395055 21.4719381,25.4133334 21.134015,25.4133334 C20.7979284,25.4133334 20.5244679,25.1395055 20.5244679,24.8015824 L20.5244679,17.4682841 Z" id="Fill-112"></path>
        </g>
    </g>
</svg>