<?xml version="1.0" encoding="UTF-8"?>
<svg width="39px" height="39px" viewBox="0 0 39 39" version="1.1" xmlns="http://www.w3.org/2000/svg" xmlns:xlink="http://www.w3.org/1999/xlink">
    <!-- Generator: Sketch 58 (84663) - https://sketch.com -->
    <title>pullback@1x</title>
    <desc>Created with Sketch.</desc>
    <g id="10-August-information-gathering" stroke="none" stroke-width="1" fill="none" fill-rule="evenodd">
        <g id="pullback" transform="translate(0.569578, 0.779999)" fill="#000000" fill-rule="nonzero">
            <path d="M19,1.58333333 C28.5791667,1.58333333 36.4166667,9.42083333 36.4166667,19 C36.4166667,28.5791667 28.5791667,36.4166667 19,36.4166667 C9.42083333,36.4166667 1.58333333,28.5791667 1.58333333,19 C1.58333333,9.42083333 9.42083333,1.58333333 19,1.58333333 L19,1.58333333 Z M19,0 C8.47083333,0 0,8.47083333 0,19 C0,29.5291667 8.47083333,38 19,38 C29.5291667,38 38,29.5291667 38,19 C38,8.47083333 29.5291667,0 19,0 L19,0 Z" id="Shape"></path>
            <path d="M25.3333333,13.4583333 L9.81666667,13.4583333 L11.6375,11.6375 C11.9541667,11.3208333 11.9541667,10.8458333 11.6375,10.5291667 C11.3208333,10.2125 10.8458333,10.2125 10.5291667,10.5291667 L7.3625,13.6958333 C7.04583333,14.0125 7.04583333,14.4875 7.3625,14.8041667 L10.5291667,17.9708333 C10.6875,18.1291667 10.925,18.2083333 11.0833333,18.2083333 C11.2416667,18.2083333 11.4791667,18.1291667 11.6375,17.9708333 C11.9541667,17.6541667 11.9541667,17.1791667 11.6375,16.8625 L9.81666667,15.0416667 L25.3333333,15.0416667 C27.55,15.0416667 29.2916667,16.7833333 29.2916667,19 C29.2916667,21.2166667 27.55,22.9583333 25.3333333,22.9583333 L9.5,22.9583333 C9.025,22.9583333 8.70833333,23.275 8.70833333,23.75 C8.70833333,24.225 9.025,24.5416667 9.5,24.5416667 L25.3333333,24.5416667 C28.4208333,24.5416667 30.875,22.0875 30.875,19 C30.875,15.9125 28.4208333,13.4583333 25.3333333,13.4583333 Z" id="Path"></path>
        </g>
    </g>
</svg>