<?xml version="1.0" encoding="UTF-8"?>
<svg width="10px" height="14px" viewBox="0 0 10 14" version="1.1" xmlns="http://www.w3.org/2000/svg" xmlns:xlink="http://www.w3.org/1999/xlink">
    <!-- Generator: Sketch 55 (78076) - https://sketchapp.com -->
    <title>Remove_clicked</title>
    <desc>Created with Sketch.</desc>
    <g id="Page-1" stroke="none" stroke-width="1" fill="none" fill-rule="evenodd">
        <g id="Icons-Used-Copy" transform="translate(-387.000000, -708.000000)" fill="#000000">
            <path d="M388.166824,710.682395 L396.212034,710.682395 C396.459165,710.682395 396.659288,710.482272 396.659288,710.23514 C396.659288,709.988009 396.459165,709.78802 396.212034,709.78802 L394.711918,709.78802 C394.337191,708.735024 393.333756,708.00021 392.189429,708.00021 C391.124345,708.00021 390.159994,708.631471 389.731677,709.607909 C389.706024,709.668349 389.685877,709.728789 389.664388,709.78802 L388.166824,709.78802 C387.919692,709.78802 387.719569,709.988009 387.719569,710.23514 C387.719569,710.482272 387.919692,710.682395 388.166824,710.682395 Z M392.189429,708.89472 C392.839492,708.89472 393.421058,709.2493 393.735345,709.78802 L390.644856,709.78802 C390.961829,709.241241 391.547424,708.89472 392.189429,708.89472 Z M396.212034,711.576904 L388.166824,711.576904 C387.919692,711.576904 387.719569,711.775684 387.719569,712.022816 C387.719569,712.269947 387.919692,712.470204 388.166824,712.470204 L388.166824,720.962535 C388.166824,721.209667 388.366947,721.40979 388.614078,721.40979 L395.766122,721.40979 C396.011911,721.40979 396.212034,721.209667 396.212034,720.962535 L396.212034,712.470204 C396.459165,712.470204 396.659288,712.269947 396.659288,712.022816 C396.659288,711.775684 396.459165,711.576904 396.212034,711.576904 Z M389.061333,720.515415 L395.318868,720.515415 L395.318868,712.470204 L389.061333,712.470204 L389.061333,720.515415 Z M389.954499,719.17486 L389.954499,713.811834 C389.954499,713.564702 390.154622,713.364579 390.401753,713.364579 C390.648885,713.364579 390.849008,713.564702 390.849008,713.811834 L390.849008,719.17486 C390.849008,719.421991 390.648885,719.622249 390.401753,719.622249 C390.154622,719.622249 389.954499,719.421991 389.954499,719.17486 Z M391.743517,719.17486 L391.743517,713.811834 C391.743517,713.564702 391.94364,713.364579 392.189429,713.364579 C392.43656,713.364579 392.636683,713.564702 392.636683,713.811834 L392.636683,719.17486 C392.636683,719.421991 392.43656,719.622249 392.189429,719.622249 C391.94364,719.622249 391.743517,719.421991 391.743517,719.17486 Z M393.531327,713.811834 C393.531327,713.564702 393.731315,713.364579 393.977104,713.364579 C394.224236,713.364579 394.424359,713.564702 394.424359,713.811834 L394.424359,719.17486 C394.424359,719.421991 394.224236,719.622249 393.977104,719.622249 C393.731315,719.622249 393.531327,719.421991 393.531327,719.17486 L393.531327,713.811834 Z" id="Remove_clicked"></path>
        </g>
    </g>
</svg>