<?xml version="1.0" encoding="UTF-8"?>
<svg width="38px" height="38px" viewBox="0 0 38 38" version="1.1" xmlns="http://www.w3.org/2000/svg" xmlns:xlink="http://www.w3.org/1999/xlink">
    <!-- Generator: Sketch 58 (84663) - https://sketch.com -->
    <title>Save as draft@1x</title>
    <desc>Created with Sketch.</desc>
    <g id="Page-1" stroke="none" stroke-width="1" fill="none" fill-rule="evenodd">
        <g id="Save-as-draft" transform="translate(0.279998, 0.279999)" fill="#000000">
            <g id="Group-30" transform="translate(10.318581, 8.318581)" fill-rule="nonzero">
                <path d="M8.05709439,1.06750078 C8.31709441,0.807500762 8.73709445,0.807500762 8.99709447,1.06750078 L8.99709447,1.06750078 L16.3190951,8.38950144 C16.4490951,8.51950145 16.5150951,8.68950147 16.5150951,8.85950148 L16.5150951,8.85950148 L16.5150951,18.8435024 C16.5150951,19.2115024 16.2150951,19.5095024 15.8490951,19.5095024 L15.8490951,19.5095024 L1.20509378,19.5095024 C0.837093745,19.5095024 0.539093718,19.2115024 0.539093718,18.8435024 L0.539093718,18.8435024 L0.539093718,8.85950148 C0.539093718,8.68950147 0.605093724,8.51950145 0.735093736,8.38950144 L0.735093736,8.38950144 Z M10.2991345,14.182822 L6.71737435,14.182822 L2.56569414,18.3345022 L14.4508148,18.3345022 L10.2991345,14.182822 Z M1.70255578,10.2667461 L1.70255578,17.4559104 L5.53747038,13.6209958 L1.70255578,10.2667461 Z M15.4304948,10.1705017 L11.5970546,13.5234619 L15.4304948,17.3569021 L15.4304948,10.1705017 Z M8.52948151,2.22645273 L1.92481389,8.83091227 L6.71273494,13.0195629 L10.3458119,13.0195629 L15.133733,8.83091227 L8.52948151,2.22645273 Z M8.97709443,10.5239587 L8.97709443,11.7659587 L7.77109443,11.7659587 L7.77109443,10.5239587 L8.97709443,10.5239587 Z M8.55409443,5.38495873 C9.81409443,5.38495873 10.6690944,6.08695873 10.6690944,7.21195873 L10.6690944,7.22995873 C10.6690944,8.36395873 9.85009443,8.87695873 8.85109443,9.04795873 L8.76109443,9.76795873 L8.03209443,9.76795873 L7.85209443,8.30995873 L7.89709443,8.26495873 C9.04009443,8.22895873 9.56209443,7.85995873 9.56209443,7.26595873 L9.56209443,7.24795873 C9.56209443,6.74395873 9.17509443,6.39295873 8.52709443,6.39295873 C7.96009443,6.39295873 7.49209443,6.64495873 7.06009443,7.10395873 L6.38509443,6.38395873 C6.90709443,5.78995873 7.58209443,5.38495873 8.55409443,5.38495873 Z" id="Combined-Shape"></path>
            </g>
            <path d="M18.6895822,1.55610018 C28.1361633,1.55610018 35.8207242,9.24300109 35.8207242,18.6895822 C35.8207242,28.1361633 28.1361633,35.8207242 18.6895822,35.8207242 C9.24300109,35.8207242 1.55610018,28.1361633 1.55610018,18.6895822 C1.55610018,9.24300109 9.24300109,1.55610018 18.6895822,1.55610018 M18.6895822,0 C8.36784099,0 -2.27373675e-13,8.36784099 -2.27373675e-13,18.6895822 C-2.27373675e-13,29.0113234 8.36784099,37.3791644 18.6895822,37.3791644 C29.0113234,37.3791644 37.3791644,29.0113234 37.3791644,18.6895822 C37.3791644,8.36784099 29.0113234,0 18.6895822,0" id="Fill-279"></path>
        </g>
    </g>
</svg>