<?xml version="1.0" encoding="UTF-8"?>
<svg width="38px" height="38px" viewBox="0 0 38 38" version="1.1" xmlns="http://www.w3.org/2000/svg" xmlns:xlink="http://www.w3.org/1999/xlink">
    <!-- Generator: Sketch 58 (84663) - https://sketch.com -->
    <title>Save progress@1x</title>
    <desc>Created with Sketch.</desc>
    <g id="Page-1" stroke="none" stroke-width="1" fill="none" fill-rule="evenodd">
        <g id="Save-progress" fill="#000000" fill-rule="nonzero">
            <path d="M19,1.58333333 C28.5791667,1.58333333 36.4166667,9.42083333 36.4166667,19 C36.4166667,28.5791667 28.5791667,36.4166667 19,36.4166667 C9.42083333,36.4166667 1.58333333,28.5791667 1.58333333,19 C1.58333333,9.42083333 9.42083333,1.58333333 19,1.58333333 L19,1.58333333 Z M19,0 C8.47083333,0 0,8.47083333 0,19 C0,29.5291667 8.47083333,38 19,38 C29.5291667,38 38,29.5291667 38,19 C38,8.47083333 29.5291667,0 19,0 L19,0 Z" id="Shape"></path>
            <path d="M27.7923077,12.9769231 L25.0230769,10.2076923 C24.8846154,10.0692308 24.7461538,10 24.5384615,10 L10.6923077,10 C10.2769231,10 10,10.2769231 10,10.6923077 L10,27.3076923 C10,27.7230769 10.2769231,28 10.6923077,28 L27.3076923,28 C27.7230769,28 28,27.7230769 28,27.3076923 L28,13.4615385 C28,13.2538462 27.9307692,13.1153846 27.7923077,12.9769231 Z M15.5384615,11.3846154 L22.4615385,11.3846154 L22.4615385,15.5384615 L15.5384615,15.5384615 L15.5384615,11.3846154 Z M23.8461538,26.6153846 L14.1538462,26.6153846 L14.1538462,19.6923077 L23.8461538,19.6923077 L23.8461538,26.6153846 Z M26.6153846,26.6153846 L25.2307692,26.6153846 L25.2307692,19 C25.2307692,18.5846154 24.9538462,18.3076923 24.5384615,18.3076923 L13.4615385,18.3076923 C13.0461538,18.3076923 12.7692308,18.5846154 12.7692308,19 L12.7692308,26.6153846 L11.3846154,26.6153846 L11.3846154,11.3846154 L14.1538462,11.3846154 L14.1538462,16.2307692 C14.1538462,16.6461538 14.4307692,16.9230769 14.8461538,16.9230769 L23.1538462,16.9230769 C23.5692308,16.9230769 23.8461538,16.6461538 23.8461538,16.2307692 L23.8461538,11.3846154 L24.2615385,11.3846154 L26.6153846,13.7384615 L26.6153846,26.6153846 Z M15.5384615,21.7692308 C15.5384615,21.3538462 15.8153846,21.0769231 16.2307692,21.0769231 L21.7692308,21.0769231 C22.1846154,21.0769231 22.4615385,21.3538462 22.4615385,21.7692308 C22.4615385,22.1846154 22.1846154,22.4615385 21.7692308,22.4615385 L16.2307692,22.4615385 C15.8153846,22.4615385 15.5384615,22.1846154 15.5384615,21.7692308 Z M15.5384615,24.5384615 C15.5384615,24.1230769 15.8153846,23.8461538 16.2307692,23.8461538 L21.7692308,23.8461538 C22.1846154,23.8461538 22.4615385,24.1230769 22.4615385,24.5384615 C22.4615385,24.9538462 22.1846154,25.2307692 21.7692308,25.2307692 L16.2307692,25.2307692 C15.8153846,25.2307692 15.5384615,24.9538462 15.5384615,24.5384615 Z" id="Shape"></path>
        </g>
    </g>
</svg>