<?xml version="1.0" encoding="UTF-8"?>
<svg width="39px" height="38px" viewBox="0 0 39 38" version="1.1" xmlns="http://www.w3.org/2000/svg" xmlns:xlink="http://www.w3.org/1999/xlink">
    <!-- Generator: Sketch 58 (84663) - https://sketch.com -->
    <title>send reminder@1x</title>
    <desc>Created with Sketch.</desc>
    <g id="10-August-information-gathering" stroke="none" stroke-width="1" fill="none" fill-rule="evenodd">
        <g id="send-reminder" transform="translate(0.919998, 0.279999)" fill="#000000">
            <path d="M18.6895822,1.55610018 C28.1361633,1.55610018 35.8207242,9.24300109 35.8207242,18.6895822 C35.8207242,28.1361633 28.1361633,35.8207242 18.6895822,35.8207242 C9.24300109,35.8207242 1.55610018,28.1361633 1.55610018,18.6895822 C1.55610018,9.24300109 9.24300109,1.55610018 18.6895822,1.55610018 M18.6895822,0 C8.36784099,0 -2.27373675e-13,8.36784099 -2.27373675e-13,18.6895822 C-2.27373675e-13,29.0113234 8.36784099,37.3791644 18.6895822,37.3791644 C29.0113234,37.3791644 37.3791644,29.0113234 37.3791644,18.6895822 C37.3791644,8.36784099 29.0113234,0 18.6895822,0" id="Fill-279"></path>
            <path d="M25.9550249,18.8453076 C25.9550249,14.7205685 22.6963915,11.3643635 18.6895822,11.3643635 C14.6847575,11.3643635 11.424338,14.7205685 11.424338,18.8453076 C11.424338,21.0834589 12.3886315,23.0885972 13.9048288,24.4621476 L12.8153101,26.7043868 C12.6525769,27.0395985 12.7835572,27.4483933 13.1110082,27.6159991 C13.2062667,27.6650545 13.3054943,27.6895822 13.4047218,27.6895822 C13.6488217,27.6895822 13.8810142,27.550592 13.9961182,27.313491 L14.9883939,25.2715612 C16.0739435,25.9378967 17.3363166,26.3282957 18.6895822,26.3282957 C20.0430463,26.3282957 21.3052209,25.9378967 22.3927551,25.2715612 L23.3830463,27.313491 C23.4981502,27.550592 23.7323273,27.6895822 23.9744426,27.6895822 C24.0736701,27.6895822 24.1748823,27.6650545 24.2681562,27.6159991 C24.5956072,27.4483933 24.7265876,27.0395985 24.5638543,26.7043868 L23.4743356,24.4621476 C24.9905329,23.0885972 25.9550249,21.0834589 25.9550249,18.8453076 Z M12.7458508,18.8453076 C12.7458508,15.4707069 15.4130878,12.7236061 18.6895822,12.7236061 C21.9680611,12.7236061 24.6333136,15.4707069 24.6333136,18.8453076 C24.6333136,22.2219523 21.9680611,24.9670091 18.6895822,24.9670091 C15.4130878,24.9670091 12.7458508,22.2219523 12.7458508,18.8453076 Z M20.4856012,17.6925064 C20.7396238,17.9643549 20.7316856,18.3956334 20.4697248,18.655218 L19.148212,19.9674492 L19.146029,19.9654052 C19.0190177,20.0921316 18.8543,20.1575388 18.6895822,20.1575388 C18.5228799,20.1575388 18.3561776,20.0921316 18.2271817,19.9633613 L15.5857438,17.2898435 C15.3257676,17.0261709 15.3217985,16.5969364 15.5760195,16.3293802 C15.8318282,16.0593713 16.2505685,16.0573273 16.5105448,16.318956 L18.6935513,18.5284917 L19.5528621,17.6761546 C19.8148228,17.4145259 20.2335632,17.4227018 20.4856012,17.6925064 Z M11.4578769,14.7634919 C11.28919,14.7634919 11.1205032,14.6980848 10.9915073,14.5652265 C10.6481799,14.213663 10.4596476,13.743549 10.4596476,13.2427754 C10.4596476,12.7440458 10.6481799,12.2739318 10.9915073,11.9223683 L12.6269761,10.23609 C13.3352625,9.5084353 14.4863023,9.50639132 15.1947872,10.23609 C15.4527789,10.5018066 15.4527789,10.933085 15.1947872,11.1988016 C14.9367955,11.4645182 14.5180552,11.4645182 14.2600635,11.1988016 C14.067562,11.0005362 13.7540029,11.0005362 13.5616999,11.1988016 L11.9244449,12.883036 C11.8329571,12.9791028 11.7813588,13.1058292 11.7813588,13.2427754 C11.7813588,13.3797217 11.8329571,13.508492 11.9244449,13.6025148 C12.1822382,13.8682314 12.1822382,14.2995099 11.926231,14.5652265 C11.7972352,14.6980848 11.6267622,14.7634919 11.4578769,14.7634919 Z M26.9195168,13.2427754 C26.9195168,13.743549 26.7309845,14.213663 26.3876571,14.5652265 C26.2586612,14.6980848 26.0899744,14.7634919 25.9212875,14.7634919 C25.7526006,14.7634919 25.5839138,14.6980848 25.4549179,14.5652265 C25.1969262,14.2995099 25.1969262,13.8682314 25.4549179,13.6025148 C25.5462073,13.508492 25.5978056,13.3797217 25.5978056,13.2427754 C25.5978056,13.1058292 25.5462073,12.9791028 25.4549179,12.883036 L23.817663,11.1988016 C23.6251615,11.0005362 23.3116024,11.0005362 23.1191009,11.1988016 C22.8611092,11.4645182 22.4443534,11.4645182 22.1863618,11.1988016 C21.9283701,10.933085 21.9283701,10.5018066 22.1863618,10.23609 C22.8928621,9.5084353 24.0439019,9.50639132 24.7523867,10.23609 L26.3876571,11.9223683 C26.7309845,12.2739318 26.9195168,12.7440458 26.9195168,13.2427754 L26.9195168,13.2427754 Z" id="Fill-1642"></path>
        </g>
    </g>
</svg>