<?xml version="1.0" encoding="UTF-8"?>
<svg width="38px" height="38px" viewBox="0 0 38 38" version="1.1" xmlns="http://www.w3.org/2000/svg" xmlns:xlink="http://www.w3.org/1999/xlink">
    <!-- Generator: Sketch 58 (84663) - https://sketch.com -->
    <title>send back for review@1x</title>
    <desc>Created with Sketch.</desc>
    <g id="Page-1" stroke="none" stroke-width="1" fill="none" fill-rule="evenodd">
        <g id="send-back-for-review" fill="#000000" fill-rule="nonzero">
            <path d="M19,0 C29.5291667,0 38,8.47083333 38,19 C38,29.5291667 29.5291667,38 19,38 C8.47083333,38 0,29.5291667 0,19 C0,8.47083333 8.47083333,0 19,0 Z M19,1.58333333 C9.42083333,1.58333333 1.58333333,9.42083333 1.58333333,19 C1.58333333,28.5791667 9.42083333,36.4166667 19,36.4166667 C28.5791667,36.4166667 36.4166667,28.5791667 36.4166667,19 C36.4166667,9.42083333 28.5791667,1.58333333 19,1.58333333 Z M28.6583333,8.7875 C28.7375,8.7875 28.8166667,8.86666667 28.8958333,8.86666667 C28.975,8.94583333 29.1333333,9.025 29.2125,9.10416667 C29.2125,9.18333333 29.2916667,9.18333333 29.2916667,9.2625 L29.2916667,9.57916667 L29.2916667,9.57916667 C29.2916667,9.63854167 29.2916667,9.69791667 29.2582682,9.75729167 L29.2125,9.81666667 L29.2125,9.81666667 L19.7125,30.4 C19.6333333,30.6375 19.3166667,30.7958333 19.0791667,30.875 L19,30.875 L19,30.875 C18.7625,30.875 18.525,30.7958333 18.3666667,30.5583333 L13.6958333,24.3041667 L7.44166667,19.6333333 C7.20416667,19.475 7.125,19.1583333 7.125,18.9208333 C7.125,18.6833333 7.3625,18.3666667 7.6,18.2875 L28.1833333,8.7875 L28.2625,8.7875 L28.2625,8.7875 C28.4208333,8.70833333 28.5,8.70833333 28.6583333,8.7875 Z M25.8875,13.2208333 L15.2791667,23.8291667 L18.8416667,28.5791667 L25.8875,13.2208333 Z M24.7791667,12.1125 L9.42083333,19.1583333 L14.1708333,22.7208333 L24.7791667,12.1125 Z" id="Combined-Shape"></path>
        </g>
    </g>
</svg>