<?xml version="1.0" encoding="UTF-8"?>
<svg width="38px" height="38px" viewBox="0 0 38 38" version="1.1" xmlns="http://www.w3.org/2000/svg" xmlns:xlink="http://www.w3.org/1999/xlink">
    <!-- Generator: Sketch 58 (84663) - https://sketch.com -->
    <title>Abbrevation-table@1x</title>
    <desc>Created with Sketch.</desc>
    <g id="documnet-view" stroke="none" stroke-width="1" fill="none" fill-rule="evenodd">
        <g id="Abbrevation-table" fill="#000000">
            <path d="M19.1895822,0 C29.5113234,0 37.8791644,8.4515194 37.8791644,18.876478 C37.8791644,29.3014367 29.5113234,37.7529561 19.1895822,37.7529561 C8.86784099,37.7529561 0.5,29.3014367 0.5,18.876478 C0.5,8.4515194 8.86784099,0 19.1895822,0 Z M19.1895822,1.57166119 C9.74300109,1.57166119 2.05610018,9.3354311 2.05610018,18.876478 C2.05610018,28.417525 9.74300109,36.1789315 19.1895822,36.1789315 C28.6361633,36.1789315 36.3207242,28.417525 36.3207242,18.876478 C36.3207242,9.3354311 28.6361633,1.57166119 19.1895822,1.57166119 Z M9.17470508,10.1 L25.4062397,10.1 C25.7461787,10.1 26.0273338,10.3587466 26.0756435,10.6946909 L26.082977,10.7976086 L26.082977,16.1654194 C26.082977,16.6242368 25.7396432,17.0028642 25.2958776,17.0583997 L25.1829845,17.0654119 L15.2633088,17.0654119 L15.2633088,27.3800075 C15.2633088,27.8388248 14.919975,28.2174523 14.4762094,28.2729878 L14.3633162,28.28 L9.17470508,28.28 C8.83661354,28.28 8.55562639,28.0211284 8.50733196,27.6851613 L8.5,27.5822401 L8.5,10.7976086 C8.5,10.4480402 8.75025156,10.1575147 9.07516634,10.1075808 L9.17470508,10.1 L25.4062397,10.1 Z M29.5,23.7731337 L29.5,27.68006 L25.7297828,27.68006 L25.7297828,26.7646112 L28.6114683,26.7646112 L28.6114683,23.7731337 L29.5,23.7731337 Z M13.9098341,22.6863724 L9.85144241,22.6863724 L9.85144241,26.8825302 L13.9098341,26.8825302 L13.9098341,22.6863724 Z M20.9654552,19.8662073 L23.0166314,25.7857927 L21.6940583,25.7857927 L21.2743195,24.3825122 L19.1637463,24.3825122 L18.7440075,25.7857927 L17.4214344,25.7857927 L19.4646911,19.8662073 L20.9654552,19.8662073 Z M25.5469434,19.8904018 C26.3679459,19.8904018 26.9638898,20.0093569 27.3347929,20.2472705 C27.705696,20.4851842 27.8911448,20.8635554 27.8911448,21.3823954 C27.8911448,21.7345614 27.8099697,22.0235483 27.6476171,22.2493646 C27.4852645,22.475181 27.2694576,22.6109376 27.0001898,22.6566386 L27.0001898,22.6969627 C27.3671331,22.7802997 27.6317771,22.9362182 27.7941297,23.1647229 C27.9564823,23.3932275 28.0376574,23.6969998 28.0376574,24.0760487 C28.0376574,24.6137067 27.8469289,25.0330737 27.4654663,25.3341622 C27.0840037,25.6352507 26.5659351,25.7857927 25.9112449,25.7857927 L23.7452345,25.7857927 L23.7452345,19.8904018 L25.5469434,19.8904018 Z M25.733054,23.2171443 L24.9727724,23.2171443 L24.9727724,24.7534944 L25.772652,24.7534944 C26.1105565,24.7534944 26.3600214,24.6876323 26.5210541,24.5559061 C26.6820867,24.4241799 26.7626019,24.2225611 26.7626019,23.9510438 C26.7626019,23.461775 26.4194227,23.2171443 25.733054,23.2171443 Z M20.2210128,20.7815655 C20.1338968,21.1256667 19.8844319,21.9764978 19.4726107,23.3340843 L20.9812944,23.3340843 C20.593232,22.0625231 20.3747853,21.3434162 20.3259475,21.1767422 C20.2771097,21.0100682 20.2421319,20.878344 20.2210128,20.7815655 Z M25.6182198,20.9146352 L24.9727724,20.9146352 L24.9727724,22.2251702 L25.6855364,22.2251702 C26.0181612,22.2251702 26.2590466,22.1727493 26.4081998,22.067906 C26.557353,21.9630626 26.6319285,21.7896705 26.6319285,21.5477244 C26.6319285,21.321908 26.5507534,21.159941 26.3884008,21.0618184 C26.2260482,20.9636958 25.9693238,20.9146352 25.6182198,20.9146352 Z M19.9223206,17.97194 L19.9223206,18.8873888 L17.0406351,18.8873888 L17.0406351,21.8788663 L16.1521034,21.8788663 L16.1521034,17.97194 L19.9223206,17.97194 Z M13.9098341,17.092896 L9.85144241,17.092896 L9.85144241,21.2869527 L13.9098341,21.2869527 L13.9098341,17.092896 Z M19.3196682,11.4973185 L15.2633088,11.4973185 L15.2633088,15.6934763 L19.3196682,15.6934763 L19.3196682,11.4973185 Z M24.7315346,11.4973185 L20.6731429,11.4973185 L20.6731429,15.6934763 L24.7315346,15.6934763 L24.7315346,11.4973185 Z M13.9098341,11.4973185 L9.85144241,11.4973185 L9.85144241,15.6934763 L13.9098341,15.6934763 L13.9098341,11.4973185 Z" id="Combined-Shape"></path>
        </g>
    </g>
</svg>