<?xml version="1.0" encoding="UTF-8"?>
<svg width="38px" height="38px" viewBox="0 0 38 38" version="1.1" xmlns="http://www.w3.org/2000/svg" xmlns:xlink="http://www.w3.org/1999/xlink">
    <!-- Generator: Sketch 58 (84663) - https://sketch.com -->
    <title>abbrevation@1x</title>
    <desc>Created with Sketch.</desc>
    <g id="documnet-view" stroke="none" stroke-width="1" fill="none" fill-rule="evenodd">
        <g id="abbrevation" transform="translate(0.500000, 0.000000)" fill="#000000" fill-rule="nonzero">
            <path d="M18.6895822,-1.91846539e-13 C29.0113234,-1.91846539e-13 37.3791644,8.4515194 37.3791644,18.876478 C37.3791644,29.3014367 29.0113234,37.7529561 18.6895822,37.7529561 C8.36784099,37.7529561 -1.70530257e-13,29.3014367 -1.70530257e-13,18.876478 C-1.70530257e-13,8.4515194 8.36784099,-1.91846539e-13 18.6895822,-1.91846539e-13 Z M18.6895822,1.57166119 C9.24300109,1.57166119 1.55610018,9.3354311 1.55610018,18.876478 C1.55610018,28.417525 9.24300109,36.1789315 18.6895822,36.1789315 C28.1361633,36.1789315 35.8207242,28.417525 35.8207242,18.876478 C35.8207242,9.3354311 28.1361633,1.57166119 18.6895822,1.57166119 Z M29,20.1630488 L29,26.26 L23.0683867,26.26 L23.0683867,24.831397 L27.6020894,24.831397 L27.6020894,20.1630488 L29,20.1630488 Z M15.5727577,14.0660976 L18.7998355,23.3039024 L16.7190556,23.3039024 L16.0586883,21.1140141 L12.7381623,21.1140141 L12.077795,23.3039024 L9.9970151,23.3039024 L13.2116332,14.0660976 L15.5727577,14.0660976 Z M22.7807288,14.1038543 C24.072397,14.1038543 25.0099845,14.2894895 25.5935195,14.6607655 C26.1770546,15.0320415 26.4688177,15.6225084 26.4688177,16.4321838 C26.4688177,16.9817563 26.3411064,17.4327345 26.0856801,17.7851321 C25.8302537,18.1375297 25.4907286,18.3493846 25.0670947,18.4207031 L25.0670947,18.483631 C25.6443998,18.6136824 26.0607593,18.8570009 26.3161856,19.2135937 C26.571612,19.5701865 26.6993232,20.0442381 26.6993232,20.6357626 C26.6993232,21.4748045 26.3992537,22.1292473 25.7991056,22.5991108 C25.1989575,23.0689742 24.3838897,23.3039024 23.3538777,23.3039024 L19.9461334,23.3039024 L19.9461334,14.1038543 L22.7807288,14.1038543 Z M23.0735331,19.2953999 L21.8773962,19.2953999 L21.8773962,21.6929501 L23.1358319,21.6929501 C23.667451,21.6929501 24.0599295,21.590169 24.3132792,21.3846037 C24.5666289,21.1790385 24.6933019,20.8644025 24.6933019,20.4406863 C24.6933019,19.6771582 24.1533844,19.2953999 23.0735331,19.2953999 Z M14.4015402,15.4945592 C14.2644822,16.031546 13.8720037,17.3593099 13.2240929,19.4778906 L15.5976772,19.4778906 C14.9871459,17.4935566 14.6434676,16.3713549 14.566632,16.1112519 C14.4897965,15.8511489 14.4347664,15.6455868 14.4015402,15.4945592 Z M22.8928666,15.702221 L21.8773962,15.702221 L21.8773962,17.7473754 L22.9987746,17.7473754 C23.5220871,17.7473754 23.9010677,17.66557 24.1357276,17.5019569 C24.3703876,17.3383437 24.4877159,17.0677568 24.4877159,16.6901879 C24.4877159,16.3377903 24.3600046,16.0850327 24.1045782,15.9319076 C23.8491519,15.7787825 23.445252,15.702221 22.8928666,15.702221 Z M13.9316133,11.11 L13.9316133,12.538603 L9.39791057,12.538603 L9.39791057,17.2069512 L8,17.2069512 L8,11.11 L13.9316133,11.11 Z" id="Combined-Shape"></path>
        </g>
    </g>
</svg>