<?xml version="1.0" encoding="UTF-8"?>
<svg width="38px" height="38px" viewBox="0 0 38 38" version="1.1" xmlns="http://www.w3.org/2000/svg" xmlns:xlink="http://www.w3.org/1999/xlink">
    <!-- Generator: Sketch 58 (84663) - https://sketch.com -->
    <title>columns@1x</title>
    <desc>Created with Sketch.</desc>
    <g id="documnet-view" stroke="none" stroke-width="1" fill="none" fill-rule="evenodd">
        <g id="columns" fill="#000000">
            <path d="M18.6895822,1.57166119 C28.1361633,1.57166119 35.8207242,9.3354311 35.8207242,18.876478 C35.8207242,28.417525 28.1361633,36.1789315 18.6895822,36.1789315 C9.24300109,36.1789315 1.55610018,28.417525 1.55610018,18.876478 C1.55610018,9.3354311 9.24300109,1.57166119 18.6895822,1.57166119 M18.6895822,0 C8.36784099,0 0,8.4515194 0,18.876478 C0,29.3014367 8.36784099,37.7529561 18.6895822,37.7529561 C29.0113234,37.7529561 37.3791644,29.3014367 37.3791644,18.876478 C37.3791644,8.4515194 29.0113234,0 18.6895822,0" id="Fill-279"></path>
            <path d="M16.8176938,24.106636 C17.1836938,24.106636 17.4816939,24.4076161 17.4816939,24.7774781 C17.4816939,25.1489561 17.1836938,25.4499362 16.8176938,25.4499362 L7.17969193,25.4499362 C6.8116919,25.4499362 6.51369187,25.1489561 6.51369187,24.7774781 C6.51369187,24.4076161 6.8116919,24.106636 7.17969193,24.106636 L16.8176938,24.106636 Z M30.2014725,24.106636 C30.5674725,24.106636 30.8654725,24.4076161 30.8654725,24.7774781 C30.8654725,25.1489561 30.5674725,25.4499362 30.2014725,25.4499362 L20.5634706,25.4499362 C20.1954706,25.4499362 19.8974705,25.1489561 19.8974705,24.7774781 C19.8974705,24.4076161 20.1954706,24.106636 20.5634706,24.106636 L30.2014725,24.106636 Z M16.8176938,20.066636 C17.1836938,20.066636 17.4816939,20.3676161 17.4816939,20.7374781 C17.4816939,21.1089561 17.1836938,21.4099362 16.8176938,21.4099362 L7.17969193,21.4099362 C6.8116919,21.4099362 6.51369187,21.1089561 6.51369187,20.7374781 C6.51369187,20.3676161 6.8116919,20.066636 7.17969193,20.066636 L16.8176938,20.066636 Z M30.2014725,20.066636 C30.5674725,20.066636 30.8654725,20.3676161 30.8654725,20.7374781 C30.8654725,21.1089561 30.5674725,21.4099362 30.2014725,21.4099362 L20.5634706,21.4099362 C20.1954706,21.4099362 19.8974705,21.1089561 19.8974705,20.7374781 C19.8974705,20.3676161 20.1954706,20.066636 20.5634706,20.066636 L30.2014725,20.066636 Z M16.8176938,16.026636 C17.1836938,16.026636 17.4816939,16.3276161 17.4816939,16.6974781 C17.4816939,17.0689561 17.1836938,17.3699362 16.8176938,17.3699362 L7.17969193,17.3699362 C6.8116919,17.3699362 6.51369187,17.0689561 6.51369187,16.6974781 C6.51369187,16.3276161 6.8116919,16.026636 7.17969193,16.026636 L16.8176938,16.026636 Z M30.2014725,16.026636 C30.5674725,16.026636 30.8654725,16.3276161 30.8654725,16.6974781 C30.8654725,17.0689561 30.5674725,17.3699362 30.2014725,17.3699362 L20.5634706,17.3699362 C20.1954706,17.3699362 19.8974705,17.0689561 19.8974705,16.6974781 C19.8974705,16.3276161 20.1954706,16.026636 20.5634706,16.026636 L30.2014725,16.026636 Z M16.8176938,12.3030199 C17.1836938,12.3030199 17.4816939,12.6039999 17.4816939,12.973862 C17.4816939,13.34534 17.1836938,13.64632 16.8176938,13.64632 L7.17969193,13.64632 C6.8116919,13.64632 6.51369187,13.34534 6.51369187,12.973862 C6.51369187,12.6039999 6.8116919,12.3030199 7.17969193,12.3030199 L16.8176938,12.3030199 Z M30.2014725,12.3030199 C30.5674725,12.3030199 30.8654725,12.6039999 30.8654725,12.973862 C30.8654725,13.34534 30.5674725,13.64632 30.2014725,13.64632 L20.5634706,13.64632 C20.1954706,13.64632 19.8974705,13.34534 19.8974705,12.973862 C19.8974705,12.6039999 20.1954706,12.3030199 20.5634706,12.3030199 L30.2014725,12.3030199 Z" id="Combined-Shape"></path>
        </g>
    </g>
</svg>