<?xml version="1.0" encoding="UTF-8"?>
<svg width="38px" height="38px" viewBox="0 0 38 38" version="1.1" xmlns="http://www.w3.org/2000/svg" xmlns:xlink="http://www.w3.org/1999/xlink">
    <!-- Generator: Sketch 58 (84663) - https://sketch.com -->
    <title>Cover-page@1x</title>
    <desc>Created with Sketch.</desc>
    <g id="documnet-view" stroke="none" stroke-width="1" fill="none" fill-rule="evenodd">
        <g id="Cover-page">
            <path d="M18.6895822,1.57166119 C28.1361633,1.57166119 35.8207242,9.3354311 35.8207242,18.876478 C35.8207242,28.417525 28.1361633,36.1789315 18.6895822,36.1789315 C9.24300109,36.1789315 1.55610018,28.417525 1.55610018,18.876478 C1.55610018,9.3354311 9.24300109,1.57166119 18.6895822,1.57166119 M18.6895822,-1.13686838e-13 C8.36784099,-1.13686838e-13 -5.68434189e-13,8.4515194 -5.68434189e-13,18.876478 C-5.68434189e-13,29.3014367 8.36784099,37.7529561 18.6895822,37.7529561 C29.0113234,37.7529561 37.3791644,29.3014367 37.3791644,18.876478 C37.3791644,8.4515194 29.0113234,-1.13686838e-13 18.6895822,-1.13686838e-13" id="Fill-279" fill="#000000"></path>
            <path d="M26.3241327,13.6641202 C26.2884327,13.5771592 26.2359327,13.5008032 26.1729327,13.4350522 L21.2820324,8.49545492 C21.2169324,8.43161281 21.1413324,8.37879991 21.0552324,8.34253081 C20.9712324,8.30859481 20.8809324,8.28950581 20.7864323,8.28950581 L11.7018317,8.28950581 C11.3154317,8.28950581 11.0025317,8.60553483 11.0025317,8.99367785 L11.0025317,28.7592782 C11.0025317,29.1495422 11.3154317,29.4634502 11.7018317,29.4634502 L25.6794327,29.4634502 C26.0637327,29.4634502 26.3766327,29.1495422 26.3766327,28.7592782 L26.3766327,13.9356082 C26.3766327,13.8401632 26.3577327,13.7489602 26.3241327,13.6641202 Z M21.4857324,10.698962 L23.9910326,13.2293151 L21.4857324,13.2293151 L21.4857324,10.698962 Z M12.4011318,28.0529852 L12.4011318,9.6999709 L20.0871323,9.6999709 L20.0871323,13.9356082 C20.0871323,14.3258722 20.4000323,14.6419012 20.7864323,14.6419012 L24.9801326,14.6419012 L24.9801326,28.0529852 L12.4011318,28.0529852 L12.4011318,28.0529852 Z" id="Fill-410" fill="#000000"></path>
            <path d="M14.5,19.19 L22.7383825,19.19" id="Line" stroke="#000000" stroke-linecap="round"></path>
            <path d="M16,21.8819297 L21.4666182,21.8819297" id="Line-Copy" stroke="#000000" stroke-linecap="round"></path>
        </g>
    </g>
</svg>