<?xml version="1.0" encoding="UTF-8"?>
<svg width="39px" height="38px" viewBox="0 0 39 38" version="1.1" xmlns="http://www.w3.org/2000/svg" xmlns:xlink="http://www.w3.org/1999/xlink">
    <!-- Generator: Sketch 58 (84663) - https://sketch.com -->
    <title>cross reference@1x</title>
    <desc>Created with Sketch.</desc>
    <g id="documnet-view" stroke="none" stroke-width="1" fill="none" fill-rule="evenodd">
        <g id="cross-reference" transform="translate(0.382184, 0.000000)" fill="#000000">
            <path d="M19.1895826,1.57166119 C28.6361637,1.57166119 36.3207246,9.3354311 36.3207246,18.876478 C36.3207246,28.417525 28.6361637,36.1789315 19.1895826,36.1789315 C9.74300144,36.1789315 2.05610053,28.417525 2.05610053,18.876478 C2.05610053,9.3354311 9.74300144,1.57166119 19.1895826,1.57166119 M19.1895826,-1.13686838e-13 C8.86784134,-1.13686838e-13 0.500000349,8.4515194 0.500000349,18.876478 C0.500000349,29.3014367 8.86784134,37.7529561 19.1895826,37.7529561 C29.5113238,37.7529561 37.8791648,29.3014367 37.8791648,18.876478 C37.8791648,8.4515194 29.5113238,-1.13686838e-13 19.1895826,-1.13686838e-13" id="Fill-279"></path>
            <path d="M12.0410077,22.8276416 C12.0165718,23.1238047 12.5113987,23.6256366 12.7964842,23.8230787 C13.1039692,24.0369742 13.1833859,24.4627087 12.9716081,24.7753253 C12.839247,24.9686539 12.6274692,25.071694 12.4116188,25.071694 C12.2792577,25.071694 12.1468966,25.0324113 12.0287897,24.9524061 C11.8821743,24.849366 10.589108,23.9156296 10.6909243,22.7124671 C10.7499777,22.0111364 11.234623,21.4434905 12.1285696,21.0280395 C13.4562534,20.4110331 14.118059,19.5389974 13.9897705,19.053619 C13.879809,18.644338 12.8575739,17.9430074 9.76236015,18.2249793 C9.38564006,18.255624 9.05982808,17.9800278 9.02724688,17.6036538 C8.99262936,17.2272799 9.26753322,16.8940965 9.64221699,16.8611894 C14.0345697,16.4642486 15.0730954,17.8422297 15.2991274,18.7019253 C15.6310484,19.9585617 14.5843774,21.3920733 12.6967043,22.2702791 C12.2996209,22.4553811 12.0552619,22.6633122 12.0410077,22.8276416 Z M28.1300103,14.9566963 L18.5450292,24.6375271 C18.4717215,24.7117736 18.3800869,24.7691552 18.280307,24.8020622 L15.4050163,25.7687056 C15.3357813,25.7933859 15.2624736,25.805726 15.1912022,25.805726 C15.0140419,25.805726 14.8409543,25.7357986 14.7126659,25.6041706 C14.531433,25.4211253 14.4683069,25.1496425 14.5477236,24.9048966 L15.5068326,21.9987963 C15.5394138,21.8980186 15.5964309,21.8075243 15.6697385,21.7314269 L25.2547196,12.0526527 C25.5194418,11.7852832 25.9470701,11.7852832 26.2117923,12.0526527 L28.1300103,13.9879962 C28.2562624,14.1175675 28.3275338,14.2903293 28.3275338,14.4733746 C28.3275338,14.6543631 28.2562624,14.8291816 28.1300103,14.9566963 Z M22.8579653,18.3442672 L21.9008926,17.3774182 L16.7428817,22.5872148 L16.2623091,24.0390309 L17.6999544,23.5536525 L22.8579653,18.3442672 Z M26.692365,14.4733746 L25.733256,13.5046745 L22.8579653,16.4087181 L23.8170743,17.3774182 L26.692365,14.4733746 Z M29.156318,17.0586315 C28.8915958,16.7912621 28.4619313,16.7912621 28.197209,17.0586315 L25.4868607,19.7960834 C25.2221384,20.0634528 25.2221384,20.497414 25.4868607,20.7647835 C25.6192218,20.8986739 25.7923094,20.9642822 25.965397,20.9642822 C26.1405209,20.9642822 26.3136085,20.8986739 26.4459697,20.7647835 L29.156318,18.0273316 C29.4210403,17.7599621 29.4210403,17.326001 29.156318,17.0586315 L29.156318,17.0586315 Z" id="Fill-1122"></path>
        </g>
    </g>
</svg>