<?xml version="1.0" encoding="UTF-8"?>
<svg width="38px" height="39px" viewBox="0 0 38 39" version="1.1" xmlns="http://www.w3.org/2000/svg" xmlns:xlink="http://www.w3.org/1999/xlink">
    <!-- Generator: Sketch 58 (84663) - https://sketch.com -->
    <title>Footnote@1x</title>
    <desc>Created with Sketch.</desc>
    <g id="documnet-view" stroke="none" stroke-width="1" fill="none" fill-rule="evenodd">
        <g id="Footnote" fill="#000000">
            <path d="M19,5.32907052e-14 C29.4931764,5.32907052e-14 38,8.59189182 38,19.19 C38,29.7881082 29.4931764,38.38 19,38.38 C8.50682359,38.38 -2.41229259e-12,29.7881082 -2.41229259e-12,19.19 C-2.41229259e-12,8.59189182 8.50682359,5.32907052e-14 19,5.32907052e-14 Z M19,1.59776512 C9.39651934,1.59776512 1.58194566,9.49048454 1.58194566,19.19 C1.58194566,28.8895155 9.39651934,36.7798322 19,36.7798322 C28.6034807,36.7798322 36.4156755,28.8895155 36.4156755,19.19 C36.4156755,9.49048454 28.6034807,1.59776512 19,1.59776512 Z M12.6793951,15.3375875 L16.7522847,26.3774266 L14.8610343,26.3774266 L13.7739377,23.3241741 L9.61169762,23.3241741 L8.54693854,26.3774266 L6.67057988,26.3774266 L10.7434695,15.3375875 L12.6793951,15.3375875 Z M21.4208438,15.3827094 C22.9199526,15.3827094 24.0033155,15.6033035 24.670965,16.0444982 C25.3386145,16.4856928 25.6724342,17.1825695 25.6724342,18.1351489 C25.6724342,18.7768866 25.5086268,19.3108244 25.181007,19.7369784 C24.8533871,20.1631324 24.3818202,20.4313547 23.7662921,20.5416533 L23.7662921,20.6168566 C24.5307383,20.7622503 25.0928957,21.0492732 25.4527811,21.477934 C25.8126665,21.9065947 25.9926065,22.4869074 25.9926065,23.2188895 C25.9926065,24.206564 25.651341,24.9798965 24.9687997,25.5389102 C24.2862584,26.0979239 23.3369198,26.3774266 22.1207553,26.3774266 L18.1893372,26.3774266 L18.1893372,15.3827094 L21.4208438,15.3827094 Z M21.7707996,21.3839299 L19.9688996,21.3839299 L19.9688996,24.865841 L21.86015,24.865841 C22.6047405,24.865841 23.1668978,24.7217028 23.546639,24.4334222 C23.9263802,24.1451416 24.1162479,23.6901664 24.1162479,23.068483 C24.1162479,22.4969353 23.9226573,22.0732945 23.5354702,21.7975478 C23.1482831,21.5218011 22.5600655,21.3839299 21.7707996,21.3839299 Z M11.7039864,16.8867747 C11.5699602,17.5034446 11.3738876,18.1777604 11.1157629,18.9097425 L10.1329084,21.7749868 L13.304848,21.7749868 L12.2847641,18.781897 C12.2209421,18.6100029 12.1361511,18.3533932 12.0303892,18.0120617 L11.9757606,17.8343358 C11.8442163,17.4031683 11.7536258,17.0873178 11.7039864,16.8867747 Z M21.5101942,16.8867747 L19.9688996,16.8867747 L19.9688996,19.9249866 L21.6814491,19.9249866 C22.4260396,19.9249866 22.9695825,19.8059159 23.3120942,19.5677711 C23.6546058,19.3296262 23.825859,18.924786 23.825859,18.3532384 C23.825859,17.83684 23.6409552,17.4633342 23.2711419,17.2327097 C22.9013286,17.0020852 22.3143519,16.8867747 21.5101942,16.8867747 Z M28.7188424,9.7387897 L28.7188424,17.8015823 L27.4356712,17.8015823 L27.4356712,12.595511 C27.4356712,11.9741618 27.4502319,11.4815018 27.4793536,11.1175162 C27.3956286,11.2057551 27.2927939,11.3031842 27.1708465,11.4098062 C27.0488992,11.5164283 26.6402906,11.8546724 25.9450085,12.4245489 L25.3006928,11.6028279 L27.648623,9.7387897 L28.7188424,9.7387897 Z"></path>
        </g>
    </g>
</svg>