<?xml version="1.0" encoding="UTF-8"?>
<svg width="38px" height="39px" viewBox="0 0 38 39" version="1.1" xmlns="http://www.w3.org/2000/svg" xmlns:xlink="http://www.w3.org/1999/xlink">
    <!-- Generator: Sketch 58 (84663) - https://sketch.com -->
    <title>Footer@1x</title>
    <desc>Created with Sketch.</desc>
    <g id="documnet-view" stroke="none" stroke-width="1" fill="none" fill-rule="evenodd">
        <g id="Footer" fill="#000000">
            <path d="M19,5.32907052e-14 C29.4931764,5.32907052e-14 38,8.59189182 38,19.19 C38,29.7881082 29.4931764,38.38 19,38.38 C8.50682359,38.38 1.22568622e-12,29.7881082 1.22568622e-12,19.19 C1.22568622e-12,8.59189182 8.50682359,5.32907052e-14 19,5.32907052e-14 Z M19,1.59776512 C9.39651934,1.59776512 1.58194566,9.49048454 1.58194566,19.19 C1.58194566,28.8895155 9.39651934,36.7798322 19,36.7798322 C28.6034807,36.7798322 36.4156755,28.8895155 36.4156755,19.19 C36.4156755,9.49048454 28.6034807,1.59776512 19,1.59776512 Z M21.6555201,8.42718733 C21.7515897,8.42718733 21.8433895,8.44659338 21.9287847,8.48109303 C21.987138,8.50567403 22.0407472,8.53772996 22.0896122,8.57559971 L22.1593516,8.63655708 L27.1314856,13.6581968 C27.195532,13.7250398 27.248904,13.802664 27.2851969,13.8910694 C27.3079689,13.9485688 27.3240991,14.0089432 27.3323224,14.0715537 L27.3385689,14.1670666 L27.3385689,29.2369449 C27.3385689,29.6006287 27.071279,29.8990867 26.7258054,29.9463041 L26.6297889,29.9528127 L12.4200321,29.9528127 C12.0599492,29.9528127 11.7626524,29.6846617 11.7156035,29.3343745 L11.7091173,29.2369449 L11.7091173,9.14305506 C11.7091173,8.7813478 11.9764072,8.48124277 12.3235252,8.43373712 L12.4200321,8.42718733 L21.6555201,8.42718733 Z M20.9446053,9.86107903 L13.1309469,9.86107903 L13.1309469,28.518921 L25.9188741,28.518921 L25.9188741,14.8850906 L21.6555201,14.8850906 C21.2954371,14.8850906 20.9981404,14.6151278 20.9510915,14.2645386 L20.9446053,14.1670666 L20.9446053,9.86107903 Z M14.8796826,25.970065 L20.4370966,25.970065 C20.8020441,25.970065 21.0978925,26.2769098 21.0978925,26.6554221 C21.0978925,26.9995242 20.8533897,27.284397 20.5347442,27.3333482 L20.4370966,27.3407792 L14.8796826,27.3407792 C14.514735,27.3407792 14.2188866,27.0339344 14.2188866,26.6554221 C14.2188866,26.31132 14.4633894,26.0264472 14.782035,25.977496 L14.8796826,25.970065 L20.4370966,25.970065 Z M23.2548974,23.2334247 C23.619845,23.2334247 23.9156934,23.5402695 23.9156934,23.9187818 C23.9156934,24.2628839 23.6711906,24.5477567 23.352545,24.5967079 L23.2548974,24.604139 L14.8796826,24.604139 C14.514735,24.604139 14.2188866,24.2972941 14.2188866,23.9187818 C14.2188866,23.5746797 14.4633894,23.2898069 14.782035,23.2408557 L14.8796826,23.2334247 L23.2548974,23.2334247 Z M22.3664349,10.8766625 L22.3664349,13.4490426 L24.913346,13.4490426 L22.3664349,10.8766625 Z"></path>
        </g>
    </g>
</svg>