<?xml version="1.0" encoding="UTF-8"?>
<svg width="38px" height="39px" viewBox="0 0 38 39" version="1.1" xmlns="http://www.w3.org/2000/svg" xmlns:xlink="http://www.w3.org/1999/xlink">
    <!-- Generator: Sketch 58 (84663) - https://sketch.com -->
    <title>Header@1x</title>
    <desc>Created with Sketch.</desc>
    <g id="documnet-view" stroke="none" stroke-width="1" fill="none" fill-rule="evenodd">
        <g id="Header" fill="#000000">
            <path d="M19,5.32907052e-14 C29.4931764,5.32907052e-14 38,8.59189182 38,19.19 C38,29.7881082 29.4931764,38.38 19,38.38 C8.50682359,38.38 1.22568622e-12,29.7881082 1.22568622e-12,19.19 C1.22568622e-12,8.59189182 8.50682359,5.32907052e-14 19,5.32907052e-14 Z M19,1.59776512 C9.39651934,1.59776512 1.58194566,9.49048454 1.58194566,19.19 C1.58194566,28.8895155 9.39651934,36.7798322 19,36.7798322 C28.6034807,36.7798322 36.4156755,28.8895155 36.4156755,19.19 C36.4156755,9.49048454 28.6034807,1.59776512 19,1.59776512 Z M21.1291033,8.42718733 C21.2251729,8.42718733 21.3169727,8.44659338 21.4023678,8.48109303 C21.4607212,8.50567403 21.5143304,8.53772996 21.5631954,8.57559971 L21.6329348,8.63655708 L26.6050688,13.6581968 C26.6691151,13.7250398 26.7224871,13.802664 26.7587801,13.8910694 C26.7815521,13.9485688 26.7976823,14.0089432 26.8059056,14.0715537 L26.8121521,14.1670666 L26.8121521,29.2369449 C26.8121521,29.6006287 26.5448622,29.8990867 26.1993886,29.9463041 L26.1033721,29.9528127 L11.8936153,29.9528127 C11.5335323,29.9528127 11.2362356,29.6846617 11.1891867,29.3343745 L11.1827005,29.2369449 L11.1827005,9.14305506 C11.1827005,8.7813478 11.4499903,8.48124277 11.7971084,8.43373712 L11.8936153,8.42718733 L21.1291033,8.42718733 Z M20.4181885,9.86107903 L12.6045301,9.86107903 L12.6045301,28.518921 L25.3924573,28.518921 L25.3924573,14.8850906 L22.8343347,14.8852943 L22.7819947,14.8918259 L22.7284806,14.8940408 L14.3532657,14.8940408 C13.9883182,14.8940408 13.6924698,14.587196 13.6924698,14.2086837 C13.6924698,13.8645816 13.9369726,13.5797088 14.2556182,13.5307576 L14.3532657,13.5233265 L20.4177005,13.5231873 L20.4181885,9.86107903 Z M14.3532657,16.2599668 L19.9106797,16.2599668 C20.2756273,16.2599668 20.5714757,16.5668117 20.5714757,16.945324 C20.5714757,17.2894261 20.3269729,17.5742989 20.0083273,17.6232501 L19.9106797,17.6306811 L14.3532657,17.6306811 C13.9883182,17.6306811 13.6924698,17.3238363 13.6924698,16.945324 C13.6924698,16.6012219 13.9369726,16.3163491 14.2556182,16.2673979 L14.3532657,16.2599668 L19.9106797,16.2599668 Z M21.8400181,10.8766625 L21.8400181,13.4490426 L24.3869291,13.4490426 L21.8400181,10.8766625 Z"></path>
        </g>
    </g>
</svg>