<?xml version="1.0" encoding="UTF-8"?>
<svg width="38px" height="38px" viewBox="0 0 38 38" version="1.1" xmlns="http://www.w3.org/2000/svg" xmlns:xlink="http://www.w3.org/1999/xlink">
    <!-- Generator: Sketch 58 (84663) - https://sketch.com -->
    <title>hyperlinks@1x</title>
    <desc>Created with Sketch.</desc>
    <g id="documnet-view" stroke="none" stroke-width="1" fill="none" fill-rule="evenodd">
        <g id="hyperlinks" transform="translate(-0.500000, 0.000000)" fill="#000000">
            <path d="M19.1895822,1.57166119 C28.6361633,1.57166119 36.3207242,9.3354311 36.3207242,18.876478 C36.3207242,28.417525 28.6361633,36.1789315 19.1895822,36.1789315 C9.74300109,36.1789315 2.05610018,28.417525 2.05610018,18.876478 C2.05610018,9.3354311 9.74300109,1.57166119 19.1895822,1.57166119 M19.1895822,-1.13686838e-13 C8.86784099,-1.13686838e-13 0.5,8.4515194 0.5,18.876478 C0.5,29.3014367 8.86784099,37.7529561 19.1895822,37.7529561 C29.5113234,37.7529561 37.8791644,29.3014367 37.8791644,18.876478 C37.8791644,8.4515194 29.5113234,-1.13686838e-13 19.1895822,-1.13686838e-13" id="Fill-279"></path>
            <path d="M19.5009529,22.5009344 C19.7488176,22.7514703 19.7488176,23.1577968 19.5009529,23.4079475 L16.8087613,26.127061 C16.2157928,26.7240335 15.443599,27.0650782 14.6294589,27.0860685 C14.6046724,27.0860685 14.5779793,27.0879942 14.5531929,27.0879942 C13.7257062,27.0879942 12.9363526,26.7471421 12.3224109,26.127061 C11.687496,25.485797 11.3500187,24.6577384 11.3709919,23.7952094 C11.3919651,22.974661 11.7294423,22.1928196 12.3224109,21.5960397 L16.3587916,17.5171768 C16.9517602,16.9182786 17.7239539,16.5774265 18.538094,16.5581694 C19.3884605,16.533135 20.2121338,16.8759128 20.8470487,17.5171768 C21.0930067,17.7675201 21.0930067,18.1719209 20.8470487,18.4222642 C20.599184,18.6726075 20.1968806,18.6726075 19.949016,18.4222642 C19.5581524,18.027492 19.0872096,17.836846 18.5705071,17.8387717 C18.084311,17.850326 17.6171815,18.0583035 17.2568244,18.4222642 L13.218537,22.5009344 C12.8581799,22.8648951 12.6522616,23.336696 12.6408216,23.827754 C12.6274751,24.3438464 12.8276735,24.8252758 13.218537,25.2200479 C13.6113071,25.6167458 14.0841567,25.8054662 14.5970458,25.8054662 C15.0832419,25.7919861 15.5503715,25.5840086 15.9107286,25.2200479 L18.6029202,22.5009344 C18.8507848,22.2507837 19.2530882,22.2507837 19.5009529,22.5009344 Z M26.6794949,11.6264061 C26.0445801,10.9832164 25.2228134,10.6500672 24.3705402,10.665473 C23.5583068,10.6866559 22.7842064,11.0275079 22.1931445,11.6264061 L19.5009529,14.3435939 C19.2530882,14.5939372 19.2530882,15.0002637 19.5009529,15.250607 C19.7488176,15.5009503 20.1492143,15.5009503 20.397079,15.250607 L23.0892706,12.5314935 C23.4496277,12.1675328 23.9167572,11.9595553 24.4029533,11.948001 C24.9234691,11.9402981 25.3905987,12.1367213 25.7814622,12.5314935 C26.1742323,12.9281914 26.3725241,13.4096208 26.3591775,13.9237874 C26.3477376,14.4148455 26.1418193,14.8866463 25.7814622,15.250607 L21.7431748,19.3294698 C21.3828177,19.6932379 20.9175948,19.9012154 20.4313987,19.9127697 C19.9108829,19.910844 19.4437534,19.7240494 19.0509832,19.3294698 C18.8031185,19.0789339 18.4027218,19.0789339 18.1548571,19.3294698 C17.9069924,19.5796206 17.9069924,19.985947 18.1548571,20.2364829 C18.7687988,20.8563715 19.5581524,21.1954904 20.3856391,21.1954904 C20.4104256,21.1954904 20.4371187,21.1954904 20.4638118,21.1954904 C21.2760452,21.1741149 22.048239,20.8332628 22.6412075,20.2364829 L26.6794949,16.1576201 C27.2705568,15.5606476 27.6080341,14.7788061 27.6290073,13.9584504 C27.6499804,13.0938031 27.3125031,12.2657444 26.6794949,11.6264061 L26.6794949,11.6264061 Z" id="Fill-877"></path>
        </g>
    </g>
</svg>