<?xml version="1.0" encoding="UTF-8"?>
<svg width="38px" height="38px" viewBox="0 0 38 38" version="1.1" xmlns="http://www.w3.org/2000/svg" xmlns:xlink="http://www.w3.org/1999/xlink">
    <!-- Generator: Sketch 58 (84663) - https://sketch.com -->
    <title>margin@1x</title>
    <desc>Created with Sketch.</desc>
    <g id="documnet-view" stroke="none" stroke-width="1" fill="none" fill-rule="evenodd">
        <g id="margin" fill="#000000">
            <path d="M18.6895822,-1.13686838e-13 C29.0113234,-1.13686838e-13 37.3791644,8.4515194 37.3791644,18.876478 C37.3791644,29.3014367 29.0113234,37.7529561 18.6895822,37.7529561 C8.36784099,37.7529561 6.32383035e-13,29.3014367 6.32383035e-13,18.876478 C6.32383035e-13,8.4515194 8.36784099,-1.13686838e-13 18.6895822,-1.13686838e-13 Z M18.6895822,1.57166119 C9.24300109,1.57166119 1.55610018,9.3354311 1.55610018,18.876478 C1.55610018,28.417525 9.24300109,36.1789315 18.6895822,36.1789315 C28.1361633,36.1789315 35.8207242,28.417525 35.8207242,18.876478 C35.8207242,9.3354311 28.1361633,1.57166119 18.6895822,1.57166119 Z M20.7995792,8.22312731 C20.8946717,8.22312731 20.9855379,8.242336 21.0700646,8.27648477 C21.1278245,8.30081578 21.1808884,8.33254568 21.2292565,8.37003028 L21.2982866,8.43036769 L26.219852,13.4009354 C26.283247,13.4670986 26.3360762,13.5439333 26.372,13.6314396 C26.3945405,13.6883542 26.4105066,13.7481146 26.4186462,13.8100883 L26.4248292,13.9046298 L26.4248292,28.8212417 C26.4248292,29.1812267 26.1602578,29.4766491 25.8182978,29.5233863 L25.7232578,29.5298287 L11.6580197,29.5298287 C11.3015989,29.5298287 11.0073258,29.264405 10.9607554,28.9176803 L10.9543352,28.8212417 L10.9543352,8.9317144 C10.9543352,8.57368583 11.2189066,8.27663299 11.5624943,8.22961049 L11.6580197,8.22312731 L20.7995792,8.22312731 Z M13.6903352,26.3791273 L12.3613352,26.3791273 L12.3617043,28.1105203 L13.6903352,28.1101273 L13.6903352,26.3791273 Z M22.7723352,26.3791273 L14.4433352,26.3791273 L14.4433352,28.1101273 L22.7723352,28.1101273 L22.7723352,26.3791273 Z M25.0193352,26.3791273 L23.5263352,26.3791273 L23.5263352,28.1101273 L25.0195733,28.1105203 L25.0193352,26.3791273 Z M13.6903352,12.1591273 L12.3613352,12.1591273 L12.3613352,25.6181273 L13.6903352,25.6181273 L13.6903352,12.1591273 Z M20.0953352,12.1591273 L14.4433352,12.1591273 L14.4433352,25.6181273 L22.7723352,25.6181273 L22.7723352,14.6151273 L20.7995792,14.6153512 C20.4431584,14.6153512 20.1488853,14.348134 20.1023149,14.0011105 L20.0958947,13.9046298 L20.0953352,12.1591273 Z M25.0195733,14.6153512 L23.5263352,14.6151273 L23.5263352,25.6181273 L25.0193352,25.6181273 L25.0195733,14.6153512 Z M21.5032638,10.6476904 L21.5032638,13.1939084 L24.0242717,13.1939084 L21.5032638,10.6476904 Z M13.6903352,9.64212731 L12.3617043,9.64243578 L12.3613352,11.3991273 L13.6903352,11.3991273 L13.6903352,9.64212731 Z M20.0958947,9.64243578 L14.4433352,9.64212731 L14.4433352,11.3991273 L20.0953352,11.3991273 L20.0958947,9.64243578 Z" id="Combined-Shape"></path>
        </g>
    </g>
</svg>