<?xml version="1.0" encoding="UTF-8"?>
<svg width="38px" height="38px" viewBox="0 0 38 38" version="1.1" xmlns="http://www.w3.org/2000/svg" xmlns:xlink="http://www.w3.org/1999/xlink">
    <!-- Generator: Sketch 58 (84663) - https://sketch.com -->
    <title>orientation@1x</title>
    <desc>Created with Sketch.</desc>
    <g id="documnet-view" stroke="none" stroke-width="1" fill="none" fill-rule="evenodd">
        <g id="orientation">
            <path d="M18.6895822,1.57166119 C28.1361633,1.57166119 35.8207242,9.3354311 35.8207242,18.876478 C35.8207242,28.417525 28.1361633,36.1789315 18.6895822,36.1789315 C9.24300109,36.1789315 1.55610018,28.417525 1.55610018,18.876478 C1.55610018,9.3354311 9.24300109,1.57166119 18.6895822,1.57166119 M18.6895822,0 C8.36784099,0 0,8.4515194 0,18.876478 C0,29.3014367 8.36784099,37.7529561 18.6895822,37.7529561 C29.0113234,37.7529561 37.3791644,29.3014367 37.3791644,18.876478 C37.3791644,8.4515194 29.0113234,0 18.6895822,0" id="Fill-279" fill="#000000"></path>
            <g id="Group-3" transform="translate(8.667833, 8.271478)">
                <path d="M12.8386196,4.5036174 C12.808705,4.43074909 12.764713,4.36676715 12.7119227,4.3116716 L8.61362976,0.1725735 C8.55907971,0.119077493 8.49573125,0.0748233199 8.42358441,0.0444319002 C8.35319724,0.0159954841 8.27753103,-3.55271368e-15 8.19834547,-3.55271368e-15 L0.585973179,-3.55271368e-15 C0.262192203,-3.55271368e-15 0,0.264814125 0,0.590055635 L0,17.1524908 C0,17.4795095 0.262192203,17.7425464 0.585973179,17.7425464 L12.298398,17.7425464 C12.6204193,17.7425464 12.8826115,17.4795095 12.8826115,17.1524908 L12.8826115,4.73110873 C12.8826115,4.65113131 12.8667744,4.57470844 12.8386196,4.5036174 Z M8.78431864,2.01898554 L10.8836159,4.13927582 L8.78431864,4.13927582 L8.78431864,2.01898554 Z M1.17194636,16.5606578 L1.17194636,1.18188855 L7.61237229,1.18188855 L7.61237229,4.73110873 C7.61237229,5.05812752 7.87456449,5.32294164 8.19834547,5.32294164 L11.7124249,5.32294164 L11.7124249,16.5606578 L1.17194636,16.5606578 L1.17194636,16.5606578 Z" id="Fill-410" fill="#000000"></path>
                <rect id="Rectangle" fill="#FAFAFA" x="5.1414572" y="8.87009149" width="12" height="11.4247037"></rect>
                <polygon id="Path-3" fill="#FAFAFA" points="17.5460645 8.90199595 20.5460645 12.941996 20.5460645 20.011996 16.5460645 20.011996 16.5460645 9.91199595"></polygon>
                <path d="M19.2799253,10.1123069 C19.2500108,10.0394386 19.2060188,9.97545668 19.1532284,9.92036112 L15.0549355,5.78126303 C15.0003855,5.72776702 14.937037,5.68351285 14.8648902,5.65312143 C14.794503,5.62468501 14.7188368,5.60868953 14.6396512,5.60868953 L7.02727895,5.60868953 C6.70349797,5.60868953 6.44130577,5.87350365 6.44130577,6.19874516 L6.44130577,22.7611803 C6.44130577,23.0881991 6.70349797,23.3512359 7.02727895,23.3512359 L18.7397038,23.3512359 C19.0617251,23.3512359 19.3239173,23.0881991 19.3239173,22.7611803 L19.3239173,10.3397983 C19.3239173,10.2598208 19.3080802,10.183398 19.2799253,10.1123069 Z M15.2256244,7.62767507 L17.3249217,9.74796535 L15.2256244,9.74796535 L15.2256244,7.62767507 Z M7.61325213,22.1693474 L7.61325213,6.79057807 L14.0536781,6.79057807 L14.0536781,10.3397983 C14.0536781,10.666817 14.3158703,10.9316312 14.6396512,10.9316312 L18.1537306,10.9316312 L18.1537306,22.1693474 L7.61325213,22.1693474 L7.61325213,22.1693474 Z" id="Fill-410-Copy" fill="#000000" transform="translate(12.882612, 14.479963) scale(-1, 1) rotate(-90.000000) translate(-12.882612, -14.479963) "></path>
            </g>
        </g>
    </g>
</svg>