<?xml version="1.0" encoding="UTF-8"?>
<svg width="38px" height="38px" viewBox="0 0 38 38" version="1.1" xmlns="http://www.w3.org/2000/svg" xmlns:xlink="http://www.w3.org/1999/xlink">
    <!-- Generator: Sketch 58 (84663) - https://sketch.com -->
    <title>page boarder@1x</title>
    <desc>Created with Sketch.</desc>
    <g id="documnet-view" stroke="none" stroke-width="1" fill="none" fill-rule="evenodd">
        <g id="page-boarder" fill="#000000">
            <path d="M18.6895822,-1.13686838e-13 C29.0113234,-1.13686838e-13 37.3791644,8.4515194 37.3791644,18.876478 C37.3791644,29.3014367 29.0113234,37.7529561 18.6895822,37.7529561 C8.36784099,37.7529561 6.32383035e-13,29.3014367 6.32383035e-13,18.876478 C6.32383035e-13,8.4515194 8.36784099,-1.13686838e-13 18.6895822,-1.13686838e-13 Z M18.6895822,1.57166119 C9.24300109,1.57166119 1.55610018,9.3354311 1.55610018,18.876478 C1.55610018,28.417525 9.24300109,36.1789315 18.6895822,36.1789315 C28.1361633,36.1789315 35.8207242,28.417525 35.8207242,18.876478 C35.8207242,9.3354311 28.1361633,1.57166119 18.6895822,1.57166119 Z M11.6580197,8.22312731 L20.7995792,8.22312731 C20.8946717,8.22312731 20.9855379,8.242336 21.0700646,8.27648477 C21.1278245,8.30081578 21.1808884,8.33254568 21.2292565,8.37003028 L21.2982866,8.43036769 L26.219852,13.4009354 C26.283247,13.4670986 26.3360762,13.5439333 26.372,13.6314396 C26.3945405,13.6883542 26.4105066,13.7481146 26.4186462,13.8100883 L26.4248292,13.9046298 L26.4248292,28.8212417 C26.4248292,29.1812267 26.1602578,29.4766491 25.8182978,29.5233863 L25.7232578,29.5298287 L11.6580197,29.5298287 C11.3015989,29.5298287 11.0073258,29.264405 10.9607554,28.9176803 L10.9543352,28.8212417 L10.9543352,8.9317144 C10.9543352,8.57368583 11.2189066,8.27663299 11.5624943,8.22961049 L11.6580197,8.22312731 L20.7995792,8.22312731 Z M20.0958947,9.64243578 L12.3617043,9.64243578 L12.3617043,28.1105203 L25.0195733,28.1105203 L25.0195733,14.6153512 L20.7995792,14.6153512 C20.4431584,14.6153512 20.1488853,14.348134 20.1023149,14.0011105 L20.0958947,13.9046298 L20.0958947,9.64243578 Z M16.5126297,10.5863048 C16.7432097,10.5863048 16.9309498,10.7759222 16.9309498,11.0100807 C16.9309498,11.2182215 16.782612,11.3902645 16.5877043,11.4259266 L16.5126297,11.4327112 L13.9964094,11.4327112 L13.9964094,26.3457052 L23.2208705,26.3457052 L23.2208705,15.7244499 C23.2208705,15.4901642 23.4086105,15.3005468 23.6404505,15.3005468 C23.8465305,15.3005468 24.0177661,15.450368 24.0532743,15.6482079 L24.0600306,15.7244499 L24.0600306,26.769481 C24.0600306,26.977735 23.9116928,27.1495894 23.7159001,27.1852082 L23.6404505,27.1919843 L13.5768294,27.1919843 C13.3707494,27.1919843 13.1995138,27.0432691 13.1640056,26.845675 L13.1572493,26.769481 L13.1572493,11.0100807 C13.1572493,10.8019398 13.3055871,10.6289919 13.5013797,10.5931287 L13.5768294,10.5863048 L16.5126297,10.5863048 Z M21.5032638,10.6476904 L21.5032638,13.1939084 L24.0242717,13.1939084 L21.5032638,10.6476904 Z" id="Combined-Shape"></path>
        </g>
    </g>
</svg>