<?xml version="1.0" encoding="UTF-8"?>
<svg width="38px" height="39px" viewBox="0 0 38 39" version="1.1" xmlns="http://www.w3.org/2000/svg" xmlns:xlink="http://www.w3.org/1999/xlink">
    <!-- Generator: Sketch 58 (84663) - https://sketch.com -->
    <title>Page-number@1x</title>
    <desc>Created with Sketch.</desc>
    <g id="documnet-view" stroke="none" stroke-width="1" fill="none" fill-rule="evenodd">
        <g id="Page-number" fill="#000000">
            <path d="M19,5.32907052e-14 C29.4931764,5.32907052e-14 38,8.59189182 38,19.19 C38,29.7881082 29.4931764,38.38 19,38.38 C8.50682359,38.38 1.22568622e-12,29.7881082 1.22568622e-12,19.19 C1.22568622e-12,8.59189182 8.50682359,5.32907052e-14 19,5.32907052e-14 Z M19,1.59776512 C9.39651934,1.59776512 1.58194566,9.49048454 1.58194566,19.19 C1.58194566,28.8895155 9.39651934,36.7798322 19,36.7798322 C28.6034807,36.7798322 36.4156755,28.8895155 36.4156755,19.19 C36.4156755,9.49048454 28.6034807,1.59776512 19,1.59776512 Z M11.5231962,8.42718733 L20.7586842,8.42718733 C20.8547537,8.42718733 20.9465535,8.44659338 21.0319487,8.48109303 C21.0903021,8.50567403 21.1439113,8.53772996 21.1927763,8.57559971 L21.2625157,8.63655708 L26.2346496,13.6581968 C26.298696,13.7250398 26.352068,13.802664 26.3883609,13.8910694 C26.411133,13.9485688 26.4272632,14.0089432 26.4354864,14.0715537 L26.4417329,14.1670666 L26.4417329,29.2369449 C26.4417329,29.6006287 26.1744431,29.8990867 25.8289694,29.9463041 L25.732953,29.9528127 L11.5231962,29.9528127 C11.1631132,29.9528127 10.8658164,29.6846617 10.8187675,29.3343745 L10.8122814,29.2369449 L10.8122814,9.14305506 C10.8122814,8.7813478 11.0795712,8.48124277 11.4266893,8.43373712 L11.5231962,8.42718733 L20.7586842,8.42718733 Z M20.0477693,9.86107903 L12.234111,9.86107903 L12.234111,28.518921 L25.0220382,28.518921 L25.0220382,14.8850906 L20.7586842,14.8850906 C20.3986012,14.8850906 20.1013044,14.6151278 20.0542555,14.2645386 L20.0477693,14.1670666 L20.0477693,9.86107903 Z M17.5779782,18.906783 L17.1418452,21.2351099 L18.26333,21.2351099 L18.705127,18.906783 L19.9229008,18.906783 L19.4811038,21.2351099 L20.8404792,21.2351099 L20.8404792,22.4307373 L19.2602053,22.4307373 L18.9939943,23.7579408 L20.4553229,23.7579408 L20.4553229,24.936406 L18.7730958,24.936406 L18.3369628,27.2590123 L17.0908686,27.2590123 L17.5326657,24.936406 L16.4338372,24.936406 L16.0033683,27.2590123 L14.7855945,27.2590123 L15.2047352,24.936406 L13.8566879,24.936406 L13.8566879,23.7579408 L15.4256337,23.7579408 L15.6918448,22.4307373 L14.2645005,22.4307373 L14.2645005,21.2351099 L15.9014151,21.2351099 L16.3375481,18.906783 L17.5779782,18.906783 Z M18.0311033,22.4307373 L16.9209467,22.4307373 L16.6547357,23.7579408 L17.7648923,23.7579408 L18.0311033,22.4307373 Z M21.469599,10.8766625 L21.469599,13.4490426 L24.01651,13.4490426 L21.469599,10.8766625 Z"></path>
        </g>
    </g>
</svg>