<?xml version="1.0" encoding="UTF-8"?>
<svg width="38px" height="38px" viewBox="0 0 38 38" version="1.1" xmlns="http://www.w3.org/2000/svg" xmlns:xlink="http://www.w3.org/1999/xlink">
    <!-- Generator: Sketch 58 (84663) - https://sketch.com -->
    <title>page color@1x</title>
    <desc>Created with Sketch.</desc>
    <g id="documnet-view" stroke="none" stroke-width="1" fill="none" fill-rule="evenodd">
        <g id="page-color" fill="#000000">
            <path d="M18.6895822,0 C29.0113234,0 37.3791644,8.4515194 37.3791644,18.876478 C37.3791644,29.3014367 29.0113234,37.7529561 18.6895822,37.7529561 C8.36784099,37.7529561 6.57252031e-13,29.3014367 6.57252031e-13,18.876478 C6.57252031e-13,8.4515194 8.36784099,0 18.6895822,0 Z M18.6895822,1.57166119 C9.24300109,1.57166119 1.55610018,9.3354311 1.55610018,18.876478 C1.55610018,28.417525 9.24300109,36.1789315 18.6895822,36.1789315 C28.1361633,36.1789315 35.8207242,28.417525 35.8207242,18.876478 C35.8207242,9.3354311 28.1361633,1.57166119 18.6895822,1.57166119 Z M24.4964445,8.9157939 C24.6793545,9.19152391 24.6833445,9.51391592 24.4628445,9.74955904 C24.4229445,9.87872794 24.3095445,10.49806 25.1579445,11.785507 C25.4309445,12.1971931 25.6411545,12.6551171 25.7921445,13.1302211 C25.8110445,13.1516432 25.8341445,13.1641571 25.8509445,13.1877002 C26.1869445,13.6774391 29.0893547,18.0575164 27.8060446,20.5261484 C27.3670133,21.3712344 26.540569,21.8677224 25.3469566,22.0121171 L25.1033445,22.0363005 L24.5741445,28.4692938 C24.5474172,28.8028692 24.2950701,29.0645761 23.976457,29.1094023 L23.8790444,29.1161988 L22.4804444,29.1161988 C22.1482625,29.1161988 21.8664113,28.8813112 21.7974,28.5629221 L21.7832443,28.4650518 L21.2960443,22.0575105 L20.4371443,22.0575105 C20.3321443,22.0575105 20.2208443,22.0553895 20.1095443,22.0532685 C19.6685443,22.0426635 19.1687442,22.0299375 18.9440442,22.2293115 C18.8264442,22.3332405 18.7697442,22.5601875 18.8054442,22.7828925 C18.8663442,23.1816405 19.0826442,23.3894985 19.4900442,23.7521896 C19.7462443,23.9812576 20.0381443,24.2400196 20.2817443,24.5984686 C20.7059443,25.2199216 20.8130443,26.2783007 20.2607443,26.9782307 C19.6874443,27.7057337 18.6332442,27.7057337 18.2867442,27.7057337 C15.6386441,27.7057337 12.751144,26.2634537 11.1047439,24.1191226 C9.93294383,22.5941235 9.2735438,20.6873444 9.2483438,18.7508713 C9.22104379,16.7656152 9.94554383,14.8779252 11.4029439,13.1387051 C12.4592439,11.874589 13.830544,10.956196 15.3677441,10.478971 C16.2665441,10.198999 17.2495541,10.059225 18.2867442,10.059225 C18.5177442,10.0632549 20.2019443,10.109917 21.4768543,10.565932 C22.3777544,9.27000091 23.5199444,8.74208399 23.5976444,8.70581489 C23.9086544,8.57007088 24.3095445,8.63157989 24.4964445,8.9157939 Z M22.4804444,17.6246203 L22.4804444,19.2344594 L23.1272444,27.7057337 L23.2345544,27.7057337 L23.8811444,19.8813644 L23.8790444,17.8791403 C23.8286444,17.8833823 23.7845444,17.8961083 23.7343544,17.8961083 C23.5031444,17.8961083 23.2618544,17.8642933 23.0117444,17.8027843 C22.8206444,17.7540013 22.6463444,17.6924923 22.4804444,17.6246203 Z M18.2741442,11.469478 C17.3879442,11.469478 16.5437441,11.590375 15.7772441,11.827927 C14.496244,12.226675 13.353844,12.9925682 12.4697439,14.0486141 C11.2204539,15.5417982 10.6238439,17.0752813 10.6469439,18.7317823 C10.6679439,20.3649524 11.2223439,21.9705495 12.2095539,23.2539666 C13.582954,25.0438786 16.0817441,26.2933598 18.2867442,26.2933598 C18.9440442,26.2933598 19.1225442,26.1552827 19.1687442,26.0980157 C19.2821442,25.9537876 19.2632442,25.5955507 19.1309442,25.4004187 C18.9839442,25.1838646 18.7804542,25.0014586 18.5639442,24.8105686 C18.1208442,24.4139416 17.5685442,23.9218696 17.4236442,23.0034765 C17.3144442,22.2995166 17.5412442,21.5972535 18.0179442,21.1709324 C18.6563442,20.6027165 19.5173442,20.6258354 20.1454543,20.6406824 L20.293583,20.6446593 L20.293583,20.6446593 L20.4371443,20.6470454 L21.1889443,20.6470454 L21.0839443,19.2896054 L21.0818443,16.5556362 C20.9348443,16.3583832 20.8130443,16.1526462 20.7185443,15.9426672 C20.4623443,16.2290022 20.0969443,16.4114082 19.6853443,16.4114082 C18.9127542,16.4114082 18.2867442,15.7793502 18.2867442,14.9990343 C18.2867442,14.2204151 18.9127542,13.5883571 19.6853443,13.5883571 C19.9499443,13.5883571 20.1956443,13.6668341 20.4056443,13.7962151 C20.4497443,13.0475021 20.5967443,12.3942341 20.8109443,11.832169 C19.9352443,11.567044 18.7529442,11.480083 18.2741442,11.469478 Z M14.792344,19.9407524 C15.5651441,19.9407524 16.1911541,20.5728104 16.1911541,21.3535505 C16.1911541,22.1317455 15.5651441,22.7638035 14.792344,22.7638035 C14.021644,22.7638035 13.395844,22.1317455 13.395844,21.3535505 C13.395844,20.5728104 14.021644,19.9407524 14.792344,19.9407524 Z M25.8971445,16.1040753 C25.8047445,16.4222253 25.6852545,16.7189532 25.5128445,16.9671103 C25.4652445,17.0349823 25.4120445,17.0934276 25.3576001,17.150616 L25.2755445,17.2364773 L25.2755445,19.9407524 L25.2209445,20.6027165 C25.9034445,20.5113014 26.3612445,20.2695074 26.5693546,19.8707594 C27.0017446,19.0374184 26.5565446,17.5100863 25.8971445,16.1040753 Z M14.792344,14.9990343 C15.5651441,14.9990343 16.1911541,15.6308802 16.1911541,16.4114082 C16.1911541,17.1919363 15.5651441,17.8239943 14.792344,17.8239943 C14.021644,17.8239943 13.395844,17.1919363 13.395844,16.4114082 C13.395844,15.6308802 14.021644,14.9990343 14.792344,14.9990343 Z M23.1398444,10.75258 C22.4930444,11.403727 21.7811443,12.5214941 21.7811443,14.2946501 C21.7706443,14.5067501 21.7433443,16.0317492 23.3479544,16.4326182 C23.9756444,16.5874512 24.2236545,16.3668672 24.3683445,16.1547672 C24.8954445,15.3996912 24.7129545,13.6562291 23.9945444,12.5683682 C23.5243544,11.8535911 23.2658444,11.251015 23.1398444,10.75258 Z" id="Combined-Shape"></path>
        </g>
    </g>
</svg>