<?xml version="1.0" encoding="UTF-8"?>
<svg width="38px" height="38px" viewBox="0 0 38 38" version="1.1" xmlns="http://www.w3.org/2000/svg" xmlns:xlink="http://www.w3.org/1999/xlink">
    <!-- Generator: Sketch 58 (84663) - https://sketch.com -->
    <title>page-break@1x</title>
    <desc>Created with Sketch.</desc>
    <g id="documnet-view" stroke="none" stroke-width="1" fill="none" fill-rule="evenodd">
        <g id="page-break" fill="#000000">
            <path d="M18.6895822,1.57166119 C28.1361633,1.57166119 35.8207242,9.3354311 35.8207242,18.876478 C35.8207242,28.417525 28.1361633,36.1789315 18.6895822,36.1789315 C9.24300109,36.1789315 1.55610018,28.417525 1.55610018,18.876478 C1.55610018,9.3354311 9.24300109,1.57166119 18.6895822,1.57166119 M18.6895822,-1.13686838e-13 C8.36784099,-1.13686838e-13 -5.68434189e-13,8.4515194 -5.68434189e-13,18.876478 C-5.68434189e-13,29.3014367 8.36784099,37.7529561 18.6895822,37.7529561 C29.0113234,37.7529561 37.3791644,29.3014367 37.3791644,18.876478 C37.3791644,8.4515194 29.0113234,-1.13686838e-13 18.6895822,-1.13686838e-13" id="Fill-279"></path>
            <path d="M25.6954968,21.8770957 C26.0544819,21.8770957 26.3454968,22.1710207 26.3454968,22.5335957 L26.3454968,29.387175 C26.3454968,29.74975 26.0544819,30.043675 25.6954968,30.043675 C25.3365118,30.043675 25.0454968,29.74975 25.0454968,29.387175 L25.0454968,23.1900957 L12.3336676,23.1900957 L12.3336676,29.387175 C12.3336676,29.74975 12.0426527,30.043675 11.6836676,30.043675 C11.3246825,30.043675 11.0336676,29.74975 11.0336676,29.387175 L11.0336676,22.5335957 C11.0336676,22.1710207 11.3246825,21.8770957 11.6836676,21.8770957 L25.6954968,21.8770957 Z M9.6895822,18.573478 C9.85526763,18.573478 9.9895822,18.7091357 9.9895822,18.876478 C9.9895822,19.0199143 9.89090211,19.1400721 9.75836945,19.1714756 L9.6895822,19.179478 L7.6895822,19.179478 C7.52389678,19.179478 7.3895822,19.0438203 7.3895822,18.876478 C7.3895822,18.7330418 7.4882623,18.612884 7.62079496,18.5814805 L7.6895822,18.573478 L9.6895822,18.573478 Z M13.6895822,18.573478 C13.8552676,18.573478 13.9895822,18.7091357 13.9895822,18.876478 C13.9895822,19.0199143 13.8909021,19.1400721 13.7583695,19.1714756 L13.6895822,19.179478 L11.6895822,19.179478 C11.5238968,19.179478 11.3895822,19.0438203 11.3895822,18.876478 C11.3895822,18.7330418 11.4882623,18.612884 11.620795,18.5814805 L11.6895822,18.573478 L13.6895822,18.573478 Z M17.6895822,18.573478 C17.8552676,18.573478 17.9895822,18.7091357 17.9895822,18.876478 C17.9895822,19.0199143 17.8909021,19.1400721 17.7583695,19.1714756 L17.6895822,19.179478 L15.6895822,19.179478 C15.5238968,19.179478 15.3895822,19.0438203 15.3895822,18.876478 C15.3895822,18.7330418 15.4882623,18.612884 15.620795,18.5814805 L15.6895822,18.573478 L17.6895822,18.573478 Z M21.6895822,18.573478 C21.8552676,18.573478 21.9895822,18.7091357 21.9895822,18.876478 C21.9895822,19.0199143 21.8909021,19.1400721 21.7583695,19.1714756 L21.6895822,19.179478 L19.6895822,19.179478 C19.5238968,19.179478 19.3895822,19.0438203 19.3895822,18.876478 C19.3895822,18.7330418 19.4882623,18.612884 19.620795,18.5814805 L19.6895822,18.573478 L21.6895822,18.573478 Z M25.6895822,18.573478 C25.8552676,18.573478 25.9895822,18.7091357 25.9895822,18.876478 C25.9895822,19.0199143 25.8909021,19.1400721 25.7583695,19.1714756 L25.6895822,19.179478 L23.6895822,19.179478 C23.5238968,19.179478 23.3895822,19.0438203 23.3895822,18.876478 C23.3895822,18.7330418 23.4882623,18.612884 23.620795,18.5814805 L23.6895822,18.573478 L25.6895822,18.573478 Z M27.6895822,18.573478 L29.6895822,18.573478 C29.8552676,18.573478 29.9895822,18.7091357 29.9895822,18.876478 C29.9895822,19.0199143 29.8909021,19.1400721 29.7583695,19.1714756 L29.6895822,19.179478 L27.6895822,19.179478 C27.5238968,19.179478 27.3895822,19.0438203 27.3895822,18.876478 C27.3895822,18.7330418 27.4882623,18.612884 27.620795,18.5814805 L27.6895822,18.573478 L29.6895822,18.573478 Z M25.6954968,7.70928102 C26.0218469,7.70928102 26.2920233,7.95219429 26.3384492,8.26876826 L26.3454968,8.36578102 L26.3454968,15.2193604 C26.3454968,15.548974 26.1049886,15.8218521 25.7915491,15.8687422 L25.6954968,15.8758604 L11.6836676,15.8758604 C11.3573175,15.8758604 11.0871411,15.6329471 11.0407152,15.3163731 L11.0336676,15.2193604 L11.0336676,8.36578102 C11.0336676,8.00320608 11.3246825,7.70928102 11.6836676,7.70928102 C12.0100176,7.70928102 12.280194,7.95219429 12.3266199,8.26876826 L12.3336676,8.36578102 L12.3336676,14.5628604 L25.0454968,14.5628604 L25.0454968,8.36578102 C25.0454968,8.00320608 25.3365118,7.70928102 25.6954968,7.70928102 Z" id="Combined-Shape" fill-rule="nonzero"></path>
        </g>
    </g>
</svg>