<?xml version="1.0" encoding="UTF-8"?>
<svg width="29px" height="29px" viewBox="0 0 29 29" version="1.1" xmlns="http://www.w3.org/2000/svg" xmlns:xlink="http://www.w3.org/1999/xlink">
    <!-- Generator: Sketch 58 (84663) - https://sketch.com -->
    <title>pictures@1x</title>
    <desc>Created with Sketch.</desc>
    <g id="documnet-view" stroke="none" stroke-width="1" fill="none" fill-rule="evenodd">
        <g id="pictures" transform="translate(0.500000, 0.087201)" fill="#000000">
            <path d="M14,0 C21.7318142,0 28,6.33086766 28,14.14 C28,21.9491323 21.7318142,28.28 14,28.28 C6.2681858,28.28 1.22568622e-12,21.9491323 1.22568622e-12,14.14 C1.22568622e-12,6.33086766 6.2681858,0 14,0 Z M14,1.17730061 C6.9237511,1.17730061 1.16564417,6.99298861 1.16564417,14.14 C1.16564417,21.2870114 6.9237511,27.100929 14,27.100929 C21.0762489,27.100929 26.832603,21.2870114 26.832603,14.14 C26.832603,6.99298861 21.0762489,1.17730061 14,1.17730061 Z M20.2916618,9.14662984 C20.5401412,9.14662984 20.7413556,9.34985633 20.7413556,9.60082057 L20.7413556,9.60082057 L20.7413556,18.6791794 C20.7413556,18.9301437 20.5401412,19.1333702 20.2916618,19.1333702 L20.2916618,19.1333702 L7.70833821,19.1333702 C7.45985875,19.1333702 7.25864442,18.9301437 7.25864442,18.6791794 L7.25864442,18.6791794 L7.25864442,9.60082057 C7.25864442,9.34985633 7.45985875,9.14662984 7.70833821,9.14662984 L7.70833821,9.14662984 Z M11.9770532,13.1935647 L8.15668157,17.0520036 L8.15668157,18.2249887 L19.842103,18.2249887 L19.842103,17.9168755 L17.9864747,15.29389 L16.3402983,16.957892 C16.1647422,17.1352037 15.8798011,17.1352037 15.7042449,16.957892 L15.7042449,16.957892 L11.9770532,13.1935647 Z M19.842103,10.0550113 L8.15668157,10.0550113 L8.15668157,15.7671758 L11.6597017,12.2304894 C11.8352578,12.0531777 12.1188485,12.0531777 12.2944046,12.2304894 L12.2944046,12.2304894 L16.0217315,15.9949531 L17.7271918,14.2736657 C17.8203716,14.1781902 17.9473122,14.1304524 18.0810049,14.1413639 C18.2133472,14.1522754 18.3336707,14.2218362 18.4105103,14.3295871 L18.4105103,14.3295871 L19.842103,16.3550323 L19.842103,10.0550113 Z M16.2471185,11.4162196 C16.742727,11.4162196 17.1451557,11.8226725 17.1451557,12.3247374 C17.1451557,12.8265295 16.742727,13.2329825 16.2471185,13.2329825 C15.7501596,13.2329825 15.3477309,12.8265295 15.3477309,12.3247374 C15.3477309,11.8226725 15.7501596,11.4162196 16.2471185,11.4162196 Z" id="Combined-Shape"></path>
        </g>
    </g>
</svg>