<?xml version="1.0" encoding="UTF-8"?>
<svg width="38px" height="38px" viewBox="0 0 38 38" version="1.1" xmlns="http://www.w3.org/2000/svg" xmlns:xlink="http://www.w3.org/1999/xlink">
    <!-- Generator: Sketch 58 (84663) - https://sketch.com -->
    <title>section-break@1x</title>
    <desc>Created with Sketch.</desc>
    <g id="documnet-view" stroke="none" stroke-width="1" fill="none" fill-rule="evenodd">
        <g id="section-break">
            <path d="M18.6895822,1.57166119 C28.1361633,1.57166119 35.8207242,9.3354311 35.8207242,18.876478 C35.8207242,28.417525 28.1361633,36.1789315 18.6895822,36.1789315 C9.24300109,36.1789315 1.55610018,28.417525 1.55610018,18.876478 C1.55610018,9.3354311 9.24300109,1.57166119 18.6895822,1.57166119 M18.6895822,0 C8.36784099,0 0,8.4515194 0,18.876478 C0,29.3014367 8.36784099,37.7529561 18.6895822,37.7529561 C29.0113234,37.7529561 37.3791644,29.3014367 37.3791644,18.876478 C37.3791644,8.4515194 29.0113234,0 18.6895822,0" id="Fill-279" fill="#000000"></path>
            <g id="Group-16" transform="translate(11.000000, 8.080000)">
                <path d="M15.321601,5.37461437 C15.285901,5.28765336 15.233401,5.21129735 15.170401,5.14554635 L10.2795007,0.205949114 C10.2144007,0.14210701 10.1388007,0.0892941061 10.0527007,0.0530250036 C9.96870068,0.0190890013 9.87840067,-4.97379915e-14 9.78390067,-4.97379915e-14 L0.699300048,-4.97379915e-14 C0.312900021,-4.97379915e-14 1.77635684e-15,0.316029022 1.77635684e-15,0.704172048 L1.77635684e-15,20.4697724 C1.77635684e-15,20.8600364 0.312900021,21.1739444 0.699300048,21.1739444 L14.676901,21.1739444 C15.061201,21.1739444 15.374101,20.8600364 15.374101,20.4697724 L15.374101,5.64610238 C15.374101,5.55065738 15.355201,5.45945437 15.321601,5.37461437 Z M10.4832007,2.40945616 L12.9885009,4.93980934 L10.4832007,4.93980934 L10.4832007,2.40945616 Z M1.3986001,19.7634793 L1.3986001,1.4104651 L9.08460062,1.4104651 L9.08460062,5.64610238 C9.08460062,6.03636641 9.39750064,6.35239543 9.78390067,6.35239543 L13.977601,6.35239543 L13.977601,19.7634793 L1.3986001,19.7634793 L1.3986001,19.7634793 Z" id="Fill-410" fill="#000000"></path>
                <g id="Group-14" transform="translate(3.000000, 6.060000)" stroke="#000000" stroke-linecap="round">
                    <path d="M0.5,3.03 L8.73838248,3.03" id="Line"></path>
                    <path d="M0.5,1.01 L5.96661821,1.01" id="Line-Copy"></path>
                </g>
                <g id="Group-15" transform="translate(3.000000, 14.140000)" stroke="#000000" stroke-linecap="round">
                    <path d="M0.5,3.03 L8.73838248,3.03" id="Line-Copy-5"></path>
                    <path d="M3.5,1.01 L8.96661821,1.01" id="Line-Copy-6"></path>
                </g>
                <polygon id="Triangle" fill="#000000" transform="translate(4.000000, 13.130000) rotate(-270.000000) translate(-4.000000, -13.130000) " points="4 12.13 6.02 14.13 1.98 14.13"></polygon>
            </g>
        </g>
    </g>
</svg>