<?xml version="1.0" encoding="UTF-8"?>
<svg width="29px" height="29px" viewBox="0 0 29 29" version="1.1" xmlns="http://www.w3.org/2000/svg" xmlns:xlink="http://www.w3.org/1999/xlink">
    <!-- Generator: Sketch 58 (84663) - https://sketch.com -->
    <title>shapes@1x</title>
    <desc>Created with Sketch.</desc>
    <g id="documnet-view" stroke="none" stroke-width="1" fill="none" fill-rule="evenodd">
        <g id="shapes" transform="translate(0.500000, -0.000000)" fill="#000000">
            <path d="M14,0 C21.7318142,0 28,6.33086766 28,14.14 C28,21.9491323 21.7318142,28.28 14,28.28 C6.2681858,28.28 1.22568622e-12,21.9491323 1.22568622e-12,14.14 C1.22568622e-12,6.33086766 6.2681858,0 14,0 Z M14,1.17730061 C6.9237511,1.17730061 1.16564417,6.99298861 1.16564417,14.14 C1.16564417,21.2870114 6.9237511,27.100929 14,27.100929 C21.0762489,27.100929 26.832603,21.2870114 26.832603,14.14 C26.832603,6.99298861 21.0762489,1.17730061 14,1.17730061 Z M13.8233668,7.60475685 C13.9352795,7.55709286 14.0633722,7.55709286 14.1766332,7.60475685 L14.1766332,7.60475685 L20.4558745,10.3231021 L20.4572229,10.3243277 C20.5071116,10.346117 20.5489103,10.3760772 20.586664,10.4114847 C20.5974507,10.4223793 20.6055408,10.433274 20.615114,10.4441686 C20.6405978,10.4741288 20.6621713,10.5054508 20.6796997,10.5408584 C20.6864415,10.5544767 20.6931832,10.5680949 20.6985766,10.5830751 C20.7174534,10.6334627 20.7309368,10.6852122 20.7309368,10.7411833 L20.7309368,10.7411833 L20.7309368,17.5392933 C20.7309368,17.7204165 20.6230693,17.8838359 20.458706,17.9560128 L20.458706,17.9560128 L14.1766332,20.6742218 L14.1766332,20.6742218 L14.156408,20.6783073 C14.1065192,20.6987347 14.0539338,20.7109911 14,20.7109911 C13.9366278,20.7109911 13.8773006,20.6932874 13.8206702,20.6687745 C13.8139284,20.6660508 13.8058384,20.6674126 13.7990966,20.6633272 L13.7990966,20.6633272 L7.51715858,17.4916294 C7.36479563,17.4140051 7.26906315,17.2573949 7.26906315,17.0858046 L7.26906315,17.0858046 L7.26906315,10.7411833 C7.26906315,10.559924 7.37558239,10.3951428 7.54008044,10.3243277 L7.54008044,10.3243277 Z M19.8329393,11.4287703 L14.4489988,13.7589945 L14.4489988,19.571141 L19.8329393,17.2396911 L19.8329393,11.4287703 Z M8.16584723,11.4287703 L8.16584723,16.805268 L13.5510012,19.524975 L13.5510012,13.7589945 L8.16584723,11.4287703 Z M14,8.51445807 L8.85606489,10.7411833 L14,12.9676362 L19.1425868,10.7411833 L14,8.51445807 Z" id="Combined-Shape"></path>
        </g>
    </g>
</svg>