<?xml version="1.0" encoding="UTF-8"?>
<svg width="38px" height="38px" viewBox="0 0 38 38" version="1.1" xmlns="http://www.w3.org/2000/svg" xmlns:xlink="http://www.w3.org/1999/xlink">
    <!-- Generator: Sketch 58 (84663) - https://sketch.com -->
    <title>size@1x</title>
    <desc>Created with Sketch.</desc>
    <g id="documnet-view" stroke="none" stroke-width="1" fill="none" fill-rule="evenodd">
        <g id="size" fill="#000000">
            <path d="M18.6895822,0 C29.0113234,0 37.3791644,8.4515194 37.3791644,18.876478 C37.3791644,29.3014367 29.0113234,37.7529561 18.6895822,37.7529561 C8.36784099,37.7529561 1.22568622e-12,29.3014367 1.22568622e-12,18.876478 C1.22568622e-12,8.4515194 8.36784099,0 18.6895822,0 Z M18.6895822,1.57166119 C9.24300109,1.57166119 1.55610018,9.3354311 1.55610018,18.876478 C1.55610018,28.417525 9.24300109,36.1789315 18.6895822,36.1789315 C28.1361633,36.1789315 35.8207242,28.417525 35.8207242,18.876478 C35.8207242,9.3354311 28.1361633,1.57166119 18.6895822,1.57166119 Z M14.506825,28.9084302 C14.636825,29.0397302 14.636825,29.2518302 14.506825,29.3831302 L14.2138249,29.6800702 L26.9766552,29.6800702 L26.6836552,29.3831302 C26.5536552,29.2518302 26.5536552,29.0397302 26.6836552,28.9084302 C26.7950838,28.7958873 26.9652878,28.7798098 27.0935094,28.8601976 L27.1536552,28.9084302 L28.0156552,29.7780402 C28.0457552,29.8093502 28.0707552,29.8467202 28.0876552,29.8871202 C28.1037552,29.9285302 28.1126552,29.9719602 28.1126552,30.0153902 C28.1126552,30.0598302 28.1037552,30.1032602 28.0876552,30.1446702 L28.0566052,30.202619 L28.0156552,30.2537502 L27.1536552,31.1233602 C27.0236552,31.2546602 26.8136552,31.2546602 26.6836552,31.1233602 C26.5722266,31.0108174 26.5563082,30.8389113 26.6359001,30.7094075 L26.6836552,30.6486602 L26.9766552,30.3517202 L14.2138249,30.3517202 L14.506825,30.6486602 C14.636825,30.7799602 14.636825,30.9920602 14.506825,31.1233602 C14.376825,31.2546602 14.1668249,31.2546602 14.0368249,31.1233602 L13.1748249,30.2537502 C13.1447249,30.2224402 13.1197249,30.1850702 13.1028249,30.1446702 C13.0867249,30.1032602 13.0778249,30.0598302 13.0778249,30.0153902 C13.0778249,29.9719602 13.0867249,29.9285302 13.1028249,29.8871202 C13.1197249,29.8467202 13.1447249,29.8093502 13.1748249,29.7780402 L14.0368249,28.9084302 C14.1668249,28.7771302 14.376825,28.7771302 14.506825,28.9084302 Z M22.5913343,6.53112081 C22.6864268,6.53112081 22.777293,6.5503295 22.8618197,6.58447827 C22.9195796,6.60880928 22.9726435,6.64053918 23.0210116,6.67802378 L23.0900417,6.73836119 L28.0116071,11.7089289 C28.0750021,11.7750921 28.1278313,11.8519268 28.1637551,11.9394331 C28.1862956,11.9963477 28.2022617,12.0561081 28.2104013,12.1180818 L28.2165843,12.2126233 L28.2165843,27.1292352 C28.2165843,27.4892202 27.9520129,27.7846426 27.6100529,27.8313798 L27.5150129,27.8378222 L13.4497748,27.8378222 C13.093354,27.8378222 12.7990809,27.5723985 12.7525105,27.2256738 L12.7460903,27.1292352 L12.7460903,7.2397079 C12.7460903,6.88167933 13.0106617,6.58462649 13.3542494,6.53760399 L13.4497748,6.53112081 L22.5913343,6.53112081 Z M10.3560801,7.5796056 C10.4000801,7.5796056 10.4430801,7.5885946 10.4840801,7.6048556 L10.5414551,7.6362161 L10.5920801,7.6775756 L11.4530801,8.54819561 C11.5830801,8.67949561 11.5830801,8.89159561 11.4530801,9.02289562 C11.3416516,9.13543848 11.1714475,9.15151603 11.0432259,9.07112827 L10.9830801,9.02289562 L10.6890801,8.72696561 L10.6890801,26.6744556 L10.9830801,26.3785256 C11.1130801,26.2472256 11.3230801,26.2472256 11.4530801,26.3785256 C11.5830801,26.5098256 11.5830801,26.7219256 11.4530801,26.8532256 L10.5920801,27.7238456 C10.5610801,27.7542466 10.5240801,27.7794966 10.4840801,27.7965656 C10.4430801,27.8128266 10.4000801,27.8218156 10.3560801,27.8218156 C10.3130801,27.8218156 10.2700801,27.8128266 10.2290801,27.7965656 C10.1890801,27.7794966 10.1520801,27.7542466 10.1210801,27.7238456 L9.2600801,26.8532256 C9.1300801,26.7219256 9.1300801,26.5098256 9.2600801,26.3785256 C9.3900801,26.2472256 9.6000801,26.2472256 9.73008011,26.3785256 L10.0240801,26.6744556 L10.0240801,8.72696561 L9.73008011,9.02289562 C9.6000801,9.15419562 9.3900801,9.15419562 9.2600801,9.02289562 C9.14865153,8.91035276 9.13273316,8.73844663 9.212325,8.60894284 L9.2600801,8.54819561 L10.1210801,7.6775756 C10.1520801,7.6471746 10.1890801,7.6219246 10.2290801,7.6048556 C10.2700801,7.5885946 10.3130801,7.5796056 10.3560801,7.5796056 Z M21.8876498,7.95042928 L14.1534594,7.95042928 L14.1534594,26.4185138 L26.8113284,26.4185138 L26.8113284,12.9233447 L22.5913343,12.9233447 C22.2349135,12.9233447 21.9406404,12.6561275 21.89407,12.309104 L21.8876498,12.2126233 L21.8876498,7.95042928 Z M23.2950189,8.95568385 L23.2950189,11.5019019 L25.8160268,11.5019019 L23.2950189,8.95568385 Z" id="Combined-Shape"></path>
        </g>
    </g>
</svg>