<?xml version="1.0" encoding="UTF-8"?>
<svg width="38px" height="38px" viewBox="0 0 38 38" version="1.1" xmlns="http://www.w3.org/2000/svg" xmlns:xlink="http://www.w3.org/1999/xlink">
    <!-- Generator: Sketch 58 (84663) - https://sketch.com -->
    <title>style pannel@1x</title>
    <desc>Created with Sketch.</desc>
    <g id="documnet-view" stroke="none" stroke-width="1" fill="none" fill-rule="evenodd">
        <g id="style-pannel" fill="#000000">
            <path d="M18.689883,1.84741111e-13 C29.0140011,1.84741111e-13 37.381638,8.4515496 37.381638,18.8770182 C37.381638,29.3020141 29.0140011,37.7538 18.689883,37.7538 C8.36787089,37.7538 9.59232693e-14,29.3020141 9.59232693e-14,18.8770182 C9.59232693e-14,8.4515496 8.36787089,1.84741111e-13 18.689883,1.84741111e-13 Z M18.689883,1.57308485 C9.24303412,1.57308485 1.55867975,9.33546446 1.55867975,18.8770182 C1.55867975,28.4180992 9.24303412,36.1804788 18.689883,36.1804788 C28.1386039,36.1804788 35.8231923,28.4180992 35.8231923,18.8770182 C35.8231923,9.33546446 28.1386039,1.57308485 18.689883,1.57308485 Z M25.3092411,9.51712761 C25.6754174,9.51712761 25.9715806,9.81605156 25.9715806,10.1856887 L25.9715806,10.1856887 L25.9715806,27.567875 C25.9715806,27.9375121 25.6754174,28.236436 25.3092411,28.236436 L25.3092411,28.236436 L12.0723969,28.236436 C11.7064195,28.236436 11.4100574,27.9375121 11.4100574,27.567875 L11.4100574,27.567875 L11.4100574,10.1856887 C11.4100574,9.81605156 11.7064195,9.51712761 12.0723969,9.51712761 L12.0723969,9.51712761 Z M24.6490896,10.8542498 L12.7327473,10.8542498 L12.7327473,26.8993139 L24.6490896,26.8993139 L24.6490896,10.8542498 Z M18.6900234,24.2252705 C19.0558019,24.2252705 19.352164,24.5243953 19.352164,24.8936307 C19.352164,25.2630669 19.0558019,25.5621917 18.6900234,25.5621917 C18.326035,25.5621917 18.029474,25.2630669 18.029474,24.8936307 C18.029474,24.5243953 18.326035,24.2252705 18.6900234,24.2252705 Z M23.3242117,11.52261 C23.6901891,11.52261 23.9865512,11.8217348 23.9865512,12.1913719 L23.9865512,12.1913719 L23.9865512,22.2195872 C23.9865512,22.5890235 23.6901891,22.8879474 23.3242117,22.8879474 L23.3242117,22.8879474 L14.0576252,22.8879474 C13.6916478,22.8879474 13.3950868,22.5890235 13.3950868,22.2195872 L13.3950868,22.2195872 L13.3950868,12.1913719 C13.3950868,11.8217348 13.6916478,11.52261 14.0576252,11.52261 L14.0576252,11.52261 Z M22.6618723,12.8597321 L14.7199646,12.8597321 L14.7199646,21.5510261 L22.6618723,21.5510261 L22.6618723,12.8597321 Z" id="Combined-Shape"></path>
        </g>
    </g>
</svg>