<?xml version="1.0" encoding="UTF-8"?>
<svg width="39px" height="38px" viewBox="0 0 39 38" version="1.1" xmlns="http://www.w3.org/2000/svg" xmlns:xlink="http://www.w3.org/1999/xlink">
    <!-- Generator: Sketch 58 (84663) - https://sketch.com -->
    <title>symbol@1x</title>
    <desc>Created with Sketch.</desc>
    <g id="documnet-view" stroke="none" stroke-width="1" fill="none" fill-rule="evenodd">
        <g id="symbol" transform="translate(0.264367, 0.000000)" fill="#000000">
            <path d="M19.1895819,1.57166119 C28.636163,1.57166119 36.3207239,9.3354311 36.3207239,18.876478 C36.3207239,28.417525 28.636163,36.1789315 19.1895819,36.1789315 C9.74300079,36.1789315 2.05609988,28.417525 2.05609988,18.876478 C2.05609988,9.3354311 9.74300079,1.57166119 19.1895819,1.57166119 M19.1895819,-1.13686838e-13 C8.86784068,-1.13686838e-13 0.499999697,8.4515194 0.499999697,18.876478 C0.499999697,29.3014367 8.86784068,37.7529561 19.1895819,37.7529561 C29.5113231,37.7529561 37.8791641,29.3014367 37.8791641,18.876478 C37.8791641,8.4515194 29.5113231,-1.13686838e-13 19.1895819,-1.13686838e-13" id="Fill-279"></path>
            <path d="M23.9395818,23.673978 L23.5328467,23.673978 C23.0333474,22.9652837 21.7322708,20.7169211 21.5824211,16.4789292 L22.3554556,16.4789292 C22.7931121,16.4789292 23.1475187,16.1209785 23.1475187,15.6789455 C23.1475187,15.2369124 22.7931121,14.8789618 22.3554556,14.8789618 L21.2613144,14.8789618 C21.9273134,14.2927875 22.3554556,13.439952 22.3554556,12.4814129 C22.3554556,10.7156831 20.9354506,9.28147803 19.1898196,9.28147803 C17.443713,9.28147803 16.023708,10.7156831 16.023708,12.4814129 C16.023708,13.439952 16.4518502,14.2927875 17.118087,14.8789618 L16.023708,14.8789618 C15.5860515,14.8789618 15.2316449,15.2369124 15.2316449,15.6789455 C15.2316449,16.1209785 15.5860515,16.4789292 16.023708,16.4789292 L16.7967425,16.4789292 C16.6468928,20.7193234 15.3458161,22.9652837 14.8463169,23.673978 L14.4395818,23.673978 C14.0019253,23.673978 13.6475187,24.0319287 13.6475187,24.4739618 L13.6475187,27.6714943 C13.6475187,28.1135274 14.0019253,28.471478 14.4395818,28.471478 L23.9395818,28.471478 C24.3772383,28.471478 24.7316449,28.1135274 24.7316449,27.6714943 L24.7316449,24.4739618 C24.7316449,24.0319287 24.3772383,23.673978 23.9395818,23.673978 Z M19.1898196,10.8814455 C20.0627541,10.8814455 20.773708,11.5997492 20.773708,12.4814129 C20.773708,13.3630767 20.0627541,14.078978 19.1898196,14.078978 C18.3168852,14.078978 17.6054556,13.3630767 17.6054556,12.4814129 C17.6054556,11.5997492 18.3168852,10.8814455 19.1898196,10.8814455 Z M18.3784902,16.4789292 L20.0006734,16.4789292 C20.1172233,20.0320101 20.9782648,22.3598906 21.6751852,23.673978 L16.7039784,23.673978 C17.4008988,22.3598906 18.2619403,20.0320101 18.3784902,16.4789292 Z M15.2316449,26.8715106 L23.1475187,26.8715106 L23.1475187,25.2717834 L15.2316449,25.2717834 L15.2316449,26.8715106 Z" id="Fill-264"></path>
        </g>
    </g>
</svg>