<?xml version="1.0" encoding="UTF-8"?>
<svg width="38px" height="38px" viewBox="0 0 38 38" version="1.1" xmlns="http://www.w3.org/2000/svg" xmlns:xlink="http://www.w3.org/1999/xlink">
    <!-- Generator: Sketch 58 (84663) - https://sketch.com -->
    <title>table-of-contents@1x</title>
    <desc>Created with Sketch.</desc>
    <g id="documnet-view" stroke="none" stroke-width="1" fill="none" fill-rule="evenodd">
        <g id="table-of-contents" transform="translate(-0.000000, 0.000000)">
            <path d="M18.6895822,1.57166119 C28.1361633,1.57166119 35.8207242,9.3354311 35.8207242,18.876478 C35.8207242,28.417525 28.1361633,36.1789315 18.6895822,36.1789315 C9.24300109,36.1789315 1.55610018,28.417525 1.55610018,18.876478 C1.55610018,9.3354311 9.24300109,1.57166119 18.6895822,1.57166119 M18.6895822,-1.91846539e-13 C8.36784099,-1.91846539e-13 -2.48689958e-14,8.4515194 -2.48689958e-14,18.876478 C-2.48689958e-14,29.3014367 8.36784099,37.7529561 18.6895822,37.7529561 C29.0113234,37.7529561 37.3791644,29.3014367 37.3791644,18.876478 C37.3791644,8.4515194 29.0113234,-1.91846539e-13 18.6895822,-1.91846539e-13" id="Fill-279" fill="#000000"></path>
            <path d="M20.6945799,8.75225627 C20.7829323,8.75225627 20.8712847,8.77050908 20.951605,8.8049866 C21.005152,8.82675475 21.0560215,8.856455 21.1018339,8.89186393 L21.166462,8.94898094 L25.8431155,13.6724009 C25.9053637,13.7352717 25.953556,13.8082829 25.9876921,13.8914345 C26.0105834,13.9455169 26.0261567,14.0023034 26.0339953,14.0611931 L26.0399004,14.15103 L26.0399004,28.325346 C26.0399004,28.6645901 25.7926331,28.9451704 25.4700844,28.9933813 L25.3712333,29.0006998 L12.0059241,29.0006998 C11.6718643,29.0006998 11.394228,28.7509599 11.3465095,28.4251856 L11.339265,28.325346 L11.339265,9.42558192 C11.339265,9.08818161 11.5865322,8.80776893 11.9075723,8.75957324 L12.0059241,8.75225627 L20.6945799,8.75225627 Z M20.0259128,10.1009357 L12.6745911,10.1009357 L12.6745911,27.6499923 L24.7045742,27.6499923 L24.7045742,14.8263837 L20.6945799,14.8263837 C20.3586947,14.8263837 20.0808924,14.5766438 20.0331588,14.2508696 L20.0259128,14.15103 L20.0259128,10.1009357 Z M22.6985731,24.9506055 C23.0680467,24.9506055 23.3672401,25.2527908 23.3672401,25.6259592 C23.3672401,25.9633595 23.1199729,26.2437722 22.7974241,26.2919679 L22.6985731,26.2992848 L14.6805923,26.2992848 C14.3111186,26.2992848 14.0119252,25.9970995 14.0119252,25.6259592 C14.0119252,25.2867152 14.2591925,25.0061349 14.5817412,24.957924 L14.6805923,24.9506055 L22.6985731,24.9506055 Z M22.6985731,22.2514214 C23.0680467,22.2514214 23.3672401,22.5513758 23.3672401,22.9245443 C23.3672401,23.2637883 23.1199729,23.5443686 22.7974241,23.5925795 L22.6985731,23.599898 L14.6805923,23.599898 C14.3111186,23.599898 14.0119252,23.2977127 14.0119252,22.9245443 C14.0119252,22.5853002 14.2591925,22.3065637 14.5817412,22.258688 L14.6805923,22.2514214 L22.6985731,22.2514214 Z M14.6805923,19.5498037 L22.6985731,19.5498037 C23.0680467,19.5498037 23.3672401,19.851989 23.3672401,20.2251574 C23.3672401,20.5644014 23.1199729,20.8449817 22.7974241,20.8931926 L22.6985731,20.9005111 L14.6805923,20.9005111 C14.3111186,20.9005111 14.0119252,20.5983258 14.0119252,20.2251574 C14.0119252,19.8859134 14.2591925,19.6053331 14.5817412,19.5571222 L14.6805923,19.5498037 L22.6985731,19.5498037 Z M22.6985731,16.8504168 C23.0680467,16.8504168 23.3672401,17.1526021 23.3672401,17.5257706 C23.3672401,17.898939 23.0680467,18.2011243 22.6985731,18.2011243 L22.6985731,18.2011243 L14.6805923,18.2011243 C14.3111186,18.2011243 14.0119252,17.898939 14.0119252,17.5257706 C14.0119252,17.1526021 14.3111186,16.8504168 14.6805923,16.8504168 L14.6805923,16.8504168 Z M21.3632469,11.0561657 L21.3632469,13.4756762 L23.7588019,13.4756762 L21.3632469,11.0561657 Z" id="Combined-Shape" fill="#000206"></path>
        </g>
    </g>
</svg>