<?xml version="1.0" encoding="UTF-8"?>
<svg width="39px" height="38px" viewBox="0 0 39 38" version="1.1" xmlns="http://www.w3.org/2000/svg" xmlns:xlink="http://www.w3.org/1999/xlink">
    <!-- Generator: Sketch 58 (84663) - https://sketch.com -->
    <title>time-stamp@1x</title>
    <desc>Created with Sketch.</desc>
    <g id="documnet-view" stroke="none" stroke-width="1" fill="none" fill-rule="evenodd">
        <g id="time-stamp" transform="translate(0.382184, 0.000000)" fill="#000000">
            <path d="M19.1895826,1.57166119 C28.6361637,1.57166119 36.3207246,9.3354311 36.3207246,18.876478 C36.3207246,28.417525 28.6361637,36.1789315 19.1895826,36.1789315 C9.74300144,36.1789315 2.05610053,28.417525 2.05610053,18.876478 C2.05610053,9.3354311 9.74300144,1.57166119 19.1895826,1.57166119 M19.1895826,-1.13686838e-13 C8.86784134,-1.13686838e-13 0.500000349,8.4515194 0.500000349,18.876478 C0.500000349,29.3014367 8.86784134,37.7529561 19.1895826,37.7529561 C29.5113238,37.7529561 37.8791648,29.3014367 37.8791648,18.876478 C37.8791648,8.4515194 29.5113238,-1.13686838e-13 19.1895826,-1.13686838e-13" id="Fill-279"></path>
            <path d="M19.1895821,7.05738358 C12.7384389,7.05738358 7.48750835,12.3584558 7.48750835,18.876478 C7.48750835,25.3945003 12.7384389,30.6955725 19.1895821,30.6955725 C25.6430694,30.6955725 30.8916558,25.3945003 30.8916558,18.876478 C30.8916558,12.3584558 25.6430694,7.05738358 19.1895821,7.05738358 Z M19.1895821,29.1187462 C13.5966378,29.1187462 9.04872251,24.5232209 9.04872251,18.876478 C9.04872251,13.2273676 13.5966378,8.63184228 19.1895821,8.63184228 C24.7827607,8.63184228 29.3304416,13.2273676 29.3304416,18.876478 C29.3304416,24.5232209 24.7827607,29.1187462 19.1895821,29.1187462 Z M22.8628892,15.9548509 C23.1678652,16.2626398 23.1678652,16.7622049 22.8628892,17.0699938 L19.7404609,20.2212788 C19.5883246,20.3751733 19.3888361,20.4509367 19.1895821,20.4509367 C18.990328,20.4509367 18.7910739,20.3751733 18.6387032,20.2212788 L13.1767978,14.7047544 C12.8720563,14.3972022 12.8720563,13.899768 13.1767978,13.5919791 C13.4815393,13.2841902 13.9761582,13.2841902 14.2811341,13.5919791 L19.1895821,18.5497483 L21.7587873,15.9548509 C22.0635288,15.647062 22.5581477,15.647062 22.8628892,15.9548509 Z M18.408975,11.7854949 L18.408975,10.9970817 C18.408975,10.561442 18.75849,10.2086686 19.1895821,10.2086686 C19.6209085,10.2086686 19.9701891,10.561442 19.9701891,10.9970817 L19.9701891,11.7854949 C19.9701891,12.2211346 19.6209085,12.5715404 19.1895821,12.5715404 C18.75849,12.5715404 18.408975,12.2211346 18.408975,11.7854949 Z M19.9701891,25.9674612 L19.9701891,26.7558743 C19.9701891,27.191514 19.6209085,27.5442875 19.1895821,27.5442875 C18.75849,27.5442875 18.408975,27.191514 18.408975,26.7558743 L18.408975,25.9674612 C18.408975,25.5318215 18.75849,25.179048 19.1895821,25.179048 C19.6209085,25.179048 19.9701891,25.5318215 19.9701891,25.9674612 Z M27.7715716,18.876478 C27.7715716,19.3121177 27.422291,19.6648912 26.9909645,19.6648912 L26.2103574,19.6648912 C25.779031,19.6648912 25.4297504,19.3121177 25.4297504,18.876478 C25.4297504,18.4408383 25.779031,18.0880649 26.2103574,18.0880649 L26.9909645,18.0880649 C27.422291,18.0880649 27.7715716,18.4408383 27.7715716,18.876478 Z M12.9494137,18.876478 C12.9494137,19.3121177 12.6001331,19.6648912 12.1688067,19.6648912 L11.388434,19.6648912 C10.9568731,19.6648912 10.6078269,19.3121177 10.6078269,18.876478 C10.6078269,18.4408383 10.9568731,18.0880649 11.388434,18.0880649 L12.1688067,18.0880649 C12.6001331,18.0880649 12.9494137,18.4408383 12.9494137,18.876478 L12.9494137,18.876478 Z" id="Fill-276"></path>
        </g>
    </g>
</svg>