<?xml version="1.0" encoding="UTF-8"?>
<svg width="38px" height="38px" viewBox="0 0 38 38" version="1.1" xmlns="http://www.w3.org/2000/svg" xmlns:xlink="http://www.w3.org/1999/xlink">
    <!-- Generator: Sketch 58 (84663) - https://sketch.com -->
    <title>watermark@1x</title>
    <desc>Created with Sketch.</desc>
    <g id="documnet-view" stroke="none" stroke-width="1" fill="none" fill-rule="evenodd">
        <g id="watermark" fill="#000000">
            <path d="M18.6895822,0 C29.0113234,0 37.3791644,8.4515194 37.3791644,18.876478 C37.3791644,29.3014367 29.0113234,37.7529561 18.6895822,37.7529561 C8.36784099,37.7529561 1.22568622e-12,29.3014367 1.22568622e-12,18.876478 C1.22568622e-12,8.4515194 8.36784099,0 18.6895822,0 Z M18.6895822,1.57166119 C9.24300109,1.57166119 1.55610018,9.3354311 1.55610018,18.876478 C1.55610018,28.417525 9.24300109,36.1789315 18.6895822,36.1789315 C28.1361633,36.1789315 35.8207242,28.417525 35.8207242,18.876478 C35.8207242,9.3354311 28.1361633,1.57166119 18.6895822,1.57166119 Z M11.6580197,8.22312731 L20.7995792,8.22312731 C20.8946717,8.22312731 20.9855379,8.242336 21.0700646,8.27648477 C21.1278245,8.30081578 21.1808884,8.33254568 21.2292565,8.37003028 L21.2982866,8.43036769 L26.219852,13.4009354 C26.283247,13.4670986 26.3360762,13.5439333 26.372,13.6314396 C26.3945405,13.6883542 26.4105066,13.7481146 26.4186462,13.8100883 L26.4248292,13.9046298 L26.4248292,28.8212417 C26.4248292,29.1812267 26.1602578,29.4766491 25.8182978,29.5233863 L25.7232578,29.5298287 L11.6580197,29.5298287 C11.3015989,29.5298287 11.0073258,29.264405 10.9607554,28.9176803 L10.9543352,28.8212417 L10.9543352,8.9317144 C10.9543352,8.57368583 11.2189066,8.27663299 11.5624943,8.22961049 L11.6580197,8.22312731 L20.7995792,8.22312731 Z M20.0958947,9.64243578 L12.3617043,9.64243578 L12.3617043,28.1105203 L25.0195733,28.1105203 L25.0195733,14.6153512 L20.7995792,14.6153512 C20.4431584,14.6153512 20.1488853,14.348134 20.1023149,14.0011105 L20.0958947,13.9046298 L20.0958947,9.64243578 Z M16.8595286,17.1001156 L22.4242277,21.2554196 L21.4880945,21.8633517 L19.9685509,20.7014906 L17.9083206,22.0394197 L18.3627362,23.8929831 L17.433974,24.4961283 L15.9012819,17.7224082 L16.8595286,17.1001156 Z M16.8746974,18.1804738 C17.0065821,18.5287957 17.126285,18.9255958 17.2338098,19.3708859 L17.6683324,21.105061 L19.2383826,20.0854584 L17.7713481,18.9318357 C17.6700288,18.8565052 17.5175172,18.7332739 17.3138088,18.5621383 C17.1101004,18.3910027 16.9637314,18.2637825 16.8746974,18.1804738 Z M21.5032638,10.6476904 L21.5032638,13.1939084 L24.0242717,13.1939084 L21.5032638,10.6476904 Z" id="Combined-Shape"></path>
        </g>
    </g>
</svg>