<?xml version="1.0" encoding="UTF-8"?>
<svg width="88px" height="17px" viewBox="0 0 88 17" version="1.1" xmlns="http://www.w3.org/2000/svg" xmlns:xlink="http://www.w3.org/1999/xlink">
    <!-- Generator: Sketch 55.2 (78181) - https://sketchapp.com -->
    <title>Deloitte</title>
    <desc>Created with Sketch.</desc>
    <defs>
        <polygon id="path-1" points="0.277067885 0.251461454 4.92185379 0.251461454 4.92185379 4.89709261 0.277067885 4.89709261"></polygon>
    </defs>
    <g id="UI" stroke="none" stroke-width="1" fill="none" fill-rule="evenodd">
        <g id="Deloitte">
            <g id="Group-84" transform="translate(82.715405, 11.490128)">
                <mask id="mask-2" fill="white">
                    <use xlink:href="#path-1"></use>
                </mask>
                <g id="Clip-83"></g>
                <path d="M0.277067885,2.57447811 C0.277067885,1.29217981 1.31876501,0.251461454 2.59970496,0.251461454 C3.88265535,0.251461454 4.92205483,1.29217981 4.92205483,2.57447811 C4.92205483,3.85706366 3.88265535,4.89720751 2.59970496,4.89720751 C1.31876501,4.89720751 0.277067885,3.85706366 0.277067885,2.57447811" id="Fill-82" fill="#78BA43" mask="url(#mask-2)"></path>
            </g>
            <path d="M8.91491123,7.9121884 C8.91491123,6.44059024 8.63086423,5.34902807 8.06190862,4.63807639 C7.49324021,3.92769922 6.63047258,3.57236701 5.47102089,3.57236701 L4.23746997,3.57236701 L4.23746997,12.5708609 L5.18151697,12.5708609 C6.46906266,12.5708609 7.41310966,12.1885268 8.01365796,11.4227098 C8.61420627,10.6577545 8.91491123,9.48691046 8.91491123,7.9121884 M13.3134752,7.75908245 C13.3134752,10.4394421 12.5923003,12.5053671 11.1513864,13.955134 C9.71047258,15.40605 7.68480679,16.1310771 5.07410183,16.1310771 L2.87206266e-05,16.1310771 L2.87206266e-05,0.0673034255 L5.42822715,0.0673034255 C7.94587728,0.0673034255 9.88940209,0.727124033 11.259376,2.04532898 C12.628201,3.36382118 13.3134752,5.26773541 13.3134752,7.75908245" id="Fill-85" fill="#FFFFFF"></path>
            <polygon id="Fill-87" fill="#FFFFFF" points="27.3675979 16.1312781 31.4048564 16.1312781 31.4048564 0 27.3675979 0"></polygon>
            <path d="M37.0762611,10.1141278 C37.0762611,11.1430688 37.2100992,11.9275573 37.4789243,12.4664443 C37.7474621,13.0059058 38.1978016,13.2753493 38.8310914,13.2753493 C39.4577755,13.2753493 39.9000731,13.0059058 40.1582715,12.4664443 C40.41647,11.9275573 40.5451384,11.1430688 40.5451384,10.1141278 C40.5451384,9.09093192 40.4147467,8.31965707 40.1531018,7.79829251 C39.8911697,7.27635344 39.4442768,7.01466577 38.8104125,7.01466577 C38.1909086,7.01466577 37.7474621,7.27462992 37.4789243,7.79254744 C37.2100992,8.31075222 37.0762611,9.0843251 37.0762611,10.1141278 M44.6544856,10.1141278 C44.6544856,12.0731947 44.1406736,13.6022435 43.110752,14.6981144 C42.0822663,15.7945599 40.6416397,16.342639 38.7903081,16.342639 C37.0142245,16.342639 35.6011697,15.782208 34.5520052,14.6607715 C33.5014047,13.5399095 32.9766789,12.0246489 32.9766789,10.1141278 C32.9766789,8.16080605 33.4907781,6.64267287 34.5204125,5.56059006 C35.5494726,4.47850724 36.9938329,3.9373222 38.8523446,3.9373222 C40.0011697,3.9373222 41.0173055,4.187807 41.8978799,4.68877658 C42.7790287,5.18945892 43.4585587,5.90644291 43.9373316,6.84116483 C44.41553,7.77416324 44.6544856,8.86572541 44.6544856,10.1141278" id="Fill-89" fill="#FFFFFF"></path>
            <polygon id="Fill-90" fill="#FFFFFF" points="46.2574413 16.1312781 50.2949869 16.1312781 50.2949869 4.14908527 46.2574413 4.14908527"></polygon>
            <polygon id="Fill-91" fill="#FFFFFF" points="46.2574413 2.69989286 50.2949869 2.69989286 50.2949869 0 46.2574413 0"></polygon>
            <path d="M58.4763446,13.0749615 C59.0208877,13.0749615 59.6705483,12.9365055 60.4281984,12.6618914 L60.4281984,15.6766138 C59.8833681,15.9153212 59.3661097,16.0870986 58.8741253,16.1887862 C58.3824282,16.2916229 57.8051436,16.3424667 57.144282,16.3424667 C55.7883812,16.3424667 54.8110183,16.0020716 54.2113316,15.3215688 C53.6133681,14.6416405 53.313812,13.5963261 53.313812,12.1867746 L53.313812,7.24745577 L51.8998956,7.24745577 L51.8998956,4.14971722 L53.313812,4.14971722 L53.313812,1.09047061 L57.3820888,0.382391464 L57.3820888,4.14971722 L59.9589034,4.14971722 L59.9589034,7.24745577 L57.3820888,7.24745577 L57.3820888,11.911586 C57.3820888,12.6868824 57.7474151,13.0749615 58.4763446,13.0749615" id="Fill-92" fill="#FFFFFF"></path>
            <path d="M67.8214621,13.0749615 C68.3662924,13.0749615 69.0153786,12.9365055 69.7736031,12.6618914 L69.7736031,15.6766138 C69.2296345,15.9153212 68.7112272,16.0870986 68.2192428,16.1887862 C67.7266841,16.2916229 67.1511227,16.3424667 66.4896867,16.3424667 C65.1337859,16.3424667 64.156423,16.0020716 63.5575979,15.3215688 C62.9590601,14.6416405 62.6592167,13.5963261 62.6592167,12.1867746 L62.6592167,7.24745577 L61.2441514,7.24745577 L61.2441514,4.14971722 L62.6592167,4.14971722 L62.6592167,1.04393559 L66.7274935,0.382391464 L66.7274935,4.14971722 L69.3048825,4.14971722 L69.3048825,7.24745577 L66.7274935,7.24745577 L66.7274935,11.911586 C66.7274935,12.6868824 67.0925326,13.0749615 67.8214621,13.0749615" id="Fill-93" fill="#FFFFFF"></path>
            <path d="M74.8682402,8.65442195 C74.923671,7.99862289 75.1106423,7.51776103 75.4305901,7.2104001 C75.7519739,6.90390093 76.148893,6.75050772 76.6233577,6.75050772 C77.140329,6.75050772 77.5518956,6.9231469 77.8569086,7.26928701 C78.1642193,7.61456536 78.3241932,8.07618126 78.3368303,8.65442195 L74.8682402,8.65442195 Z M80.5621044,5.34957385 C79.6028355,4.40853236 78.2409034,3.93772436 76.4791802,3.93772436 C74.6278486,3.93772436 73.2027311,4.47862214 72.2038277,5.56099221 C71.2060731,6.64307503 70.7069086,8.19567859 70.7069086,10.2193774 C70.7069086,12.1790188 71.2459948,13.6899706 72.3230183,14.7507967 C73.4006162,15.8116228 74.9133316,16.3424667 76.8614517,16.3424667 C77.7974569,16.3424667 78.6027833,16.2784092 79.2771436,16.1517306 C79.9477702,16.0256264 80.5974308,15.7986964 81.2275614,15.470366 L80.6069086,12.7704731 C80.1488146,12.9574749 79.7131227,13.1011015 79.3024178,13.1958951 C78.7076136,13.3337766 78.0556554,13.4030047 77.3465431,13.4030047 C76.5679269,13.4030047 75.9535927,13.2125558 75.5032533,12.8319453 C75.053201,12.4510475 74.8128094,11.9253742 74.785812,11.2554997 L82.0027311,11.2554997 L82.0027311,9.41621745 C82.0027311,7.64645046 81.5225222,6.29061535 80.5621044,5.34957385 L80.5621044,5.34957385 Z" id="Fill-94" fill="#FFFFFF"></path>
            <path d="M18.6717102,8.65442195 C18.7268538,7.99862289 18.9143995,7.51776103 19.2343473,7.2104001 C19.5548695,6.90390093 19.9517885,6.75050772 20.4274021,6.75050772 C20.9432245,6.75050772 21.3547911,6.9231469 21.660953,7.26928701 C21.9674021,7.61456536 22.1270888,8.07618126 22.1408747,8.65442195 L18.6717102,8.65442195 Z M24.3661488,5.34957385 C23.4063055,4.40853236 22.0446606,3.93772436 20.2823629,3.93772436 C18.4307441,3.93772436 17.0059138,4.47862214 16.0081593,5.56099221 C15.0098303,6.64307503 14.5103786,8.19567859 14.5103786,10.2193774 C14.5103786,12.1790188 15.0491775,13.6899706 16.1267755,14.7507967 C17.203799,15.8116228 18.7168016,16.3424667 20.6649217,16.3424667 C21.6006397,16.3424667 22.4062533,16.2784092 23.0809008,16.1517306 C23.7512402,16.0256264 24.4009008,15.7986964 25.0307441,15.470366 L24.4103786,12.7704731 C23.9525718,12.9574749 23.5171671,13.1011015 23.1061749,13.1958951 C22.5110836,13.3337766 21.8591253,13.4030047 21.1500131,13.4030047 C20.3722585,13.4030047 19.7573499,13.2125558 19.3067232,12.8319453 C18.8560966,12.4510475 18.6168538,11.9253742 18.5889948,11.2554997 L25.806201,11.2554997 L25.806201,9.41621745 C25.806201,7.64645046 25.3265666,6.29061535 24.3661488,5.34957385 L24.3661488,5.34957385 Z" id="Fill-95" fill="#FFFFFF"></path>
        </g>
    </g>
</svg>