<?xml version="1.0" encoding="UTF-8"?>
<svg width="29px" height="30px" viewBox="0 0 29 30" version="1.1" xmlns="http://www.w3.org/2000/svg" xmlns:xlink="http://www.w3.org/1999/xlink">
    <!-- Generator: Sketch 54 (76480) - https://sketchapp.com -->
    <title>Help</title>
    <desc>Created with Sketch.</desc>
    <g id="Symbols" stroke="none" stroke-width="100%" fill="#000" fill-rule="evenodd">
        <g id="Top-Nav---Project-Setup" transform="translate(-1300.000000, -10.000000)" fill="#000">
            <g id="Group-47">
                <g id="Group-25" transform="translate(1300.000451, 10.250001)">
                    <g id="Help" transform="translate(0.309998, 0.567000)">
                        <path d="M14.1749992,1.18028855 C21.3397009,1.18028855 27.1680091,7.0107365 27.1680091,14.1760642 C27.1680091,21.3412144 21.3397009,27.1697099 14.1749992,27.1697099 C7.01029761,27.1697099 1.18198942,21.3412144 1.18198942,14.1760642 C1.18198942,7.0107365 7.01029761,1.18028855 14.1749992,1.18028855 M14.1749992,0 C6.34653779,0 0,6.3471126 0,14.1760642 C0,22.0048383 6.34653779,28.3499985 14.1749992,28.3499985 C22.0036382,28.3499985 28.3499985,22.0048383 28.3499985,14.1760642 C28.3499985,6.3471126 22.0036382,0 14.1749992,0" id="Fill-1759-Copy"></path>
                        <path d="M13.4990175,20.2588351 C13.8728354,20.2588351 14.1749992,20.4099171 14.1749992,20.596826 L14.1749992,21.2728078 C14.1749992,21.4597167 13.8728354,21.6107987 13.4990175,21.6107987 C13.1251996,21.6107987 12.8230357,21.4597167 12.8230357,21.2728078 L12.8230357,20.596826 C12.8230357,20.4099171 13.1251996,20.2588351 13.4990175,20.2588351 Z M14.2323375,6.73968655 C16.4063206,6.76888896 18.2000595,8.49085787 18.2304791,10.5773702 C18.2502518,11.9289552 17.5551653,13.1734647 16.3713382,13.9064452 C15.3289619,14.5523052 14.0805421,15.7510643 14.0805421,17.0369438 L14.0805421,18.462449 C14.0805421,18.7315979 13.7869301,18.9068716 13.5065634,18.9068716 C13.2261966,18.9068716 12.9644754,18.7315979 12.9644754,18.462449 L12.9644754,17.0369438 C12.9644754,15.3996619 14.4731588,13.9239667 15.8217585,13.0887777 C16.710009,12.5387989 17.2311972,11.6052951 17.2164944,10.590998 C17.1941867,9.05251759 15.8212515,7.73451539 14.2186487,7.71310029 C13.401884,7.69460543 12.6236508,8.00025734 12.0390886,8.55364305 C11.4550335,9.10654206 11.1330933,9.84536309 11.1330933,10.6328548 C11.1330933,10.9020037 10.9064678,11.1195617 10.626101,11.1195617 C10.3457342,11.1195617 10.1191087,10.9020037 10.1191087,10.6328548 C10.1191087,9.58254138 10.5485312,8.59793338 11.3272714,7.86057247 C12.0923228,7.13586594 13.1012376,6.73919984 14.1740334,6.73919984 C14.1938061,6.73919984 14.2130718,6.73968655 14.2323375,6.73968655 Z" id="Combined-Shape" stroke="#000" stroke-width="0.5"></path>
                    </g>
                </g>
            </g>
        </g>
    </g>
</svg>