<?xml version="1.0" encoding="UTF-8"?>
<svg width="136px" height="24px" viewBox="0 0 136 24" version="1.1" xmlns="http://www.w3.org/2000/svg" xmlns:xlink="http://www.w3.org/1999/xlink">
    <!-- Generator: Sketch 55.2 (78181) - https://sketchapp.com -->
    <title>TPDigitalDoX</title>
    <desc>Created with Sketch.</desc>
    <g id="UI" stroke="none" stroke-width="1" fill="none" fill-rule="evenodd">
        <g id="TPDigitalDoX" transform="translate(0.698434, 0.988564)" fill-rule="nonzero">
            <path d="M8.19766508,16.96219 L3.89171068,16.96219 L3.89171068,4.54577971 L0,4.54577971 L0,1.02470813 L12.0784746,1.02470813 L12.0784746,4.54577971 L8.19766508,4.54577971 L8.19766508,16.96219 Z M25.9229356,6.09374306 C25.9229356,7.87427319 25.3978688,9.24962124 24.3477194,10.2198285 C23.29757,11.1900357 21.8059441,11.675132 19.8727971,11.675132 L18.6627694,11.675132 L18.6627694,16.96219 L14.356815,16.96219 L14.356815,1.02470813 L19.8727971,1.02470813 C21.8858863,1.02470813 23.3974974,1.46438347 24.4076757,2.34374733 C25.417854,3.22311119 25.9229356,4.47309727 25.9229356,6.09374306 Z M18.6627694,8.16496163 L19.4476523,8.16496163 C20.0944571,8.16496163 20.6086229,7.98327761 20.990165,7.61990411 C21.3717072,7.25653061 21.5624754,6.75508271 21.5624754,6.11554536 C21.5624754,5.03995981 20.9665518,4.5021751 19.7746868,4.5021751 L18.6627694,4.5021751 L18.6627694,8.16496163 Z M41.0973369,8.84083295 C41.0973369,11.5152619 40.3960366,13.5374051 38.9934149,14.9073231 C37.5907932,16.2772412 35.5304964,16.96219 32.8124626,16.96219 L28.99706,16.96219 L28.99706,1.02470813 L33.3030144,1.02470813 C35.8466289,1.02470813 37.7815637,1.68967166 39.107877,3.01961865 C40.4341902,4.34956565 41.0973369,6.28995101 41.0973369,8.84083295 Z M39.8873092,8.88443755 C39.8873092,6.602452 39.3077372,4.88553798 38.1485757,3.733644 C36.9894143,2.58175002 35.287035,2.00581167 33.0413868,2.00581167 L30.1089773,2.00581167 L30.1089773,15.9810864 L32.7470557,15.9810864 C37.5072485,15.9810864 39.8873092,13.6155605 39.8873092,8.88443755 Z M45.5668086,16.96219 L44.4875947,16.96219 L44.4875947,5.11263952 L45.5668086,5.11263952 L45.5668086,16.96219 Z M44.3349786,1.82049211 C44.3349786,1.122815 44.5639004,0.773981676 45.021751,0.773981676 C45.2470426,0.773981676 45.4232761,0.864823688 45.5504568,1.04651044 C45.6776376,1.22819718 45.741227,1.4861885 45.741227,1.82049211 C45.741227,2.14752826 45.6776376,2.40551957 45.5504568,2.59447379 C45.4232761,2.78342801 45.2470426,2.8779037 45.021751,2.8779037 C44.5639004,2.8779037 44.3349786,2.52543669 44.3349786,1.82049211 Z M58.7790028,5.11263952 L58.7790028,5.8648189 L56.326244,6.01743501 C56.9803163,6.83139164 57.3073475,7.72527703 57.3073475,8.699118 C57.3073475,9.84011077 56.9276279,10.7648824 56.1681773,11.4734608 C55.4087267,12.1820391 54.3894793,12.5363229 53.1104046,12.5363229 C52.5726118,12.5363229 52.1947091,12.5145208 51.976685,12.470916 C51.5479042,12.6962076 51.220873,12.9614663 50.9955814,13.2667 C50.7702899,13.5719337 50.6576458,13.8953313 50.6576458,14.2369024 C50.6576458,14.6148108 50.8011762,14.8909705 51.0882412,15.0653898 C51.3753063,15.2398091 51.8567689,15.3270174 52.5326436,15.3270174 L54.6038622,15.3270174 C55.8902044,15.3270174 56.8749318,15.5868256 57.558074,16.1064497 C58.2412161,16.6260738 58.5827821,17.3945972 58.5827821,18.412043 C58.5827821,19.6620478 58.0758837,20.62679 57.0620716,21.3062984 C56.0482596,21.9858068 54.6038716,22.325556 52.7288643,22.325556 C51.239033,22.325556 50.0853395,22.0384952 49.2677491,21.4643651 C48.4501587,20.890235 48.0413697,20.0908253 48.0413697,19.066112 C48.0413697,18.2521554 48.2939105,17.5762908 48.7989996,17.038498 C49.3040888,16.5007053 49.9890376,16.1337035 50.8538665,15.9374818 C50.4977605,15.784865 50.2125165,15.568661 49.9981262,15.2888634 C49.7837358,15.0090658 49.6765422,14.6874851 49.6765422,14.3241116 C49.6765422,13.5319574 50.1816238,12.8342907 51.1918021,12.2310907 C50.5013925,11.9476594 49.9636078,11.5025335 49.5784319,10.8956998 C49.193256,10.2888661 49.0006709,9.59301625 49.0006709,8.8081295 C49.0006709,7.6235319 49.3767568,6.67332447 50.12894,5.95747868 C50.8811231,5.24163289 51.8967368,4.88371537 53.1758115,4.88371537 C53.9534308,4.88371537 54.5566218,4.96002266 54.9854025,5.11263952 L58.7790028,5.11263952 Z M49.1859905,18.9680016 C49.1859905,20.5959149 50.3960061,21.4098593 52.8160736,21.4098593 C55.9265507,21.4098593 57.4817659,20.4178646 57.4817659,18.4338453 C57.4817659,17.7216332 57.2383093,17.2056506 56.7513888,16.8858819 C56.2644684,16.5661132 55.4759597,16.4062313 54.3858392,16.4062313 L52.4454344,16.4062313 C50.2724609,16.4062313 49.1859905,17.2601462 49.1859905,18.9680016 Z M50.090786,8.8081295 C50.090786,9.72383071 50.3687625,10.4342152 50.924724,10.9393044 C51.4806854,11.4443936 52.2237731,11.6969343 53.1540092,11.6969343 C54.1423851,11.6969343 54.9000075,11.4462104 55.4268991,10.944755 C55.9537906,10.4432995 56.2172325,9.71656346 56.2172325,8.7645249 C56.2172325,7.75434658 55.9465233,6.99672421 55.4050968,6.49163505 C54.8636703,5.98654589 54.1060479,5.7340051 53.1322069,5.7340051 C52.1874358,5.7340051 51.4443482,6.00471429 50.9029217,6.5461408 C50.3614952,7.08756731 50.090786,7.841556 50.090786,8.8081295 Z M62.2891732,16.96219 L61.2099593,16.96219 L61.2099593,5.11263952 L62.2891732,5.11263952 L62.2891732,16.96219 Z M61.0573432,1.82049211 C61.0573432,1.122815 61.2862651,0.773981676 61.7441157,0.773981676 C61.9694073,0.773981676 62.1456408,0.864823688 62.2728215,1.04651044 C62.4000022,1.22819718 62.4635916,1.4861885 62.4635916,1.82049211 C62.4635916,2.14752826 62.4000022,2.40551957 62.2728215,2.59447379 C62.1456408,2.78342801 61.9694073,2.8779037 61.7441157,2.8779037 C61.2862651,2.8779037 61.0573432,2.52543669 61.0573432,1.82049211 Z M69.3858221,16.2209118 C70.0689643,16.2209118 70.6648879,16.1627729 71.1736108,16.0464933 L71.1736108,16.9185854 C70.6503529,17.0930047 70.047162,17.180213 69.3640198,17.180213 C68.3175041,17.180213 67.5453471,16.9004196 67.0475254,16.3408244 C66.5497037,15.7812292 66.3007966,14.9018786 66.3007966,13.702746 L66.3007966,6.05013846 L64.5457114,6.05013846 L64.5457114,5.41787173 L66.3007966,4.92731997 L66.8458541,2.24563698 L67.4018127,2.24563698 L67.4018127,5.11263952 L70.8792797,5.11263952 L70.8792797,6.05013846 L67.4018127,6.05013846 L67.4018127,13.5501299 C67.4018127,14.4585637 67.5616947,15.1307945 67.8814634,15.5668427 C68.201232,16.0028909 68.7026799,16.2209118 69.3858221,16.2209118 Z M80.9301404,16.96219 L80.6576116,15.0871921 L80.5704024,15.0871921 C79.9744699,15.8502765 79.3621947,16.389878 78.7335586,16.7060129 C78.1049224,17.0221479 77.3618348,17.180213 76.5042733,17.180213 C75.3414781,17.180213 74.4366917,16.8822512 73.7898869,16.2863187 C73.143082,15.6903861 72.8196845,14.8655407 72.8196845,13.8117575 C72.8196845,12.6562298 73.3011471,11.7587107 74.2640869,11.1191734 C75.2270267,10.479636 76.6205431,10.1417037 78.4446781,10.1053664 L80.7012162,10.0399595 L80.7012162,9.25507667 C80.7012162,8.12861883 80.4722943,7.2783376 80.0144437,6.70420748 C79.5565931,6.13007736 78.818956,5.8430166 77.8015102,5.8430166 C76.7041222,5.8430166 75.5667803,6.14824576 74.3894501,6.75871323 L73.9861076,5.8212143 C75.2869847,5.21074683 76.5733076,4.90551767 77.8451148,4.90551767 C79.1459919,4.90551767 80.1180014,5.24344995 80.7611725,5.91932465 C81.4043436,6.59519935 81.7259243,7.64896669 81.7259243,9.08065826 L81.7259243,16.96219 L80.9301404,16.96219 Z M76.5696802,16.1991095 C77.83422,16.1991095 78.8316653,15.8375582 79.562046,15.114445 C80.2924267,14.3913317 80.6576116,13.3866191 80.6576116,12.1002769 L80.6576116,10.9338538 L78.586393,11.021063 C76.9221424,11.1010052 75.7357458,11.3608133 75.0271674,11.8004953 C74.3185891,12.2401772 73.9643053,12.925126 73.9643053,13.8553621 C73.9643053,14.5966441 74.1914103,15.1725824 74.6456272,15.5831945 C75.099844,15.9938065 75.7411886,16.1991095 76.5696802,16.1991095 Z M86.6423432,16.96219 L85.5631293,16.96219 L85.5631293,-2.27373675e-13 L86.6423432,-2.27373675e-13 L86.6423432,16.96219 Z" id="TPDigital" fill="#FFFFFF"></path>
            <path d="M103.877062,8.6555134 C103.877062,11.3154074 103.144875,13.3648032 101.68048,14.8037622 C100.216085,16.2427212 98.1576049,16.96219 95.5049784,16.96219 L90.3487343,16.96219 L90.3487343,1.02470813 L95.8647164,1.02470813 C98.4228658,1.02470813 100.397771,1.67877062 101.789492,2.9869152 C103.181212,4.29505979 103.877062,6.18457362 103.877062,8.6555134 Z M99.4075902,8.8081295 C99.4075902,7.34736805 99.1187126,6.26453127 98.5409488,5.55958669 C97.9631849,4.85464211 97.0856511,4.5021751 95.908321,4.5021751 L94.6546887,4.5021751 L94.6546887,13.4302173 L95.6139899,13.4302173 C96.9221345,13.4302173 97.8814261,13.0504977 98.4918936,12.291047 C99.1023611,11.5315964 99.4075902,10.3706355 99.4075902,8.8081295 Z M118.277482,10.7594354 C118.277482,12.7797921 117.734246,14.3549925 116.64776,15.4850841 C115.561273,16.6151757 114.040578,17.180213 112.085628,17.180213 C110.210621,17.180213 108.718995,16.6024578 107.610706,15.4469301 C106.502417,14.2914024 105.94828,12.7289198 105.94828,10.7594354 C105.94828,8.74634625 106.491516,7.18204681 107.578002,6.06649018 C108.664489,4.95093355 110.188818,4.3931636 112.151035,4.3931636 C113.364703,4.3931636 114.436638,4.65115491 115.366874,5.16714528 C116.297111,5.68313564 117.014762,6.42258961 117.519852,7.38552938 C118.024941,8.34846914 118.277482,9.47309324 118.277482,10.7594354 Z M110.276037,10.7594354 C110.276037,11.820486 110.417751,12.6289799 110.701182,13.1849414 C110.984613,13.7409028 111.460625,14.0188794 112.129233,14.0188794 C112.790572,14.0188794 113.2575,13.7409028 113.530031,13.1849414 C113.802561,12.6289799 113.938824,11.820486 113.938824,10.7594354 C113.938824,9.70565228 113.800744,8.90987626 113.52458,8.37208349 C113.248416,7.83429071 112.776037,7.56539836 112.10743,7.56539836 C111.453358,7.56539836 110.984613,7.83247387 110.701182,8.36663291 C110.417751,8.90079195 110.276037,9.69838481 110.276037,10.7594354 Z M135.31598,16.96219 L130.334154,16.96219 L127.227326,11.9803643 L124.153202,16.96219 L119.280387,16.96219 L124.567445,8.8081295 L119.596521,1.02470813 L124.371225,1.02470813 L127.249128,5.9520281 L130.01802,1.02470813 L134.934439,1.02470813 L129.887207,9.14606516 L135.31598,16.96219 Z" id="DoX" fill="#78BA43"></path>
        </g>
    </g>
</svg>