<?xml version="1.0" encoding="UTF-8"?>
<svg width="28px" height="28px" viewBox="0 0 28 28" version="1.1" xmlns="http://www.w3.org/2000/svg" xmlns:xlink="http://www.w3.org/1999/xlink">
    <!-- Generator: Sketch 55.2 (78181) - https://sketchapp.com -->
    <title>Add to library</title>
    <desc>Created with Sketch.</desc>
    <g id="Page-1" stroke="none" stroke-width="1" fill="none" fill-rule="evenodd">
        <g id="Editor-Tab" transform="translate(-479.000000, -109.000000)" fill="#000000">
            <path d="M497.200081,129.791941 C497.122958,129.791941 497.044433,129.77367 496.974322,129.736461 L493.000392,127.640237 L489.026462,129.736461 C488.868009,129.820081 488.671696,129.808878 488.524462,129.706454 C488.37863,129.604564 488.307116,129.43039 488.342172,129.260883 L489.226981,125.055765 L486.136458,122.116676 C486.008855,121.995314 485.966788,121.815005 486.027084,121.653768 C486.088782,121.49213 486.241626,121.378103 486.421112,121.361299 L490.817114,120.942934 L492.574113,117.18432 C492.648431,117.023883 492.815297,116.920792 493.000392,116.920792 C493.184084,116.920792 493.352352,117.023883 493.426671,117.18432 L495.183669,120.942934 L499.579672,121.361299 C499.759158,121.378103 499.912001,121.49213 499.972297,121.653768 C500.033995,121.815005 499.990526,121.995314 499.862923,122.116676 L496.773802,125.055765 L497.657209,129.260883 C497.693667,129.43039 497.622154,129.604564 497.474919,129.706454 C497.393589,129.763268 497.296835,129.791941 497.200081,129.791941 Z M493.226151,126.744427 L496.545238,128.49497 L495.809065,124.996817 C495.778216,124.851183 495.825892,124.700748 495.936669,124.595924 L498.506963,122.151351 L494.820491,121.800869 C494.653625,121.784865 494.507793,121.684975 494.440486,121.539474 L493.000392,118.457285 L491.560298,121.539474 C491.491588,121.684975 491.347158,121.784865 491.180292,121.800869 L487.49382,122.151351 L490.064114,124.595924 C490.173489,124.700748 490.222567,124.851183 490.191718,124.996817 L489.455545,128.49497 L492.77323,126.744427 C492.844744,126.707752 492.921867,126.688947 493.000392,126.688947 C493.077514,126.688947 493.15604,126.707752 493.226151,126.744427 Z M505.833333,123 C505.833333,115.941667 500.058333,110.166667 493,110.166667 C485.941667,110.166667 480.166667,115.941667 480.166667,123 C480.166667,130.058333 485.941667,135.833333 493,135.833333 C500.058333,135.833333 505.833333,130.058333 505.833333,123 Z M479,123 C479,115.241667 485.241667,109 493,109 C500.758333,109 507,115.241667 507,123 C507,130.758333 500.758333,137 493,137 C485.241667,137 479,130.758333 479,123 Z" id="Add-to-library"></path>
        </g>
    </g>
</svg>