<?xml version="1.0" encoding="UTF-8"?>
<svg width="16px" height="13px" viewBox="0 0 16 13" version="1.1" xmlns="http://www.w3.org/2000/svg" xmlns:xlink="http://www.w3.org/1999/xlink">
    <!-- Generator: Sketch 55.2 (78181) - https://sketchapp.com -->
    <title>Align right</title>
    <desc>Created with Sketch.</desc>
    <g id="Page-1" stroke="none" stroke-width="1" fill="none" fill-rule="evenodd">
        <g id="Editor-Tab" transform="translate(-1068.000000, -156.000000)" fill="#000000">
            <path d="M1071.06843,163.016154 C1070.81098,163.016154 1070.60227,162.80745 1070.60227,162.55 C1070.60227,162.29255 1070.81098,162.083846 1071.06843,162.083846 L1083.26112,162.083846 C1083.51857,162.083846 1083.72727,162.29255 1083.72727,162.55 C1083.72727,162.80745 1083.51857,163.016154 1083.26112,163.016154 L1071.06843,163.016154 Z M1069.19343,165.813077 C1068.93598,165.813077 1068.72727,165.604373 1068.72727,165.346923 C1068.72727,165.089473 1068.93598,164.880769 1069.19343,164.880769 L1083.26112,164.880769 C1083.51857,164.880769 1083.72727,165.089473 1083.72727,165.346923 C1083.72727,165.604373 1083.51857,165.813077 1083.26112,165.813077 L1069.19343,165.813077 Z M1069.19343,160.219231 C1068.93598,160.219231 1068.72727,160.010527 1068.72727,159.753077 C1068.72727,159.495627 1068.93598,159.286923 1069.19343,159.286923 L1083.26112,159.286923 C1083.51857,159.286923 1083.72727,159.495627 1083.72727,159.753077 C1083.72727,160.010527 1083.51857,160.219231 1083.26112,160.219231 L1069.19343,160.219231 Z M1071.06843,157.422308 C1070.81098,157.422308 1070.60227,157.213604 1070.60227,156.956154 C1070.60227,156.698704 1070.81098,156.49 1071.06843,156.49 L1083.26112,156.49 C1083.51857,156.49 1083.72727,156.698704 1083.72727,156.956154 C1083.72727,157.213604 1083.51857,157.422308 1083.26112,157.422308 L1071.06843,157.422308 Z M1071.06843,168.61 C1070.81098,168.61 1070.60227,168.401296 1070.60227,168.143846 C1070.60227,167.886396 1070.81098,167.677692 1071.06843,167.677692 L1083.26112,167.677692 C1083.51857,167.677692 1083.72727,167.886396 1083.72727,168.143846 C1083.72727,168.401296 1083.51857,168.61 1083.26112,168.61 L1071.06843,168.61 Z" id="Align-right"></path>
        </g>
    </g>
</svg>