<?xml version="1.0" encoding="UTF-8"?>
<svg width="16px" height="13px" viewBox="0 0 16 13" version="1.1" xmlns="http://www.w3.org/2000/svg" xmlns:xlink="http://www.w3.org/1999/xlink">
    <!-- Generator: Sketch 55.2 (78181) - https://sketchapp.com -->
    <title>Align left</title>
    <desc>Created with Sketch.</desc>
    <g id="Page-1" stroke="none" stroke-width="1" fill="none" fill-rule="evenodd">
        <g id="Editor-Tab" transform="translate(-1014.000000, -156.000000)" fill="#000000">
            <path d="M1015.19343,163.016154 C1014.93598,163.016154 1014.72727,162.80745 1014.72727,162.55 C1014.72727,162.29255 1014.93598,162.083846 1015.19343,162.083846 L1027.38612,162.083846 C1027.64357,162.083846 1027.85227,162.29255 1027.85227,162.55 C1027.85227,162.80745 1027.64357,163.016154 1027.38612,163.016154 L1015.19343,163.016154 Z M1015.19343,165.813077 C1014.93598,165.813077 1014.72727,165.604373 1014.72727,165.346923 C1014.72727,165.089473 1014.93598,164.880769 1015.19343,164.880769 L1029.26112,164.880769 C1029.51857,164.880769 1029.72727,165.089473 1029.72727,165.346923 C1029.72727,165.604373 1029.51857,165.813077 1029.26112,165.813077 L1015.19343,165.813077 Z M1015.19343,160.219231 C1014.93598,160.219231 1014.72727,160.010527 1014.72727,159.753077 C1014.72727,159.495627 1014.93598,159.286923 1015.19343,159.286923 L1029.26112,159.286923 C1029.51857,159.286923 1029.72727,159.495627 1029.72727,159.753077 C1029.72727,160.010527 1029.51857,160.219231 1029.26112,160.219231 L1015.19343,160.219231 Z M1015.19343,157.422308 C1014.93598,157.422308 1014.72727,157.213604 1014.72727,156.956154 C1014.72727,156.698704 1014.93598,156.49 1015.19343,156.49 L1027.38612,156.49 C1027.64357,156.49 1027.85227,156.698704 1027.85227,156.956154 C1027.85227,157.213604 1027.64357,157.422308 1027.38612,157.422308 L1015.19343,157.422308 Z M1015.19343,168.61 C1014.93598,168.61 1014.72727,168.401296 1014.72727,168.143846 C1014.72727,167.886396 1014.93598,167.677692 1015.19343,167.677692 L1027.38612,167.677692 C1027.64357,167.677692 1027.85227,167.886396 1027.85227,168.143846 C1027.85227,168.401296 1027.64357,168.61 1027.38612,168.61 L1015.19343,168.61 Z" id="Align-left"></path>
        </g>
    </g>
</svg>