<?xml version="1.0" encoding="UTF-8"?>
<svg width="8px" height="11px" viewBox="0 0 8 11" version="1.1" xmlns="http://www.w3.org/2000/svg" xmlns:xlink="http://www.w3.org/1999/xlink">
    <!-- Generator: Sketch 55.2 (78181) - https://sketchapp.com -->
    <title>Bold</title>
    <desc>Created with Sketch.</desc>
    <g id="Page-1" stroke="none" stroke-width="1" fill="none" fill-rule="evenodd">
        <g id="Editor-Tab" transform="translate(-720.000000, -158.000000)" fill="#000000" fill-rule="nonzero">
            <path d="M720.181818,158.51 L723.12001,158.51 C724.458885,158.51 725.430739,158.713794 726.0356,159.121389 C726.640462,159.528983 726.942888,160.177209 726.942888,161.066088 C726.942888,161.669419 726.81051,162.164512 726.545748,162.551382 C726.280987,162.938251 725.929053,163.17083 725.489936,163.249124 L725.489936,163.318208 C726.08834,163.460981 726.519916,163.728101 726.784678,164.119576 C727.049439,164.511051 727.181818,165.031474 727.181818,165.680862 C727.181818,166.601979 726.870782,167.32044 726.2487,167.836265 C725.626618,168.352091 724.781762,168.61 723.714106,168.61 L720.181818,168.61 L720.181818,158.51 Z M722.183663,162.509932 L723.346025,162.509932 C723.888463,162.509932 724.281294,162.420124 724.52453,162.240506 C724.767767,162.060888 724.889383,161.763832 724.889383,161.34933 C724.889383,160.96246 724.757004,160.684978 724.492243,160.516874 C724.227481,160.34877 723.80882,160.26472 723.236246,160.26472 L722.183663,160.26472 L722.183663,162.509932 Z M722.183663,164.209384 L722.183663,166.841464 L723.488091,166.841464 C724.03914,166.841464 724.445962,166.728629 724.708571,166.502955 C724.97118,166.277281 725.102482,165.931867 725.102482,165.466703 C725.102482,164.628486 724.542832,164.209384 723.423516,164.209384 L722.183663,164.209384 Z" id="Bold"></path>
        </g>
    </g>
</svg>