<?xml version="1.0" encoding="UTF-8"?>
<svg width="14px" height="12px" viewBox="0 0 14 12" version="1.1" xmlns="http://www.w3.org/2000/svg" xmlns:xlink="http://www.w3.org/1999/xlink">
    <!-- Generator: Sketch 55.2 (78181) - https://sketchapp.com -->
    <title>Bullets</title>
    <desc>Created with Sketch.</desc>
    <g id="Page-1" stroke="none" stroke-width="1" fill="none" fill-rule="evenodd">
        <g id="Editor-Tab" transform="translate(-1014.000000, -123.000000)" fill="#000000">
            <path d="M1015.3039,125.109565 L1016.64916,125.109565 L1016.64916,123.73795 L1015.3039,123.73795 L1015.3039,125.109565 Z M1016.93747,125.697485 L1015.01558,125.697485 C1014.85644,125.697485 1014.72727,125.565791 1014.72727,125.403525 L1014.72727,123.44399 C1014.72727,123.281137 1014.85644,123.150031 1015.01558,123.150031 L1016.93747,123.150031 C1017.09662,123.150031 1017.22579,123.281137 1017.22579,123.44399 L1017.22579,125.403525 C1017.22579,125.565791 1017.09662,125.697485 1016.93747,125.697485 Z M1015.3039,129.400808 L1016.64916,129.400808 L1016.64916,128.029192 L1015.3039,128.029192 L1015.3039,129.400808 Z M1016.93747,129.988727 L1015.01558,129.988727 C1014.85644,129.988727 1014.72727,129.857033 1014.72727,129.694767 L1014.72727,127.735233 C1014.72727,127.572379 1014.85644,127.441273 1015.01558,127.441273 L1016.93747,127.441273 C1017.09662,127.441273 1017.22579,127.572379 1017.22579,127.735233 L1017.22579,129.694767 C1017.22579,129.857033 1017.09662,129.988727 1016.93747,129.988727 Z M1015.3039,133.682081 L1016.64916,133.682081 L1016.64916,132.310465 L1015.3039,132.310465 L1015.3039,133.682081 Z M1016.93747,134.27 L1015.01558,134.27 C1014.85644,134.27 1014.72727,134.138306 1014.72727,133.97604 L1014.72727,132.016506 C1014.72727,131.853652 1014.85644,131.722546 1015.01558,131.722546 L1016.93747,131.722546 C1017.09662,131.722546 1017.22579,131.853652 1017.22579,132.016506 L1017.22579,133.97604 C1017.22579,134.138306 1017.09662,134.27 1016.93747,134.27 Z M1019.62777,124.777788 C1019.40685,124.777788 1019.22777,124.598702 1019.22777,124.377788 C1019.22777,124.156874 1019.40685,123.977788 1019.62777,123.977788 L1027.55921,123.977788 C1027.78012,123.977788 1027.95921,124.156874 1027.95921,124.377788 C1027.95921,124.598702 1027.78012,124.777788 1027.55921,124.777788 L1019.62777,124.777788 Z M1019.62777,129.052776 C1019.40685,129.052776 1019.22777,128.87369 1019.22777,128.652776 C1019.22777,128.431862 1019.40685,128.252776 1019.62777,128.252776 L1027.55921,128.252776 C1027.78012,128.252776 1027.95921,128.431862 1027.95921,128.652776 C1027.95921,128.87369 1027.78012,129.052776 1027.55921,129.052776 L1019.62777,129.052776 Z M1019.62777,133.269147 C1019.40685,133.269147 1019.22777,133.090061 1019.22777,132.869147 C1019.22777,132.648233 1019.40685,132.469147 1019.62777,132.469147 L1027.55921,132.469147 C1027.78012,132.469147 1027.95921,132.648233 1027.95921,132.869147 C1027.95921,133.090061 1027.78012,133.269147 1027.55921,133.269147 L1019.62777,133.269147 Z" id="Bullets"></path>
        </g>
    </g>
</svg>