<?xml version="1.0" encoding="UTF-8"?>
<svg width="16px" height="13px" viewBox="0 0 16 13" version="1.1" xmlns="http://www.w3.org/2000/svg" xmlns:xlink="http://www.w3.org/1999/xlink">
    <!-- Generator: Sketch 55.2 (78181) - https://sketchapp.com -->
    <title>Center text</title>
    <desc>Created with Sketch.</desc>
    <g id="Page-1" stroke="none" stroke-width="1" fill="none" fill-rule="evenodd">
        <g id="Editor-Tab" transform="translate(-1041.000000, -156.000000)" fill="#000000">
            <path d="M1044.06843,163.016154 C1043.81098,163.016154 1043.60227,162.80745 1043.60227,162.55 C1043.60227,162.29255 1043.81098,162.083846 1044.06843,162.083846 L1054.38612,162.083846 C1054.64357,162.083846 1054.85227,162.29255 1054.85227,162.55 C1054.85227,162.80745 1054.64357,163.016154 1054.38612,163.016154 L1044.06843,163.016154 Z M1042.19343,165.813077 C1041.93598,165.813077 1041.72727,165.604373 1041.72727,165.346923 C1041.72727,165.089473 1041.93598,164.880769 1042.19343,164.880769 L1056.26112,164.880769 C1056.51857,164.880769 1056.72727,165.089473 1056.72727,165.346923 C1056.72727,165.604373 1056.51857,165.813077 1056.26112,165.813077 L1042.19343,165.813077 Z M1042.19343,160.219231 C1041.93598,160.219231 1041.72727,160.010527 1041.72727,159.753077 C1041.72727,159.495627 1041.93598,159.286923 1042.19343,159.286923 L1056.26112,159.286923 C1056.51857,159.286923 1056.72727,159.495627 1056.72727,159.753077 C1056.72727,160.010527 1056.51857,160.219231 1056.26112,160.219231 L1042.19343,160.219231 Z M1044.06843,157.422308 C1043.81098,157.422308 1043.60227,157.213604 1043.60227,156.956154 C1043.60227,156.698704 1043.81098,156.49 1044.06843,156.49 L1054.38612,156.49 C1054.64357,156.49 1054.85227,156.698704 1054.85227,156.956154 C1054.85227,157.213604 1054.64357,157.422308 1054.38612,157.422308 L1044.06843,157.422308 Z M1044.06843,168.61 C1043.81098,168.61 1043.60227,168.401296 1043.60227,168.143846 C1043.60227,167.886396 1043.81098,167.677692 1044.06843,167.677692 L1054.38612,167.677692 C1054.64357,167.677692 1054.85227,167.886396 1054.85227,168.143846 C1054.85227,168.401296 1054.64357,168.61 1054.38612,168.61 L1044.06843,168.61 Z" id="Center-text"></path>
        </g>
    </g>
</svg>