<?xml version="1.0" encoding="UTF-8"?>
<svg width="16px" height="16px" viewBox="0 0 16 16" version="1.1" xmlns="http://www.w3.org/2000/svg" xmlns:xlink="http://www.w3.org/1999/xlink">
    <!-- Generator: Sketch 55.2 (78181) - https://sketchapp.com -->
    <title>Clear all formatting</title>
    <desc>Created with Sketch.</desc>
    <g id="Page-1" stroke="none" stroke-width="1" fill="none" fill-rule="evenodd">
        <g id="Editor-Tab" transform="translate(-971.000000, -119.000000)" fill="#000000">
            <path d="M976.754585,122.933857 L984.168133,130.334014 L985.594252,128.910219 L985.594252,128.631972 L986.545455,128.631972 L986.545455,129.303375 L981.035141,134.804706 L976.836535,134.804706 L971.941173,129.917325 L971.942124,129.9159 C970.973801,128.942033 970.967618,127.363712 971.93071,126.392219 L972.227485,126.092604 L972.237473,126.100676 L977.558973,120.787851 C978.67283,119.676284 978.80695,119.540958 979.023348,119.610283 L979.411439,119.610283 L979.411439,120.559934 L979.132737,120.559934 C978.786088,120.905845 977.83065,121.859616 976.754585,122.933857 Z M976.082006,123.605301 C974.372243,125.312192 972.613197,127.06837 972.613197,127.06837 L972.492395,127.188976 C972.012038,127.796278 972.056744,128.688476 972.622234,129.252094 L972.621283,129.253518 L977.230332,133.855054 L980.641343,133.855054 L983.494266,131.006783 L976.082006,123.605301 Z M983.691848,134.32988 C983.691848,134.591984 983.477828,134.804706 983.216247,134.804706 C982.954667,134.804706 982.740646,134.591984 982.740646,134.32988 C982.740646,134.067776 982.954667,133.855054 983.216247,133.855054 C983.477828,133.855054 983.691848,134.067776 983.691848,134.32988 Z M985.594252,134.32988 C985.594252,134.591984 985.380232,134.804706 985.118651,134.804706 C984.857071,134.804706 984.64305,134.591984 984.64305,134.32988 C984.64305,134.067776 984.857071,133.855054 985.118651,133.855054 C985.380232,133.855054 985.594252,134.067776 985.594252,134.32988 Z" id="Clear-all-formatting"></path>
        </g>
    </g>
</svg>