<?xml version="1.0" encoding="UTF-8"?>
<svg width="38px" height="38px" viewBox="0 0 38 38" version="1.1" xmlns="http://www.w3.org/2000/svg" xmlns:xlink="http://www.w3.org/1999/xlink">
    <!-- Generator: Sketch 55.2 (78181) - https://sketchapp.com -->
    <title>Create stack</title>
    <desc>Created with Sketch.</desc>
    <g id="Page-1" stroke="none" stroke-width="1" fill="none" fill-rule="evenodd">
        <g id="Editor-Tab" transform="translate(-207.000000, -109.000000)" fill="#000000">
            <path d="M226,110.583333 C216.420833,110.583333 208.583333,118.420833 208.583333,128 C208.583333,137.579167 216.420833,145.416667 226,145.416667 C235.579167,145.416667 243.416667,137.579167 243.416667,128 C243.416667,118.420833 235.579167,110.583333 226,110.583333 Z M226,109 C236.529167,109 245,117.470833 245,128 C245,138.529167 236.529167,147 226,147 C215.470833,147 207,138.529167 207,128 C207,117.470833 215.470833,109 226,109 Z M235.5,122.458333 L234.708333,122.458333 L234.708333,133.541667 L235.5,133.541667 C235.975,133.541667 236.291667,133.858333 236.291667,134.333333 L236.291667,137.5 C236.291667,137.975 235.975,138.291667 235.5,138.291667 L232.333333,138.291667 C231.858333,138.291667 231.541667,137.975 231.541667,137.5 L231.541667,136.708333 L220.458333,136.708333 L220.458333,137.5 C220.458333,137.975 220.141667,138.291667 219.666667,138.291667 L216.5,138.291667 C216.025,138.291667 215.708333,137.975 215.708333,137.5 L215.708333,134.333333 C215.708333,133.858333 216.025,133.541667 216.5,133.541667 L217.291667,133.541667 L217.291667,122.458333 L216.5,122.458333 C216.025,122.458333 215.708333,122.141667 215.708333,121.666667 L215.708333,118.5 C215.708333,118.025 216.025,117.708333 216.5,117.708333 L219.666667,117.708333 C220.141667,117.708333 220.458333,118.025 220.458333,118.5 L220.458333,119.291667 L231.541667,119.291667 L231.541667,118.5 C231.541667,118.025 231.858333,117.708333 232.333333,117.708333 L235.5,117.708333 C235.975,117.708333 236.291667,118.025 236.291667,118.5 L236.291667,121.666667 C236.291667,122.141667 235.975,122.458333 235.5,122.458333 Z M233.125,119.291667 L233.125,120.875 L234.708333,120.875 L234.708333,119.291667 L233.125,119.291667 Z M217.291667,119.291667 L217.291667,120.875 L218.875,120.875 L218.875,119.291667 L217.291667,119.291667 Z M218.875,136.708333 L218.875,135.125 L217.291667,135.125 L217.291667,136.708333 L218.875,136.708333 Z M234.708333,136.708333 L234.708333,135.125 L233.125,135.125 L233.125,136.708333 L234.708333,136.708333 Z M233.125,133.541667 L233.125,122.458333 L232.333333,122.458333 C231.858333,122.458333 231.541667,122.141667 231.541667,121.666667 L231.541667,120.875 L220.458333,120.875 L220.458333,121.666667 C220.458333,122.141667 220.141667,122.458333 219.666667,122.458333 L218.875,122.458333 L218.875,133.541667 L219.666667,133.541667 C220.141667,133.541667 220.458333,133.858333 220.458333,134.333333 L220.458333,135.125 L231.541667,135.125 L231.541667,134.333333 C231.541667,133.858333 231.858333,133.541667 232.333333,133.541667 L233.125,133.541667 Z M229.958333,125.625 C230.433333,125.625 230.75,125.941667 230.75,126.416667 L230.75,131.958333 C230.75,132.433333 230.433333,132.75 229.958333,132.75 L224.416667,132.75 C223.941667,132.75 223.625,132.433333 223.625,131.958333 L223.625,129.583333 L222.041667,129.583333 C221.566667,129.583333 221.25,129.266667 221.25,128.791667 L221.25,124.041667 C221.25,123.566667 221.566667,123.25 222.041667,123.25 L226.791667,123.25 C227.266667,123.25 227.583333,123.566667 227.583333,124.041667 L227.583333,125.625 L229.958333,125.625 Z M222.833333,128 L226,128 L226,124.833333 L222.833333,124.833333 L222.833333,128 Z M229.166667,131.166667 L229.166667,127.208333 L227.583333,127.208333 L227.583333,128.791667 C227.583333,129.266667 227.266667,129.583333 226.791667,129.583333 L225.208333,129.583333 L225.208333,131.166667 L229.166667,131.166667 Z" id="Create-stack"></path>
        </g>
    </g>
</svg>