<?xml version="1.0" encoding="UTF-8"?>
<svg width="17px" height="17px" viewBox="0 0 17 17" version="1.1" xmlns="http://www.w3.org/2000/svg" xmlns:xlink="http://www.w3.org/1999/xlink">
    <!-- Generator: Sketch 55.2 (78181) - https://sketchapp.com -->
    <title>Decrease indent</title>
    <desc>Created with Sketch.</desc>
    <g id="Page-1" stroke="none" stroke-width="1" fill="none" fill-rule="evenodd">
        <g id="Editor-Tab" transform="translate(-1095.000000, -120.000000)" fill="#000000">
            <path d="M1107.44246,127.705 L1111.22227,127.705 C1111.50118,127.705 1111.72727,127.931096 1111.72727,128.21 C1111.72727,128.488904 1111.50118,128.715 1111.22227,128.715 L1107.44246,128.715 C1107.46242,128.740621 1107.48411,128.765335 1107.50752,128.788983 L1107.72727,129.01093 C1107.92307,129.208687 1107.92307,129.527243 1107.72727,129.725 C1107.53397,129.920233 1107.21901,129.9218 1107.02377,129.7285 C1107.0226,129.727339 1107.02143,129.726172 1107.02027,129.725 L1105.52027,128.21 L1107.02027,126.695 C1107.21357,126.499767 1107.52854,126.4982 1107.72377,126.6915 C1107.72495,126.692661 1107.72611,126.693828 1107.72727,126.695 C1107.92307,126.892757 1107.92307,127.211313 1107.72727,127.40907 L1107.50752,127.631018 C1107.48411,127.654665 1107.46242,127.679379 1107.44246,127.705 Z M1096.23227,128.715 C1095.95337,128.715 1095.72727,128.488904 1095.72727,128.21 C1095.72727,127.931096 1095.95337,127.705 1096.23227,127.705 L1102.22227,127.705 C1102.50118,127.705 1102.72727,127.931096 1102.72727,128.21 C1102.72727,128.488904 1102.50118,128.715 1102.22227,128.715 L1096.23227,128.715 Z M1098.23227,125.685 C1097.95337,125.685 1097.72727,125.458904 1097.72727,125.18 C1097.72727,124.901096 1097.95337,124.675 1098.23227,124.675 L1102.22227,124.675 C1102.50118,124.675 1102.72727,124.901096 1102.72727,125.18 C1102.72727,125.458904 1102.50118,125.685 1102.22227,125.685 L1098.23227,125.685 Z M1098.23227,131.745 C1097.95337,131.745 1097.72727,131.518904 1097.72727,131.24 C1097.72727,130.961096 1097.95337,130.735 1098.23227,130.735 L1102.22227,130.735 C1102.50118,130.735 1102.72727,130.961096 1102.72727,131.24 C1102.72727,131.518904 1102.50118,131.745 1102.22227,131.745 L1098.23227,131.745 Z M1096.23227,134.775 C1095.95337,134.775 1095.72727,134.548904 1095.72727,134.27 C1095.72727,133.991096 1095.95337,133.765 1096.23227,133.765 L1102.22227,133.765 C1102.50118,133.765 1102.72727,133.991096 1102.72727,134.27 C1102.72727,134.548904 1102.50118,134.775 1102.22227,134.775 L1096.23227,134.775 Z M1096.23227,122.655 C1095.95337,122.655 1095.72727,122.428904 1095.72727,122.15 C1095.72727,121.871096 1095.95337,121.645 1096.23227,121.645 L1102.22227,121.645 C1102.50118,121.645 1102.72727,121.871096 1102.72727,122.15 C1102.72727,122.428904 1102.50118,122.655 1102.22227,122.655 L1096.23227,122.655 Z M1104.22727,136.29 C1103.95113,136.29 1103.72727,136.066142 1103.72727,135.79 L1103.72727,120.63 C1103.72727,120.353858 1103.95113,120.13 1104.22727,120.13 C1104.50342,120.13 1104.72727,120.353858 1104.72727,120.63 L1104.72727,135.79 C1104.72727,136.066142 1104.50342,136.29 1104.22727,136.29 Z" id="Decrease-indent"></path>
        </g>
    </g>
</svg>