<?xml version="1.0" encoding="UTF-8"?>
<svg width="28px" height="29px" viewBox="0 0 28 29" version="1.1" xmlns="http://www.w3.org/2000/svg" xmlns:xlink="http://www.w3.org/1999/xlink">
    <!-- Generator: Sketch 55.2 (78181) - https://sketchapp.com -->
    <title>Format painter</title>
    <desc>Created with Sketch.</desc>
    <g id="Page-1" stroke="none" stroke-width="1" fill="none" fill-rule="evenodd">
        <g id="Editor-Tab" transform="translate(-652.000000, -148.000000)" fill="#000000" fill-rule="nonzero">
            <path d="M666,149.496667 C658.941667,149.496667 653.166667,155.271667 653.166667,162.33 C653.166667,169.388333 658.941667,175.163333 666,175.163333 C673.058333,175.163333 678.833333,169.388333 678.833333,162.33 C678.833333,155.271667 673.058333,149.496667 666,149.496667 Z M666,148.33 C673.758333,148.33 680,154.571667 680,162.33 C680,170.088333 673.758333,176.33 666,176.33 C658.241667,176.33 652,170.088333 652,162.33 C652,154.571667 658.241667,148.33 666,148.33 Z M660.166667,168.163333 C660.05,168.163333 659.933333,168.105 659.875,168.105 C659.758333,167.988333 658.65,167.23 658.708333,166.18 C658.766667,165.538333 659.175,165.071667 659.933333,164.721667 C661.041667,164.196667 661.625,163.438333 661.508333,163.03 C661.45,162.68 660.575,162.096667 657.891667,162.33 C657.541667,162.388333 657.25,162.155 657.25,161.805 C657.191667,161.455 657.425,161.163333 657.775,161.163333 C661.508333,160.813333 662.441667,161.98 662.616667,162.738333 C662.908333,163.788333 662.033333,165.013333 660.4,165.771667 C660.05,165.946667 659.816667,166.121667 659.816667,166.238333 C659.758333,166.53 660.225,166.938333 660.458333,167.113333 C660.75,167.288333 660.808333,167.638333 660.633333,167.93 C660.516667,168.046667 660.341667,168.163333 660.166667,168.163333 Z M674.75,158.83 C674.75,159.238333 674.633333,159.646667 674.4,159.996667 L667.166667,167.346667 C667.166667,167.463333 667.166667,167.58 667.166667,167.696667 C667.108333,168.746667 666.7,169.505 665.941667,170.03 C665.3,170.438333 664.483333,170.613333 663.608333,170.613333 C661.858333,170.613333 660.108333,169.971667 659.991667,169.913333 C659.758333,169.796667 659.583333,169.505 659.641667,169.213333 C659.7,168.921667 659.991667,168.688333 660.283333,168.746667 C660.4,168.746667 661.508333,168.805 661.975,167.405 C662.558333,165.538333 663.9,165.305 664.6,165.246667 L672.183333,157.663333 C672.708333,157.138333 673.7,157.196667 674.283333,157.78 C674.575,158.071667 674.691667,158.421667 674.75,158.83 Z M665.3,168.98 C665.766667,168.688333 665.941667,168.221667 666,167.58 C666,167.288333 665.941667,167.055 665.708333,166.821667 C665.416667,166.53 665.066667,166.413333 664.833333,166.413333 C664.133333,166.413333 663.375,166.588333 663.025,167.755 C662.791667,168.396667 662.5,168.863333 662.091667,169.213333 C663.258333,169.446667 664.541667,169.505 665.3,168.98 Z M673.525,159.063333 C673.583333,159.005 673.583333,158.946667 673.583333,158.946667 C673.583333,158.83 673.525,158.713333 673.466667,158.655 C673.291667,158.48 673.058333,158.48 673,158.538333 L665.941667,165.538333 C666.175,165.655 666.408333,165.83 666.583333,166.005 C666.583333,166.063333 666.641667,166.063333 666.641667,166.121667 L673.525,159.063333 Z" id="Format-painter"></path>
        </g>
    </g>
</svg>