<?xml version="1.0" encoding="UTF-8"?>
<svg width="17px" height="17px" viewBox="0 0 17 17" version="1.1" xmlns="http://www.w3.org/2000/svg" xmlns:xlink="http://www.w3.org/1999/xlink">
    <!-- Generator: Sketch 55.2 (78181) - https://sketchapp.com -->
    <title>Increase indent</title>
    <desc>Created with Sketch.</desc>
    <g id="Page-1" stroke="none" stroke-width="1" fill="none" fill-rule="evenodd">
        <g id="Editor-Tab" transform="translate(-1068.000000, -120.000000)" fill="#000000">
            <path d="M1073.01251,127.705 C1072.9925,127.679373 1072.97075,127.65466 1072.94727,127.631018 L1072.72706,127.40928 C1072.53076,127.211616 1072.53085,126.892548 1072.72727,126.695 C1072.92162,126.499538 1073.23762,126.498635 1073.43308,126.692983 C1073.43412,126.694012 1073.43515,126.695047 1073.43618,126.696085 L1074.93227,128.21 L1073.43618,129.723915 C1073.24243,129.91997 1072.92643,129.921841 1072.73038,129.728093 C1072.72934,129.727067 1072.7283,129.726036 1072.72727,129.725 C1072.53085,129.527452 1072.53076,129.208384 1072.72706,129.01072 L1072.94727,128.788983 C1072.97075,128.76534 1072.9925,128.740627 1073.01251,128.715 L1069.23227,128.715 C1068.95337,128.715 1068.72727,128.488904 1068.72727,128.21 C1068.72727,127.931096 1068.95337,127.705 1069.23227,127.705 L1073.01251,127.705 Z M1078.23227,128.715 C1077.95337,128.715 1077.72727,128.488904 1077.72727,128.21 C1077.72727,127.931096 1077.95337,127.705 1078.23227,127.705 L1084.22227,127.705 C1084.50118,127.705 1084.72727,127.931096 1084.72727,128.21 C1084.72727,128.488904 1084.50118,128.715 1084.22227,128.715 L1078.23227,128.715 Z M1078.23227,131.745 C1077.95337,131.745 1077.72727,131.518904 1077.72727,131.24 C1077.72727,130.961096 1077.95337,130.735 1078.23227,130.735 L1082.22227,130.735 C1082.50118,130.735 1082.72727,130.961096 1082.72727,131.24 C1082.72727,131.518904 1082.50118,131.745 1082.22227,131.745 L1078.23227,131.745 Z M1078.23227,125.685 C1077.95337,125.685 1077.72727,125.458904 1077.72727,125.18 C1077.72727,124.901096 1077.95337,124.675 1078.23227,124.675 L1082.22227,124.675 C1082.50118,124.675 1082.72727,124.901096 1082.72727,125.18 C1082.72727,125.458904 1082.50118,125.685 1082.22227,125.685 L1078.23227,125.685 Z M1078.23227,122.655 C1077.95337,122.655 1077.72727,122.428904 1077.72727,122.15 C1077.72727,121.871096 1077.95337,121.645 1078.23227,121.645 L1084.22227,121.645 C1084.50118,121.645 1084.72727,121.871096 1084.72727,122.15 C1084.72727,122.428904 1084.50118,122.655 1084.22227,122.655 L1078.23227,122.655 Z M1078.23227,134.775 C1077.95337,134.775 1077.72727,134.548904 1077.72727,134.27 C1077.72727,133.991096 1077.95337,133.765 1078.23227,133.765 L1084.22227,133.765 C1084.50118,133.765 1084.72727,133.991096 1084.72727,134.27 C1084.72727,134.548904 1084.50118,134.775 1084.22227,134.775 L1078.23227,134.775 Z M1076.22727,136.29 C1075.95113,136.29 1075.72727,136.066142 1075.72727,135.79 L1075.72727,120.63 C1075.72727,120.353858 1075.95113,120.13 1076.22727,120.13 C1076.50342,120.13 1076.72727,120.353858 1076.72727,120.63 L1076.72727,135.79 C1076.72727,136.066142 1076.50342,136.29 1076.22727,136.29 Z" id="Increase-indent"></path>
        </g>
    </g>
</svg>