<?xml version="1.0" encoding="UTF-8"?>
<svg width="16px" height="13px" viewBox="0 0 16 13" version="1.1" xmlns="http://www.w3.org/2000/svg" xmlns:xlink="http://www.w3.org/1999/xlink">
    <!-- Generator: Sketch 55.2 (78181) - https://sketchapp.com -->
    <title>Justify text</title>
    <desc>Created with Sketch.</desc>
    <g id="Page-1" stroke="none" stroke-width="1" fill="none" fill-rule="evenodd">
        <g id="Editor-Tab" transform="translate(-1095.000000, -156.000000)" fill="#000000">
            <path d="M1096.19343,163.016154 C1095.93598,163.016154 1095.72727,162.80745 1095.72727,162.55 C1095.72727,162.29255 1095.93598,162.083846 1096.19343,162.083846 L1110.26112,162.083846 C1110.51857,162.083846 1110.72727,162.29255 1110.72727,162.55 C1110.72727,162.80745 1110.51857,163.016154 1110.26112,163.016154 L1096.19343,163.016154 Z M1096.19343,165.813077 C1095.93598,165.813077 1095.72727,165.604373 1095.72727,165.346923 C1095.72727,165.089473 1095.93598,164.880769 1096.19343,164.880769 L1110.26112,164.880769 C1110.51857,164.880769 1110.72727,165.089473 1110.72727,165.346923 C1110.72727,165.604373 1110.51857,165.813077 1110.26112,165.813077 L1096.19343,165.813077 Z M1096.19343,160.219231 C1095.93598,160.219231 1095.72727,160.010527 1095.72727,159.753077 C1095.72727,159.495627 1095.93598,159.286923 1096.19343,159.286923 L1110.26112,159.286923 C1110.51857,159.286923 1110.72727,159.495627 1110.72727,159.753077 C1110.72727,160.010527 1110.51857,160.219231 1110.26112,160.219231 L1096.19343,160.219231 Z M1096.19343,157.422308 C1095.93598,157.422308 1095.72727,157.213604 1095.72727,156.956154 C1095.72727,156.698704 1095.93598,156.49 1096.19343,156.49 L1110.26112,156.49 C1110.51857,156.49 1110.72727,156.698704 1110.72727,156.956154 C1110.72727,157.213604 1110.51857,157.422308 1110.26112,157.422308 L1096.19343,157.422308 Z M1096.19343,168.61 C1095.93598,168.61 1095.72727,168.401296 1095.72727,168.143846 C1095.72727,167.886396 1095.93598,167.677692 1096.19343,167.677692 L1110.26112,167.677692 C1110.51857,167.677692 1110.72727,167.886396 1110.72727,168.143846 C1110.72727,168.401296 1110.51857,168.61 1110.26112,168.61 L1096.19343,168.61 Z" id="Justify-text"></path>
        </g>
    </g>
</svg>