<?xml version="1.0" encoding="UTF-8"?>
<svg width="18px" height="15px" viewBox="0 0 18 15" version="1.1" xmlns="http://www.w3.org/2000/svg" xmlns:xlink="http://www.w3.org/1999/xlink">
    <!-- Generator: Sketch 55.2 (78181) - https://sketchapp.com -->
    <title>Line &amp; Paragraph spacing</title>
    <desc>Created with Sketch.</desc>
    <g id="Page-1" stroke="none" stroke-width="1" fill="none" fill-rule="evenodd">
        <g id="Editor-Tab" transform="translate(-970.000000, -154.000000)" fill="#000000">
            <path d="M972.340519,167.288058 L972.33919,162.937546 C972.33919,162.723621 972.514074,162.55 972.731306,162.55 C972.947754,162.55 973.123422,162.723621 973.123422,162.937546 L973.124752,167.28793 L974.248796,166.176987 C974.402505,166.025844 974.650323,166.025844 974.803248,166.176987 C974.956957,166.328905 974.956957,166.574609 974.803248,166.724977 L973.009709,168.496837 C972.932854,168.572021 972.833256,168.61 972.732875,168.61 C972.632493,168.61 972.532111,168.572021 972.456041,168.496837 L970.660933,166.725752 C970.507223,166.574609 970.507223,166.328905 970.660149,166.177762 C970.813074,166.025844 971.061675,166.026619 971.214601,166.176987 L972.340519,167.288058 Z M973.123708,155.792369 L973.124991,159.990204 C973.124991,160.204129 972.949323,160.37775 972.732875,160.37775 C972.516426,160.37775 972.340758,160.204904 972.340758,159.990204 L972.339476,155.792205 L971.214601,156.902819 C971.061675,157.053962 970.813074,157.053962 970.660149,156.902819 C970.507223,156.750901 970.507223,156.505972 970.660149,156.35483 L972.453688,154.583745 C972.606613,154.431827 972.855215,154.432602 973.00814,154.58297 L974.803248,156.354054 C974.956957,156.505972 974.956957,156.750901 974.804032,156.902044 C974.727177,156.978003 974.626796,157.015983 974.526414,157.015983 C974.426032,157.015983 974.32565,156.978003 974.24958,156.902819 L973.123708,155.792369 Z M987.014333,156.255092 L976.427197,156.255092 C976.210749,156.255092 976.035081,156.081471 976.035081,155.867546 C976.035081,155.653621 976.210749,155.48 976.427197,155.48 L987.014333,155.48 C987.231566,155.48 987.406449,155.653621 987.406449,155.867546 C987.406449,156.081471 987.231566,156.255092 987.014333,156.255092 Z M987.153338,167.411653 L976.566202,167.411653 C976.349754,167.411653 976.174086,167.238032 976.174086,167.024107 C976.174086,166.810181 976.349754,166.636561 976.566202,166.636561 L987.153338,166.636561 C987.370571,166.636561 987.545455,166.810181 987.545455,167.024107 C987.545455,167.238032 987.370571,167.411653 987.153338,167.411653 Z M987.153338,163.692799 L976.566202,163.692799 C976.349754,163.692799 976.174086,163.519178 976.174086,163.305253 C976.174086,163.091328 976.349754,162.917707 976.566202,162.917707 L987.153338,162.917707 C987.370571,162.917707 987.545455,163.091328 987.545455,163.305253 C987.545455,163.519178 987.370571,163.692799 987.153338,163.692799 Z M987.153338,159.973945 L976.566202,159.973945 C976.349754,159.973945 976.174086,159.800325 976.174086,159.5864 C976.174086,159.372474 976.349754,159.198854 976.566202,159.198854 L987.153338,159.198854 C987.370571,159.198854 987.545455,159.372474 987.545455,159.5864 C987.545455,159.800325 987.370571,159.973945 987.153338,159.973945 Z" id="Line-&amp;-Paragraph-spacing"></path>
        </g>
    </g>
</svg>