<?xml version="1.0" encoding="UTF-8"?>
<svg width="17px" height="17px" viewBox="0 0 17 17" version="1.1" xmlns="http://www.w3.org/2000/svg" xmlns:xlink="http://www.w3.org/1999/xlink">
    <!-- Generator: Sketch 55.2 (78181) - https://sketchapp.com -->
    <title>Link</title>
    <desc>Created with Sketch.</desc>
    <g id="Page-1" stroke="none" stroke-width="1" fill="none" fill-rule="evenodd">
        <g id="Editor-Tab" transform="translate(-1138.000000, -120.000000)" fill="#000000" fill-rule="nonzero">
            <path d="M1146.90514,131.808125 C1147.15698,132.060625 1147.15698,132.439375 1146.90514,132.691875 L1144.26078,135.343125 C1143.69413,135.91125 1142.87563,136.29 1142.1201,136.29 C1142.1201,136.29 1142.05714,136.29 1142.05714,136.29 C1141.23865,136.29 1140.48312,135.974375 1139.85351,135.343125 C1139.2239,134.711875 1138.90909,133.89125 1138.90909,133.070625 C1138.90909,132.25 1139.28686,131.4925 1139.85351,130.924375 L1143.88301,126.884375 C1144.44966,126.31625 1145.26815,125.9375 1146.02368,125.9375 C1146.84218,125.9375 1147.66067,126.253125 1148.29028,126.884375 C1148.54212,127.136875 1148.54212,127.515625 1148.29028,127.768125 C1148.03844,128.020625 1147.66067,128.020625 1147.40883,127.768125 C1147.03106,127.389375 1146.52737,127.2 1146.02368,127.2 C1145.52,127.2 1145.07927,127.389375 1144.7015,127.768125 L1140.672,131.808125 C1140.29423,132.186875 1140.10535,132.62875 1140.10535,133.13375 C1140.10535,133.63875 1140.29423,134.14375 1140.672,134.5225 C1141.04976,134.90125 1141.55345,135.090625 1142.05714,135.090625 C1142.56083,135.090625 1143.00156,134.90125 1143.37932,134.5225 L1146.02368,131.87125 C1146.27553,131.555625 1146.65329,131.555625 1146.90514,131.808125 Z M1154.01973,121.076875 C1153.39012,120.445625 1152.57163,120.13 1151.75313,120.13 C1150.93464,120.13 1150.17911,120.50875 1149.61246,121.076875 L1146.90514,123.728125 C1146.65329,123.980625 1146.65329,124.359375 1146.90514,124.611875 C1147.15698,124.864375 1147.53475,124.864375 1147.78659,124.611875 L1150.43095,121.960625 C1150.80872,121.581875 1151.24945,121.3925 1151.75313,121.3925 C1152.25682,121.3925 1152.76051,121.581875 1153.13828,121.960625 C1153.51604,122.339375 1153.70493,122.844375 1153.70493,123.349375 C1153.70493,123.854375 1153.51604,124.29625 1153.13828,124.675 L1149.10877,128.715 C1148.73101,129.09375 1148.29028,129.283125 1147.78659,129.283125 C1147.2829,129.283125 1146.77922,129.09375 1146.40145,128.715 C1146.14961,128.4625 1145.77184,128.4625 1145.52,128.715 C1145.26815,128.9675 1145.26815,129.34625 1145.52,129.59875 C1146.14961,130.23 1146.90514,130.545625 1147.72363,130.545625 C1147.72363,130.545625 1147.78659,130.545625 1147.78659,130.545625 C1148.60508,130.545625 1149.36062,130.166875 1149.92727,129.59875 L1153.95677,125.55875 C1154.52342,124.990625 1154.90118,124.17 1154.90118,123.4125 C1154.96414,122.52875 1154.64934,121.708125 1154.01973,121.076875 Z" id="Link"></path>
        </g>
    </g>
</svg>