<?xml version="1.0" encoding="UTF-8"?>
<svg width="17px" height="17px" viewBox="0 0 17 17" version="1.1" xmlns="http://www.w3.org/2000/svg" xmlns:xlink="http://www.w3.org/1999/xlink">
    <!-- Generator: sketchtool 57.1 (101010) - https://sketch.com -->
    <title>8B391A91-B6B7-4467-8B8C-19263D5F61E5</title>
    <desc>Created with sketchtool.</desc>
    <g id="documnet-view" stroke="none" stroke-width="1" fill="none" fill-rule="evenodd">
        <g id="Page-break" transform="translate(-1092.000000, -110.000000)" fill="#000000" fill-rule="nonzero">
            <g id="both-selected" transform="translate(0.000000, 90.000000)">
                <g id="Group-13">
                    <g id="Group" transform="translate(561.000000, 7.000000)">
                        <path d="M539.905137,24.808125 C540.156981,25.060625 540.156981,25.439375 539.905137,25.691875 L537.260776,28.343125 C536.694127,28.91125 535.875634,29.29 535.120102,29.29 C535.120102,29.29 535.057141,29.29 535.057141,29.29 C534.238648,29.29 533.483116,28.974375 532.853506,28.343125 C532.223896,27.711875 531.909091,26.89125 531.909091,26.070625 C531.909091,25.25 532.286857,24.4925 532.853506,23.924375 L536.88301,19.884375 C537.449659,19.31625 538.268152,18.9375 539.023683,18.9375 C539.842176,18.9375 540.660669,19.253125 541.290279,19.884375 C541.542123,20.136875 541.542123,20.515625 541.290279,20.768125 C541.038435,21.020625 540.660669,21.020625 540.408825,20.768125 C540.031059,20.389375 539.527371,20.2 539.023683,20.2 C538.519996,20.2 538.079269,20.389375 537.701503,20.768125 L533.671999,24.808125 C533.294233,25.186875 533.10535,25.62875 533.10535,26.13375 C533.10535,26.63875 533.294233,27.14375 533.671999,27.5225 C534.049765,27.90125 534.553453,28.090625 535.057141,28.090625 C535.560829,28.090625 536.001556,27.90125 536.379322,27.5225 L539.023683,24.87125 C539.275527,24.555625 539.653293,24.555625 539.905137,24.808125 Z M547.01973,14.076875 C546.39012,13.445625 545.571627,13.13 544.753134,13.13 C543.934641,13.13 543.179109,13.50875 542.61246,14.076875 L539.905137,16.728125 C539.653293,16.980625 539.653293,17.359375 539.905137,17.611875 C540.156981,17.864375 540.534747,17.864375 540.786591,17.611875 L543.430953,14.960625 C543.808719,14.581875 544.249446,14.3925 544.753134,14.3925 C545.256822,14.3925 545.76051,14.581875 546.138276,14.960625 C546.516042,15.339375 546.704925,15.844375 546.704925,16.349375 C546.704925,16.854375 546.516042,17.29625 546.138276,17.675 L542.108772,21.715 C541.731006,22.09375 541.290279,22.283125 540.786591,22.283125 C540.282903,22.283125 539.779215,22.09375 539.401449,21.715 C539.149605,21.4625 538.77184,21.4625 538.519996,21.715 C538.268152,21.9675 538.268152,22.34625 538.519996,22.59875 C539.149605,23.23 539.905137,23.545625 540.72363,23.545625 C540.72363,23.545625 540.786591,23.545625 540.786591,23.545625 C541.605084,23.545625 542.360616,23.166875 542.927265,22.59875 L546.956769,18.55875 C547.523418,17.990625 547.901184,17.17 547.901184,16.4125 C547.964145,15.52875 547.64934,14.708125 547.01973,14.076875 Z" id="Link"></path>
                    </g>
                </g>
            </g>
        </g>
    </g>
</svg>