<?xml version="1.0" encoding="UTF-8"?>
<svg width="28px" height="28px" viewBox="0 0 28 28" version="1.1" xmlns="http://www.w3.org/2000/svg" xmlns:xlink="http://www.w3.org/1999/xlink">
    <!-- Generator: Sketch 55.2 (78181) - https://sketchapp.com -->
    <title>Link to</title>
    <desc>Created with Sketch.</desc>
    <g id="Page-1" stroke="none" stroke-width="1" fill="none" fill-rule="evenodd">
        <g id="Editor-Tab" transform="translate(-443.000000, -109.000000)" fill="#000000">
            <path d="M462.439746,125.232685 L461.276508,126.384513 L462.439746,127.536342 C462.637939,127.732565 462.637939,128.050446 462.439746,128.246669 C462.34065,128.344781 462.211062,128.393836 462.081475,128.393836 C461.950363,128.393836 461.820775,128.344781 461.721679,128.246669 L460.558441,127.094841 L459.395203,128.246669 C459.296106,128.344781 459.166519,128.393836 459.036931,128.393836 C458.907344,128.393836 458.777756,128.344781 458.67866,128.246669 C458.480467,128.050446 458.480467,127.732565 458.67866,127.536342 L459.841898,126.384513 L458.67866,125.232685 C458.480467,125.036462 458.480467,124.718732 458.67866,124.522509 C458.876853,124.326135 459.19701,124.326135 459.395203,124.522509 L460.558441,125.674186 L461.721679,124.522509 C461.919872,124.326135 462.241553,124.326135 462.439746,124.522509 C462.637939,124.718732 462.637939,125.036462 462.439746,125.232685 Z M455.781999,125.207779 C455.980191,125.011557 456.301873,125.011557 456.500066,125.207779 C456.698258,125.404002 456.698258,125.721884 456.500066,125.918107 L454.347389,128.048937 C453.874776,128.517457 453.255805,128.784773 452.606343,128.800924 C452.585,128.801527 452.563656,128.80198 452.543836,128.80198 C451.882178,128.80198 451.251011,128.536174 450.760103,128.048937 C450.252425,127.546908 449.982578,126.897712 450.000873,126.221196 C450.016118,125.578037 450.285965,124.965369 450.760103,124.497452 L453.989118,121.300528 C454.461731,120.832008 455.080702,120.564692 455.730164,120.548541 C456.410117,120.529372 457.068726,120.797744 457.576404,121.300528 C457.774597,121.496902 457.774597,121.814632 457.576404,122.010855 C457.378212,122.207078 457.05653,122.207078 456.858337,122.010855 C456.545803,121.70037 456.169237,121.550787 455.756081,121.55275 C455.367319,121.56241 454.993802,121.725275 454.70566,122.010855 L451.476645,125.207779 C451.188504,125.493208 451.023852,125.862108 451.014704,126.247308 C451.004032,126.651377 451.164111,127.028578 451.476645,127.33861 C451.790705,127.648793 452.168795,127.797319 452.580426,127.796866 C452.969188,127.787055 453.341181,127.62419 453.629322,127.33861 L455.781999,125.207779 Z M462.999259,118.51069 C462.982489,119.153849 462.712642,119.766517 462.240029,120.234584 L459.011014,123.431509 C458.538401,123.899878 457.91943,124.167345 457.269968,124.183496 C457.248624,124.183949 457.228805,124.184401 457.207461,124.184401 C456.547327,124.184401 455.914635,123.918595 455.423728,123.431509 C455.225535,123.235286 455.225535,122.917405 455.423728,122.721182 C455.62192,122.524959 455.943602,122.524959 456.141795,122.721182 C456.454329,123.031365 456.827846,123.176872 457.24405,123.179287 C457.632813,123.169476 458.004805,123.006611 458.292947,122.721182 L461.521962,119.524257 C461.810103,119.238828 461.974756,118.869778 461.985428,118.484728 C461.996099,118.080509 461.836021,117.703308 461.521962,117.393276 C461.209427,117.083847 460.83591,116.93019 460.419706,116.935171 C460.030943,116.944982 459.658951,117.107847 459.369285,117.393276 L457.216608,119.524257 C457.018416,119.72048 456.698258,119.72048 456.500066,119.524257 C456.301873,119.328034 456.301873,119.010153 456.500066,118.81393 L458.652743,116.682949 C459.125356,116.21458 459.744326,115.947113 460.393788,115.931113 C461.075266,115.918736 461.732351,116.180165 462.240029,116.682949 C462.747707,117.18528 463.016029,117.834325 462.999259,118.51069 Z M469.833333,123 C469.833333,115.941667 464.058333,110.166667 457,110.166667 C449.941667,110.166667 444.166667,115.941667 444.166667,123 C444.166667,130.058333 449.941667,135.833333 457,135.833333 C464.058333,135.833333 469.833333,130.058333 469.833333,123 Z M443,123 C443,115.241667 449.241667,109 457,109 C464.758333,109 471,115.241667 471,123 C471,130.758333 464.758333,137 457,137 C449.241667,137 443,130.758333 443,123 Z" id="Link-to"></path>
        </g>
    </g>
</svg>