<?xml version="1.0" encoding="UTF-8"?>
<svg width="14px" height="18px" viewBox="0 0 14 18" version="1.1" xmlns="http://www.w3.org/2000/svg" xmlns:xlink="http://www.w3.org/1999/xlink">
    <!-- Generator: Sketch 55.2 (78181) - https://sketchapp.com -->
    <title>Paste block</title>
    <desc>Created with Sketch.</desc>
    <g id="Page-1" stroke="none" stroke-width="1" fill="none" fill-rule="evenodd">
        <g id="Editor-Tab" transform="translate(-365.000000, -135.000000)" fill="#000000" fill-rule="nonzero">
            <path d="M377.970002,140.991667 C378.320002,140.991667 378.553336,141.227333 378.553336,141.580833 L378.553336,152.185833 C378.553336,152.539333 378.320002,152.775 377.970002,152.775 L366.303336,152.775 C365.953336,152.775 365.720002,152.539333 365.720002,152.185833 L365.720002,136.8675 C365.720002,136.514 365.953336,136.278333 366.303336,136.278333 L368.053336,136.278333 L368.053336,135.689167 C368.053336,135.335667 368.286669,135.1 368.636669,135.1 L374.470002,135.1 C374.820002,135.1 375.053336,135.335667 375.053336,135.689167 L375.053336,136.278333 L376.803336,136.278333 C377.153336,136.278333 377.386669,136.514 377.386669,136.8675 L377.386669,140.991667 L377.970002,140.991667 Z M373.886669,136.278333 L369.220002,136.278333 L369.220002,136.8675 L369.220002,137.456667 L373.886669,137.456667 L373.886669,136.278333 Z M366.886669,137.456667 L366.886669,151.596667 L369.220002,151.596667 L369.220002,141.580833 C369.220002,141.227333 369.453336,140.991667 369.803336,140.991667 L376.220002,140.991667 L376.220002,137.456667 L375.053336,137.456667 L375.053336,138.045833 C375.053336,138.399333 374.820002,138.635 374.470002,138.635 L368.636669,138.635 C368.286669,138.635 368.053336,138.399333 368.053336,138.045833 L368.053336,137.456667 L366.886669,137.456667 Z M377.386669,151.596667 L377.386669,142.17 L370.386669,142.17 L370.386669,151.596667 L377.386669,151.596667 Z M375.636669,143.9375 C375.986669,143.9375 376.220002,144.173167 376.220002,144.526667 C376.220002,144.880167 375.986669,145.115833 375.636669,145.115833 L372.136669,145.115833 C371.786669,145.115833 371.553336,144.880167 371.553336,144.526667 C371.553336,144.173167 371.786669,143.9375 372.136669,143.9375 L375.636669,143.9375 Z M375.636669,146.294167 C375.986669,146.294167 376.220002,146.529833 376.220002,146.883333 C376.220002,147.236833 375.986669,147.4725 375.636669,147.4725 L372.136669,147.4725 C371.786669,147.4725 371.553336,147.236833 371.553336,146.883333 C371.553336,146.529833 371.786669,146.294167 372.136669,146.294167 L375.636669,146.294167 Z M375.636669,148.650833 C375.986669,148.650833 376.220002,148.8865 376.220002,149.24 C376.220002,149.5935 375.986669,149.829167 375.636669,149.829167 L372.136669,149.829167 C371.786669,149.829167 371.553336,149.5935 371.553336,149.24 C371.553336,148.8865 371.786669,148.650833 372.136669,148.650833 L375.636669,148.650833 Z" id="Paste-block"></path>
        </g>
    </g>
</svg>