<?xml version="1.0" encoding="UTF-8"?>
<svg width="12px" height="11px" viewBox="0 0 12 11" version="1.1" xmlns="http://www.w3.org/2000/svg" xmlns:xlink="http://www.w3.org/1999/xlink">
    <!-- Generator: Sketch 55.2 (78181) - https://sketchapp.com -->
    <title>Strikethrough</title>
    <desc>Created with Sketch.</desc>
    <g id="Page-1" stroke="none" stroke-width="1" fill="none" fill-rule="evenodd">
        <g id="Editor-Tab" transform="translate(-853.000000, -158.000000)" fill="#000000" fill-rule="nonzero">
            <path d="M860.443214,164.73372 L853.781818,164.73372 L853.781818,163.93372 L858.960201,163.93372 C858.838989,163.886974 858.710315,163.839115 858.574179,163.790143 C857.688758,163.470133 857.056169,163.090948 856.676393,162.652578 C856.296617,162.214208 856.106731,161.642143 856.106731,160.936367 C856.106731,160.195521 856.382336,159.605922 856.933554,159.167552 C857.484772,158.729182 858.213932,158.51 859.121054,158.51 C860.06724,158.51 860.937457,158.685345 861.731731,159.036042 L861.386679,160.009219 C860.601085,159.676057 859.837204,159.509479 859.095013,159.509479 C858.509072,159.509479 858.051177,159.636605 857.721315,159.890859 C857.391452,160.145114 857.226523,160.497997 857.226523,160.949518 C857.226523,161.28268 857.287286,161.555561 857.408815,161.768171 C857.530343,161.98078 857.735419,162.175852 858.024049,162.353392 C858.312679,162.530932 858.754298,162.7271 859.348919,162.941901 C860.212402,163.25283 860.842878,163.583434 861.240361,163.93372 L864.581818,163.93372 L864.581818,164.73372 L861.803711,164.73372 C861.916315,165.020204 861.972617,165.343504 861.972617,165.70362 C861.972617,166.549674 861.6688,167.209412 861.061158,167.682852 C860.453517,168.156291 859.628872,168.393008 858.5872,168.393008 C857.458722,168.393008 856.590675,168.246156 855.983033,167.952448 L855.983033,166.874062 C856.37366,167.040643 856.799003,167.172152 857.259075,167.268594 C857.719147,167.365035 858.174871,167.413255 858.626263,167.413255 C859.364114,167.413255 859.919664,167.271883 860.292929,166.989134 C860.666195,166.706385 860.852825,166.312954 860.852825,165.808828 C860.852825,165.475667 860.786637,165.202785 860.654257,164.990176 C860.599264,164.901853 860.528916,164.816368 860.443214,164.73372 Z" id="Strikethrough"></path>
        </g>
    </g>
</svg>