<?xml version="1.0" encoding="UTF-8"?>
<svg width="28px" height="28px" viewBox="0 0 28 28" version="1.1" xmlns="http://www.w3.org/2000/svg" xmlns:xlink="http://www.w3.org/1999/xlink">
    <!-- Generator: Sketch 55.2 (78181) - https://sketchapp.com -->
    <title>Suggest</title>
    <desc>Created with Sketch.</desc>
    <g id="Page-1" stroke="none" stroke-width="1" fill="none" fill-rule="evenodd">
        <g id="Editor-Tab" transform="translate(-479.000000, -145.000000)" fill="#000000">
            <path d="M493.00805,152.070695 C495.446139,152.088744 497.5,153.975525 497.5,156.209396 C497.5,157.682446 496.641324,158.893096 496.605062,158.943077 C496.021975,159.828851 495.388121,160.995073 495.388121,161.294959 L495.388121,162.695814 C495.388121,162.709698 495.380868,162.722193 495.379418,162.736077 C495.377967,162.748711 495.383914,162.759679 495.380868,162.772174 L494.897863,165.543341 C494.860296,165.766867 494.658536,165.930693 494.422255,165.930693 L491.525528,165.930693 C491.290553,165.930693 491.088938,165.766867 491.04992,165.543341 L490.566915,162.772174 C490.565319,162.759679 490.569671,162.748711 490.569671,162.736077 C490.56822,162.722193 490.560968,162.709698 490.560968,162.695814 L490.560968,161.294959 C490.560968,160.993685 489.941619,159.824686 489.362883,158.92364 C489.33982,158.888931 488.5,157.67967 488.5,156.209396 C488.5,153.975525 490.542112,152.088744 492.974544,152.069307 C492.978896,152.069307 492.983247,152.069307 492.987599,152.069307 C492.990644,152.069307 492.994851,152.069307 492.999202,152.069307 C493.002103,152.069307 493.005004,152.070695 493.00805,152.070695 Z M494.013078,165.006045 L494.335082,163.158138 L491.614007,163.158138 L491.93456,165.006045 L494.013078,165.006045 Z M494.422255,161.294959 C494.422255,160.581342 495.475149,158.926417 495.798603,158.434937 C495.816008,158.411335 496.533989,157.388114 496.533989,156.209396 C496.533989,154.469781 494.910917,152.999508 492.987599,152.993955 C491.075884,152.999508 489.465866,154.469781 489.465866,156.209396 C489.465866,157.390891 490.169342,158.414112 490.176594,158.425219 C490.501499,158.930582 491.525528,160.584119 491.525528,161.294959 L491.525528,162.233629 L492.491539,162.233629 L492.491539,158.707056 L491.672025,157.944846 C491.480564,157.767136 491.476212,157.474192 491.661872,157.290929 C491.848982,157.109054 492.15358,157.1035 492.345042,157.282599 L492.983247,157.875428 L493.598245,157.286764 C493.786806,157.106277 494.092854,157.106277 494.281415,157.286764 C494.469975,157.467251 494.469975,157.760195 494.281415,157.94082 L493.45755,158.72927 L493.45755,162.233629 L494.422255,162.233629 L494.422255,161.294959 Z M505.833333,159 C505.833333,151.941667 500.058333,146.166667 493,146.166667 C485.941667,146.166667 480.166667,151.941667 480.166667,159 C480.166667,166.058333 485.941667,171.833333 493,171.833333 C500.058333,171.833333 505.833333,166.058333 505.833333,159 Z M479,159 C479,151.241667 485.241667,145 493,145 C500.758333,145 507,151.241667 507,159 C507,166.758333 500.758333,173 493,173 C485.241667,173 479,166.758333 479,159 Z" id="Suggest"></path>
        </g>
    </g>
</svg>