<?xml version="1.0" encoding="UTF-8"?>
<svg width="38px" height="38px" viewBox="0 0 38 38" version="1.1" xmlns="http://www.w3.org/2000/svg" xmlns:xlink="http://www.w3.org/1999/xlink">
    <!-- Generator: Sketch 58 (84663) - https://sketch.com -->
    <title>tables@1x</title>
    <desc>Created with Sketch.</desc>
    <g id="documnet-view" stroke="none" stroke-width="1" fill="none" fill-rule="evenodd">
        <g id="tables" transform="translate(0.000000, 0.000000)" fill="#000000">
            <path d="M18.6895822,1.57166119 C28.1361633,1.57166119 35.8207242,9.3354311 35.8207242,18.876478 C35.8207242,28.417525 28.1361633,36.1789315 18.6895822,36.1789315 C9.24300109,36.1789315 1.55610018,28.417525 1.55610018,18.876478 C1.55610018,9.3354311 9.24300109,1.57166119 18.6895822,1.57166119 M18.6895822,-1.13686838e-13 C8.36784099,-1.13686838e-13 -5.93303184e-13,8.4515194 -5.93303184e-13,18.876478 C-5.93303184e-13,29.3014367 8.36784099,37.7529561 18.6895822,37.7529561 C29.0113234,37.7529561 37.3791644,29.3014367 37.3791644,18.876478 C37.3791644,8.4515194 29.0113234,-1.13686838e-13 18.6895822,-1.13686838e-13" id="Fill-279"></path>
            <path d="M26.7752688,10.028878 L10.6018707,10.028878 C10.231302,10.028878 9.9295822,10.3336151 9.9295822,10.7078894 L9.9295822,27.0450667 C9.9295822,27.419341 10.231302,27.724078 10.6018707,27.724078 L26.7752688,27.724078 C27.1478624,27.724078 27.4495822,27.419341 27.4495822,27.0450667 L27.4495822,10.7078894 C27.4495822,10.3336151 27.1478624,10.028878 26.7752688,10.028878 Z M16.6686668,20.9176026 L20.7104976,20.9176026 L20.7104976,16.8353535 L16.6686668,16.8353535 L16.6686668,20.9176026 Z M16.6686668,26.3640101 L20.7104976,26.3640101 L20.7104976,22.2797158 L16.6686668,22.2797158 L16.6686668,26.3640101 Z M11.2761841,20.9176026 L15.3200399,20.9176026 L15.3200399,16.8353535 L11.2761841,16.8353535 L11.2761841,20.9176026 Z M16.6686668,15.4732403 L20.7104976,15.4732403 L20.7104976,11.388946 L16.6686668,11.388946 L16.6686668,15.4732403 Z M22.0591245,20.9176026 L26.1029803,20.9176026 L26.1029803,16.8353535 L22.0591245,16.8353535 L22.0591245,20.9176026 Z M22.0591245,15.4732403 L26.1029803,15.4732403 L26.1029803,11.388946 L22.0591245,11.388946 L22.0591245,15.4732403 Z M11.2761841,15.4732403 L15.3200399,15.4732403 L15.3200399,11.388946 L11.2761841,11.388946 L11.2761841,15.4732403 Z M11.2761841,26.3640101 L15.3200399,26.3640101 L15.3200399,22.2797158 L11.2761841,22.2797158 L11.2761841,26.3640101 Z M22.0591245,26.3640101 L26.1029803,26.3640101 L26.1029803,22.2797158 L22.0591245,22.2797158 L22.0591245,26.3640101 Z" id="Fill-712"></path>
        </g>
    </g>
</svg>