<?xml version="1.0" encoding="UTF-8"?>
<svg width="11px" height="12px" viewBox="0 0 11 12" version="1.1" xmlns="http://www.w3.org/2000/svg" xmlns:xlink="http://www.w3.org/1999/xlink">
    <!-- Generator: Sketch 55.2 (78181) - https://sketchapp.com -->
    <title>Underline</title>
    <desc>Created with Sketch.</desc>
    <g id="Page-1" stroke="none" stroke-width="1" fill="none" fill-rule="evenodd">
        <g id="Editor-Tab" transform="translate(-807.000000, -158.000000)" fill="#000000" fill-rule="nonzero">
            <path d="M815.738459,158.51 L815.738459,164.108398 C815.738459,165.094731 815.44354,165.869978 814.853693,166.43416 C814.263846,166.998343 813.453308,167.28043 812.422053,167.28043 C811.390797,167.28043 810.592954,166.99637 810.028498,166.428242 C809.464042,165.860114 809.181818,165.07895 809.181818,164.084727 L809.181818,158.51 L810.177912,158.51 L810.177912,164.155742 C810.177912,164.877738 810.373222,165.432049 810.763849,165.818691 C811.154476,166.205334 811.728689,166.398652 812.486506,166.398652 C813.209166,166.398652 813.765801,166.204348 814.156428,165.815732 C814.547055,165.427117 814.742365,164.869847 814.742365,164.143906 L814.742365,158.51 L815.738459,158.51 Z M807.781818,169.505 L807.781818,168.705 L817.581818,168.705 L817.581818,169.505 L807.781818,169.505 Z" id="Underline"></path>
        </g>
    </g>
</svg>