<?xml version="1.0" encoding="UTF-8"?>
<svg width="16px" height="16px" viewBox="0 0 16 16" version="1.1" xmlns="http://www.w3.org/2000/svg" xmlns:xlink="http://www.w3.org/1999/xlink">
    <!-- Generator: Sketch 55.2 (78181) - https://sketchapp.com -->
    <title>Zoom out</title>
    <desc>Created with Sketch.</desc>
    <g id="Page-1" stroke="none" stroke-width="1" fill="none" fill-rule="evenodd">
        <g id="Editor-Tab" transform="translate(-1181.000000, -120.000000)" fill="#000000" fill-rule="nonzero">
            <path d="M1191.2,129.660727 L1196.10909,134.618909 C1196.32727,134.839273 1196.32727,135.169818 1196.10909,135.390182 C1196,135.500364 1195.83636,135.555455 1195.72727,135.555455 C1195.61818,135.555455 1195.45455,135.500364 1195.34545,135.390182 L1190.43636,130.432 C1189.50909,131.258364 1188.30909,131.699091 1187,131.699091 C1184,131.699091 1181.54545,129.22 1181.54545,126.19 C1181.54545,123.16 1184,120.680909 1187,120.680909 C1190,120.680909 1192.45455,123.16 1192.45455,126.19 C1192.45455,127.512182 1191.96364,128.724182 1191.2,129.660727 Z M1187,130.597273 C1189.4,130.597273 1191.36364,128.614 1191.36364,126.19 C1191.36364,123.766 1189.4,121.782727 1187,121.782727 C1184.6,121.782727 1182.63636,123.766 1182.63636,126.19 C1182.63636,128.614 1184.6,130.597273 1187,130.597273 Z M1189.18182,125.639091 C1189.50909,125.639091 1189.72727,125.859455 1189.72727,126.19 C1189.72727,126.520545 1189.50909,126.740909 1189.18182,126.740909 L1184.81818,126.740909 C1184.49091,126.740909 1184.27273,126.520545 1184.27273,126.19 C1184.27273,125.859455 1184.49091,125.639091 1184.81818,125.639091 L1189.18182,125.639091 Z" id="Zoom-out"></path>
        </g>
    </g>
</svg>