<?xml version="1.0" encoding="UTF-8"?>
<svg width="30px" height="30px" viewBox="0 0 30 30" version="1.1" xmlns="http://www.w3.org/2000/svg" xmlns:xlink="http://www.w3.org/1999/xlink">
    <!-- Generator: Sketch 59.1 (86144) - https://sketch.com -->
    <title>Create</title>
    <desc>Created with Sketch.</desc>
    <g id="Audit-Trail" stroke="none" stroke-width="1" fill="none" fill-rule="evenodd">
        <g id="Create">
            <circle id="Oval" fill="#000000" cx="14.5302494" cy="14.5302494" r="14.5302494"></circle>
            <path d="M19.0156742,14.9162486 L19.0156742,18.0048742 C19.0156742,19.6076239 17.712374,20.9109241 16.1096243,20.9109241 L11.0556245,20.9109241 C9.45287485,20.9109241 8.14957466,19.6076239 8.14957466,18.0048742 L8.14957466,12.9508745 C8.14957466,11.3481248 9.45287485,10.0448246 11.0556245,10.0448246 L14.1442502,10.0448246 C14.3539911,10.0448246 14.5233001,10.2147653 14.5233001,10.4238746 C14.5233001,10.6329838 14.3533594,10.8029245 14.1442502,10.8029245 L11.0556245,10.8029245 C9.87109333,10.8029245 8.90767462,11.7663433 8.90767462,12.9508745 L8.90767462,18.0048742 C8.90767462,19.1894054 9.87109333,20.1528242 11.0556245,20.1528242 L16.1096243,20.1528242 C17.2941555,20.1528242 18.2575742,19.1894054 18.2575742,18.0048742 L18.2575742,14.9162486 C18.2575742,14.7065076 18.427515,14.5371986 18.6366242,14.5371986 C18.8457335,14.5371986 19.0156742,14.7071394 19.0156742,14.9162486 Z M20.5318741,10.0448246 L19.0156742,10.0448246 L19.0156742,8.52862464 C19.0156742,8.31888365 18.8457335,8.14957466 18.6366242,8.14957466 C18.427515,8.14957466 18.2575742,8.3195154 18.2575742,8.52862464 L18.2575742,10.0448246 L16.7413743,10.0448246 C16.5316333,10.0448246 16.3623243,10.2147653 16.3623243,10.4238746 C16.3623243,10.6329838 16.5322651,10.8029245 16.7413743,10.8029245 L18.2575742,10.8029245 L18.2575742,12.3191245 C18.2575742,12.5288655 18.427515,12.6981745 18.6366242,12.6981745 C18.8457335,12.6981745 19.0156742,12.5282337 19.0156742,12.3191245 L19.0156742,10.8029245 L20.5318741,10.8029245 C20.7416151,10.8029245 20.9109241,10.6329838 20.9109241,10.4238746 C20.9109241,10.2147653 20.7416151,10.0448246 20.5318741,10.0448246 Z" id="Shape-Copy" stroke="#FFFFFF" stroke-width="0.505399979" fill="#FFFFFF" fill-rule="nonzero"></path>
        </g>
    </g>
</svg>