<?xml version="1.0" encoding="UTF-8"?>
<svg width="30px" height="30px" viewBox="0 0 30 30" version="1.1" xmlns="http://www.w3.org/2000/svg" xmlns:xlink="http://www.w3.org/1999/xlink">
    <!-- Generator: Sketch 59.1 (86144) - https://sketch.com -->
    <title>Information request</title>
    <desc>Created with Sketch.</desc>
    <g id="Audit-Trail" stroke="none" stroke-width="1" fill="none" fill-rule="evenodd">
        <g id="Information-request" transform="translate(0.000000, 0.250000)">
            <circle id="Oval-Copy-8" fill="#000000" cx="14.5302494" cy="14.5302494" r="14.5302494"></circle>
            <path d="M7.26512469,9.91321822 C6.38067473,9.91321822 5.68574976,10.6081432 5.68574976,11.4925932 L5.68574976,15.914843 C5.68574976,16.7992929 6.38067473,17.4942179 7.26512469,17.4942179 L7.58099968,17.4942179 L7.58099968,19.0735928 C7.58099968,19.1999428 7.6446682,19.3265398 7.7710182,19.3265398 C7.77101826,19.3897148 7.83369967,19.3894678 7.89687467,19.3894678 C7.96004966,19.3894678 8.02371825,19.3897148 8.08689318,19.3265398 L10.549731,17.4942179 L12.6349995,17.4942179 L12.6349995,17.8100929 C12.6349995,18.6945428 13.3299244,19.3894678 14.2143744,19.3894678 L18.5107676,19.3894678 L20.9736057,21.2217898 C21.0367807,21.2849648 21.1004491,21.2847178 21.1636241,21.2847178 C21.2267991,21.2847178 21.2263057,21.2849648 21.2894807,21.2217898 C21.4158307,21.2217898 21.4794991,21.0951927 21.4794991,20.9688428 L21.4794991,19.3894678 L21.7953741,19.3894678 C22.679824,19.3894678 23.374749,18.6945428 23.374749,17.8100929 L23.374749,13.3878431 C23.374749,12.5033931 22.679824,11.8084681 21.7953741,11.8084681 L16.4254993,11.8084681 L16.4254993,11.4925932 C16.4254993,10.6081432 15.7305743,9.91321822 14.8461244,9.91321822 L7.26512469,9.91321822 Z M7.26512469,10.5449682 L14.8461244,10.5449682 C15.3515244,10.5449682 15.7937493,10.9871932 15.7937493,11.4925932 L15.7937493,11.8084681 L14.2143744,11.8084681 C13.3299244,11.8084681 12.6349995,12.5033931 12.6349995,13.3878431 L12.6349995,16.8624679 L10.4238746,16.8624679 C10.3606996,16.8624679 10.297031,16.8622209 10.233856,16.9253959 L8.21274965,18.4418429 L8.21274965,17.1783429 C8.21274965,16.9888179 8.08639966,16.8624679 7.89687467,16.8624679 L7.26512469,16.8624679 C6.75972472,16.8624679 6.31749973,16.4202429 6.31749973,15.914843 L6.31749973,11.4925932 C6.31749973,10.9871932 6.75972472,10.5449682 7.26512469,10.5449682 Z M9.79212459,11.8084681 C9.28672461,11.8084681 8.84449963,12.2506931 8.84449963,12.7560931 L8.84449963,14.651343 C8.84449963,15.156743 9.28672461,15.598968 9.79212459,15.598968 L10.4238746,15.598968 C10.7072677,15.598968 10.9676262,15.457336 11.1444644,15.2460762 L11.4344275,15.53604 C11.4976025,15.599215 11.6241995,15.598968 11.6873745,15.598968 C11.7505495,15.598968 11.8773929,15.53604 11.8773929,15.53604 C12.0037429,15.40969 12.0037429,15.2194246 11.8773929,15.0930746 L11.3714995,14.5871812 L11.3714995,12.7560931 C11.3714995,12.2506931 10.9292745,11.8084681 10.4238746,11.8084681 L9.79212459,11.8084681 Z M9.79212459,12.4402181 L10.4238746,12.4402181 C10.6133996,12.4402181 10.7397495,12.5665681 10.7397495,12.7560931 L10.7397495,13.9554313 L10.6138931,13.8295747 C10.4875431,13.7032247 10.2972778,13.7032247 10.1709278,13.8295747 C10.0445778,13.9559246 10.0445778,14.1461901 10.1709278,14.27254 L10.7027329,14.8043453 C10.6529929,14.9043248 10.5549567,14.967218 10.4238746,14.967218 L9.79212459,14.967218 C9.6025996,14.967218 9.4762496,14.840868 9.4762496,14.651343 L9.4762496,12.7560931 C9.4762496,12.5665681 9.6025996,12.4402181 9.79212459,12.4402181 Z M14.2143744,12.4402181 L16.1096243,12.4402181 L21.7953741,12.4402181 C22.3007741,12.4402181 22.742999,12.8824431 22.742999,13.3878431 L22.742999,17.8100929 C22.742999,18.3154929 22.3007741,18.7577178 21.7953741,18.7577178 L21.1636241,18.7577178 C20.9740991,18.7577178 20.8477491,18.8840678 20.8477491,19.0735928 L20.8477491,20.3370928 L18.8266426,18.8206458 C18.7634676,18.7574708 18.6997992,18.7577178 18.6366242,18.7577178 L14.2143744,18.7577178 C13.7089744,18.7577178 13.2667494,18.3154929 13.2667494,17.8100929 L13.2667494,17.1783429 L13.2667494,13.3878431 C13.2667494,13.3246681 13.2734125,13.2619865 13.2864916,13.2015261 C13.3780461,12.7783029 13.7721494,12.4402181 14.2143744,12.4402181 Z M17.3731243,13.7037181 C16.8677243,13.7037181 16.4254993,14.145943 16.4254993,14.651343 L16.4254993,17.1783429 C16.4254993,17.3678679 16.5518493,17.4942179 16.7413743,17.4942179 C16.9308993,17.4942179 17.0572493,17.3678679 17.0572493,17.1783429 L17.0572493,16.230718 L18.9524992,16.230718 L18.9524992,17.1783429 C18.9524992,17.3678679 19.0788492,17.4942179 19.2683742,17.4942179 C19.4578992,17.4942179 19.5842492,17.3678679 19.5842492,17.1783429 L19.5842492,14.651343 C19.5842492,14.145943 19.1420242,13.7037181 18.6366242,13.7037181 L17.3731243,13.7037181 Z M17.3731243,14.335468 L18.6366242,14.335468 C18.8261492,14.335468 18.9524992,14.461818 18.9524992,14.651343 L18.9524992,15.598968 L17.0572493,15.598968 L17.0572493,14.651343 C17.0572493,14.461818 17.1835993,14.335468 17.3731243,14.335468 Z" id="Shape-Copy-3" stroke="#FFFFFF" stroke-width="0.2" fill="#FFFFFF" fill-rule="nonzero"></path>
        </g>
    </g>
</svg>