<?xml version="1.0" encoding="UTF-8"?>
<svg width="30px" height="30px" viewBox="0 0 30 30" version="1.1" xmlns="http://www.w3.org/2000/svg" xmlns:xlink="http://www.w3.org/1999/xlink">
    <!-- Generator: Sketch 59.1 (86144) - https://sketch.com -->
    <title>Report</title>
    <desc>Created with Sketch.</desc>
    <g id="Audit-Trail" stroke="none" stroke-width="1" fill="none" fill-rule="evenodd">
        <g id="Report" transform="translate(0.000000, 0.437500)">
            <circle id="Oval-Copy-7" fill="#000000" cx="14.5302494" cy="14.5302494" r="14.5302494"></circle>
            <path d="M13.887034,8.22421502 C13.5381282,8.22421502 13.2552841,8.50705912 13.2552841,8.855965 L13.2552841,10.1194649 C10.3848629,10.2977572 8.16591799,12.7082669 8.22538265,15.5836051 C8.28484731,18.4589433 10.6015554,20.7756515 13.4768937,20.8351161 C16.3522319,20.8945808 18.7627415,18.6756359 18.9410338,15.8052147 L20.2045338,15.8052147 C20.5534397,15.8052147 20.8362838,15.5223706 20.8362838,15.1734647 C20.8362838,13.3304091 20.1041328,11.5628403 18.8008956,10.2596031 C17.4976585,8.95636602 15.7300897,8.22421502 13.887034,8.22421502 Z M13.5711591,19.5957145 C11.3032709,19.682941 9.39407329,17.9151654 9.30684682,15.6472772 C9.21962036,13.379389 10.9873959,11.4701914 13.2552841,11.3829649 L13.2552841,15.1734647 C13.2552841,15.5223706 13.5381282,15.8052147 13.887034,15.8052147 L17.6775339,15.8052147 C17.5151323,17.9503437 15.722406,19.605168 13.5711591,19.5957145 L13.5711591,19.5957145 Z M14.518784,14.5417148 L14.518784,9.52561997 C17.156753,9.82170112 19.2387977,11.9037458 19.5348788,14.5417148 L14.518784,14.5417148 Z" id="Shape-Copy-2" fill="#FFFFFF" fill-rule="nonzero"></path>
        </g>
    </g>
</svg>