<?xml version="1.0" encoding="UTF-8"?>
<svg width="12px" height="8px" viewBox="0 0 12 8" version="1.1" xmlns="http://www.w3.org/2000/svg" xmlns:xlink="http://www.w3.org/1999/xlink">
    <!-- Generator: Sketch 55.2 (78181) - https://sketchapp.com -->
    <title>Next</title>
    <desc>Created with Sketch.</desc>
    <g id="Page-1" stroke="none" stroke-width="1" fill="none" fill-rule="evenodd">
        <g id="Block-Importer-View-block" transform="translate(-964.000000, -968.000000)" fill="#86BC25">
            <g id="Group-66" transform="translate(145.000000, 126.500000)">
                <g id="Group-4-Copy-6" transform="translate(771.939062, 845.000000) scale(-1, 1) translate(-771.939062, -845.000000) translate(696.439062, 827.500000)">
                    <g id="Group-18">
                        <g id="Group-3" transform="translate(16.450217, 9.000000)">
                            <path d="M5.48385792,14.7089025 C5.40300889,14.674603 5.32950978,14.6268285 5.27071049,14.5655793 L2.19232268,11.4884164 C2.06737419,11.3646929 2,11.1980949 2,11.0216971 C2,10.8452992 2.06737419,10.6799262 2.19232268,10.5562027 C2.31604618,10.4312542 2.48141918,10.362655 2.65659207,10.362655 C2.83176495,10.362655 2.99713796,10.4312542 3.12208645,10.5562027 L5.07838781,12.5076041 L5.07838781,4.07289699 C5.07838781,3.70907638 5.37360925,3.41385495 5.73497988,3.41385495 C6.0975755,3.41385495 6.39402192,3.70907638 6.39402192,4.07289699 L6.39402192,12.5076041 L8.35032329,10.5562027 C8.47527178,10.4312542 8.64064478,10.362655 8.81581767,10.362655 C8.99099055,10.362655 9.15636355,10.4312542 9.28008706,10.5549777 C9.40503555,10.6799262 9.47363472,10.8452992 9.47363472,11.0216971 C9.47363472,11.1980949 9.40503555,11.3646929 9.28131205,11.4884164 L6.20169925,14.5655793 C6.14289996,14.6268285 6.06940084,14.674603 5.98732683,14.7089025 C5.90525283,14.7432021 5.81950386,14.7603519 5.73497988,14.7603519 C5.65168089,14.7603519 5.56715691,14.7432021 5.48385792,14.7089025 Z" id="Next" transform="translate(5.736817, 9.087103) scale(1, -1) rotate(-270.000000) translate(-5.736817, -9.087103) "></path>
                        </g>
                    </g>
                </g>
            </g>
        </g>
    </g>
</svg>