<?xml version="1.0" encoding="UTF-8"?>
<svg width="12px" height="8px" viewBox="0 0 12 8" version="1.1" xmlns="http://www.w3.org/2000/svg" xmlns:xlink="http://www.w3.org/1999/xlink">
    <!-- Generator: Sketch 55.2 (78181) - https://sketchapp.com -->
    <title>Previous</title>
    <desc>Created with Sketch.</desc>
    <g id="Page-1" stroke="none" stroke-width="1" fill="none" fill-rule="evenodd">
        <g id="Block-Importer-View-block" transform="translate(-857.000000, -968.000000)" fill="#86BC25">
            <g id="Group-66" transform="translate(145.000000, 126.500000)">
                <g id="Group-4-Copy-6" transform="translate(771.939062, 845.000000) scale(-1, 1) translate(-771.939062, -845.000000) translate(696.439062, 827.500000)">
                    <g id="Group-18">
                        <g id="Group-2" transform="translate(92.500000, 9.000000)">
                            <path d="M36.4340751,14.7089025 C36.3532261,14.674603 36.279727,14.6268285 36.2209277,14.5655793 L33.1425399,11.4884164 C33.0175914,11.3646929 32.9502172,11.1980949 32.9502172,11.0216971 C32.9502172,10.8452992 33.0175914,10.6799262 33.1425399,10.5562027 C33.2662634,10.4312542 33.4316364,10.362655 33.6068092,10.362655 C33.7819821,10.362655 33.9473551,10.4312542 34.0723036,10.5562027 L36.028605,12.5076041 L36.028605,4.07289699 C36.028605,3.70907638 36.3238264,3.41385495 36.6851971,3.41385495 C37.0477927,3.41385495 37.3442391,3.70907638 37.3442391,4.07289699 L37.3442391,12.5076041 L39.3005405,10.5562027 C39.425489,10.4312542 39.590862,10.362655 39.7660348,10.362655 C39.9412077,10.362655 40.1065807,10.4312542 40.2303042,10.5549777 C40.3552527,10.6799262 40.4238519,10.8452992 40.4238519,11.0216971 C40.4238519,11.1980949 40.3552527,11.3646929 40.2315292,11.4884164 L37.1519164,14.5655793 C37.0931171,14.6268285 37.019618,14.674603 36.937544,14.7089025 C36.85547,14.7432021 36.769721,14.7603519 36.6851971,14.7603519 C36.6018981,14.7603519 36.5173741,14.7432021 36.4340751,14.7089025 Z" id="Previous" transform="translate(36.687035, 9.087103) scale(-1, 1) rotate(-270.000000) translate(-36.687035, -9.087103) "></path>
                        </g>
                    </g>
                </g>
            </g>
        </g>
    </g>
</svg>