<?xml version="1.0" encoding="UTF-8"?>
<svg width="38px" height="39px" viewBox="0 0 38 39" version="1.1" xmlns="http://www.w3.org/2000/svg" xmlns:xlink="http://www.w3.org/1999/xlink">
    <!-- Generator: Sketch 58 (84663) - https://sketch.com -->
    <title>add-deliverable-active</title>
    <desc>Created with Sketch.</desc>
    <g id="Project-Management" stroke="none" stroke-width="1" fill="none" fill-rule="evenodd">
        <g id="add-deliverable-active" transform="translate(0.098008, 0.870150)">
            <path d="M21.758026,18.5963846 L21.758026,25.1007805" id="Line-5" stroke="#000000" stroke-width="1.40400017" stroke-linecap="round"></path>
            <g id="add-deliverable-pos">
                <path d="M21.758026,18.3385822 L21.758026,24.8429781" id="Line-5" stroke="#000000" stroke-width="1.40400017" stroke-linecap="round" transform="translate(21.758026, 21.848583) rotate(-90.000000) translate(-21.758026, -21.848583) "></path>
                <path d="M23.0185827,15.9985819 L23.0185827,14.8285817 C23.0185827,12.890062 21.447102,11.3185813 19.5085823,11.3185813 L14.8285817,11.3185813 C12.890062,11.3185813 11.3185813,12.890062 11.3185813,14.8285817 L11.3185813,20.6785824 C11.3185813,22.6171021 12.890062,24.1885829 14.8285817,24.1885829 L15.9985819,24.1885829 L15.9985819,24.1885829" id="Path-4" stroke="#000000" stroke-width="1.40400017" stroke-linecap="round"></path>
                <path d="M18.6895822,1.55610018 C28.1361633,1.55610018 35.8207242,9.24300109 35.8207242,18.6895822 C35.8207242,28.1361633 28.1361633,35.8207242 18.6895822,35.8207242 C9.24300109,35.8207242 1.55610018,28.1361633 1.55610018,18.6895822 C1.55610018,9.24300109 9.24300109,1.55610018 18.6895822,1.55610018 M18.6895822,0 C8.36784099,0 8.8817842e-14,8.36784099 8.8817842e-14,18.6895822 C8.8817842e-14,29.0113234 8.36784099,37.3791644 18.6895822,37.3791644 C29.0113234,37.3791644 37.3791644,29.0113234 37.3791644,18.6895822 C37.3791644,8.36784099 29.0113234,0 18.6895822,0" id="Fill-279" fill="#000000"></path>
            </g>
        </g>
    </g>
</svg>