<?xml version="1.0" encoding="UTF-8"?>
<svg width="38px" height="38px" viewBox="0 0 38 38" version="1.1" xmlns="http://www.w3.org/2000/svg" xmlns:xlink="http://www.w3.org/1999/xlink">
    <!-- Generator: Sketch 58 (84663) - https://sketch.com -->
    <title>clear-filter-active</title>
    <desc>Created with Sketch.</desc>
    <g id="Project-Management" stroke="none" stroke-width="1" fill="none" fill-rule="evenodd">
        <path d="M19.0970733,0.305399763 C29.4046083,0.305399763 37.7588047,8.65982976 37.7588047,18.9650285 C37.7588047,29.2702273 29.4046083,37.6246573 19.0970733,37.6246573 C8.79164094,37.6246573 0.437210938,29.2702273 0.437210938,18.9650285 C0.437210938,8.65982976 8.79164094,0.305399763 19.0970733,0.305399763 Z M19.0970733,1.86134226 C9.66539844,1.86134226 1.99338706,9.53358726 1.99338706,18.9650285 C1.99338706,28.3964698 9.66539844,36.071051 19.0970733,36.071051 C28.5306172,36.071051 36.2028622,28.3964698 36.2028622,18.9650285 C36.2028622,9.53358726 28.5306172,1.86134226 19.0970733,1.86134226 Z M28.7109631,11.7762183 C28.9998263,11.7762183 29.2577399,11.9577894 29.3567787,12.2301462 C29.4558175,12.5025029 29.3732852,12.8058093 29.1504478,12.9915071 L21.1571899,19.6518676 L21.1571899,26.8837646 C21.1571899,27.100412 21.0560878,27.3026163 20.8827698,27.4326047 L18.136506,29.4938501 C18.0149771,29.5846357 17.8703391,29.6300285 17.7238442,29.6300285 C17.6206788,29.6300285 17.51545,29.6052688 17.4184745,29.5578127 C17.1853206,29.4404104 17.0388257,29.2029236 17.0388257,28.9429467 L17.0388257,19.6518676 L9.04556778,12.9915071 C8.82273044,12.8058093 8.74019809,12.5025029 8.83923691,12.2301462 C8.93827573,11.9577894 9.19618932,11.7762183 9.48505254,11.7762183 L28.7109631,11.7762183 Z M26.8147824,13.1505882 L11.3812332,13.1505882 L18.163329,18.8017844 C18.3201404,18.9338362 18.4111323,19.1257239 18.4111323,19.3299914 L18.4111323,27.5710528 L19.7852959,26.5412554 L19.7852959,19.3299914 C19.7852959,19.1257239 19.8758752,18.9338362 20.0326867,18.8017844 L26.8147824,13.1505882 Z M23.5604422,22.0169594 L24.6678641,23.717643 L25.784075,22.0169594 L26.9530203,22.0169594 L25.3182547,24.3944008 L27.0365164,26.877311 L25.8675711,26.877311 L24.6678641,25.057975 L23.4725516,26.877311 L22.3036063,26.877311 L24.0130789,24.3944008 L22.3827078,22.0169594 L23.5604422,22.0169594 Z" id="clear-filter-active" fill="#000000"></path>
    </g>
</svg>