<?xml version="1.0" encoding="UTF-8"?>
<svg width="25px" height="25px" viewBox="0 0 25 25" version="1.1" xmlns="http://www.w3.org/2000/svg" xmlns:xlink="http://www.w3.org/1999/xlink">
    <!-- Generator: Sketch 59.1 (86144) - https://sketch.com -->
    <title>mark as complete_disabled</title>
    <desc>Created with Sketch.</desc>
    <g id="Project-Management" stroke="none" stroke-width="1" fill="none" fill-rule="evenodd">
        <g id="Task-View---My-task-Copy-4" transform="translate(-587.000000, -915.000000)" fill="#D0D0CE" stroke="#D0D0CE">
            <g id="Group-17" transform="translate(22.000000, 445.000000)">
                <g id="Group-16">
                    <g id="Group-6" transform="translate(525.625000, 8.000000)">
                        <g id="mark-as-complete_disabled" transform="translate(39.599926, 462.500000)">
                            <path d="M11.8999998,0.990797529 C17.9148113,0.990797529 22.8092021,5.88518833 22.8092021,11.8999998 C22.8092021,17.9148113 17.9148113,22.8077121 11.8999998,22.8077121 C5.88518833,22.8077121 0.99228745,17.9148113 0.99228745,11.8999998 C0.99228745,5.88518833 5.88518833,0.990797529 11.8999998,0.990797529 L11.8999998,0.990797529 Z M11.8999998,0 C5.32795784,0 -4.56523708e-13,5.32795784 -4.56523708e-13,11.8999998 C-4.56523708e-13,18.4720418 5.32795784,23.7999996 11.8999998,23.7999996 C18.4720418,23.7999996 23.8001486,18.4720418 23.8001486,11.8999998 C23.8001486,5.32795784 18.4720418,0 11.8999998,0 Z M16.756264,5.58600073 L14.3281396,5.58600073 L14.3281396,5.10154321 C14.3281396,4.83304868 14.1107174,4.61562648 13.8422229,4.61562648 L9.95780744,4.61562648 C9.68931291,4.61562648 9.47189071,4.83304868 9.47189071,5.10154321 L9.47189071,5.58600073 L7.04376627,5.58600073 C6.77673095,5.58600073 6.55930875,5.80342293 6.55930875,6.07191746 L6.55930875,18.6984564 C6.55930875,18.9669509 6.77673095,19.1843731 7.04376627,19.1843731 L16.756264,19.1843731 C17.0247586,19.1843731 17.2421808,18.9669509 17.2421808,18.6984564 L17.2421808,6.07191746 C17.2421808,5.80342293 17.0247586,5.58600073 16.756264,5.58600073 Z M10.4437242,6.55783419 L13.3577653,6.55783419 L13.3577653,5.58600073 L10.4437242,5.58600073 L10.4437242,6.55783419 Z M16.2703473,18.2125397 L7.529683,18.2125397 L7.529683,6.55783419 L9.47189071,6.55783419 L9.47189071,7.04375092 C9.47189071,7.31224545 9.68931291,7.52966765 9.95780744,7.52966765 L13.8422229,7.52966765 C14.1107174,7.52966765 14.3281396,7.31224545 14.3281396,7.04375092 L14.3281396,6.55783419 L16.2703473,6.55783419 L16.2703473,18.2125397 L16.2703473,18.2125397 Z" id="Fill-273" stroke-width="0.2"></path>
                            <path d="M14.4229277,11.1683315 C14.3535599,11.0989103 14.2415043,11.0989103 14.1721365,11.1683315 L10.7459009,14.5943003 L9.62854571,13.4768918 C9.55917791,13.4074706 9.44658864,13.4074706 9.37722084,13.4768918 C9.30785305,13.5462062 9.30785305,13.658582 9.37722084,13.7280032 L10.6205052,14.9710208 C10.6551891,15.0056513 10.700545,15.0229933 10.7459009,15.0229933 C10.7912567,15.0229933 10.8371462,15.0056513 10.8718301,14.9710208 L14.4229277,11.4193895 C14.4922955,11.3500217 14.4922955,11.2376993 14.4229277,11.1683315" id="Fill-1589" stroke-width="0.7"></path>
                        </g>
                    </g>
                </g>
            </g>
        </g>
    </g>
</svg>