<?xml version="1.0" encoding="UTF-8"?>
<svg width="38px" height="38px" viewBox="0 0 38 38" version="1.1" xmlns="http://www.w3.org/2000/svg" xmlns:xlink="http://www.w3.org/1999/xlink">
    <!-- Generator: Sketch 58 (84663) - https://sketch.com -->
    <title>download-active</title>
    <desc>Created with Sketch.</desc>
    <g id="Project-Management" stroke="none" stroke-width="1" fill="none" fill-rule="evenodd">
        <path d="M19.0970733,0.02285 C29.4046083,0.02285 37.7588047,8.37728 37.7588047,18.6824787 C37.7588047,28.9876775 29.4046083,37.3421075 19.0970733,37.3421075 C8.79164094,37.3421075 0.437210938,28.9876775 0.437210938,18.6824787 C0.437210938,8.37728 8.79164094,0.02285 19.0970733,0.02285 Z M19.0970733,1.5787925 C9.66539844,1.5787925 1.99338706,9.2510375 1.99338706,18.6824787 C1.99338706,28.11392 9.66539844,35.7885012 19.0970733,35.7885012 C28.5306172,35.7885012 36.2028622,28.11392 36.2028622,18.6824787 C36.2028622,9.2510375 28.5306172,1.5787925 19.0970733,1.5787925 Z M26.433295,25.2836972 C26.8386253,25.2836972 27.1672535,25.6121051 27.1672535,26.0176557 L27.1672535,26.0176557 L27.1672535,28.9512857 C27.1672535,29.3568364 26.8386253,29.6852442 26.433295,29.6852442 L26.433295,29.6852442 L11.7627206,29.6852442 C11.35717,29.6852442 11.0287621,29.3568364 11.0287621,28.9512857 L11.0287621,28.9512857 L11.0287621,26.0176557 C11.0287621,25.6121051 11.35717,25.2836972 11.7627206,25.2836972 C12.1682713,25.2836972 12.4966791,25.6121051 12.4966791,26.0176557 L12.4966791,26.0176557 L12.4966791,28.2173272 L25.6991161,28.2173272 L25.6991161,26.0176557 C25.6991161,25.6121051 26.027524,25.2836972 26.433295,25.2836972 Z M19.0978976,7.67971326 C19.5034483,7.67971326 19.8318561,8.00812112 19.8318561,8.41146769 L19.8318561,24.2455757 L24.4471989,19.630233 C24.7339496,19.343923 25.1965859,19.343923 25.4831163,19.630233 C25.7696466,19.9167633 25.7696466,20.3796201 25.4831163,20.6663708 L19.6158563,26.5356145 C19.5499543,26.6017368 19.468183,26.6568388 19.3778157,26.6943082 C19.2874485,26.7295735 19.192673,26.7494102 19.0978976,26.7494102 C19.0009181,26.7494102 18.9061427,26.7295735 18.8179795,26.6943082 C18.7276122,26.6568388 18.6462817,26.6017368 18.5777348,26.5356145 L12.7104749,20.6663708 C12.4239445,20.3796201 12.4239445,19.9167633 12.7104749,19.630233 C12.9972256,19.343923 13.462066,19.343923 13.7485964,19.630233 L18.3639391,24.2455757 L18.3639391,8.41146769 C18.3639391,8.00812112 18.6925674,7.67971326 19.0978976,7.67971326 Z" id="download-active" fill="#000000"></path>
    </g>
</svg>