<?xml version="1.0" encoding="UTF-8"?>
<svg width="38px" height="38px" viewBox="0 0 38 38" version="1.1" xmlns="http://www.w3.org/2000/svg" xmlns:xlink="http://www.w3.org/1999/xlink">
    <!-- Generator: Sketch 58 (84663) - https://sketch.com -->
    <title>edit-active</title>
    <desc>Created with Sketch.</desc>
    <g id="Project-Management" stroke="none" stroke-width="1" fill="none" fill-rule="evenodd">
        <path d="M19.0980078,0.398192737 C29.419749,0.398192737 37.78759,8.76603372 37.78759,19.0877749 C37.78759,29.4095162 29.419749,37.7773571 19.0980078,37.7773571 C8.7762666,37.7773571 0.408425608,29.4095162 0.408425608,19.0877749 C0.408425608,8.76603372 8.7762666,0.398192737 19.0980078,0.398192737 Z M19.0980078,1.95429292 C9.6514267,1.95429292 1.96452579,9.64119383 1.96452579,19.0877749 C1.96452579,28.5343561 9.6514267,36.218917 19.0980078,36.218917 C28.5445889,36.218917 36.2291498,28.5343561 36.2291498,19.0877749 C36.2291498,9.64119383 28.5445889,1.95429292 19.0980078,1.95429292 Z M23.2567751,10.0877749 C23.3505231,10.0877749 23.4401046,10.106707 23.5234362,10.139786 C23.6088511,10.1751536 23.6838495,10.2271647 23.7484315,10.289786 L23.7484315,10.289786 L27.9045947,14.4421439 C27.9691766,14.5066376 28.0212589,14.5836141 28.0566748,14.6689123 C28.0900075,14.7479691 28.1045905,14.8313949 28.1066738,14.9146127 L28.1066738,14.9146127 L28.1108404,14.9331286 L28.1108404,27.3949871 C28.1108404,27.7777888 27.8004302,28.0877749 27.4171048,28.0877749 L27.4171048,28.0877749 L15.6298511,28.0877749 C15.2486091,28.0877749 14.9381989,27.7777888 14.9381989,27.3949871 L14.9381989,27.3949871 L14.9381989,23.9331286 C14.9381989,23.5526154 15.2486091,23.2424213 15.6298511,23.2424213 C16.0131764,23.2424213 16.3235866,23.5526154 16.3235866,23.9331286 L16.3235866,23.9331286 L16.3235866,26.7042798 L26.7233693,26.7042798 L26.7233693,15.6259164 L23.2567751,15.6259164 C22.8734498,15.6259164 22.5630396,15.3159303 22.5630396,14.9331286 L22.5630396,14.9331286 L22.5630396,11.4712701 L16.3235866,11.4712701 L16.3235866,12.8568457 C16.3235866,13.2398554 16.0131764,13.5496335 15.6298511,13.5496335 C15.2486091,13.5496335 14.9381989,13.2398554 14.9381989,12.8568457 L14.9381989,12.8568457 L14.9381989,10.7784823 C14.9381989,10.3956806 15.2486091,10.0877749 15.6298511,10.0877749 L15.6298511,10.0877749 Z M12.3674193,13.0588568 C12.6382469,12.788191 13.0778211,12.788191 13.3486488,13.0588568 L13.3486488,13.0588568 L19.5881017,19.289578 C19.6755999,19.3790371 19.7401819,19.491381 19.769348,19.6122548 L19.769348,19.6122548 L20.4630835,22.3811175 C20.5214156,22.6182881 20.452667,22.8679414 20.279754,23.0385378 C20.1485067,23.1698138 19.9714271,23.2424213 19.7901809,23.2424213 C19.733932,23.2424213 19.6776832,23.2340995 19.6214344,23.2216168 L19.6214344,23.2216168 L16.8485756,22.528829 C16.7277448,22.4976224 16.6152472,22.4352091 16.527749,22.34575 L16.527749,22.34575 L10.288296,16.1148207 C10.0174684,15.844363 10.0174684,15.4074698 10.288296,15.1370121 L10.288296,15.1370121 Z M24.6442461,21.8568457 C25.0254881,21.8568457 25.3379816,22.1668318 25.3379816,22.5496335 C25.3379816,22.9324351 25.0254881,23.2424213 24.6442461,23.2424213 L22.5630396,23.2424213 C22.1817976,23.2424213 21.8713874,22.9324351 21.8713874,22.5496335 C21.8713874,22.1668318 22.1817976,21.8568457 22.5630396,21.8568457 L24.6442461,21.8568457 Z M18.5818728,20.5794532 L17.8193887,21.3429761 L18.8381174,21.5988706 L18.5818728,20.5794532 Z M12.8569924,14.5274421 L11.7570153,15.6259164 L16.671496,20.531811 L17.7693897,19.4331286 L12.8569924,14.5274421 Z M24.6442461,19.0877749 C25.0254881,19.0877749 25.3379816,19.3977611 25.3379816,19.7807708 C25.3379816,20.1635724 25.0254881,20.4712701 24.6442461,20.4712701 L21.8713874,20.4712701 C21.488062,20.4712701 21.1776519,20.1635724 21.1776519,19.7807708 C21.1776519,19.3977611 21.488062,19.0877749 21.8713874,19.0877749 L24.6442461,19.0877749 Z M23.9505106,12.4511591 L23.9505106,14.2403408 L25.7421398,14.2403408 L23.9505106,12.4511591 Z" id="edit-active" fill="#000000"></path>
    </g>
</svg>