<?xml version="1.0" encoding="UTF-8"?>
<svg width="38px" height="38px" viewBox="0 0 38 38" version="1.1" xmlns="http://www.w3.org/2000/svg" xmlns:xlink="http://www.w3.org/1999/xlink">
    <!-- Generator: Sketch 58 (84663) - https://sketch.com -->
    <title>other-tasks-active</title>
    <desc>Created with Sketch.</desc>
    <g id="Project-Management" stroke="none" stroke-width="1" fill="none" fill-rule="evenodd">
        <path d="M19.0692225,0 C29.3909637,0 37.7588047,8.36784099 37.7588047,18.6895822 C37.7588047,29.0113234 29.3909637,37.3791644 19.0692225,37.3791644 C8.74748127,37.3791644 0.379640279,29.0113234 0.379640279,18.6895822 C0.379640279,8.36784099 8.74748127,0 19.0692225,0 Z M19.0692225,1.55610018 C9.62264137,1.55610018 1.93574046,9.24300109 1.93574046,18.6895822 C1.93574046,28.1361633 9.62264137,35.8207242 19.0692225,35.8207242 C28.5158036,35.8207242 36.2003645,28.1361633 36.2003645,18.6895822 C36.2003645,9.24300109 28.5158036,1.55610018 19.0692225,1.55610018 Z M15.208222,10.6165813 L19.8882226,10.6165813 C22.1439546,10.6165813 23.9855291,12.3898003 24.0950683,14.6183604 L24.1002231,14.8285817 L24.1002231,15.9985819 C24.1002231,16.3862858 23.7859269,16.700582 23.398223,16.700582 C23.0428277,16.700582 22.7491154,16.4364859 22.7026313,16.0938391 L22.6962229,15.9985819 L22.6962229,14.8285817 C22.6962229,13.3352036 21.5304386,12.114109 20.0592781,12.0257061 L19.8882226,12.0205814 L15.208222,12.0205814 C13.7148439,12.0205814 12.4937493,13.1863657 12.4053463,14.6575262 L12.4002217,14.8285817 L12.4002217,20.6785824 C12.4002217,22.1719606 13.566006,23.3930552 15.0371665,23.4814581 L15.208222,23.4865828 L16.3782222,23.4865828 C16.7659261,23.4865828 17.0802222,23.8008789 17.0802222,24.1885829 C17.0802222,24.5439781 16.8161262,24.8376905 16.4734794,24.8841745 L16.3782222,24.8905829 L15.208222,24.8905829 C12.95249,24.8905829 11.1109155,23.1173639 11.0013763,20.8888037 L10.9962215,20.6785824 L10.9962215,14.8285817 C10.9962215,12.5728497 12.7694405,10.7312752 14.9980007,10.621736 L15.208222,10.6165813 L19.8882226,10.6165813 Z M21.817316,23.6485829 L21.817316,24.8905829 L20.611316,24.8905829 L20.611316,23.6485829 L21.817316,23.6485829 Z M21.394316,18.5095829 C22.654316,18.5095829 23.509316,19.2115829 23.509316,20.3365829 L23.509316,20.3545829 C23.509316,21.4885829 22.690316,22.0015829 21.691316,22.1725829 L21.601316,22.8925829 L20.872316,22.8925829 L20.692316,21.4345829 L20.737316,21.3895829 C21.880316,21.3535829 22.402316,20.9845829 22.402316,20.3905829 L22.402316,20.3725829 C22.402316,19.8685829 22.015316,19.5175829 21.367316,19.5175829 C20.800316,19.5175829 20.332316,19.7695829 19.900316,20.2285829 L19.225316,19.5085829 C19.747316,18.9145829 20.422316,18.5095829 21.394316,18.5095829 Z" id="other-tasks-active" fill="#000000" fill-rule="nonzero"></path>
    </g>
</svg>