<?xml version="1.0" encoding="UTF-8"?>
<svg width="38px" height="38px" viewBox="0 0 38 38" version="1.1" xmlns="http://www.w3.org/2000/svg" xmlns:xlink="http://www.w3.org/1999/xlink">
    <!-- Generator: Sketch 58 (84663) - https://sketch.com -->
    <title>re-assign-active</title>
    <desc>Created with Sketch.</desc>
    <g id="Project-Management" stroke="none" stroke-width="1" fill="none" fill-rule="evenodd">
        <path d="M19.0970733,0.152699882 C29.4046083,0.152699882 37.7588047,8.50712988 37.7588047,18.8123286 C37.7588047,29.1175274 29.4046083,37.4719574 19.0970733,37.4719574 C8.79164094,37.4719574 0.437210938,29.1175274 0.437210938,18.8123286 C0.437210938,8.50712988 8.79164094,0.152699882 19.0970733,0.152699882 Z M19.0970733,1.70864238 C9.66539844,1.70864238 1.99338706,9.38088738 1.99338706,18.8123286 C1.99338706,28.2437699 9.66539844,35.9183511 19.0970733,35.9183511 C28.5306172,35.9183511 36.2028622,28.2437699 36.2028622,18.8123286 C36.2028622,9.38088738 28.5306172,1.70864238 19.0970733,1.70864238 Z M26.4867452,11.7219014 C27.9681255,11.7219014 29.1730084,12.9332292 29.1730084,14.4245625 C29.1730084,15.9138667 27.9681255,17.1253974 26.4867452,17.1253974 C26.212266,17.1253974 25.9519144,17.0704108 25.7036722,16.9933079 L25.7036722,16.9933079 L23.0456643,21.333392 C23.5118752,21.8183289 23.800482,22.4757329 23.800482,23.2021238 C23.800482,24.6916309 22.5955992,25.9027558 21.1142189,25.9027558 C19.6328386,25.9027558 18.4279557,24.6916309 18.4279557,23.2021238 C18.4279557,22.4209493 18.765,21.7209357 19.2937761,21.2278827 L19.2937761,21.2278827 L17.0495051,17.0399755 C16.8436457,17.0907011 16.6337499,17.1253974 16.4117446,17.1253974 C16.1917577,17.1253974 15.9798436,17.0907011 15.7739842,17.0399755 L15.7739842,17.0399755 L13.5317315,21.2278827 C14.0605075,21.7209357 14.3975518,22.4209493 14.3975518,23.2021238 C14.3975518,24.6916309 13.1926689,25.9027558 11.7112887,25.9027558 C10.2299084,25.9027558 9.02300726,24.6916309 9.02300726,23.2021238 C9.02300726,21.7128196 10.2299084,20.5014918 11.7112887,20.5014918 C11.9312756,20.5014918 12.1431897,20.5359852 12.3490491,20.5867108 L12.3490491,20.5867108 L14.5913018,16.3990065 C14.0625258,15.9037216 13.7254815,15.205737 13.7254815,14.4245625 C13.7254815,12.9332292 14.9303644,11.7219014 16.4117446,11.7219014 C17.8931249,11.7219014 19.0980078,12.9332292 19.0980078,14.4245625 C19.0980078,15.205737 18.7609635,15.9037216 18.2321875,16.3990065 L18.2321875,16.3990065 L20.4764584,20.5867108 C20.6823178,20.5359852 20.8922136,20.5014918 21.1142189,20.5014918 C21.388698,20.5014918 21.6490496,20.5542464 21.8972918,20.6313494 L21.8972918,20.6313494 L24.5552998,16.2912653 C24.0890888,15.8065313 23.800482,15.1489243 23.800482,14.4245625 C23.800482,12.9332292 25.0053649,11.7219014 26.4867452,11.7219014 Z M11.7112887,21.8509962 C10.9705985,21.8509962 10.367148,22.4574717 10.367148,23.2021238 C10.367148,23.9467759 10.9705985,24.5514253 11.7112887,24.5514253 C12.4519788,24.5514253 13.0534111,23.9467759 13.0534111,23.2021238 C13.0534111,22.4574717 12.4519788,21.8509962 11.7112887,21.8509962 Z M21.1142189,21.8509962 C20.3735287,21.8509962 19.7700782,22.4574717 19.7700782,23.2021238 C19.7700782,23.9467759 20.3735287,24.5514253 21.1142189,24.5514253 C21.854909,24.5514253 22.4563413,23.9467759 22.4563413,23.2021238 C22.4563413,22.4574717 21.854909,21.8509962 21.1142189,21.8509962 Z M16.4117446,13.073232 C15.6710545,13.073232 15.0696222,13.6799104 15.0696222,14.4245625 C15.0696222,15.1671856 15.6710545,15.773864 16.4117446,15.773864 C17.1524348,15.773864 17.7558853,15.1671856 17.7558853,14.4245625 C17.7558853,13.6799104 17.1524348,13.073232 16.4117446,13.073232 Z M26.4867452,13.073232 C25.7460551,13.073232 25.1446227,13.6799104 25.1446227,14.4245625 C25.1446227,15.1671856 25.7460551,15.773864 26.4867452,15.773864 C27.2274353,15.773864 27.8308859,15.1671856 27.8308859,14.4245625 C27.8308859,13.6799104 27.2274353,13.073232 26.4867452,13.073232 Z" id="re-assign-active" fill="#000000"></path>
    </g>
</svg>