<?xml version="1.0" encoding="UTF-8"?>
<svg width="11px" height="16px" viewBox="0 0 11 16" version="1.1" xmlns="http://www.w3.org/2000/svg" xmlns:xlink="http://www.w3.org/1999/xlink">
    <!-- Generator: Sketch 55 (78076) - https://sketchapp.com -->
    <title>Assign to</title>
    <desc>Created with Sketch.</desc>
    <g id="Page-1" stroke="none" stroke-width="1" fill="none" fill-rule="evenodd">
        <g id="Icons-Used-Copy" transform="translate(-351.000000, -387.000000)" fill="#BBBCBC">
            <path d="M354.291194,397.781792 L354.291194,395.396263 C354.291194,395.163266 354.48028,394.97418 354.713277,394.97418 L357.098806,394.97418 C357.331803,394.97418 357.519992,395.16237 357.520082,395.395457 C357.519992,395.511865 357.473393,395.61761 357.396325,395.694678 C357.320153,395.77085 357.214408,395.81745 357.097999,395.817539 L355.730398,395.81745 L357.993155,398.080207 C358.158045,398.245097 358.158045,398.512147 357.993155,398.677038 C357.828265,398.841928 357.561215,398.841928 357.396325,398.677038 L355.133567,396.41428 L355.133657,397.781882 C355.133567,398.014789 354.945378,398.202979 354.71247,398.203068 C354.479384,398.202979 354.291194,398.014789 354.291194,397.781792 Z M361.699644,391.563064 C361.722657,391.620599 361.735603,391.682449 361.735603,391.747175 L361.735603,401.799913 C361.735603,402.064572 361.521286,402.27745 361.258065,402.27745 L351.684303,402.27745 C351.419644,402.27745 351.205328,402.064572 351.205328,401.799913 L351.205328,388.395783 C351.205328,388.132562 351.419644,387.918246 351.684303,387.918246 L357.906673,387.918246 C357.9714,387.918246 358.033249,387.931191 358.090784,387.954205 C358.149757,387.978801 358.201538,388.014616 358.246128,388.057911 L361.596081,391.407721 C361.639232,391.45231 361.675191,391.504091 361.699644,391.563064 Z M358.385649,389.552229 L358.385649,391.268199 L360.101619,391.268199 L358.385649,389.552229 Z M352.163279,401.320937 L360.779089,401.320937 L360.779089,392.226151 L357.906673,392.226151 C357.642014,392.226151 357.427697,392.011834 357.427697,391.747175 L357.427697,388.874759 L352.163279,388.874759 L352.163279,401.320937 Z" id="Assign-to"></path>
        </g>
    </g>
</svg>