<?xml version="1.0" encoding="UTF-8"?>
<svg width="14px" height="14px" viewBox="0 0 14 14" version="1.1" xmlns="http://www.w3.org/2000/svg" xmlns:xlink="http://www.w3.org/1999/xlink">
    <!-- Generator: Sketch 55 (78076) - https://sketchapp.com -->
    <title>Copy</title>
    <desc>Created with Sketch.</desc>
    <g id="Page-1" stroke="none" stroke-width="1" fill="none" fill-rule="evenodd">
        <g id="Icons-Used-Copy" transform="translate(-364.000000, -624.000000)" fill="#BBBCBC">
            <path d="M364.883515,633.82351 C364.599515,633.82351 364.367515,633.589013 364.367515,633.298683 L364.367515,626.615001 C364.367515,625.173502 365.522515,624 366.943515,624 L374.392515,624 C374.676515,624 374.908515,624.235512 374.908515,624.523812 C374.908515,624.813127 374.676515,625.047625 374.392515,625.047625 L366.943515,625.047625 C366.092515,625.047625 365.399515,625.751117 365.399515,626.615001 L365.399515,633.298683 C365.399515,633.589013 365.168515,633.82351 364.883515,633.82351 Z M368.567515,637.41 C367.487515,637.41 366.609515,636.518707 366.609515,635.422356 L366.609515,628.195574 C366.609515,627.099223 367.487515,626.208945 368.567515,626.208945 L375.685515,626.208945 C376.765515,626.208945 377.643515,627.099223 377.643515,628.195574 L377.643515,635.422356 C377.643515,636.518707 376.765515,637.41 375.685515,637.41 L368.567515,637.41 Z M368.567515,627.256569 C368.056515,627.256569 367.641515,627.677852 367.641515,628.195574 L367.641515,635.422356 C367.641515,635.940077 368.056515,636.36136 368.567515,636.36136 L375.685515,636.36136 C376.196515,636.36136 376.610515,635.940077 376.610515,635.422356 L376.610515,628.195574 C376.610515,627.677852 376.196515,627.256569 375.685515,627.256569 L368.567515,627.256569 Z" id="Copy"></path>
        </g>
    </g>
</svg>