<?xml version="1.0" encoding="UTF-8"?>
<svg width="15px" height="14px" viewBox="0 0 15 14" version="1.1" xmlns="http://www.w3.org/2000/svg" xmlns:xlink="http://www.w3.org/1999/xlink">
    <!-- Generator: Sketch 55 (78076) - https://sketchapp.com -->
    <title>Copy to library</title>
    <desc>Created with Sketch.</desc>
    <g id="Page-1" stroke="none" stroke-width="1" fill="none" fill-rule="evenodd">
        <g id="Icons-Used-Copy" transform="translate(-406.000000, -624.000000)" fill="#BBBCBC">
            <path d="M417.83308,637.409645 C417.756662,637.409645 417.678854,637.39061 417.609383,637.351846 L413.671766,635.167955 L409.734149,637.351846 C409.577144,637.438962 409.382625,637.427291 409.236736,637.320584 C409.092236,637.214432 409.021376,637.032974 409.056111,636.856378 L409.932836,632.475397 L406.870553,629.413392 C406.744116,629.286955 406.702433,629.099105 406.762178,628.931124 C406.823313,628.762727 406.97476,628.643931 407.152606,628.626425 L411.508438,628.190563 L413.249382,624.27476 C413.323021,624.107613 413.488362,624.00021 413.671766,624.00021 C413.85378,624.00021 414.02051,624.107613 414.09415,624.27476 L415.835093,628.190563 L420.190926,628.626425 C420.368772,628.643931 420.520219,628.762727 420.579964,628.931124 C420.641099,629.099105 420.598027,629.286955 420.471589,629.413392 L417.410696,632.475397 L418.286031,636.856378 C418.322156,637.032974 418.251296,637.214432 418.105406,637.320584 C418.02482,637.379773 417.92895,637.409645 417.83308,637.409645 Z M413.671766,634.176881 C413.748184,634.176881 413.825992,634.196472 413.895463,634.234681 L417.184221,636.058434 L416.454775,632.413984 C416.424208,632.26226 416.471448,632.105533 416.581212,631.996325 L419.12802,629.449517 L415.475234,629.084377 C415.309893,629.067704 415.165393,628.963637 415.098701,628.812051 L413.671766,625.600962 L412.244831,628.812051 C412.17675,628.963637 412.033639,629.067704 411.868298,629.084377 L408.215512,629.449517 L410.76232,631.996325 C410.870695,632.105533 410.919324,632.26226 410.888757,632.413984 L410.159311,636.058434 L413.44668,634.234681 C413.51754,634.196472 413.593958,634.176881 413.671766,634.176881 L413.671766,634.176881 Z" id="Copy-to-library"></path>
        </g>
    </g>
</svg>