<?xml version="1.0" encoding="UTF-8"?>
<svg width="16px" height="15px" viewBox="0 0 16 15" version="1.1" xmlns="http://www.w3.org/2000/svg" xmlns:xlink="http://www.w3.org/1999/xlink">
    <!-- Generator: Sketch 55 (78076) - https://sketchapp.com -->
    <title>Create block</title>
    <desc>Created with Sketch.</desc>
    <g id="Page-1" stroke="none" stroke-width="1" fill="none" fill-rule="evenodd">
        <g id="Icons-Used-Copy" transform="translate(-375.000000, -388.000000)" fill="#BBBCBC" fill-rule="nonzero">
            <path d="M377.508336,388 L388.385786,388 C389.32467,388 390.085786,388.761116 390.085786,389.7 L390.085786,400.57745 C390.085786,401.516334 389.32467,402.27745 388.385786,402.27745 L377.508336,402.27745 C376.569452,402.27745 375.808336,401.516334 375.808336,400.57745 L375.808336,389.7 C375.808336,388.761116 376.569452,388 377.508336,388 Z M377.508336,389.02 C377.132782,389.02 376.828336,389.324446 376.828336,389.7 L376.828336,400.57745 C376.828336,400.953004 377.132782,401.25745 377.508336,401.25745 L388.385786,401.25745 C388.76134,401.25745 389.065786,400.953004 389.065786,400.57745 L389.065786,389.7 C389.065786,389.324446 388.76134,389.02 388.385786,389.02 L377.508336,389.02 Z M382.362061,394.553725 L382.362061,392.27272 C382.362061,392.007246 382.623974,391.792037 382.947061,391.792037 C383.270148,391.792037 383.532061,392.007246 383.532061,392.27272 L383.532061,394.553725 L385.813066,394.553725 C386.07854,394.553725 386.293749,394.815639 386.293749,395.138725 C386.293749,395.461812 386.07854,395.723725 385.813066,395.723725 L383.532061,395.723725 L383.532061,398.00473 C383.532061,398.270204 383.270148,398.485413 382.947061,398.485413 C382.623974,398.485413 382.362061,398.270204 382.362061,398.00473 L382.362061,395.723725 L380.081056,395.723725 C379.815582,395.723725 379.600373,395.461812 379.600373,395.138725 C379.600373,394.815639 379.815582,394.553725 380.081056,394.553725 L382.362061,394.553725 Z" id="Create-block"></path>
        </g>
    </g>
</svg>