<?xml version="1.0" encoding="UTF-8"?>
<svg width="14px" height="14px" viewBox="0 0 14 14" version="1.1" xmlns="http://www.w3.org/2000/svg" xmlns:xlink="http://www.w3.org/1999/xlink">
    <!-- Generator: Sketch 55 (78076) - https://sketchapp.com -->
    <title>Demote</title>
    <desc>Created with Sketch.</desc>
    <g id="Page-1" stroke="none" stroke-width="1" fill="none" fill-rule="evenodd">
        <g id="Icons-Used-Copy" transform="translate(-476.000000, -624.000000)" fill="#BBBCBC">
            <path d="M489.919161,628.66595 C489.882054,628.753416 489.830369,628.832932 489.764106,628.896544 L486.435072,632.226903 C486.301222,632.362079 486.120987,632.434968 485.930151,632.434968 C485.739314,632.434968 485.560405,632.362079 485.426555,632.226903 C485.291379,632.093053 485.217165,631.914144 485.217165,631.724633 C485.217165,631.535122 485.291379,631.356213 485.426555,631.221037 L487.537682,629.104608 L476.821838,629.104608 C476.428238,629.104608 476.108852,628.785223 476.108852,628.394273 C476.108852,628.001998 476.428238,627.681287 476.821838,627.681287 L487.537682,627.681287 L485.426555,625.564859 C485.291379,625.429683 485.217165,625.250774 485.217165,625.061263 C485.217165,624.871752 485.291379,624.692843 485.42523,624.558992 C485.560405,624.423816 485.739314,624.349602 485.930151,624.349602 C486.120987,624.349602 486.301222,624.423816 486.435072,624.557667 L489.764106,627.889352 C489.830369,627.952964 489.882054,628.032479 489.919161,628.121271 C489.956268,628.210063 489.974822,628.302831 489.974822,628.394273 C489.974822,628.48439 489.956268,628.575833 489.919161,628.66595 Z M482.10901,633.161937 C482.408133,633.161937 482.65062,633.457048 482.65062,633.821086 C482.65062,634.185124 482.408133,634.480236 482.10901,634.480236 L476.650462,634.480236 C476.351339,634.480236 476.108852,634.185124 476.108852,633.821086 C476.108852,633.457048 476.351339,633.161937 476.650462,633.161937 L482.10901,633.161937 Z M483.10901,630.581774 C483.408133,630.581774 483.65062,630.876886 483.65062,631.240924 C483.65062,631.604962 483.408133,631.900073 483.10901,631.900073 L476.650462,631.900073 C476.351339,631.900073 476.108852,631.604962 476.108852,631.240924 C476.108852,630.876886 476.351339,630.581774 476.650462,630.581774 L483.10901,630.581774 Z M480.10901,635.742099 C480.408133,635.742099 480.65062,636.03721 480.65062,636.401248 C480.65062,636.765287 480.408133,637.060398 480.10901,637.060398 L476.650462,637.060398 C476.351339,637.060398 476.108852,636.765287 476.108852,636.401248 C476.108852,636.03721 476.351339,635.742099 476.650462,635.742099 L480.10901,635.742099 Z" id="Demote"></path>
        </g>
    </g>
</svg>