<?xml version="1.0" encoding="UTF-8"?>
<svg width="19px" height="19px" viewBox="0 0 19 19" version="1.1" xmlns="http://www.w3.org/2000/svg" xmlns:xlink="http://www.w3.org/1999/xlink">
    <!-- Generator: Sketch 55 (78076) - https://sketchapp.com -->
    <title>Edit_without hover</title>
    <desc>Created with Sketch.</desc>
    <g id="Page-1" stroke="none" stroke-width="1" fill="none" fill-rule="evenodd">
        <g id="Icons-Used-Copy" transform="translate(-320.000000, -268.000000)" fill="#97999B">
            <path d="M332.580627,278.401934 C332.254059,278.401934 331.989165,278.13704 331.989165,277.812494 C331.989165,277.484914 332.254059,277.22002 332.580627,277.22002 L335.352918,277.22002 C335.679486,277.22002 335.945392,277.484914 335.945392,277.812494 C335.945392,278.13704 335.679486,278.401934 335.352918,278.401934 L332.580627,278.401934 Z M322.326587,273.653046 L327.382834,278.70727 L328.622378,277.463682 L323.569164,272.410469 L322.326587,273.653046 Z M328.332207,279.430169 L329.688021,279.770892 L329.347298,278.413056 L328.332207,279.430169 Z M330.499892,281.176247 C330.456417,281.176247 330.41092,281.170181 330.35329,281.158049 L327.585043,280.46447 C327.478883,280.437172 327.383845,280.383586 327.31105,280.308769 L321.0739,274.070608 C320.961674,273.958382 320.9,273.809758 320.9,273.653046 C320.9,273.495323 320.961674,273.346699 321.0739,273.235484 L323.151602,271.154749 C323.263828,271.042522 323.412452,270.980848 323.570175,270.980848 C323.72891,270.980848 323.877534,271.042522 323.98976,271.154749 L330.226909,277.391898 C330.301727,277.468738 330.357335,277.566809 330.3816,277.666903 L331.075178,280.439194 C331.124719,280.641403 331.065067,280.856756 330.918466,281.000325 C330.808262,281.112551 330.655593,281.176247 330.499892,281.176247 L330.499892,281.176247 Z M333.272183,281.176247 C332.946626,281.176247 332.681732,280.910342 332.681732,280.583774 C332.681732,280.256195 332.946626,279.9913 333.272183,279.9913 L335.352918,279.9913 C335.679486,279.9913 335.945392,280.256195 335.945392,280.583774 C335.945392,280.910342 335.679486,281.176247 335.352918,281.176247 L333.272183,281.176247 Z M334.558235,272.366994 L336.693567,272.366994 L334.558235,270.230652 L334.558235,272.366994 Z M326.341455,286.02624 C326.015898,286.02624 325.751004,285.760335 325.751004,285.433767 L325.751004,281.967897 C325.751004,281.643351 326.015898,281.378457 326.341455,281.378457 C326.668024,281.378457 326.933929,281.643351 326.933929,281.967897 L326.933929,284.843315 L337.531725,284.843315 L337.531725,273.551941 L333.965762,273.551941 C333.639193,273.551941 333.373288,273.286036 333.373288,272.959468 L333.373288,269.392494 L326.933929,269.392494 L326.933929,270.880755 C326.933929,271.207323 326.668024,271.473228 326.341455,271.473228 C326.015898,271.473228 325.751004,271.207323 325.751004,270.880755 L325.751004,268.80002 C325.751004,268.474463 326.015898,268.209568 326.341455,268.209568 L333.965762,268.209568 C334.042601,268.209568 334.119441,268.225745 334.195269,268.255066 C334.263009,268.283375 334.327716,268.32685 334.386357,268.383469 L338.54075,272.539883 C338.595346,272.593469 338.640843,272.661209 338.670164,272.734004 C338.696451,272.795678 338.710606,272.86544 338.712628,272.943291 L338.716672,285.433767 C338.716672,285.760335 338.451778,286.02624 338.124198,286.02624 L326.341455,286.02624 Z" id="Edit_without-hover"></path>
        </g>
    </g>
</svg>