<?xml version="1.0" encoding="UTF-8"?>
<svg width="17px" height="15px" viewBox="0 0 17 15" version="1.1" xmlns="http://www.w3.org/2000/svg" xmlns:xlink="http://www.w3.org/1999/xlink">
    <!-- Generator: Sketch 55 (78076) - https://sketchapp.com -->
    <title>Filter</title>
    <desc>Created with Sketch.</desc>
    <g id="Page-1" stroke="none" stroke-width="1" fill="none" fill-rule="evenodd">
        <g id="Icons-Used-Copy" transform="translate(-403.000000, -388.000000)" fill="#BBBCBC">
            <path d="M410.077436,402.27745 C409.994936,402.27745 409.910786,402.25765 409.833236,402.2197 C409.646786,402.125815 409.529636,401.9359 409.529636,401.728 L409.529636,394.29805 L403.137536,388.97185 C402.959336,388.82335 402.893336,388.5808 402.972536,388.363 C403.051736,388.1452 403.257986,388 403.488986,388 L418.863687,388 C419.094687,388 419.300937,388.1452 419.380137,388.363 C419.459337,388.5808 419.393337,388.82335 419.215137,388.97185 L412.823037,394.29805 L412.823037,400.0813 C412.823037,400.25455 412.742187,400.41625 412.603586,400.5202 L410.407436,402.16855 C410.310251,402.24115 410.194586,402.27745 410.077436,402.27745 Z M405.005336,389.099065 L410.428886,393.61825 C410.554286,393.72385 410.627051,393.8773 410.627051,394.04065 L410.627051,400.630915 L411.725951,399.8074 L411.725951,394.04065 C411.725951,393.8773 411.798386,393.72385 411.923786,393.61825 L417.347337,389.099065 L405.005336,389.099065 L405.005336,389.099065 Z" id="Filter"></path>
        </g>
    </g>
</svg>