<?xml version="1.0" encoding="UTF-8"?>
<svg width="14px" height="14px" viewBox="0 0 14 14" version="1.1" xmlns="http://www.w3.org/2000/svg" xmlns:xlink="http://www.w3.org/1999/xlink">
    <!-- Generator: Sketch 55 (78076) - https://sketchapp.com -->
    <title>Link to</title>
    <desc>Created with Sketch.</desc>
    <g id="Page-1" stroke="none" stroke-width="1" fill="none" fill-rule="evenodd">
        <g id="Icons-Used-Copy" transform="translate(-297.000000, -624.000000)" fill="#BBBCBC">
            <path d="M309.831193,633.709167 L308.63135,634.909167 L309.831193,636.109166 C310.035622,636.313596 310.035622,636.644771 309.831193,636.8492 C309.728978,636.951415 309.595313,637.002522 309.461647,637.002522 C309.32641,637.002522 309.192744,636.951415 309.09053,636.8492 L307.890688,635.649201 L306.690845,636.8492 C306.588631,636.951415 306.454965,637.002522 306.3213,637.002522 C306.187635,637.002522 306.05397,636.951415 305.951755,636.8492 C305.747326,636.644771 305.747326,636.313596 305.951755,636.109166 L307.151597,634.909167 L305.951755,633.709167 C305.747326,633.504738 305.747326,633.17372 305.951755,632.969291 C306.156184,632.764704 306.486416,632.764704 306.690845,632.969291 L307.890688,634.169133 L309.09053,632.969291 C309.294959,632.764704 309.626763,632.764704 309.831193,632.969291 C310.035622,633.17372 310.035622,633.504738 309.831193,633.709167 Z M302.963943,633.683221 L300.743528,635.903165 C300.446319,636.200688 300.062621,636.370364 299.661625,636.380585 C299.237041,636.381057 298.847053,636.22632 298.523112,635.903165 C298.200743,635.580166 298.035627,635.187191 298.046634,634.766224 C298.05607,634.364913 298.225903,633.980586 298.523112,633.683221 L301.853735,630.352597 C302.150944,630.055074 302.536214,629.885397 302.93721,629.875333 C303.363367,629.873289 303.751782,630.029127 304.074151,630.352597 C304.27858,630.557026 304.610385,630.557026 304.814814,630.352597 C305.019243,630.148168 305.019243,629.81715 304.814814,629.612563 C304.291161,629.088752 303.611827,628.809156 302.910477,628.829127 C302.240578,628.845953 301.60213,629.124449 301.114645,629.612563 L297.784021,632.943187 C297.294964,633.430672 297.016626,634.068963 297.0009,634.739019 C296.98203,635.443828 297.260368,636.120174 297.784021,636.643198 C298.290377,637.150812 298.941405,637.427735 299.623884,637.427735 C299.644327,637.427735 299.666343,637.427263 299.688358,637.426634 C300.358257,637.409808 300.996705,637.131312 301.48419,636.643198 L303.704606,634.423254 C303.909035,634.218825 303.909035,633.88765 303.704606,633.683221 C303.500177,633.478791 303.168373,633.478791 302.963943,633.683221 Z M309.625191,628.502041 C310.112676,628.014398 310.391014,627.376107 310.408312,626.706051 C310.42561,626.0014 310.148844,625.325211 309.625191,624.801872 C309.101537,624.278061 308.423776,624.005699 307.720854,624.018593 C307.050955,624.035262 306.412507,624.313915 305.925022,624.801872 L303.704606,627.021973 C303.500177,627.226402 303.500177,627.557578 303.704606,627.762007 C303.909035,627.966436 304.239267,627.966436 304.443696,627.762007 L306.664112,625.541906 C306.962893,625.24454 307.346591,625.074863 307.747587,625.064642 C308.176888,625.059453 308.562159,625.219536 308.884528,625.541906 C309.20847,625.864904 309.373586,626.25788 309.362578,626.679004 C309.35157,627.080157 309.181737,627.464641 308.884528,627.762007 L305.553904,631.092631 C305.256696,631.389996 304.872998,631.559673 304.472002,631.569894 C304.042701,631.567378 303.65743,631.415786 303.335061,631.092631 C303.130632,630.888201 302.798827,630.888201 302.594398,631.092631 C302.389969,631.29706 302.389969,631.628235 302.594398,631.832664 C303.100754,632.340121 303.753355,632.617044 304.434261,632.617044 C304.456277,632.617044 304.47672,632.616572 304.498735,632.6161 C305.168634,632.599274 305.807082,632.320621 306.294567,631.832664 L309.625191,628.502041 L309.625191,628.502041 Z" id="Link-to"></path>
        </g>
    </g>
</svg>