<?xml version="1.0" encoding="UTF-8"?>
<svg width="15px" height="14px" viewBox="0 0 15 14" version="1.1" xmlns="http://www.w3.org/2000/svg" xmlns:xlink="http://www.w3.org/1999/xlink">
    <!-- Generator: Sketch 55 (78076) - https://sketchapp.com -->
    <title>Promote</title>
    <desc>Created with Sketch.</desc>
    <g id="Page-1" stroke="none" stroke-width="1" fill="none" fill-rule="evenodd">
        <g id="Icons-Used-Copy" transform="translate(-453.000000, -624.000000)" fill="#BBBCBC">
            <path d="M467.581845,628.66595 C467.544738,628.753416 467.493053,628.832932 467.42679,628.896544 L464.097756,632.226903 C463.963905,632.362079 463.783671,632.434968 463.592835,632.434968 C463.401998,632.434968 463.223089,632.362079 463.089239,632.226903 C462.954063,632.093053 462.879849,631.914144 462.879849,631.724633 C462.879849,631.535122 462.954063,631.356213 463.089239,631.221037 L465.200366,629.104608 L454.484521,629.104608 C454.090921,629.104608 453.771536,628.785223 453.771536,628.394273 C453.771536,628.001998 454.090921,627.681287 454.484521,627.681287 L465.200366,627.681287 L463.089239,625.564859 C462.954063,625.429683 462.879849,625.250774 462.879849,625.061263 C462.879849,624.871752 462.954063,624.692843 463.087913,624.558992 C463.223089,624.423816 463.401998,624.349602 463.592835,624.349602 C463.783671,624.349602 463.963905,624.423816 464.097756,624.557667 L467.42679,627.889352 C467.493053,627.952964 467.544738,628.032479 467.581845,628.121271 C467.618952,628.210063 467.637505,628.302831 467.637505,628.394273 C467.637505,628.48439 467.618952,628.575833 467.581845,628.66595 Z M459.771694,633.161937 C460.070817,633.161937 460.313304,633.457048 460.313304,633.821086 C460.313304,634.185124 460.070817,634.480236 459.771694,634.480236 L454.313145,634.480236 C454.014023,634.480236 453.771536,634.185124 453.771536,633.821086 C453.771536,633.457048 454.014023,633.161937 454.313145,633.161937 L459.771694,633.161937 Z M460.771694,630.581774 C461.070817,630.581774 461.313304,630.876886 461.313304,631.240924 C461.313304,631.604962 461.070817,631.900073 460.771694,631.900073 L454.313145,631.900073 C454.014023,631.900073 453.771536,631.604962 453.771536,631.240924 C453.771536,630.876886 454.014023,630.581774 454.313145,630.581774 L460.771694,630.581774 Z M457.771694,635.742099 C458.070817,635.742099 458.313304,636.03721 458.313304,636.401248 C458.313304,636.765287 458.070817,637.060398 457.771694,637.060398 L454.313145,637.060398 C454.014023,637.060398 453.771536,636.765287 453.771536,636.401248 C453.771536,636.03721 454.014023,635.742099 454.313145,635.742099 L457.771694,635.742099 Z" id="Promote" transform="translate(460.704521, 630.705000) scale(-1, 1) translate(-460.704521, -630.705000) "></path>
        </g>
    </g>
</svg>