<?xml version="1.0" encoding="UTF-8"?>
<svg width="10px" height="14px" viewBox="0 0 10 14" version="1.1" xmlns="http://www.w3.org/2000/svg" xmlns:xlink="http://www.w3.org/1999/xlink">
    <!-- Generator: Sketch 55 (78076) - https://sketchapp.com -->
    <title>Remove</title>
    <desc>Created with Sketch.</desc>
    <g id="Page-1" stroke="none" stroke-width="1" fill="none" fill-rule="evenodd">
        <g id="Icons-Used-Copy" transform="translate(-387.000000, -624.000000)" fill="#BBBCBC">
            <path d="M388.166824,626.682395 L396.212034,626.682395 C396.459165,626.682395 396.659288,626.482272 396.659288,626.23514 C396.659288,625.988009 396.459165,625.78802 396.212034,625.78802 L394.711918,625.78802 C394.337191,624.735024 393.333756,624.00021 392.189429,624.00021 C391.124345,624.00021 390.159994,624.631471 389.731677,625.607909 C389.706024,625.668349 389.685877,625.728789 389.664388,625.78802 L388.166824,625.78802 C387.919692,625.78802 387.719569,625.988009 387.719569,626.23514 C387.719569,626.482272 387.919692,626.682395 388.166824,626.682395 Z M392.189429,624.89472 C392.839492,624.89472 393.421058,625.2493 393.735345,625.78802 L390.644856,625.78802 C390.961829,625.241241 391.547424,624.89472 392.189429,624.89472 Z M396.212034,627.576904 L388.166824,627.576904 C387.919692,627.576904 387.719569,627.775684 387.719569,628.022816 C387.719569,628.269947 387.919692,628.470204 388.166824,628.470204 L388.166824,636.962535 C388.166824,637.209667 388.366947,637.40979 388.614078,637.40979 L395.766122,637.40979 C396.011911,637.40979 396.212034,637.209667 396.212034,636.962535 L396.212034,628.470204 C396.459165,628.470204 396.659288,628.269947 396.659288,628.022816 C396.659288,627.775684 396.459165,627.576904 396.212034,627.576904 Z M389.061333,636.515415 L395.318868,636.515415 L395.318868,628.470204 L389.061333,628.470204 L389.061333,636.515415 Z M389.954499,635.17486 L389.954499,629.811834 C389.954499,629.564702 390.154622,629.364579 390.401753,629.364579 C390.648885,629.364579 390.849008,629.564702 390.849008,629.811834 L390.849008,635.17486 C390.849008,635.421991 390.648885,635.622249 390.401753,635.622249 C390.154622,635.622249 389.954499,635.421991 389.954499,635.17486 Z M391.743517,635.17486 L391.743517,629.811834 C391.743517,629.564702 391.94364,629.364579 392.189429,629.364579 C392.43656,629.364579 392.636683,629.564702 392.636683,629.811834 L392.636683,635.17486 C392.636683,635.421991 392.43656,635.622249 392.189429,635.622249 C391.94364,635.622249 391.743517,635.421991 391.743517,635.17486 Z M393.531327,629.811834 C393.531327,629.564702 393.731315,629.364579 393.977104,629.364579 C394.224236,629.364579 394.424359,629.564702 394.424359,629.811834 L394.424359,635.17486 C394.424359,635.421991 394.224236,635.622249 393.977104,635.622249 C393.731315,635.622249 393.531327,635.421991 393.531327,635.17486 L393.531327,629.811834 Z" id="Remove"></path>
        </g>
    </g>
</svg>