<?xml version="1.0" encoding="UTF-8"?>
<svg width="10px" height="10px" viewBox="0 0 10 10" version="1.1" xmlns="http://www.w3.org/2000/svg" xmlns:xlink="http://www.w3.org/1999/xlink">
    <!-- Generator: Sketch 55 (78076) - https://sketchapp.com -->
    <title>Search</title>
    <desc>Created with Sketch.</desc>
    <g id="Page-1" stroke="none" stroke-width="1" fill="none" fill-rule="evenodd">
        <g id="Icons-Used-Copy" transform="translate(-330.000000, -390.000000)" fill="#BBBCBC">
            <path d="M334.475377,397.967848 C332.665377,397.967848 331.185377,396.497848 331.185377,394.677848 C331.185377,392.867848 332.665377,391.387848 334.475377,391.387848 C336.295377,391.387848 337.775377,392.867848 337.775377,394.677848 C337.775377,396.497848 336.295377,397.967848 334.475377,397.967848 M339.205377,398.927848 L337.665377,397.277848 C338.245377,396.567848 338.595377,395.667848 338.595377,394.677848 C338.595377,392.407848 336.745377,390.567848 334.475377,390.567848 C332.205377,390.567848 330.365377,392.407848 330.365377,394.677848 C330.365377,396.947848 332.205377,398.797848 334.475377,398.797848 C335.465377,398.797848 336.375377,398.447848 337.085377,397.867848 L338.615377,399.507848 C338.695377,399.587848 338.805377,399.627848 338.905377,399.627848 C339.015377,399.627848 339.115377,399.587848 339.205377,399.507848 C339.365377,399.347848 339.365377,399.087848 339.205377,398.927848" id="Search"></path>
        </g>
    </g>
</svg>