<?xml version="1.0" encoding="UTF-8"?>
<svg width="13px" height="13px" viewBox="0 0 13 13" version="1.1" xmlns="http://www.w3.org/2000/svg" xmlns:xlink="http://www.w3.org/1999/xlink">
    <!-- Generator: Sketch 55 (78076) - https://sketchapp.com -->
    <title>Select</title>
    <desc>Created with Sketch.</desc>
    <g id="Page-1" stroke="none" stroke-width="1" fill="none" fill-rule="evenodd">
        <g id="Icons-Used-Copy" transform="translate(-247.000000, -624.000000)" fill="#979797" fill-rule="nonzero">
            <path d="M249.4,624.890638 L257.4,624.890638 C258.504569,624.890638 259.4,625.786069 259.4,626.890638 L259.4,634.890638 C259.4,635.995208 258.504569,636.890638 257.4,636.890638 L249.4,636.890638 C248.295431,636.890638 247.4,635.995208 247.4,634.890638 L247.4,626.890638 C247.4,625.786069 248.295431,624.890638 249.4,624.890638 Z M249.4,626.090638 C248.958172,626.090638 248.6,626.448811 248.6,626.890638 L248.6,634.890638 C248.6,635.332466 248.958172,635.690638 249.4,635.690638 L257.4,635.690638 C257.841828,635.690638 258.2,635.332466 258.2,634.890638 L258.2,626.890638 C258.2,626.448811 257.841828,626.090638 257.4,626.090638 L249.4,626.090638 Z M250.874453,631.490638 C250.543082,631.490638 250.274453,631.222009 250.274453,630.890638 C250.274453,630.559267 250.543082,630.290638 250.874453,630.290638 L255.925547,630.290638 C256.256918,630.290638 256.525547,630.559267 256.525547,630.890638 C256.525547,631.222009 256.256918,631.490638 255.925547,631.490638 L250.874453,631.490638 Z" id="Select"></path>
        </g>
    </g>
</svg>