<?xml version="1.0" encoding="UTF-8"?>
<svg width="14px" height="14px" viewBox="0 0 14 14" version="1.1" xmlns="http://www.w3.org/2000/svg" xmlns:xlink="http://www.w3.org/1999/xlink">
    <!-- Generator: Sketch 55 (78076) - https://sketchapp.com -->
    <title>Ungroup</title>
    <desc>Created with Sketch.</desc>
    <g id="Page-1" stroke="none" stroke-width="1" fill="none" fill-rule="evenodd">
        <g id="Icons-Used-Copy" transform="translate(-340.000000, -624.000000)" fill="#BBBCBC">
            <path d="M341.324993,626.28615 L342.663049,626.28615 L342.663049,624.948094 L341.324993,624.948094 L341.324993,626.28615 Z M348.133037,626.28615 L349.469063,626.28615 L349.469063,624.948094 L348.133037,624.948094 L348.133037,626.28615 Z M351.537059,629.690173 L352.873085,629.690173 L352.873085,628.352117 L351.537059,628.352117 L351.537059,629.690173 Z M342.460005,630.82417 L343.129033,630.82417 C343.385883,630.82417 343.594002,631.033305 343.594002,631.290154 L343.594002,631.959182 L347.201068,631.959182 L347.201068,631.290154 C347.201068,631.033305 347.410203,630.82417 347.667053,630.82417 L348.336081,630.82417 L348.336081,627.216089 L347.667053,627.216089 C347.410203,627.216089 347.201068,627.00797 347.201068,626.752135 L347.201068,626.083107 L343.594002,626.083107 L343.594002,626.752135 C343.594002,627.00797 343.385883,627.216089 343.129033,627.216089 L342.460005,627.216089 L342.460005,630.82417 Z M341.324993,633.092164 L342.663049,633.092164 L342.663049,631.756139 L341.324993,631.756139 L341.324993,633.092164 Z M348.133037,633.092164 L349.469063,633.092164 L349.469063,631.756139 L348.133037,631.756139 L348.133037,633.092164 Z M345.864027,634.227177 L346.531025,634.227177 C346.78889,634.227177 346.998025,634.436312 346.998025,634.693161 L346.998025,635.361174 L350.60509,635.361174 L350.60509,634.693161 C350.60509,634.436312 350.814225,634.227177 351.071075,634.227177 L351.740103,634.227177 L351.740103,630.620111 L351.071075,630.620111 C350.814225,630.620111 350.60509,630.410977 350.60509,630.154127 L350.60509,629.487129 L349.266019,629.487129 L349.266019,630.82417 L349.935047,630.82417 C350.191897,630.82417 350.401032,631.033305 350.401032,631.290154 L350.401032,633.558149 C350.401032,633.814999 350.191897,634.024134 349.935047,634.024134 L347.667053,634.024134 C347.410203,634.024134 347.201068,633.814999 347.201068,633.558149 L347.201068,632.889121 L345.864027,632.889121 L345.864027,634.227177 Z M344.729015,636.496187 L346.067071,636.496187 L346.067071,635.158131 L344.729015,635.158131 L344.729015,636.496187 Z M351.537059,636.496187 L352.873085,636.496187 L352.873085,635.158131 L351.537059,635.158131 L351.537059,636.496187 Z M351.071075,637.428156 C350.814225,637.428156 350.60509,637.219021 350.60509,636.962171 L350.60509,636.293143 L346.998025,636.293143 L346.998025,636.962171 C346.998025,637.219021 346.78889,637.428156 346.531025,637.428156 L344.26303,637.428156 C344.006181,637.428156 343.797046,637.219021 343.797046,636.962171 L343.797046,634.693161 C343.797046,634.436312 344.006181,634.227177 344.26303,634.227177 L344.932058,634.227177 L344.932058,632.889121 L343.594002,632.889121 L343.594002,633.558149 C343.594002,633.814999 343.385883,634.024134 343.129033,634.024134 L340.859008,634.024134 C340.603173,634.024134 340.395054,633.814999 340.395054,633.558149 L340.395054,631.290154 C340.395054,631.033305 340.603173,630.82417 340.859008,630.82417 L341.528036,630.82417 L341.528036,627.216089 L340.859008,627.216089 C340.603173,627.216089 340.395054,627.00797 340.395054,626.752135 L340.395054,624.48211 C340.395054,624.226275 340.603173,624.018156 340.859008,624.018156 L343.129033,624.018156 C343.385883,624.018156 343.594002,624.226275 343.594002,624.48211 L343.594002,625.151138 L347.201068,625.151138 L347.201068,624.48211 C347.201068,624.226275 347.410203,624.018156 347.667053,624.018156 L349.935047,624.018156 C350.191897,624.018156 350.401032,624.226275 350.401032,624.48211 L350.401032,626.752135 C350.401032,627.00797 350.191897,627.216089 349.935047,627.216089 L349.266019,627.216089 L349.266019,628.55516 L350.60509,628.55516 L350.60509,627.886132 C350.60509,627.629282 350.814225,627.420148 351.071075,627.420148 L353.339069,627.420148 C353.595919,627.420148 353.805054,627.629282 353.805054,627.886132 L353.805054,630.154127 C353.805054,630.410977 353.595919,630.620111 353.339069,630.620111 L352.670042,630.620111 L352.670042,634.227177 L353.339069,634.227177 C353.595919,634.227177 353.805054,634.436312 353.805054,634.693161 L353.805054,636.962171 C353.805054,637.219021 353.595919,637.428156 353.339069,637.428156 L351.071075,637.428156 Z" id="Ungroup"></path>
        </g>
    </g>
</svg>