<?xml version="1.0" encoding="UTF-8"?>
<svg width="28px" height="29px" viewBox="0 0 28 29" version="1.1" xmlns="http://www.w3.org/2000/svg" xmlns:xlink="http://www.w3.org/1999/xlink">
    <!-- Generator: Sketch 55.2 (78181) - https://sketchapp.com -->
    <title>Copy inactive</title>
    <desc>Created with Sketch.</desc>
    <g id="Page-1" stroke="none" stroke-width="1" fill="none" fill-rule="evenodd">
        <g id="Editor-Tab" transform="translate(-616.000000, -348.000000)" fill="#D0D0CE" fill-rule="nonzero">
            <path d="M637.742338,356.816799 C637.805987,356.880448 637.805987,356.944097 637.805987,357.071396 L637.805987,366.618779 C637.805987,367.000674 637.551391,367.255271 637.169495,367.255271 L633.350542,367.255271 L633.350542,370.437732 C633.350542,370.819628 633.095945,371.074224 632.71405,371.074224 L623.803159,371.074224 C623.421264,371.074224 623.166667,370.819628 623.166667,370.437732 L623.166667,357.707888 C623.166667,357.325992 623.421264,357.071396 623.803159,357.071396 L627.622112,357.071396 L627.622112,353.888934 C627.622112,353.507039 627.876709,353.252442 628.258604,353.252442 L634.050683,353.252442 C634.241631,353.252442 634.36893,353.316091 634.496228,353.44339 L637.61504,356.562202 C637.678689,356.625851 637.742338,356.753149 637.742338,356.816799 Z M634.623526,355.352867 L634.623526,356.434903 L635.705563,356.434903 L634.623526,355.352867 Z M632.077558,369.80124 L632.077558,361.526841 L629.531589,361.526841 C629.149693,361.526841 628.895097,361.272244 628.895097,360.890349 L628.895097,358.34438 L624.439651,358.34438 L624.439651,369.80124 L632.077558,369.80124 Z M630.168081,360.253857 L631.250118,360.253857 L630.168081,359.17182 L630.168081,360.253857 Z M636.533003,365.982287 L636.533003,357.707888 L633.987034,357.707888 C633.605139,357.707888 633.350542,357.453291 633.350542,357.071396 L633.350542,354.525427 L628.895097,354.525427 L628.895097,357.071396 L629.595238,357.071396 C629.786186,357.071396 629.913484,357.135045 630.040783,357.262343 L633.159594,360.381155 C633.223244,360.444804 633.286893,360.508454 633.286893,360.572103 C633.350542,360.699401 633.350542,360.76305 633.350542,360.890349 L633.350542,365.982287 L636.533003,365.982287 Z M630,349.496667 C622.941667,349.496667 617.166667,355.271667 617.166667,362.33 C617.166667,369.388333 622.941667,375.163333 630,375.163333 C637.058333,375.163333 642.833333,369.388333 642.833333,362.33 C642.833333,355.271667 637.058333,349.496667 630,349.496667 Z M630,348.33 C637.758333,348.33 644,354.571667 644,362.33 C644,370.088333 637.758333,376.33 630,376.33 C622.241667,376.33 616,370.088333 616,362.33 C616,354.571667 622.241667,348.33 630,348.33 Z" id="Copy-inactive"></path>
        </g>
    </g>
</svg>