<?xml version="1.0" encoding="UTF-8"?>
<svg width="28px" height="29px" viewBox="0 0 28 29" version="1.1" xmlns="http://www.w3.org/2000/svg" xmlns:xlink="http://www.w3.org/1999/xlink">
    <!-- Generator: Sketch 55.2 (78181) - https://sketchapp.com -->
    <title>Cut inactive</title>
    <desc>Created with Sketch.</desc>
    <g id="Page-1" stroke="none" stroke-width="1" fill="none" fill-rule="evenodd">
        <g id="Editor-Tab" transform="translate(-616.000000, -312.000000)" fill="#D0D0CE" fill-rule="nonzero">
            <path d="M630,323.716667 C629.65,323.716667 629.416667,323.483333 629.416667,323.133333 L629.416667,317.883333 C629.416667,317.533333 629.65,317.3 630,317.3 C630.35,317.3 630.583333,317.533333 630.583333,317.883333 L630.583333,323.133333 C630.583333,323.483333 630.35,323.716667 630,323.716667 Z M638.108333,322.9 C638.166667,323.191667 637.991667,323.541667 637.7,323.658333 L630.583333,325.758333 L630.583333,330.25 C630.991667,330.366667 631.4,330.6 631.691667,330.891667 C632.1,331.3 632.333333,331.883333 632.333333,332.525 C632.333333,333.75 631.283333,334.8 630,334.8 C629.941667,334.8 629.941667,334.8 629.941667,334.8 C629.3,334.8 628.716667,334.566667 628.308333,334.1 C627.9,333.691667 627.666667,333.108333 627.666667,332.466667 C627.666667,331.416667 628.425,330.483333 629.416667,330.25 L629.416667,326.108333 L625.916667,327.158333 C625.916667,327.158333 625.916667,327.216667 625.916667,327.216667 C625.916667,327.8 625.683333,328.383333 625.216667,328.85 C624.808333,329.316667 624.225,329.55 623.583333,329.55 C623,329.55 622.416667,329.316667 621.95,328.85 C621.483333,328.441667 621.25,327.858333 621.25,327.216667 C621.25,326.575 621.483333,325.991667 621.95,325.583333 C622.358333,325.116667 622.941667,324.883333 623.583333,324.883333 C624.225,324.883333 624.808333,325.116667 625.275,325.525 C625.391667,325.7 625.508333,325.816667 625.625,325.991667 L637.408333,322.491667 C637.7,322.433333 637.991667,322.608333 638.108333,322.9 Z M624.4,328.033333 C624.633333,327.8 624.75,327.508333 624.75,327.216667 C624.75,326.925 624.633333,326.633333 624.4,326.4 C624.166667,326.166667 623.875,326.05 623.583333,326.05 C623.291667,326.05 623,326.166667 622.766667,326.4 C622.533333,326.633333 622.416667,326.925 622.416667,327.216667 C622.416667,327.508333 622.533333,327.8 622.766667,328.033333 C623,328.266667 623.291667,328.383333 623.583333,328.383333 C623.875,328.383333 624.166667,328.266667 624.4,328.033333 Z M630.816667,331.65 C630.641667,331.416667 630.35,331.3 630,331.3 C629.358333,331.3 628.833333,331.825 628.833333,332.466667 C628.833333,332.758333 628.95,333.05 629.183333,333.283333 C629.416667,333.516667 629.708333,333.633333 630,333.633333 C630.641667,333.633333 631.166667,333.108333 631.166667,332.466667 C631.166667,332.175 631.05,331.883333 630.816667,331.65 Z M630,313.216667 C622.941667,313.216667 617.166667,318.991667 617.166667,326.05 C617.166667,333.108333 622.941667,338.883333 630,338.883333 C637.058333,338.883333 642.833333,333.108333 642.833333,326.05 C642.833333,318.991667 637.058333,313.216667 630,313.216667 Z M630,312.05 C637.758333,312.05 644,318.291667 644,326.05 C644,333.808333 637.758333,340.05 630,340.05 C622.241667,340.05 616,333.808333 616,326.05 C616,318.291667 622.241667,312.05 630,312.05 Z" id="Cut-inactive"></path>
        </g>
    </g>
</svg>