<?xml version="1.0" encoding="UTF-8"?>
<svg width="28px" height="29px" viewBox="0 0 28 29" version="1.1" xmlns="http://www.w3.org/2000/svg" xmlns:xlink="http://www.w3.org/1999/xlink">
    <!-- Generator: Sketch 55.2 (78181) - https://sketchapp.com -->
    <title>Paste inactive</title>
    <desc>Created with Sketch.</desc>
    <g id="Page-1" stroke="none" stroke-width="1" fill="none" fill-rule="evenodd">
        <g id="Editor-Tab" transform="translate(-652.000000, -312.000000)" fill="#D0D0CE" fill-rule="nonzero">
            <path d="M671.833333,323.075578 C672.183333,323.075578 672.416667,323.306601 672.416667,323.653135 L672.416667,334.049175 C672.416667,334.39571 672.183333,334.626733 671.833333,334.626733 L660.166667,334.626733 C659.816667,334.626733 659.583333,334.39571 659.583333,334.049175 L659.583333,319.032673 C659.583333,318.686139 659.816667,318.455116 660.166667,318.455116 L661.916667,318.455116 L661.916667,317.877558 C661.916667,317.531023 662.15,317.3 662.5,317.3 L668.333333,317.3 C668.683333,317.3 668.916667,317.531023 668.916667,317.877558 L668.916667,318.455116 L670.666667,318.455116 C671.016667,318.455116 671.25,318.686139 671.25,319.032673 L671.25,323.075578 L671.833333,323.075578 Z M667.75,318.455116 L663.083333,318.455116 L663.083333,319.032673 L663.083333,319.610231 L667.75,319.610231 L667.75,318.455116 Z M660.75,319.610231 L660.75,333.471617 L663.083333,333.471617 L663.083333,323.653135 C663.083333,323.306601 663.316667,323.075578 663.666667,323.075578 L670.083333,323.075578 L670.083333,319.610231 L668.916667,319.610231 L668.916667,320.187789 C668.916667,320.534323 668.683333,320.765347 668.333333,320.765347 L662.5,320.765347 C662.15,320.765347 661.916667,320.534323 661.916667,320.187789 L661.916667,319.610231 L660.75,319.610231 Z M671.25,333.471617 L671.25,324.230693 L664.25,324.230693 L664.25,333.471617 L671.25,333.471617 Z M669.5,325.963366 C669.85,325.963366 670.083333,326.194389 670.083333,326.540924 C670.083333,326.887459 669.85,327.118482 669.5,327.118482 L666,327.118482 C665.65,327.118482 665.416667,326.887459 665.416667,326.540924 C665.416667,326.194389 665.65,325.963366 666,325.963366 L669.5,325.963366 Z M669.5,328.273597 C669.85,328.273597 670.083333,328.50462 670.083333,328.851155 C670.083333,329.19769 669.85,329.428713 669.5,329.428713 L666,329.428713 C665.65,329.428713 665.416667,329.19769 665.416667,328.851155 C665.416667,328.50462 665.65,328.273597 666,328.273597 L669.5,328.273597 Z M669.5,330.583828 C669.85,330.583828 670.083333,330.814851 670.083333,331.161386 C670.083333,331.507921 669.85,331.738944 669.5,331.738944 L666,331.738944 C665.65,331.738944 665.416667,331.507921 665.416667,331.161386 C665.416667,330.814851 665.65,330.583828 666,330.583828 L669.5,330.583828 Z M666,313.216667 C658.941667,313.216667 653.166667,318.991667 653.166667,326.05 C653.166667,333.108333 658.941667,338.883333 666,338.883333 C673.058333,338.883333 678.833333,333.108333 678.833333,326.05 C678.833333,318.991667 673.058333,313.216667 666,313.216667 Z M666,312.05 C673.758333,312.05 680,318.291667 680,326.05 C680,333.808333 673.758333,340.05 666,340.05 C658.241667,340.05 652,333.808333 652,326.05 C652,318.291667 658.241667,312.05 666,312.05 Z" id="Paste-inactive"></path>
        </g>
    </g>
</svg>