<?xml version="1.0" encoding="UTF-8"?>
<svg width="13px" height="19px" viewBox="0 0 13 19" version="1.1" xmlns="http://www.w3.org/2000/svg" xmlns:xlink="http://www.w3.org/1999/xlink">
    <!-- Generator: Sketch 55.2 (78181) - https://sketchapp.com -->
    <title>Remove inactive</title>
    <desc>Created with Sketch.</desc>
    <g id="Page-1" stroke="none" stroke-width="1" fill="none" fill-rule="evenodd">
        <g id="Editor-Tab" transform="translate(-366.000000, -364.000000)" fill="#D0D0CE">
            <path d="M367.33157,367.804243 L378.332435,367.804243 C378.670358,367.804243 378.944003,367.527862 378.944003,367.18656 C378.944003,366.845258 378.670358,366.569063 378.332435,366.569063 L376.281205,366.569063 C375.768811,365.114818 374.396733,364.1 372.832002,364.1 C371.375627,364.1 370.056993,364.971805 369.471321,366.32032 C369.436243,366.403791 369.408695,366.487261 369.37931,366.569063 L367.33157,366.569063 C366.993646,366.569063 366.720002,366.845258 366.720002,367.18656 C366.720002,367.527862 366.993646,367.804243 367.33157,367.804243 Z M372.832002,365.335366 C373.720887,365.335366 374.516108,365.825061 374.945858,366.569063 L370.719983,366.569063 C371.153406,365.813931 371.954137,365.335366 372.832002,365.335366 Z M378.332435,369.039609 L367.33157,369.039609 C366.993646,369.039609 366.720002,369.314135 366.720002,369.655437 C366.720002,369.99674 366.993646,370.273306 367.33157,370.273306 L367.33157,382.001678 C367.33157,382.34298 367.605214,382.619361 367.943137,382.619361 L377.722705,382.619361 C378.058791,382.619361 378.332435,382.34298 378.332435,382.001678 L378.332435,370.273306 C378.670358,370.273306 378.944003,369.99674 378.944003,369.655437 C378.944003,369.314135 378.670358,369.039609 378.332435,369.039609 Z M368.554704,381.38418 L377.111137,381.38418 L377.111137,370.273306 L368.554704,370.273306 L368.554704,381.38418 Z M369.776002,379.532801 L369.776002,372.126169 C369.776002,371.784867 370.049647,371.508486 370.38757,371.508486 C370.725493,371.508486 370.999137,371.784867 370.999137,372.126169 L370.999137,379.532801 C370.999137,379.874103 370.725493,380.150669 370.38757,380.150669 C370.049647,380.150669 369.776002,379.874103 369.776002,379.532801 Z M372.222272,379.532801 L372.222272,372.126169 C372.222272,371.784867 372.495916,371.508486 372.832002,371.508486 C373.169926,371.508486 373.44357,371.784867 373.44357,372.126169 L373.44357,379.532801 C373.44357,379.874103 373.169926,380.150669 372.832002,380.150669 C372.495916,380.150669 372.222272,379.874103 372.222272,379.532801 Z M374.666888,372.126169 C374.666888,371.784867 374.940349,371.508486 375.276435,371.508486 C375.614358,371.508486 375.888003,371.784867 375.888003,372.126169 L375.888003,379.532801 C375.888003,379.874103 375.614358,380.150669 375.276435,380.150669 C374.940349,380.150669 374.666888,379.874103 374.666888,379.532801 L374.666888,372.126169 Z" id="Remove-inactive"></path>
        </g>
    </g>
</svg>