<?xml version="1.0" encoding="UTF-8"?>
<svg width="39px" height="39px" viewBox="0 0 39 39" version="1.1" xmlns="http://www.w3.org/2000/svg" xmlns:xlink="http://www.w3.org/1999/xlink">
    <!-- Generator: Sketch 55.2 (78181) - https://sketchapp.com -->
    <title>Unstack inactive</title>
    <desc>Created with Sketch.</desc>
    <g id="Page-1" stroke="none" stroke-width="1" fill="none" fill-rule="evenodd">
        <g id="Editor-Tab" transform="translate(-254.000000, -309.000000)" fill="#D0D0CE">
            <path d="M273.779998,310.864745 C264.176517,310.864745 256.361943,318.679319 256.361943,328.282799 C256.361943,337.88628 264.176517,345.698475 273.779998,345.698475 C283.383478,345.698475 291.195673,337.88628 291.195673,328.282799 C291.195673,318.679319 283.383478,310.864745 273.779998,310.864745 Z M273.779998,309.282799 C284.273174,309.282799 292.779998,317.789623 292.779998,328.282799 C292.779998,338.775976 284.273174,347.282799 273.779998,347.282799 C263.286821,347.282799 254.779998,338.775976 254.779998,328.282799 C254.779998,317.789623 263.286821,309.282799 273.779998,309.282799 Z M281.277337,328.28198 L280.595295,328.28198 L280.595295,332.371978 L281.277337,332.371978 C281.654201,332.371978 281.959378,332.677155 281.959378,333.054019 L281.959378,335.780138 C281.959378,336.157002 281.654201,336.46218 281.277337,336.46218 L278.551218,336.46218 C278.174559,336.46218 277.869176,336.157002 277.869176,335.780138 L277.869176,335.098096 L273.779179,335.098096 L273.779179,335.780138 C273.779179,336.157002 273.473796,336.46218 273.096932,336.46218 L270.370813,336.46218 C269.993949,336.46218 269.688771,336.157002 269.688771,335.780138 L269.688771,333.054019 C269.688771,332.677155 269.993949,332.371978 270.370813,332.371978 L271.052855,332.371978 L271.052855,331.007894 L269.688771,331.007894 L269.688771,331.689936 C269.688771,332.067004 269.383593,332.371978 269.008778,332.371978 L266.280611,332.371978 C265.905795,332.371978 265.600617,332.067004 265.600617,331.689936 L265.600617,328.963817 C265.600617,328.586953 265.905795,328.28198 266.280611,328.28198 L266.962652,328.28198 L266.962652,324.191573 L266.280611,324.191573 C265.905795,324.191573 265.600617,323.888443 265.600617,323.511784 L265.600617,320.783412 C265.600617,320.406548 265.905795,320.103419 266.280611,320.103419 L269.008778,320.103419 C269.383593,320.103419 269.688771,320.406548 269.688771,320.783412 L269.688771,321.465454 L273.779179,321.465454 L273.779179,320.783412 C273.779179,320.406548 274.084152,320.103419 274.46122,320.103419 L277.187134,320.103419 C277.563998,320.103419 277.869176,320.406548 277.869176,320.783412 L277.869176,323.511784 C277.869176,323.888443 277.563998,324.191573 277.187134,324.191573 L276.505093,324.191573 L276.505093,325.555656 L277.869176,325.555656 L277.869176,324.873615 C277.869176,324.496751 278.174559,324.191573 278.551218,324.191573 L281.277337,324.191573 C281.654201,324.191573 281.959378,324.496751 281.959378,324.873615 L281.959378,327.599733 C281.959378,327.976597 281.654201,328.28198 281.277337,328.28198 Z M279.23326,326.91974 L280.595295,326.91974 L280.595295,325.555656 L279.23326,325.555656 L279.23326,326.91974 Z M275.143262,331.007894 L276.505093,331.007894 L276.505093,329.645859 L275.143262,329.645859 L275.143262,331.007894 Z M275.143262,322.829537 L276.505093,322.829537 L276.505093,321.465454 L275.143262,321.465454 L275.143262,322.829537 Z M266.962652,322.829537 L268.326736,322.829537 L268.326736,321.465454 L266.962652,321.465454 L266.962652,322.829537 Z M266.962652,331.007894 L268.326736,331.007894 L268.326736,329.645859 L266.962652,329.645859 L266.962652,331.007894 Z M269.008778,328.28198 C269.383593,328.28198 269.688771,328.586953 269.688771,328.963817 L269.688771,329.645859 L273.779179,329.645859 L273.779179,328.963817 C273.779179,328.586953 274.084152,328.28198 274.46122,328.28198 L275.143262,328.28198 L275.143262,324.191573 L274.46122,324.191573 C274.084152,324.191573 273.779179,323.888443 273.779179,323.511784 L273.779179,322.829537 L269.688771,322.829537 L269.688771,323.511784 C269.688771,323.888443 269.383593,324.191573 269.008778,324.191573 L268.326736,324.191573 L268.326736,328.28198 L269.008778,328.28198 Z M271.052855,335.098096 L272.416938,335.098096 L272.416938,333.734013 L271.052855,333.734013 L271.052855,335.098096 Z M279.23326,335.098096 L280.595295,335.098096 L280.595295,333.734013 L279.23326,333.734013 L279.23326,335.098096 Z M279.23326,332.371978 L279.23326,328.28198 L278.551218,328.28198 C278.174559,328.28198 277.869176,327.976597 277.869176,327.599733 L277.869176,326.91974 L276.505093,326.91974 L276.505093,328.28198 L277.187134,328.28198 C277.563998,328.28198 277.869176,328.586953 277.869176,328.963817 L277.869176,331.689936 C277.869176,332.067004 277.563998,332.371978 277.187134,332.371978 L274.46122,332.371978 C274.084152,332.371978 273.779179,332.067004 273.779179,331.689936 L273.779179,331.007894 L272.416938,331.007894 L272.416938,332.371978 L273.096932,332.371978 C273.473796,332.371978 273.779179,332.677155 273.779179,333.054019 L273.779179,333.734013 L277.869176,333.734013 L277.869176,333.054019 C277.869176,332.677155 278.174559,332.371978 278.551218,332.371978 L279.23326,332.371978 Z" id="Unstack-inactive"></path>
        </g>
    </g>
</svg>