<svg xmlns="http://www.w3.org/2000/svg" viewBox="0 0 213.18 212.8"><defs><style>.a{fill:#85bb22;}.b{fill:#666;}</style></defs><title>Asset 1</title><path class="a" d="M106.44,159.76a52.7,52.7,0,0,1-.12-105.4h.13a52.7,52.7,0,0,1,.12,105.4h-.13Zm-.07-88.28a35.58,35.58,0,0,0,.07,71.16h.1a35.58,35.58,0,0,0-.08-71.16Z"/><path class="a" d="M209,92.22A104,104,0,0,0,130.18,5.88a12.19,12.19,0,1,0-4,16.69A86.81,86.81,0,0,1,190,84.79l20.34,17Z"/><path class="b" d="M91.83,4.13A104,104,0,0,0,4.64,86.93a12.2,12.2,0,0,0,7.55,21.77h0a12.19,12.19,0,0,0,9.53-19.77A87.19,87.19,0,0,1,84.33,23.14L101.55,2.76Z"/><path class="b" d="M94.45,188.42A12,12,0,0,0,86.93,191a86.88,86.88,0,0,1-64.27-62.6L2.53,112.67l1.22,8.64a103.61,103.61,0,0,0,81.16,86.85,12.11,12.11,0,0,0,9.56,4.64h0a12.19,12.19,0,1,0,0-24.38Z"/><path class="b" d="M201,104.5a12.18,12.18,0,0,0-9.81,19.39,87.05,87.05,0,0,1-62.45,66.42l-17.17,20.41,9.4-1.33a104,104,0,0,0,87.19-82.81A12.19,12.19,0,0,0,201,104.5Z"/></svg>